solid OpenSCAD_Model
  facet normal 0 0 -1
    outer loop
      vertex -46.4314 0 -5
      vertex -46.2129 2.07912 -5
      vertex -46.2129 -2.07912 -5
    endloop
  endfacet
  facet normal 0 0 -1
    outer loop
      vertex -46.2129 -2.07912 -5
      vertex -46.2129 2.07912 -5
      vertex -45.5669 4.06737 -5
    endloop
  endfacet
  facet normal 0 0 -1
    outer loop
      vertex -46.2129 -2.07912 -5
      vertex -45.5669 4.06737 -5
      vertex -44.5216 5.87785 -5
    endloop
  endfacet
  facet normal 0 0 -1
    outer loop
      vertex -46.2129 -2.07912 -5
      vertex -44.5216 5.87785 -5
      vertex -43.1227 7.43145 -5
    endloop
  endfacet
  facet normal 0 0 -1
    outer loop
      vertex -46.2129 -2.07912 -5
      vertex -43.1227 7.43145 -5
      vertex -41.4314 8.66025 -5
    endloop
  endfacet
  facet normal 0 0 -1
    outer loop
      vertex -46.2129 -2.07912 -5
      vertex -41.4314 8.66025 -5
      vertex -39.5216 9.51056 -5
    endloop
  endfacet
  facet normal 0 0 -1
    outer loop
      vertex -46.2129 -2.07912 -5
      vertex -39.5216 9.51056 -5
      vertex -37.4767 9.94522 -5
    endloop
  endfacet
  facet normal 0 0 -1
    outer loop
      vertex -46.2129 -2.07912 -5
      vertex -37.4767 9.94522 -5
      vertex -35.3862 9.94522 -5
    endloop
  endfacet
  facet normal 0 0 -1
    outer loop
      vertex -46.2129 -2.07912 -5
      vertex -35.3862 9.94522 -5
      vertex -33.3413 9.51056 -5
    endloop
  endfacet
  facet normal 0 0 -1
    outer loop
      vertex -38.8414 3.31697 -5
      vertex -33.3413 9.51056 -5
      vertex -31.4314 8.66025 -5
    endloop
  endfacet
  facet normal 0 0 -1
    outer loop
      vertex -36.4314 4.1 -5
      vertex -31.4314 8.66025 -5
      vertex -29.7401 7.43145 -5
    endloop
  endfacet
  facet normal 0 0 -1
    outer loop
      vertex -35.1645 3.89933 -5
      vertex -29.7401 7.43145 -5
      vertex -28.3413 5.87785 -5
    endloop
  endfacet
  facet normal 0 0 -1
    outer loop
      vertex -34.0215 3.31697 -5
      vertex -28.3413 5.87785 -5
      vertex -27.8344 5 -5
    endloop
  endfacet
  facet normal 0 0 -1
    outer loop
      vertex -32.5321 1.26697 -5
      vertex -27.8344 5 -5
      vertex 0 5 -5
    endloop
  endfacet
  facet normal 0 0 -1
    outer loop
      vertex 38.5314 0 -5
      vertex 40.0684 5 -5
      vertex 63.5253 -22.9548 -5
    endloop
  endfacet
  facet normal 0 0 -1
    outer loop
      vertex 61.0284 -26.7592 -5
      vertex 64.8863 -26.0968 -5
      vertex 64.7956 -28.0698 -5
    endloop
  endfacet
  facet normal 0 0 -1
    outer loop
      vertex 60.2789 -28.4202 -5
      vertex 64.7956 -28.0698 -5
      vertex 64.0692 -29.9065 -5
    endloop
  endfacet
  facet normal 0 0 -1
    outer loop
      vertex 58.5129 -28.8699 -5
      vertex 64.0692 -29.9065 -5
      vertex 62.7857 -31.4078 -5
    endloop
  endfacet
  facet normal 0 0 -1
    outer loop
      vertex 55.4202 -31.6786 -5
      vertex 61.0844 -32.4111 -5
      vertex 59.1494 -32.8075 -5
    endloop
  endfacet
  facet normal 0 0 -1
    outer loop
      vertex 47.2641 -15.4641 -5
      vertex 63.5253 -22.9548 -5
      vertex 63.4781 -22.9944 -5
    endloop
  endfacet
  facet normal 0 0 -1
    outer loop
      vertex 54.3799 -30.6287 -5
      vertex 61.0844 -32.4111 -5
      vertex 55.4202 -31.6786 -5
    endloop
  endfacet
  facet normal 0 0 -1
    outer loop
      vertex 32.7945 -5 -5
      vertex 45.8115 -14.3638 -5
      vertex 47.2641 -15.4641 -5
    endloop
  endfacet
  facet normal 0 0 -1
    outer loop
      vertex -20.1078 0.911156 -5
      vertex -32.3314 0 -5
      vertex -18.683 2.04735 -5
    endloop
  endfacet
  facet normal 0 0 -1
    outer loop
      vertex -34.0215 -3.31697 -5
      vertex 32.7945 -5 -5
      vertex -27.8344 -5 -5
    endloop
  endfacet
  facet normal 0 0 -1
    outer loop
      vertex -40.5314 0 -5
      vertex -46.2129 -2.07912 -5
      vertex -40.3308 1.26697 -5
    endloop
  endfacet
  facet normal 0 0 -1
    outer loop
      vertex -46.2129 -2.07912 -5
      vertex -29.7401 -7.43145 -5
      vertex -31.4314 -8.66025 -5
    endloop
  endfacet
  facet normal 0 0 -1
    outer loop
      vertex -46.2129 -2.07912 -5
      vertex -31.4314 -8.66025 -5
      vertex -33.3413 -9.51056 -5
    endloop
  endfacet
  facet normal 0 0 -1
    outer loop
      vertex -46.2129 -2.07912 -5
      vertex -33.3413 -9.51056 -5
      vertex -35.3862 -9.94522 -5
    endloop
  endfacet
  facet normal 0 0 -1
    outer loop
      vertex -46.2129 -2.07912 -5
      vertex -35.3862 -9.94522 -5
      vertex -37.4767 -9.94522 -5
    endloop
  endfacet
  facet normal 0 0 -1
    outer loop
      vertex -46.2129 -2.07912 -5
      vertex -37.4767 -9.94522 -5
      vertex -39.5216 -9.51056 -5
    endloop
  endfacet
  facet normal 0 0 -1
    outer loop
      vertex -46.2129 -2.07912 -5
      vertex -39.5216 -9.51056 -5
      vertex -41.4314 -8.66025 -5
    endloop
  endfacet
  facet normal 0 0 -1
    outer loop
      vertex -46.2129 -2.07912 -5
      vertex -41.4314 -8.66025 -5
      vertex -43.1227 -7.43145 -5
    endloop
  endfacet
  facet normal 0 0 -1
    outer loop
      vertex -46.2129 -2.07912 -5
      vertex -43.1227 -7.43145 -5
      vertex -44.5216 -5.87785 -5
    endloop
  endfacet
  facet normal 0 0 -1
    outer loop
      vertex -46.2129 -2.07912 -5
      vertex -44.5216 -5.87785 -5
      vertex -45.5669 -4.06737 -5
    endloop
  endfacet
  facet normal 0 0 -1
    outer loop
      vertex -40.3308 -1.26697 -5
      vertex -46.2129 -2.07912 -5
      vertex -40.5314 0 -5
    endloop
  endfacet
  facet normal 0 0 -1
    outer loop
      vertex -39.7484 -2.40992 -5
      vertex -46.2129 -2.07912 -5
      vertex -40.3308 -1.26697 -5
    endloop
  endfacet
  facet normal 0 0 -1
    outer loop
      vertex -38.8414 -3.31697 -5
      vertex -46.2129 -2.07912 -5
      vertex -39.7484 -2.40992 -5
    endloop
  endfacet
  facet normal 0 0 -1
    outer loop
      vertex -36.4314 -4.1 -5
      vertex -28.3413 -5.87785 -5
      vertex -37.6984 -3.89933 -5
    endloop
  endfacet
  facet normal 0 0 -1
    outer loop
      vertex -37.6984 -3.89933 -5
      vertex -46.2129 -2.07912 -5
      vertex -38.8414 -3.31697 -5
    endloop
  endfacet
  facet normal 0 0 -1
    outer loop
      vertex -35.1645 -3.89933 -5
      vertex -28.3413 -5.87785 -5
      vertex -36.4314 -4.1 -5
    endloop
  endfacet
  facet normal 0 0 -1
    outer loop
      vertex -20.1078 -0.911156 -5
      vertex -32.5321 -1.26697 -5
      vertex -32.3314 0 -5
    endloop
  endfacet
  facet normal 0 0 -1
    outer loop
      vertex -20.1078 -0.911156 -5
      vertex -32.3314 0 -5
      vertex -20.1078 0.911156 -5
    endloop
  endfacet
  facet normal 0 0 -1
    outer loop
      vertex -33.1145 -2.40992 -5
      vertex 32.7945 -5 -5
      vertex -34.0215 -3.31697 -5
    endloop
  endfacet
  facet normal 0 0 -1
    outer loop
      vertex -32.5321 1.26697 -5
      vertex 0 5 -5
      vertex -32.3314 0 -5
    endloop
  endfacet
  facet normal 0 0 -1
    outer loop
      vertex 2.2 0 -5
      vertex 32.7945 -5 -5
      vertex 1.37168 -1.72003 -5
    endloop
  endfacet
  facet normal 0 0 -1
    outer loop
      vertex -33.1145 2.40992 -5
      vertex -27.8344 5 -5
      vertex -32.5321 1.26697 -5
    endloop
  endfacet
  facet normal 0 0 -1
    outer loop
      vertex -34.0215 3.31697 -5
      vertex -27.8344 5 -5
      vertex -33.1145 2.40992 -5
    endloop
  endfacet
  facet normal 0 0 -1
    outer loop
      vertex -37.6984 3.89933 -5
      vertex -31.4314 8.66025 -5
      vertex -36.4314 4.1 -5
    endloop
  endfacet
  facet normal 0 0 -1
    outer loop
      vertex -38.8414 3.31697 -5
      vertex -31.4314 8.66025 -5
      vertex -37.6984 3.89933 -5
    endloop
  endfacet
  facet normal 0 0 -1
    outer loop
      vertex -46.2129 -2.07912 -5
      vertex -33.3413 9.51056 -5
      vertex -38.8414 3.31697 -5
    endloop
  endfacet
  facet normal 0 0 -1
    outer loop
      vertex -39.7484 2.40992 -5
      vertex -46.2129 -2.07912 -5
      vertex -38.8414 3.31697 -5
    endloop
  endfacet
  facet normal 0 0 -1
    outer loop
      vertex -40.3308 1.26697 -5
      vertex -46.2129 -2.07912 -5
      vertex -39.7484 2.40992 -5
    endloop
  endfacet
  facet normal 0 0 -1
    outer loop
      vertex -32.3314 0 -5
      vertex 0 5 -5
      vertex -18.683 2.04735 -5
    endloop
  endfacet
  facet normal 0 0 -1
    outer loop
      vertex -1.98213 0.954544 -5
      vertex -16.9064 1.64185 -5
      vertex -0.489546 2.14484 -5
    endloop
  endfacet
  facet normal 0 0 -1
    outer loop
      vertex -1.98213 -0.954544 -5
      vertex -16.9064 -1.64185 -5
      vertex -1.98213 0.954544 -5
    endloop
  endfacet
  facet normal 0 0 -1
    outer loop
      vertex -16.9064 1.64185 -5
      vertex 40.0684 5 -5
      vertex -0.489546 2.14484 -5
    endloop
  endfacet
  facet normal 0 0 -1
    outer loop
      vertex -32.5321 -1.26697 -5
      vertex -20.1078 -0.911156 -5
      vertex -33.1145 -2.40992 -5
    endloop
  endfacet
  facet normal 0 0 -1
    outer loop
      vertex 19.5251 -1.64185 -5
      vertex 32.7945 -5 -5
      vertex 17.7484 -2.04735 -5
    endloop
  endfacet
  facet normal 0 0 -1
    outer loop
      vertex -33.1145 -2.40992 -5
      vertex -18.683 -2.04735 -5
      vertex 32.7945 -5 -5
    endloop
  endfacet
  facet normal 0 0 -1
    outer loop
      vertex -16.1157 0 -5
      vertex -1.98213 0.954544 -5
      vertex -16.9064 -1.64185 -5
    endloop
  endfacet
  facet normal 0 0 -1
    outer loop
      vertex 2.2 0 -5
      vertex 16.3237 0.911156 -5
      vertex 16.3237 -0.911156 -5
    endloop
  endfacet
  facet normal 0 0 -1
    outer loop
      vertex -18.683 -2.04735 -5
      vertex -33.1145 -2.40992 -5
      vertex -20.1078 -0.911156 -5
    endloop
  endfacet
  facet normal 0 0 -1
    outer loop
      vertex -1.98213 0.954544 -5
      vertex -16.1157 0 -5
      vertex -16.9064 1.64185 -5
    endloop
  endfacet
  facet normal 0 0 -1
    outer loop
      vertex 0 5 -5
      vertex -16.9064 1.64185 -5
      vertex -18.683 2.04735 -5
    endloop
  endfacet
  facet normal 0 0 -1
    outer loop
      vertex -1.98213 -0.954544 -5
      vertex -18.683 -2.04735 -5
      vertex -16.9064 -1.64185 -5
    endloop
  endfacet
  facet normal 0 0 -1
    outer loop
      vertex -16.9064 1.64185 -5
      vertex 0 5 -5
      vertex 40.0684 5 -5
    endloop
  endfacet
  facet normal 0 0 -1
    outer loop
      vertex -18.683 -2.04735 -5
      vertex -1.98213 -0.954544 -5
      vertex -0.489546 -2.14484 -5
    endloop
  endfacet
  facet normal 0 0 -1
    outer loop
      vertex -18.683 -2.04735 -5
      vertex -0.489546 -2.14484 -5
      vertex 32.7945 -5 -5
    endloop
  endfacet
  facet normal 0 0 -1
    outer loop
      vertex -0.489546 -2.14484 -5
      vertex 1.37168 -1.72003 -5
      vertex 32.7945 -5 -5
    endloop
  endfacet
  facet normal 0 0 -1
    outer loop
      vertex 17.7484 2.04735 -5
      vertex 40.0684 5 -5
      vertex 19.5251 1.64185 -5
    endloop
  endfacet
  facet normal 0 0 -1
    outer loop
      vertex -0.489546 2.14484 -5
      vertex 40.0684 5 -5
      vertex 1.37168 1.72003 -5
    endloop
  endfacet
  facet normal 0 0 -1
    outer loop
      vertex 2.2 0 -5
      vertex 17.7484 -2.04735 -5
      vertex 32.7945 -5 -5
    endloop
  endfacet
  facet normal 0 0 -1
    outer loop
      vertex 16.3237 0.911156 -5
      vertex 2.2 0 -5
      vertex 17.7484 2.04735 -5
    endloop
  endfacet
  facet normal 0 0 -1
    outer loop
      vertex 2.2 0 -5
      vertex 16.3237 -0.911156 -5
      vertex 17.7484 -2.04735 -5
    endloop
  endfacet
  facet normal 0 0 -1
    outer loop
      vertex 35.9641 -2.04735 -5
      vertex 32.7945 -5 -5
      vertex 34.5394 -0.911156 -5
    endloop
  endfacet
  facet normal 0 0 -1
    outer loop
      vertex 20.3157 0 -5
      vertex 32.7945 -5 -5
      vertex 19.5251 -1.64185 -5
    endloop
  endfacet
  facet normal 0 0 -1
    outer loop
      vertex 19.5251 1.64185 -5
      vertex 40.0684 5 -5
      vertex 20.3157 0 -5
    endloop
  endfacet
  facet normal 0 0 -1
    outer loop
      vertex 2.2 0 -5
      vertex 40.0684 5 -5
      vertex 17.7484 2.04735 -5
    endloop
  endfacet
  facet normal 0 0 -1
    outer loop
      vertex 1.37168 1.72003 -5
      vertex 40.0684 5 -5
      vertex 2.2 0 -5
    endloop
  endfacet
  facet normal 0 0 -1
    outer loop
      vertex 45.8115 -14.3638 -5
      vertex 32.7945 -5 -5
      vertex 45.7661 -12.5421 -5
    endloop
  endfacet
  facet normal 0 0 -1
    outer loop
      vertex 20.3157 0 -5
      vertex 34.5394 0.911156 -5
      vertex 32.7945 -5 -5
    endloop
  endfacet
  facet normal 0 0 -1
    outer loop
      vertex 34.5394 0.911156 -5
      vertex 34.5394 -0.911156 -5
      vertex 32.7945 -5 -5
    endloop
  endfacet
  facet normal 0 0 -1
    outer loop
      vertex 35.9641 2.04735 -5
      vertex 40.0684 5 -5
      vertex 37.7408 1.64185 -5
    endloop
  endfacet
  facet normal 0 0 -1
    outer loop
      vertex 48.9482 -11.7318 -5
      vertex 37.7408 -1.64185 -5
      vertex 63.5253 -22.9548 -5
    endloop
  endfacet
  facet normal 0 0 -1
    outer loop
      vertex 37.7408 -1.64185 -5
      vertex 38.5314 0 -5
      vertex 63.5253 -22.9548 -5
    endloop
  endfacet
  facet normal 0 0 -1
    outer loop
      vertex 37.7408 1.64185 -5
      vertex 40.0684 5 -5
      vertex 38.5314 0 -5
    endloop
  endfacet
  facet normal 0 0 -1
    outer loop
      vertex 20.3157 0 -5
      vertex 40.0684 5 -5
      vertex 35.9641 2.04735 -5
    endloop
  endfacet
  facet normal 0 0 -1
    outer loop
      vertex 20.3157 0 -5
      vertex 35.9641 2.04735 -5
      vertex 34.5394 0.911156 -5
    endloop
  endfacet
  facet normal 0 0 -1
    outer loop
      vertex 32.7945 -5 -5
      vertex 35.9641 -2.04735 -5
      vertex 45.7661 -12.5421 -5
    endloop
  endfacet
  facet normal 0 0 -1
    outer loop
      vertex -29.7401 -7.43145 -5
      vertex -46.2129 -2.07912 -5
      vertex -37.6984 -3.89933 -5
    endloop
  endfacet
  facet normal 0 0 -1
    outer loop
      vertex -29.7401 -7.43145 -5
      vertex -37.6984 -3.89933 -5
      vertex -28.3413 -5.87785 -5
    endloop
  endfacet
  facet normal 0 0 -1
    outer loop
      vertex 49.0301 -15.0145 -5
      vertex 63.5253 -22.9548 -5
      vertex 47.2641 -15.4641 -5
    endloop
  endfacet
  facet normal 0 0 -1
    outer loop
      vertex 49.7796 -13.3534 -5
      vertex 63.5253 -22.9548 -5
      vertex 49.0301 -15.0145 -5
    endloop
  endfacet
  facet normal 0 0 -1
    outer loop
      vertex 60.2789 -28.4202 -5
      vertex 64.0692 -29.9065 -5
      vertex 58.5129 -28.8699 -5
    endloop
  endfacet
  facet normal 0 0 -1
    outer loop
      vertex 48.9482 -11.7318 -5
      vertex 63.5253 -22.9548 -5
      vertex 49.7796 -13.3534 -5
    endloop
  endfacet
  facet normal 0 0 -1
    outer loop
      vertex 35.9641 -2.04735 -5
      vertex 37.7408 -1.64185 -5
      vertex 48.9482 -11.7318 -5
    endloop
  endfacet
  facet normal 0 0 -1
    outer loop
      vertex 47.162 -11.3707 -5
      vertex 35.9641 -2.04735 -5
      vertex 48.9482 -11.7318 -5
    endloop
  endfacet
  facet normal 0 0 -1
    outer loop
      vertex 45.7661 -12.5421 -5
      vertex 35.9641 -2.04735 -5
      vertex 47.162 -11.3707 -5
    endloop
  endfacet
  facet normal 0 0 -1
    outer loop
      vertex 61.0284 -26.7592 -5
      vertex 64.7956 -28.0698 -5
      vertex 60.2789 -28.4202 -5
    endloop
  endfacet
  facet normal 0 0 -1
    outer loop
      vertex 60.197 -25.1376 -5
      vertex 64.8863 -26.0968 -5
      vertex 61.0284 -26.7592 -5
    endloop
  endfacet
  facet normal 0 0 -1
    outer loop
      vertex 55.4202 -31.6786 -5
      vertex 59.1494 -32.8075 -5
      vertex 57.1906 -32.5542 -5
    endloop
  endfacet
  facet normal 0 0 -1
    outer loop
      vertex -36.4314 4.1 -5
      vertex -29.7401 7.43145 -5
      vertex -35.1645 3.89933 -5
    endloop
  endfacet
  facet normal 0 0 -1
    outer loop
      vertex 47.2641 -15.4641 -5
      vertex 63.4781 -22.9944 -5
      vertex 64.3314 -24.2012 -5
    endloop
  endfacet
  facet normal 0 0 -1
    outer loop
      vertex 47.2641 -15.4641 -5
      vertex 64.3314 -24.2012 -5
      vertex 64.8863 -26.0968 -5
    endloop
  endfacet
  facet normal 0 0 -1
    outer loop
      vertex 47.2641 -15.4641 -5
      vertex 64.8863 -26.0968 -5
      vertex 60.197 -25.1376 -5
    endloop
  endfacet
  facet normal 0 0 -1
    outer loop
      vertex 32.7945 -5 -5
      vertex 47.2641 -15.4641 -5
      vertex 60.197 -25.1376 -5
    endloop
  endfacet
  facet normal 0 0 -1
    outer loop
      vertex 32.7945 -5 -5
      vertex 60.197 -25.1376 -5
      vertex 58.4108 -24.7765 -5
    endloop
  endfacet
  facet normal 0 0 -1
    outer loop
      vertex 32.7945 -5 -5
      vertex 58.4108 -24.7765 -5
      vertex 57.0148 -25.9479 -5
    endloop
  endfacet
  facet normal 0 0 -1
    outer loop
      vertex 32.7945 -5 -5
      vertex 57.0148 -25.9479 -5
      vertex 57.0603 -27.7696 -5
    endloop
  endfacet
  facet normal 0 0 -1
    outer loop
      vertex 58.5129 -28.8699 -5
      vertex 62.7857 -31.4078 -5
      vertex 61.0844 -32.4111 -5
    endloop
  endfacet
  facet normal 0 0 -1
    outer loop
      vertex 57.0603 -27.7696 -5
      vertex 58.5129 -28.8699 -5
      vertex 61.0844 -32.4111 -5
    endloop
  endfacet
  facet normal 0 0 -1
    outer loop
      vertex 32.7945 -5 -5
      vertex 57.0603 -27.7696 -5
      vertex 61.0844 -32.4111 -5
    endloop
  endfacet
  facet normal 0 0 -1
    outer loop
      vertex 32.7945 -5 -5
      vertex 61.0844 -32.4111 -5
      vertex 54.3799 -30.6287 -5
    endloop
  endfacet
  facet normal 0 0 -1
    outer loop
      vertex 32.7945 -5 -5
      vertex 54.3799 -30.6287 -5
      vertex 54.3327 -30.6683 -5
    endloop
  endfacet
  facet normal 0 0 -1
    outer loop
      vertex -35.1645 3.89933 -5
      vertex -28.3413 5.87785 -5
      vertex -34.0215 3.31697 -5
    endloop
  endfacet
  facet normal 0 0 -1
    outer loop
      vertex -34.0215 -3.31697 -5
      vertex -27.8344 -5 -5
      vertex -35.1645 -3.89933 -5
    endloop
  endfacet
  facet normal 0 0 -1
    outer loop
      vertex -28.3413 -5.87785 -5
      vertex -35.1645 -3.89933 -5
      vertex -27.8344 -5 -5
    endloop
  endfacet
  facet normal -0.994522 0.104528 0
    outer loop
      vertex -46.4314 0 -5
      vertex -46.4314 0 5
      vertex -46.2129 2.07912 -5
    endloop
  endfacet
  facet normal -0.994522 0.104528 0
    outer loop
      vertex -46.2129 2.07912 -5
      vertex -46.4314 0 5
      vertex -46.2129 2.07912 5
    endloop
  endfacet
  facet normal -0.994522 -0.104528 0
    outer loop
      vertex -46.4314 0 -5
      vertex -46.2129 -2.07912 -5
      vertex -46.4314 0 5
    endloop
  endfacet
  facet normal -0.994522 -0.104528 0
    outer loop
      vertex -46.4314 0 5
      vertex -46.2129 -2.07912 -5
      vertex -46.2129 -2.07912 5
    endloop
  endfacet
  facet normal -0.951057 -0.309017 0
    outer loop
      vertex -46.2129 -2.07912 -5
      vertex -45.5669 -4.06737 -5
      vertex -46.2129 -2.07912 5
    endloop
  endfacet
  facet normal -0.951057 -0.309017 0
    outer loop
      vertex -46.2129 -2.07912 5
      vertex -45.5669 -4.06737 -5
      vertex -45.5669 -4.06737 5
    endloop
  endfacet
  facet normal -0.866025 -0.5 0
    outer loop
      vertex -45.5669 -4.06737 -5
      vertex -44.5216 -5.87785 -5
      vertex -45.5669 -4.06737 5
    endloop
  endfacet
  facet normal -0.866025 -0.5 0
    outer loop
      vertex -45.5669 -4.06737 5
      vertex -44.5216 -5.87785 -5
      vertex -44.5216 -5.87785 5
    endloop
  endfacet
  facet normal -0.743145 -0.669131 0
    outer loop
      vertex -44.5216 -5.87785 -5
      vertex -43.1227 -7.43145 -5
      vertex -44.5216 -5.87785 5
    endloop
  endfacet
  facet normal -0.743145 -0.669131 0
    outer loop
      vertex -44.5216 -5.87785 5
      vertex -43.1227 -7.43145 -5
      vertex -43.1227 -7.43145 5
    endloop
  endfacet
  facet normal -0.587785 -0.809017 0
    outer loop
      vertex -43.1227 -7.43145 5
      vertex -43.1227 -7.43145 -5
      vertex -41.4314 -8.66025 -5
    endloop
  endfacet
  facet normal -0.587785 -0.809017 0
    outer loop
      vertex -41.4314 -8.66025 5
      vertex -43.1227 -7.43145 5
      vertex -41.4314 -8.66025 -5
    endloop
  endfacet
  facet normal -0.406737 -0.913545 0
    outer loop
      vertex -41.4314 -8.66025 5
      vertex -41.4314 -8.66025 -5
      vertex -39.5216 -9.51056 -5
    endloop
  endfacet
  facet normal -0.406737 -0.913545 0
    outer loop
      vertex -39.5216 -9.51056 5
      vertex -41.4314 -8.66025 5
      vertex -39.5216 -9.51056 -5
    endloop
  endfacet
  facet normal -0.207912 -0.978148 0
    outer loop
      vertex -39.5216 -9.51056 5
      vertex -39.5216 -9.51056 -5
      vertex -37.4767 -9.94522 -5
    endloop
  endfacet
  facet normal -0.207912 -0.978148 0
    outer loop
      vertex -37.4767 -9.94522 5
      vertex -39.5216 -9.51056 5
      vertex -37.4767 -9.94522 -5
    endloop
  endfacet
  facet normal 0 -1 0
    outer loop
      vertex -37.4767 -9.94522 5
      vertex -37.4767 -9.94522 -5
      vertex -35.3862 -9.94522 -5
    endloop
  endfacet
  facet normal 0 -1 0
    outer loop
      vertex -35.3862 -9.94522 5
      vertex -37.4767 -9.94522 5
      vertex -35.3862 -9.94522 -5
    endloop
  endfacet
  facet normal 0.207912 -0.978148 0
    outer loop
      vertex -35.3862 -9.94522 5
      vertex -35.3862 -9.94522 -5
      vertex -33.3413 -9.51056 -5
    endloop
  endfacet
  facet normal 0.207912 -0.978148 0
    outer loop
      vertex -33.3413 -9.51056 5
      vertex -35.3862 -9.94522 5
      vertex -33.3413 -9.51056 -5
    endloop
  endfacet
  facet normal 0.406737 -0.913545 0
    outer loop
      vertex -33.3413 -9.51056 5
      vertex -33.3413 -9.51056 -5
      vertex -31.4314 -8.66025 -5
    endloop
  endfacet
  facet normal 0.406737 -0.913545 0
    outer loop
      vertex -31.4314 -8.66025 5
      vertex -33.3413 -9.51056 5
      vertex -31.4314 -8.66025 -5
    endloop
  endfacet
  facet normal 0.587785 -0.809017 0
    outer loop
      vertex -31.4314 -8.66025 5
      vertex -31.4314 -8.66025 -5
      vertex -29.7401 -7.43145 -5
    endloop
  endfacet
  facet normal 0.587785 -0.809017 0
    outer loop
      vertex -29.7401 -7.43145 5
      vertex -31.4314 -8.66025 5
      vertex -29.7401 -7.43145 -5
    endloop
  endfacet
  facet normal 0.743145 -0.669131 0
    outer loop
      vertex -29.7401 -7.43145 5
      vertex -29.7401 -7.43145 -5
      vertex -28.3413 -5.87785 -5
    endloop
  endfacet
  facet normal 0.743145 -0.669131 0
    outer loop
      vertex -28.3413 -5.87785 5
      vertex -29.7401 -7.43145 5
      vertex -28.3413 -5.87785 -5
    endloop
  endfacet
  facet normal 0.866025 -0.5 0
    outer loop
      vertex -28.3413 -5.87785 5
      vertex -28.3413 -5.87785 -5
      vertex -27.8344 -5 -5
    endloop
  endfacet
  facet normal 0.866025 -0.5 0
    outer loop
      vertex -27.8344 -5 5
      vertex -28.3413 -5.87785 5
      vertex -27.8344 -5 -5
    endloop
  endfacet
  facet normal 0 -1 0
    outer loop
      vertex -27.8344 -5 5
      vertex -27.8344 -5 -5
      vertex 32.7945 -5 -5
    endloop
  endfacet
  facet normal 0 -1 0
    outer loop
      vertex 32.7945 -5 5
      vertex -27.8344 -5 5
      vertex 32.7945 -5 -5
    endloop
  endfacet
  facet normal -0.766044 -0.642788 0
    outer loop
      vertex 32.7945 -5 -5
      vertex 54.3327 -30.6683 -5
      vertex 32.7945 -5 5
    endloop
  endfacet
  facet normal -0.766044 -0.642788 0
    outer loop
      vertex 32.7945 -5 5
      vertex 54.3327 -30.6683 -5
      vertex 54.3327 -30.6683 5
    endloop
  endfacet
  facet normal 0.642788 -0.766044 0
    outer loop
      vertex 54.3327 -30.6683 5
      vertex 54.3327 -30.6683 -5
      vertex 54.3799 -30.6287 -5
    endloop
  endfacet
  facet normal 0.642788 -0.766044 0
    outer loop
      vertex 54.3799 -30.6287 5
      vertex 54.3327 -30.6683 5
      vertex 54.3799 -30.6287 -5
    endloop
  endfacet
  facet normal -0.710347 -0.703851 0
    outer loop
      vertex 54.3799 -30.6287 -5
      vertex 55.4202 -31.6786 -5
      vertex 54.3799 -30.6287 5
    endloop
  endfacet
  facet normal -0.710347 -0.703851 0
    outer loop
      vertex 54.3799 -30.6287 5
      vertex 55.4202 -31.6786 -5
      vertex 55.4202 -31.6786 5
    endloop
  endfacet
  facet normal -0.443318 -0.896364 0
    outer loop
      vertex 55.4202 -31.6786 5
      vertex 55.4202 -31.6786 -5
      vertex 57.1906 -32.5542 -5
    endloop
  endfacet
  facet normal -0.443318 -0.896364 0
    outer loop
      vertex 57.1906 -32.5542 5
      vertex 55.4202 -31.6786 5
      vertex 57.1906 -32.5542 -5
    endloop
  endfacet
  facet normal -0.128249 -0.991742 0
    outer loop
      vertex 57.1906 -32.5542 5
      vertex 57.1906 -32.5542 -5
      vertex 59.1494 -32.8075 -5
    endloop
  endfacet
  facet normal -0.128249 -0.991742 0
    outer loop
      vertex 59.1494 -32.8075 5
      vertex 57.1906 -32.5542 5
      vertex 59.1494 -32.8075 -5
    endloop
  endfacet
  facet normal 0.200718 -0.979649 0
    outer loop
      vertex 59.1494 -32.8075 5
      vertex 59.1494 -32.8075 -5
      vertex 61.0844 -32.4111 -5
    endloop
  endfacet
  facet normal 0.200718 -0.979649 0
    outer loop
      vertex 61.0844 -32.4111 5
      vertex 59.1494 -32.8075 5
      vertex 61.0844 -32.4111 -5
    endloop
  endfacet
  facet normal 0.507934 -0.861396 0
    outer loop
      vertex 61.0844 -32.4111 5
      vertex 61.0844 -32.4111 -5
      vertex 62.7857 -31.4078 -5
    endloop
  endfacet
  facet normal 0.507934 -0.861396 0
    outer loop
      vertex 62.7857 -31.4078 5
      vertex 61.0844 -32.4111 5
      vertex 62.7857 -31.4078 -5
    endloop
  endfacet
  facet normal 0.760108 -0.649797 0
    outer loop
      vertex 62.7857 -31.4078 5
      vertex 62.7857 -31.4078 -5
      vertex 64.0692 -29.9065 -5
    endloop
  endfacet
  facet normal 0.760108 -0.649797 0
    outer loop
      vertex 64.0692 -29.9065 5
      vertex 62.7857 -31.4078 5
      vertex 64.0692 -29.9065 -5
    endloop
  endfacet
  facet normal 0.929912 -0.367783 0
    outer loop
      vertex 64.0692 -29.9065 5
      vertex 64.0692 -29.9065 -5
      vertex 64.7956 -28.0698 -5
    endloop
  endfacet
  facet normal 0.929912 -0.367783 0
    outer loop
      vertex 64.7956 -28.0698 5
      vertex 64.0692 -29.9065 5
      vertex 64.7956 -28.0698 -5
    endloop
  endfacet
  facet normal 0.998945 -0.0459138 0
    outer loop
      vertex 64.7956 -28.0698 5
      vertex 64.7956 -28.0698 -5
      vertex 64.8863 -26.0968 -5
    endloop
  endfacet
  facet normal 0.998945 -0.0459138 0
    outer loop
      vertex 64.8863 -26.0968 5
      vertex 64.7956 -28.0698 5
      vertex 64.8863 -26.0968 -5
    endloop
  endfacet
  facet normal 0.959728 0.280931 0
    outer loop
      vertex 64.8863 -26.0968 -5
      vertex 64.3314 -24.2012 -5
      vertex 64.3314 -24.2012 5
    endloop
  endfacet
  facet normal 0.959728 0.280931 0
    outer loop
      vertex 64.8863 -26.0968 5
      vertex 64.8863 -26.0968 -5
      vertex 64.3314 -24.2012 5
    endloop
  endfacet
  facet normal 0.816509 0.577333 0
    outer loop
      vertex 64.3314 -24.2012 -5
      vertex 63.4781 -22.9944 -5
      vertex 63.4781 -22.9944 5
    endloop
  endfacet
  facet normal 0.816509 0.577333 0
    outer loop
      vertex 64.3314 -24.2012 5
      vertex 64.3314 -24.2012 -5
      vertex 63.4781 -22.9944 5
    endloop
  endfacet
  facet normal 0.642788 -0.766044 0
    outer loop
      vertex 63.4781 -22.9944 5
      vertex 63.4781 -22.9944 -5
      vertex 63.5253 -22.9548 -5
    endloop
  endfacet
  facet normal 0.642788 -0.766044 0
    outer loop
      vertex 63.5253 -22.9548 5
      vertex 63.4781 -22.9944 5
      vertex 63.5253 -22.9548 -5
    endloop
  endfacet
  facet normal 0.766044 0.642788 0
    outer loop
      vertex 63.5253 -22.9548 -5
      vertex 40.0684 5 -5
      vertex 40.0684 5 5
    endloop
  endfacet
  facet normal 0.766044 0.642788 0
    outer loop
      vertex 63.5253 -22.9548 5
      vertex 63.5253 -22.9548 -5
      vertex 40.0684 5 5
    endloop
  endfacet
  facet normal 0 1 0
    outer loop
      vertex 0 5 -5
      vertex 0 5 5
      vertex 40.0684 5 -5
    endloop
  endfacet
  facet normal 0 1 0
    outer loop
      vertex 40.0684 5 -5
      vertex 0 5 5
      vertex 40.0684 5 5
    endloop
  endfacet
  facet normal 0 1 0
    outer loop
      vertex -27.8344 5 -5
      vertex -27.8344 5 5
      vertex 0 5 -5
    endloop
  endfacet
  facet normal 0 1 0
    outer loop
      vertex 0 5 -5
      vertex -27.8344 5 5
      vertex 0 5 5
    endloop
  endfacet
  facet normal 0.866025 0.5 0
    outer loop
      vertex -27.8344 5 -5
      vertex -28.3413 5.87785 -5
      vertex -28.3413 5.87785 5
    endloop
  endfacet
  facet normal 0.866025 0.5 0
    outer loop
      vertex -27.8344 5 5
      vertex -27.8344 5 -5
      vertex -28.3413 5.87785 5
    endloop
  endfacet
  facet normal 0.743145 0.669131 0
    outer loop
      vertex -28.3413 5.87785 -5
      vertex -29.7401 7.43145 -5
      vertex -29.7401 7.43145 5
    endloop
  endfacet
  facet normal 0.743145 0.669131 0
    outer loop
      vertex -28.3413 5.87785 5
      vertex -28.3413 5.87785 -5
      vertex -29.7401 7.43145 5
    endloop
  endfacet
  facet normal 0.587785 0.809017 0
    outer loop
      vertex -31.4314 8.66025 -5
      vertex -31.4314 8.66025 5
      vertex -29.7401 7.43145 -5
    endloop
  endfacet
  facet normal 0.587785 0.809017 0
    outer loop
      vertex -29.7401 7.43145 -5
      vertex -31.4314 8.66025 5
      vertex -29.7401 7.43145 5
    endloop
  endfacet
  facet normal 0.406737 0.913545 0
    outer loop
      vertex -33.3413 9.51056 -5
      vertex -33.3413 9.51056 5
      vertex -31.4314 8.66025 -5
    endloop
  endfacet
  facet normal 0.406737 0.913545 0
    outer loop
      vertex -31.4314 8.66025 -5
      vertex -33.3413 9.51056 5
      vertex -31.4314 8.66025 5
    endloop
  endfacet
  facet normal 0.207912 0.978148 0
    outer loop
      vertex -35.3862 9.94522 -5
      vertex -35.3862 9.94522 5
      vertex -33.3413 9.51056 -5
    endloop
  endfacet
  facet normal 0.207912 0.978148 0
    outer loop
      vertex -33.3413 9.51056 -5
      vertex -35.3862 9.94522 5
      vertex -33.3413 9.51056 5
    endloop
  endfacet
  facet normal 0 1 0
    outer loop
      vertex -37.4767 9.94522 -5
      vertex -37.4767 9.94522 5
      vertex -35.3862 9.94522 -5
    endloop
  endfacet
  facet normal 0 1 0
    outer loop
      vertex -35.3862 9.94522 -5
      vertex -37.4767 9.94522 5
      vertex -35.3862 9.94522 5
    endloop
  endfacet
  facet normal -0.207912 0.978148 0
    outer loop
      vertex -39.5216 9.51056 -5
      vertex -39.5216 9.51056 5
      vertex -37.4767 9.94522 -5
    endloop
  endfacet
  facet normal -0.207912 0.978148 0
    outer loop
      vertex -37.4767 9.94522 -5
      vertex -39.5216 9.51056 5
      vertex -37.4767 9.94522 5
    endloop
  endfacet
  facet normal -0.406737 0.913545 0
    outer loop
      vertex -41.4314 8.66025 -5
      vertex -41.4314 8.66025 5
      vertex -39.5216 9.51056 -5
    endloop
  endfacet
  facet normal -0.406737 0.913545 0
    outer loop
      vertex -39.5216 9.51056 -5
      vertex -41.4314 8.66025 5
      vertex -39.5216 9.51056 5
    endloop
  endfacet
  facet normal -0.587785 0.809017 0
    outer loop
      vertex -43.1227 7.43145 -5
      vertex -43.1227 7.43145 5
      vertex -41.4314 8.66025 -5
    endloop
  endfacet
  facet normal -0.587785 0.809017 0
    outer loop
      vertex -41.4314 8.66025 -5
      vertex -43.1227 7.43145 5
      vertex -41.4314 8.66025 5
    endloop
  endfacet
  facet normal -0.743145 0.669131 0
    outer loop
      vertex -44.5216 5.87785 -5
      vertex -44.5216 5.87785 5
      vertex -43.1227 7.43145 -5
    endloop
  endfacet
  facet normal -0.743145 0.669131 0
    outer loop
      vertex -43.1227 7.43145 -5
      vertex -44.5216 5.87785 5
      vertex -43.1227 7.43145 5
    endloop
  endfacet
  facet normal -0.866025 0.5 0
    outer loop
      vertex -45.5669 4.06737 -5
      vertex -45.5669 4.06737 5
      vertex -44.5216 5.87785 -5
    endloop
  endfacet
  facet normal -0.866025 0.5 0
    outer loop
      vertex -44.5216 5.87785 -5
      vertex -45.5669 4.06737 5
      vertex -44.5216 5.87785 5
    endloop
  endfacet
  facet normal -0.951057 0.309017 0
    outer loop
      vertex -46.2129 2.07912 -5
      vertex -46.2129 2.07912 5
      vertex -45.5669 4.06737 -5
    endloop
  endfacet
  facet normal -0.951057 0.309017 0
    outer loop
      vertex -45.5669 4.06737 -5
      vertex -46.2129 2.07912 5
      vertex -45.5669 4.06737 5
    endloop
  endfacet
  facet normal 0.987688 0.156434 0
    outer loop
      vertex -40.5314 0 -1
      vertex -40.3308 -1.26697 -1
      vertex -40.3308 -1.26697 -5
    endloop
  endfacet
  facet normal 0.987688 0.156434 0
    outer loop
      vertex -40.5314 0 -5
      vertex -40.5314 0 -1
      vertex -40.3308 -1.26697 -5
    endloop
  endfacet
  facet normal 0.987688 -0.156434 0
    outer loop
      vertex -40.3308 1.26697 -5
      vertex -40.3308 1.26697 -1
      vertex -40.5314 0 -1
    endloop
  endfacet
  facet normal 0.987688 -0.156434 0
    outer loop
      vertex -40.5314 0 -5
      vertex -40.3308 1.26697 -5
      vertex -40.5314 0 -1
    endloop
  endfacet
  facet normal 0.891007 -0.45399 0
    outer loop
      vertex -39.7484 2.40992 -5
      vertex -39.7484 2.40992 -1
      vertex -40.3308 1.26697 -1
    endloop
  endfacet
  facet normal 0.891007 -0.45399 0
    outer loop
      vertex -40.3308 1.26697 -5
      vertex -39.7484 2.40992 -5
      vertex -40.3308 1.26697 -1
    endloop
  endfacet
  facet normal 0.707107 -0.707107 0
    outer loop
      vertex -38.8414 3.31697 -5
      vertex -38.8414 3.31697 -1
      vertex -39.7484 2.40992 -1
    endloop
  endfacet
  facet normal 0.707107 -0.707107 0
    outer loop
      vertex -39.7484 2.40992 -5
      vertex -38.8414 3.31697 -5
      vertex -39.7484 2.40992 -1
    endloop
  endfacet
  facet normal 0.45399 -0.891007 0
    outer loop
      vertex -37.6984 3.89933 -5
      vertex -37.6984 3.89933 -1
      vertex -38.8414 3.31697 -1
    endloop
  endfacet
  facet normal 0.45399 -0.891007 0
    outer loop
      vertex -38.8414 3.31697 -5
      vertex -37.6984 3.89933 -5
      vertex -38.8414 3.31697 -1
    endloop
  endfacet
  facet normal 0.156434 -0.987688 0
    outer loop
      vertex -36.4314 4.1 -5
      vertex -36.4314 4.1 -1
      vertex -37.6984 3.89933 -1
    endloop
  endfacet
  facet normal 0.156434 -0.987688 0
    outer loop
      vertex -37.6984 3.89933 -5
      vertex -36.4314 4.1 -5
      vertex -37.6984 3.89933 -1
    endloop
  endfacet
  facet normal -0.156434 -0.987688 0
    outer loop
      vertex -35.1645 3.89933 -5
      vertex -35.1645 3.89933 -1
      vertex -36.4314 4.1 -1
    endloop
  endfacet
  facet normal -0.156434 -0.987688 0
    outer loop
      vertex -36.4314 4.1 -5
      vertex -35.1645 3.89933 -5
      vertex -36.4314 4.1 -1
    endloop
  endfacet
  facet normal -0.45399 -0.891007 0
    outer loop
      vertex -34.0215 3.31697 -5
      vertex -34.0215 3.31697 -1
      vertex -35.1645 3.89933 -1
    endloop
  endfacet
  facet normal -0.45399 -0.891007 0
    outer loop
      vertex -35.1645 3.89933 -5
      vertex -34.0215 3.31697 -5
      vertex -35.1645 3.89933 -1
    endloop
  endfacet
  facet normal -0.707107 -0.707107 0
    outer loop
      vertex -33.1145 2.40992 -5
      vertex -33.1145 2.40992 -1
      vertex -34.0215 3.31697 -1
    endloop
  endfacet
  facet normal -0.707107 -0.707107 0
    outer loop
      vertex -34.0215 3.31697 -5
      vertex -33.1145 2.40992 -5
      vertex -34.0215 3.31697 -1
    endloop
  endfacet
  facet normal -0.891007 -0.45399 0
    outer loop
      vertex -32.5321 1.26697 -1
      vertex -33.1145 2.40992 -1
      vertex -32.5321 1.26697 -5
    endloop
  endfacet
  facet normal -0.891007 -0.45399 0
    outer loop
      vertex -32.5321 1.26697 -5
      vertex -33.1145 2.40992 -1
      vertex -33.1145 2.40992 -5
    endloop
  endfacet
  facet normal -0.987688 -0.156434 0
    outer loop
      vertex -32.3314 0 -1
      vertex -32.5321 1.26697 -1
      vertex -32.3314 0 -5
    endloop
  endfacet
  facet normal -0.987688 -0.156434 0
    outer loop
      vertex -32.3314 0 -5
      vertex -32.5321 1.26697 -1
      vertex -32.5321 1.26697 -5
    endloop
  endfacet
  facet normal -0.987688 0.156434 0
    outer loop
      vertex -32.3314 0 -1
      vertex -32.3314 0 -5
      vertex -32.5321 -1.26697 -1
    endloop
  endfacet
  facet normal -0.987688 0.156434 0
    outer loop
      vertex -32.5321 -1.26697 -1
      vertex -32.3314 0 -5
      vertex -32.5321 -1.26697 -5
    endloop
  endfacet
  facet normal -0.891007 0.45399 0
    outer loop
      vertex -32.5321 -1.26697 -1
      vertex -32.5321 -1.26697 -5
      vertex -33.1145 -2.40992 -1
    endloop
  endfacet
  facet normal -0.891007 0.45399 0
    outer loop
      vertex -33.1145 -2.40992 -1
      vertex -32.5321 -1.26697 -5
      vertex -33.1145 -2.40992 -5
    endloop
  endfacet
  facet normal -0.707107 0.707107 0
    outer loop
      vertex -33.1145 -2.40992 -1
      vertex -33.1145 -2.40992 -5
      vertex -34.0215 -3.31697 -1
    endloop
  endfacet
  facet normal -0.707107 0.707107 0
    outer loop
      vertex -34.0215 -3.31697 -1
      vertex -33.1145 -2.40992 -5
      vertex -34.0215 -3.31697 -5
    endloop
  endfacet
  facet normal -0.45399 0.891007 0
    outer loop
      vertex -34.0215 -3.31697 -1
      vertex -34.0215 -3.31697 -5
      vertex -35.1645 -3.89933 -1
    endloop
  endfacet
  facet normal -0.45399 0.891007 0
    outer loop
      vertex -35.1645 -3.89933 -1
      vertex -34.0215 -3.31697 -5
      vertex -35.1645 -3.89933 -5
    endloop
  endfacet
  facet normal -0.156434 0.987688 0
    outer loop
      vertex -35.1645 -3.89933 -1
      vertex -35.1645 -3.89933 -5
      vertex -36.4314 -4.1 -1
    endloop
  endfacet
  facet normal -0.156434 0.987688 0
    outer loop
      vertex -36.4314 -4.1 -1
      vertex -35.1645 -3.89933 -5
      vertex -36.4314 -4.1 -5
    endloop
  endfacet
  facet normal 0.156434 0.987688 0
    outer loop
      vertex -36.4314 -4.1 -1
      vertex -36.4314 -4.1 -5
      vertex -37.6984 -3.89933 -1
    endloop
  endfacet
  facet normal 0.156434 0.987688 0
    outer loop
      vertex -37.6984 -3.89933 -1
      vertex -36.4314 -4.1 -5
      vertex -37.6984 -3.89933 -5
    endloop
  endfacet
  facet normal 0.45399 0.891007 0
    outer loop
      vertex -37.6984 -3.89933 -1
      vertex -37.6984 -3.89933 -5
      vertex -38.8414 -3.31697 -1
    endloop
  endfacet
  facet normal 0.45399 0.891007 0
    outer loop
      vertex -38.8414 -3.31697 -1
      vertex -37.6984 -3.89933 -5
      vertex -38.8414 -3.31697 -5
    endloop
  endfacet
  facet normal 0.707107 0.707107 0
    outer loop
      vertex -38.8414 -3.31697 -1
      vertex -38.8414 -3.31697 -5
      vertex -39.7484 -2.40992 -1
    endloop
  endfacet
  facet normal 0.707107 0.707107 0
    outer loop
      vertex -39.7484 -2.40992 -1
      vertex -38.8414 -3.31697 -5
      vertex -39.7484 -2.40992 -5
    endloop
  endfacet
  facet normal 0.891007 0.45399 0
    outer loop
      vertex -40.3308 -1.26697 -1
      vertex -39.7484 -2.40992 -1
      vertex -39.7484 -2.40992 -5
    endloop
  endfacet
  facet normal 0.891007 0.45399 0
    outer loop
      vertex -40.3308 -1.26697 -5
      vertex -40.3308 -1.26697 -1
      vertex -39.7484 -2.40992 -5
    endloop
  endfacet
  facet normal 0.62349 -0.781831 0
    outer loop
      vertex -18.683 2.04735 -5
      vertex -18.683 2.04735 5
      vertex -20.1078 0.911156 5
    endloop
  endfacet
  facet normal 0.62349 -0.781831 0
    outer loop
      vertex -20.1078 0.911156 -5
      vertex -18.683 2.04735 -5
      vertex -20.1078 0.911156 5
    endloop
  endfacet
  facet normal 1 0 0
    outer loop
      vertex -20.1078 0.911156 -5
      vertex -20.1078 0.911156 5
      vertex -20.1078 -0.911156 5
    endloop
  endfacet
  facet normal 1 0 0
    outer loop
      vertex -20.1078 -0.911156 -5
      vertex -20.1078 0.911156 -5
      vertex -20.1078 -0.911156 5
    endloop
  endfacet
  facet normal -0.222521 -0.974928 0
    outer loop
      vertex -16.9064 1.64185 -5
      vertex -16.9064 1.64185 5
      vertex -18.683 2.04735 5
    endloop
  endfacet
  facet normal -0.222521 -0.974928 0
    outer loop
      vertex -18.683 2.04735 -5
      vertex -16.9064 1.64185 -5
      vertex -18.683 2.04735 5
    endloop
  endfacet
  facet normal -0.900969 -0.433884 0
    outer loop
      vertex -16.1157 0 5
      vertex -16.9064 1.64185 5
      vertex -16.1157 0 -5
    endloop
  endfacet
  facet normal -0.900969 -0.433884 0
    outer loop
      vertex -16.1157 0 -5
      vertex -16.9064 1.64185 5
      vertex -16.9064 1.64185 -5
    endloop
  endfacet
  facet normal -0.900969 0.433884 0
    outer loop
      vertex -16.1157 0 5
      vertex -16.1157 0 -5
      vertex -16.9064 -1.64185 5
    endloop
  endfacet
  facet normal -0.900969 0.433884 0
    outer loop
      vertex -16.9064 -1.64185 5
      vertex -16.1157 0 -5
      vertex -16.9064 -1.64185 -5
    endloop
  endfacet
  facet normal -0.222521 0.974928 0
    outer loop
      vertex -16.9064 -1.64185 5
      vertex -16.9064 -1.64185 -5
      vertex -18.683 -2.04735 5
    endloop
  endfacet
  facet normal -0.222521 0.974928 0
    outer loop
      vertex -18.683 -2.04735 5
      vertex -16.9064 -1.64185 -5
      vertex -18.683 -2.04735 -5
    endloop
  endfacet
  facet normal 0.62349 0.781831 0
    outer loop
      vertex -18.683 -2.04735 5
      vertex -18.683 -2.04735 -5
      vertex -20.1078 -0.911156 5
    endloop
  endfacet
  facet normal 0.62349 0.781831 0
    outer loop
      vertex -20.1078 -0.911156 5
      vertex -18.683 -2.04735 -5
      vertex -20.1078 -0.911156 -5
    endloop
  endfacet
  facet normal 0.62349 -0.781832 0
    outer loop
      vertex -0.489546 2.14484 -5
      vertex -0.489546 2.14484 5
      vertex -1.98213 0.954544 5
    endloop
  endfacet
  facet normal 0.62349 -0.781832 0
    outer loop
      vertex -1.98213 0.954544 -5
      vertex -0.489546 2.14484 -5
      vertex -1.98213 0.954544 5
    endloop
  endfacet
  facet normal 1 0 0
    outer loop
      vertex -1.98213 0.954544 -5
      vertex -1.98213 0.954544 5
      vertex -1.98213 -0.954544 5
    endloop
  endfacet
  facet normal 1 0 0
    outer loop
      vertex -1.98213 -0.954544 -5
      vertex -1.98213 0.954544 -5
      vertex -1.98213 -0.954544 5
    endloop
  endfacet
  facet normal -0.222521 -0.974928 0
    outer loop
      vertex 1.37168 1.72003 -5
      vertex 1.37168 1.72003 5
      vertex -0.489546 2.14484 5
    endloop
  endfacet
  facet normal -0.222521 -0.974928 0
    outer loop
      vertex -0.489546 2.14484 -5
      vertex 1.37168 1.72003 -5
      vertex -0.489546 2.14484 5
    endloop
  endfacet
  facet normal -0.900969 -0.433884 0
    outer loop
      vertex 2.2 0 5
      vertex 1.37168 1.72003 5
      vertex 2.2 0 -5
    endloop
  endfacet
  facet normal -0.900969 -0.433884 0
    outer loop
      vertex 2.2 0 -5
      vertex 1.37168 1.72003 5
      vertex 1.37168 1.72003 -5
    endloop
  endfacet
  facet normal -0.900969 0.433884 0
    outer loop
      vertex 2.2 0 5
      vertex 2.2 0 -5
      vertex 1.37168 -1.72003 5
    endloop
  endfacet
  facet normal -0.900969 0.433884 0
    outer loop
      vertex 1.37168 -1.72003 5
      vertex 2.2 0 -5
      vertex 1.37168 -1.72003 -5
    endloop
  endfacet
  facet normal -0.222521 0.974928 0
    outer loop
      vertex 1.37168 -1.72003 5
      vertex 1.37168 -1.72003 -5
      vertex -0.489546 -2.14484 5
    endloop
  endfacet
  facet normal -0.222521 0.974928 0
    outer loop
      vertex -0.489546 -2.14484 5
      vertex 1.37168 -1.72003 -5
      vertex -0.489546 -2.14484 -5
    endloop
  endfacet
  facet normal 0.62349 0.781832 0
    outer loop
      vertex -0.489546 -2.14484 5
      vertex -0.489546 -2.14484 -5
      vertex -1.98213 -0.954544 5
    endloop
  endfacet
  facet normal 0.62349 0.781832 0
    outer loop
      vertex -1.98213 -0.954544 5
      vertex -0.489546 -2.14484 -5
      vertex -1.98213 -0.954544 -5
    endloop
  endfacet
  facet normal 0.62349 -0.781831 0
    outer loop
      vertex 17.7484 2.04735 -5
      vertex 17.7484 2.04735 5
      vertex 16.3237 0.911156 5
    endloop
  endfacet
  facet normal 0.62349 -0.781831 0
    outer loop
      vertex 16.3237 0.911156 -5
      vertex 17.7484 2.04735 -5
      vertex 16.3237 0.911156 5
    endloop
  endfacet
  facet normal 1 0 0
    outer loop
      vertex 16.3237 0.911156 -5
      vertex 16.3237 0.911156 5
      vertex 16.3237 -0.911156 5
    endloop
  endfacet
  facet normal 1 0 0
    outer loop
      vertex 16.3237 -0.911156 -5
      vertex 16.3237 0.911156 -5
      vertex 16.3237 -0.911156 5
    endloop
  endfacet
  facet normal -0.222521 -0.974928 0
    outer loop
      vertex 19.5251 1.64185 -5
      vertex 19.5251 1.64185 5
      vertex 17.7484 2.04735 5
    endloop
  endfacet
  facet normal -0.222521 -0.974928 0
    outer loop
      vertex 17.7484 2.04735 -5
      vertex 19.5251 1.64185 -5
      vertex 17.7484 2.04735 5
    endloop
  endfacet
  facet normal -0.900969 -0.433884 0
    outer loop
      vertex 20.3157 0 5
      vertex 19.5251 1.64185 5
      vertex 20.3157 0 -5
    endloop
  endfacet
  facet normal -0.900969 -0.433884 0
    outer loop
      vertex 20.3157 0 -5
      vertex 19.5251 1.64185 5
      vertex 19.5251 1.64185 -5
    endloop
  endfacet
  facet normal -0.900969 0.433884 0
    outer loop
      vertex 20.3157 0 5
      vertex 20.3157 0 -5
      vertex 19.5251 -1.64185 5
    endloop
  endfacet
  facet normal -0.900969 0.433884 0
    outer loop
      vertex 19.5251 -1.64185 5
      vertex 20.3157 0 -5
      vertex 19.5251 -1.64185 -5
    endloop
  endfacet
  facet normal -0.222521 0.974928 0
    outer loop
      vertex 19.5251 -1.64185 5
      vertex 19.5251 -1.64185 -5
      vertex 17.7484 -2.04735 5
    endloop
  endfacet
  facet normal -0.222521 0.974928 0
    outer loop
      vertex 17.7484 -2.04735 5
      vertex 19.5251 -1.64185 -5
      vertex 17.7484 -2.04735 -5
    endloop
  endfacet
  facet normal 0.62349 0.781831 0
    outer loop
      vertex 17.7484 -2.04735 5
      vertex 17.7484 -2.04735 -5
      vertex 16.3237 -0.911156 5
    endloop
  endfacet
  facet normal 0.62349 0.781831 0
    outer loop
      vertex 16.3237 -0.911156 5
      vertex 17.7484 -2.04735 -5
      vertex 16.3237 -0.911156 -5
    endloop
  endfacet
  facet normal 0.62349 -0.781831 0
    outer loop
      vertex 35.9641 2.04735 -5
      vertex 35.9641 2.04735 5
      vertex 34.5394 0.911156 5
    endloop
  endfacet
  facet normal 0.62349 -0.781831 0
    outer loop
      vertex 34.5394 0.911156 -5
      vertex 35.9641 2.04735 -5
      vertex 34.5394 0.911156 5
    endloop
  endfacet
  facet normal 1 0 0
    outer loop
      vertex 34.5394 0.911156 -5
      vertex 34.5394 0.911156 5
      vertex 34.5394 -0.911156 5
    endloop
  endfacet
  facet normal 1 0 0
    outer loop
      vertex 34.5394 -0.911156 -5
      vertex 34.5394 0.911156 -5
      vertex 34.5394 -0.911156 5
    endloop
  endfacet
  facet normal -0.222521 -0.974928 0
    outer loop
      vertex 37.7408 1.64185 -5
      vertex 37.7408 1.64185 5
      vertex 35.9641 2.04735 5
    endloop
  endfacet
  facet normal -0.222521 -0.974928 0
    outer loop
      vertex 35.9641 2.04735 -5
      vertex 37.7408 1.64185 -5
      vertex 35.9641 2.04735 5
    endloop
  endfacet
  facet normal -0.900969 -0.433884 0
    outer loop
      vertex 38.5314 0 5
      vertex 37.7408 1.64185 5
      vertex 38.5314 0 -5
    endloop
  endfacet
  facet normal -0.900969 -0.433884 0
    outer loop
      vertex 38.5314 0 -5
      vertex 37.7408 1.64185 5
      vertex 37.7408 1.64185 -5
    endloop
  endfacet
  facet normal -0.900969 0.433884 0
    outer loop
      vertex 38.5314 0 5
      vertex 38.5314 0 -5
      vertex 37.7408 -1.64185 5
    endloop
  endfacet
  facet normal -0.900969 0.433884 0
    outer loop
      vertex 37.7408 -1.64185 5
      vertex 38.5314 0 -5
      vertex 37.7408 -1.64185 -5
    endloop
  endfacet
  facet normal -0.222521 0.974928 0
    outer loop
      vertex 37.7408 -1.64185 5
      vertex 37.7408 -1.64185 -5
      vertex 35.9641 -2.04735 5
    endloop
  endfacet
  facet normal -0.222521 0.974928 0
    outer loop
      vertex 35.9641 -2.04735 5
      vertex 37.7408 -1.64185 -5
      vertex 35.9641 -2.04735 -5
    endloop
  endfacet
  facet normal 0.62349 0.781831 0
    outer loop
      vertex 35.9641 -2.04735 5
      vertex 35.9641 -2.04735 -5
      vertex 34.5394 -0.911156 5
    endloop
  endfacet
  facet normal 0.62349 0.781831 0
    outer loop
      vertex 34.5394 -0.911156 5
      vertex 35.9641 -2.04735 -5
      vertex 34.5394 -0.911156 -5
    endloop
  endfacet
  facet normal 0.999689 0.0249307 0
    outer loop
      vertex 45.7661 -12.5421 5
      vertex 45.8115 -14.3638 5
      vertex 45.8115 -14.3638 -5
    endloop
  endfacet
  facet normal 0.999689 0.0249307 0
    outer loop
      vertex 45.7661 -12.5421 -5
      vertex 45.7661 -12.5421 5
      vertex 45.8115 -14.3638 -5
    endloop
  endfacet
  facet normal 0.642788 -0.766044 0
    outer loop
      vertex 47.162 -11.3707 -5
      vertex 47.162 -11.3707 5
      vertex 45.7661 -12.5421 5
    endloop
  endfacet
  facet normal 0.642788 -0.766044 0
    outer loop
      vertex 45.7661 -12.5421 -5
      vertex 47.162 -11.3707 -5
      vertex 45.7661 -12.5421 5
    endloop
  endfacet
  facet normal -0.198146 -0.980172 0
    outer loop
      vertex 48.9482 -11.7318 -5
      vertex 48.9482 -11.7318 5
      vertex 47.162 -11.3707 5
    endloop
  endfacet
  facet normal -0.198146 -0.980172 0
    outer loop
      vertex 47.162 -11.3707 -5
      vertex 48.9482 -11.7318 -5
      vertex 47.162 -11.3707 5
    endloop
  endfacet
  facet normal -0.889872 -0.45621 0
    outer loop
      vertex 49.7796 -13.3534 5
      vertex 48.9482 -11.7318 5
      vertex 49.7796 -13.3534 -5
    endloop
  endfacet
  facet normal -0.889872 -0.45621 0
    outer loop
      vertex 49.7796 -13.3534 -5
      vertex 48.9482 -11.7318 5
      vertex 48.9482 -11.7318 -5
    endloop
  endfacet
  facet normal -0.911506 0.411287 0
    outer loop
      vertex 49.7796 -13.3534 5
      vertex 49.7796 -13.3534 -5
      vertex 49.0301 -15.0145 5
    endloop
  endfacet
  facet normal -0.911506 0.411287 0
    outer loop
      vertex 49.0301 -15.0145 5
      vertex 49.7796 -13.3534 -5
      vertex 49.0301 -15.0145 -5
    endloop
  endfacet
  facet normal -0.246758 0.969077 0
    outer loop
      vertex 49.0301 -15.0145 5
      vertex 49.0301 -15.0145 -5
      vertex 47.2641 -15.4641 5
    endloop
  endfacet
  facet normal -0.246758 0.969077 0
    outer loop
      vertex 47.2641 -15.4641 5
      vertex 49.0301 -15.0145 -5
      vertex 47.2641 -15.4641 -5
    endloop
  endfacet
  facet normal 0.603804 0.797133 0
    outer loop
      vertex 47.2641 -15.4641 5
      vertex 47.2641 -15.4641 -5
      vertex 45.8115 -14.3638 5
    endloop
  endfacet
  facet normal 0.603804 0.797133 0
    outer loop
      vertex 45.8115 -14.3638 5
      vertex 47.2641 -15.4641 -5
      vertex 45.8115 -14.3638 -5
    endloop
  endfacet
  facet normal 0.999689 0.0249307 0
    outer loop
      vertex 57.0148 -25.9479 5
      vertex 57.0603 -27.7696 5
      vertex 57.0603 -27.7696 -5
    endloop
  endfacet
  facet normal 0.999689 0.0249307 0
    outer loop
      vertex 57.0148 -25.9479 -5
      vertex 57.0148 -25.9479 5
      vertex 57.0603 -27.7696 -5
    endloop
  endfacet
  facet normal 0.642788 -0.766044 0
    outer loop
      vertex 58.4108 -24.7765 -5
      vertex 58.4108 -24.7765 5
      vertex 57.0148 -25.9479 5
    endloop
  endfacet
  facet normal 0.642788 -0.766044 0
    outer loop
      vertex 57.0148 -25.9479 -5
      vertex 58.4108 -24.7765 -5
      vertex 57.0148 -25.9479 5
    endloop
  endfacet
  facet normal -0.198146 -0.980172 0
    outer loop
      vertex 60.197 -25.1376 -5
      vertex 60.197 -25.1376 5
      vertex 58.4108 -24.7765 5
    endloop
  endfacet
  facet normal -0.198146 -0.980172 0
    outer loop
      vertex 58.4108 -24.7765 -5
      vertex 60.197 -25.1376 -5
      vertex 58.4108 -24.7765 5
    endloop
  endfacet
  facet normal -0.889872 -0.45621 0
    outer loop
      vertex 61.0284 -26.7592 5
      vertex 60.197 -25.1376 5
      vertex 61.0284 -26.7592 -5
    endloop
  endfacet
  facet normal -0.889872 -0.45621 0
    outer loop
      vertex 61.0284 -26.7592 -5
      vertex 60.197 -25.1376 5
      vertex 60.197 -25.1376 -5
    endloop
  endfacet
  facet normal -0.911506 0.411287 0
    outer loop
      vertex 61.0284 -26.7592 5
      vertex 61.0284 -26.7592 -5
      vertex 60.2789 -28.4202 5
    endloop
  endfacet
  facet normal -0.911506 0.411287 0
    outer loop
      vertex 60.2789 -28.4202 5
      vertex 61.0284 -26.7592 -5
      vertex 60.2789 -28.4202 -5
    endloop
  endfacet
  facet normal -0.246758 0.969077 0
    outer loop
      vertex 60.2789 -28.4202 5
      vertex 60.2789 -28.4202 -5
      vertex 58.5129 -28.8699 5
    endloop
  endfacet
  facet normal -0.246758 0.969077 0
    outer loop
      vertex 58.5129 -28.8699 5
      vertex 60.2789 -28.4202 -5
      vertex 58.5129 -28.8699 -5
    endloop
  endfacet
  facet normal 0.603804 0.797133 0
    outer loop
      vertex 58.5129 -28.8699 5
      vertex 58.5129 -28.8699 -5
      vertex 57.0603 -27.7696 5
    endloop
  endfacet
  facet normal 0.603804 0.797133 0
    outer loop
      vertex 57.0603 -27.7696 5
      vertex 58.5129 -28.8699 -5
      vertex 57.0603 -27.7696 -5
    endloop
  endfacet
  facet normal 0 0 1
    outer loop
      vertex -46.2129 2.07912 5
      vertex -46.4314 0 5
      vertex -46.2129 -2.07912 5
    endloop
  endfacet
  facet normal 0 0 1
    outer loop
      vertex -44.5216 -5.87785 5
      vertex -46.2129 2.07912 5
      vertex -45.5669 -4.06737 5
    endloop
  endfacet
  facet normal 0 0 1
    outer loop
      vertex -45.5669 -4.06737 5
      vertex -46.2129 2.07912 5
      vertex -46.2129 -2.07912 5
    endloop
  endfacet
  facet normal 0 0 1
    outer loop
      vertex -43.1227 -7.43145 5
      vertex -46.2129 2.07912 5
      vertex -44.5216 -5.87785 5
    endloop
  endfacet
  facet normal 0 0 1
    outer loop
      vertex -41.4314 -8.66025 5
      vertex -46.2129 2.07912 5
      vertex -43.1227 -7.43145 5
    endloop
  endfacet
  facet normal 0 0 1
    outer loop
      vertex -39.5216 -9.51056 5
      vertex -46.2129 2.07912 5
      vertex -41.4314 -8.66025 5
    endloop
  endfacet
  facet normal 0 0 1
    outer loop
      vertex -40.3064 -6.7117 5
      vertex -46.2129 2.07912 5
      vertex -39.5216 -9.51056 5
    endloop
  endfacet
  facet normal 0 0 1
    outer loop
      vertex -40.3064 6.7117 5
      vertex -31.4314 8.66025 5
      vertex -33.3413 9.51056 5
    endloop
  endfacet
  facet normal 0 0 1
    outer loop
      vertex -40.3064 6.7117 5
      vertex -32.5564 6.7117 5
      vertex -31.4314 8.66025 5
    endloop
  endfacet
  facet normal 0 0 1
    outer loop
      vertex -28.6814 0 5
      vertex -32.5564 -6.7117 5
      vertex -29.7401 -7.43145 5
    endloop
  endfacet
  facet normal 0 0 1
    outer loop
      vertex 0 5 5
      vertex -18.683 2.04735 5
      vertex 40.0684 5 5
    endloop
  endfacet
  facet normal 0 0 1
    outer loop
      vertex 54.3799 -30.6287 5
      vertex 32.7945 -5 5
      vertex 54.3327 -30.6683 5
    endloop
  endfacet
  facet normal 0 0 1
    outer loop
      vertex 55.4202 -31.6786 5
      vertex 32.7945 -5 5
      vertex 54.3799 -30.6287 5
    endloop
  endfacet
  facet normal 0 0 1
    outer loop
      vertex 57.1906 -32.5542 5
      vertex 32.7945 -5 5
      vertex 55.4202 -31.6786 5
    endloop
  endfacet
  facet normal 0 0 1
    outer loop
      vertex 59.1494 -32.8075 5
      vertex 32.7945 -5 5
      vertex 57.1906 -32.5542 5
    endloop
  endfacet
  facet normal 0 0 1
    outer loop
      vertex 61.0844 -32.4111 5
      vertex 32.7945 -5 5
      vertex 59.1494 -32.8075 5
    endloop
  endfacet
  facet normal 0 0 1
    outer loop
      vertex 57.0603 -27.7696 5
      vertex 32.7945 -5 5
      vertex 61.0844 -32.4111 5
    endloop
  endfacet
  facet normal 0 0 1
    outer loop
      vertex 60.197 -25.1376 5
      vertex 61.0284 -26.7592 5
      vertex 64.7956 -28.0698 5
    endloop
  endfacet
  facet normal 0 0 1
    outer loop
      vertex 49.0301 -15.0145 5
      vertex 47.2641 -15.4641 5
      vertex 64.7956 -28.0698 5
    endloop
  endfacet
  facet normal 0 0 1
    outer loop
      vertex 49.7796 -13.3534 5
      vertex 64.3314 -24.2012 5
      vertex 63.4781 -22.9944 5
    endloop
  endfacet
  facet normal 0 0 1
    outer loop
      vertex 48.9482 -11.7318 5
      vertex 49.7796 -13.3534 5
      vertex 63.5253 -22.9548 5
    endloop
  endfacet
  facet normal 0 0 1
    outer loop
      vertex 2.2 0 5
      vertex 1.37168 -1.72003 5
      vertex 32.7945 -5 5
    endloop
  endfacet
  facet normal 0 0 1
    outer loop
      vertex 1.37168 1.72003 5
      vertex 2.2 0 5
      vertex 40.0684 5 5
    endloop
  endfacet
  facet normal 0 0 1
    outer loop
      vertex -32.5564 6.7117 5
      vertex -28.6814 0 5
      vertex -20.1078 0.911156 5
    endloop
  endfacet
  facet normal 0 0 1
    outer loop
      vertex -27.8344 5 5
      vertex -20.1078 0.911156 5
      vertex -18.683 2.04735 5
    endloop
  endfacet
  facet normal 0 0 1
    outer loop
      vertex -32.5564 6.7117 5
      vertex -27.8344 5 5
      vertex -28.3413 5.87785 5
    endloop
  endfacet
  facet normal 0 0 1
    outer loop
      vertex -39.5216 9.51056 5
      vertex -46.2129 2.07912 5
      vertex -37.4767 9.94522 5
    endloop
  endfacet
  facet normal 0 0 1
    outer loop
      vertex -41.4314 8.66025 5
      vertex -46.2129 2.07912 5
      vertex -39.5216 9.51056 5
    endloop
  endfacet
  facet normal 0 0 1
    outer loop
      vertex -43.1227 7.43145 5
      vertex -46.2129 2.07912 5
      vertex -41.4314 8.66025 5
    endloop
  endfacet
  facet normal 0 0 1
    outer loop
      vertex -44.5216 5.87785 5
      vertex -46.2129 2.07912 5
      vertex -43.1227 7.43145 5
    endloop
  endfacet
  facet normal 0 0 1
    outer loop
      vertex -45.5669 4.06737 5
      vertex -46.2129 2.07912 5
      vertex -44.5216 5.87785 5
    endloop
  endfacet
  facet normal 0 0 1
    outer loop
      vertex -37.4767 -9.94522 5
      vertex -40.3064 -6.7117 5
      vertex -39.5216 -9.51056 5
    endloop
  endfacet
  facet normal 0 0 1
    outer loop
      vertex -40.3064 6.7117 5
      vertex -33.3413 9.51056 5
      vertex -35.3862 9.94522 5
    endloop
  endfacet
  facet normal 0 0 1
    outer loop
      vertex -32.5564 6.7117 5
      vertex -28.3413 5.87785 5
      vertex -29.7401 7.43145 5
    endloop
  endfacet
  facet normal 0 0 1
    outer loop
      vertex -37.4767 9.94522 5
      vertex -40.3064 6.7117 5
      vertex -35.3862 9.94522 5
    endloop
  endfacet
  facet normal 0 0 1
    outer loop
      vertex -37.4767 9.94522 5
      vertex -46.2129 2.07912 5
      vertex -40.3064 6.7117 5
    endloop
  endfacet
  facet normal 0 0 1
    outer loop
      vertex -31.4314 8.66025 5
      vertex -32.5564 6.7117 5
      vertex -29.7401 7.43145 5
    endloop
  endfacet
  facet normal 0 0 1
    outer loop
      vertex -32.5564 6.7117 5
      vertex -20.1078 0.911156 5
      vertex -27.8344 5 5
    endloop
  endfacet
  facet normal 0 0 1
    outer loop
      vertex -20.1078 -0.911156 5
      vertex -28.6814 0 5
      vertex -27.8344 -5 5
    endloop
  endfacet
  facet normal 0 0 1
    outer loop
      vertex -29.7401 -7.43145 5
      vertex -32.5564 -6.7117 5
      vertex -31.4314 -8.66025 5
    endloop
  endfacet
  facet normal 0 0 1
    outer loop
      vertex -18.683 -2.04735 5
      vertex -20.1078 -0.911156 5
      vertex -27.8344 -5 5
    endloop
  endfacet
  facet normal 0 0 1
    outer loop
      vertex -16.9064 1.64185 5
      vertex -1.98213 -0.954544 5
      vertex -1.98213 0.954544 5
    endloop
  endfacet
  facet normal 0 0 1
    outer loop
      vertex -16.1157 0 5
      vertex -16.9064 -1.64185 5
      vertex -0.489546 -2.14484 5
    endloop
  endfacet
  facet normal 0 0 1
    outer loop
      vertex 2.2 0 5
      vertex 32.7945 -5 5
      vertex 17.7484 -2.04735 5
    endloop
  endfacet
  facet normal 0 0 1
    outer loop
      vertex 40.0684 5 5
      vertex -18.683 2.04735 5
      vertex -16.9064 1.64185 5
    endloop
  endfacet
  facet normal 0 0 1
    outer loop
      vertex 32.7945 -5 5
      vertex -16.9064 -1.64185 5
      vertex -27.8344 -5 5
    endloop
  endfacet
  facet normal 0 0 1
    outer loop
      vertex 1.37168 -1.72003 5
      vertex -0.489546 -2.14484 5
      vertex 32.7945 -5 5
    endloop
  endfacet
  facet normal 0 0 1
    outer loop
      vertex -16.9064 -1.64185 5
      vertex -18.683 -2.04735 5
      vertex -27.8344 -5 5
    endloop
  endfacet
  facet normal 0 0 1
    outer loop
      vertex 16.3237 0.911156 5
      vertex 17.7484 2.04735 5
      vertex 2.2 0 5
    endloop
  endfacet
  facet normal 0 0 1
    outer loop
      vertex -0.489546 -2.14484 5
      vertex -1.98213 -0.954544 5
      vertex -16.9064 1.64185 5
    endloop
  endfacet
  facet normal 0 0 1
    outer loop
      vertex 2.2 0 5
      vertex 16.3237 -0.911156 5
      vertex 16.3237 0.911156 5
    endloop
  endfacet
  facet normal 0 0 1
    outer loop
      vertex 2.2 0 5
      vertex 17.7484 -2.04735 5
      vertex 16.3237 -0.911156 5
    endloop
  endfacet
  facet normal 0 0 1
    outer loop
      vertex 17.7484 2.04735 5
      vertex 19.5251 1.64185 5
      vertex 40.0684 5 5
    endloop
  endfacet
  facet normal 0 0 1
    outer loop
      vertex 40.0684 5 5
      vertex -0.489546 2.14484 5
      vertex 1.37168 1.72003 5
    endloop
  endfacet
  facet normal 0 0 1
    outer loop
      vertex -0.489546 -2.14484 5
      vertex -16.9064 -1.64185 5
      vertex 32.7945 -5 5
    endloop
  endfacet
  facet normal 0 0 1
    outer loop
      vertex -16.9064 1.64185 5
      vertex -1.98213 0.954544 5
      vertex -0.489546 2.14484 5
    endloop
  endfacet
  facet normal 0 0 1
    outer loop
      vertex 57.0148 -25.9479 5
      vertex 58.4108 -24.7765 5
      vertex 47.2641 -15.4641 5
    endloop
  endfacet
  facet normal 0 0 1
    outer loop
      vertex 19.5251 -1.64185 5
      vertex 17.7484 -2.04735 5
      vertex 32.7945 -5 5
    endloop
  endfacet
  facet normal 0 0 1
    outer loop
      vertex 40.0684 5 5
      vertex 2.2 0 5
      vertex 17.7484 2.04735 5
    endloop
  endfacet
  facet normal 0 0 1
    outer loop
      vertex 35.9641 -2.04735 5
      vertex 34.5394 -0.911156 5
      vertex 32.7945 -5 5
    endloop
  endfacet
  facet normal 0 0 1
    outer loop
      vertex 45.8115 -14.3638 5
      vertex 45.7661 -12.5421 5
      vertex 32.7945 -5 5
    endloop
  endfacet
  facet normal 0 0 1
    outer loop
      vertex 34.5394 -0.911156 5
      vertex 20.3157 0 5
      vertex 32.7945 -5 5
    endloop
  endfacet
  facet normal 0 0 1
    outer loop
      vertex 20.3157 0 5
      vertex 19.5251 -1.64185 5
      vertex 32.7945 -5 5
    endloop
  endfacet
  facet normal 0 0 1
    outer loop
      vertex 19.5251 1.64185 5
      vertex 20.3157 0 5
      vertex 40.0684 5 5
    endloop
  endfacet
  facet normal 0 0 1
    outer loop
      vertex 34.5394 0.911156 5
      vertex 20.3157 0 5
      vertex 34.5394 -0.911156 5
    endloop
  endfacet
  facet normal 0 0 1
    outer loop
      vertex 37.7408 -1.64185 5
      vertex 35.9641 -2.04735 5
      vertex 32.7945 -5 5
    endloop
  endfacet
  facet normal 0 0 1
    outer loop
      vertex 35.9641 2.04735 5
      vertex 20.3157 0 5
      vertex 34.5394 0.911156 5
    endloop
  endfacet
  facet normal 0 0 1
    outer loop
      vertex 40.0684 5 5
      vertex 20.3157 0 5
      vertex 35.9641 2.04735 5
    endloop
  endfacet
  facet normal 0 0 1
    outer loop
      vertex 40.0684 5 5
      vertex 37.7408 1.64185 5
      vertex 63.5253 -22.9548 5
    endloop
  endfacet
  facet normal 0 0 1
    outer loop
      vertex 37.7408 1.64185 5
      vertex 38.5314 0 5
      vertex 63.5253 -22.9548 5
    endloop
  endfacet
  facet normal 0 0 1
    outer loop
      vertex 38.5314 0 5
      vertex 37.7408 -1.64185 5
      vertex 63.5253 -22.9548 5
    endloop
  endfacet
  facet normal 0 0 1
    outer loop
      vertex 47.2641 -15.4641 5
      vertex 45.8115 -14.3638 5
      vertex 32.7945 -5 5
    endloop
  endfacet
  facet normal 0 0 1
    outer loop
      vertex 35.9641 2.04735 5
      vertex 37.7408 1.64185 5
      vertex 40.0684 5 5
    endloop
  endfacet
  facet normal 0 0 1
    outer loop
      vertex 57.0603 -27.7696 5
      vertex 57.0148 -25.9479 5
      vertex 32.7945 -5 5
    endloop
  endfacet
  facet normal 0 0 1
    outer loop
      vertex 37.7408 -1.64185 5
      vertex 32.7945 -5 5
      vertex 45.7661 -12.5421 5
    endloop
  endfacet
  facet normal 0 0 1
    outer loop
      vertex 49.7796 -13.3534 5
      vertex 63.4781 -22.9944 5
      vertex 63.5253 -22.9548 5
    endloop
  endfacet
  facet normal 0 0 1
    outer loop
      vertex 37.7408 -1.64185 5
      vertex 45.7661 -12.5421 5
      vertex 47.162 -11.3707 5
    endloop
  endfacet
  facet normal 0 0 1
    outer loop
      vertex 37.7408 -1.64185 5
      vertex 48.9482 -11.7318 5
      vertex 63.5253 -22.9548 5
    endloop
  endfacet
  facet normal 0 0 1
    outer loop
      vertex 37.7408 -1.64185 5
      vertex 47.162 -11.3707 5
      vertex 48.9482 -11.7318 5
    endloop
  endfacet
  facet normal 0 0 1
    outer loop
      vertex 64.3314 -24.2012 5
      vertex 49.0301 -15.0145 5
      vertex 64.8863 -26.0968 5
    endloop
  endfacet
  facet normal 0 0 1
    outer loop
      vertex 49.7796 -13.3534 5
      vertex 49.0301 -15.0145 5
      vertex 64.3314 -24.2012 5
    endloop
  endfacet
  facet normal 0 0 1
    outer loop
      vertex 49.0301 -15.0145 5
      vertex 64.7956 -28.0698 5
      vertex 64.8863 -26.0968 5
    endloop
  endfacet
  facet normal 0 0 1
    outer loop
      vertex 58.5129 -28.8699 5
      vertex 57.0603 -27.7696 5
      vertex 61.0844 -32.4111 5
    endloop
  endfacet
  facet normal 0 0 1
    outer loop
      vertex 57.0148 -25.9479 5
      vertex 47.2641 -15.4641 5
      vertex 32.7945 -5 5
    endloop
  endfacet
  facet normal 0 0 1
    outer loop
      vertex 61.0284 -26.7592 5
      vertex 60.2789 -28.4202 5
      vertex 64.0692 -29.9065 5
    endloop
  endfacet
  facet normal 0 0 1
    outer loop
      vertex 60.2789 -28.4202 5
      vertex 58.5129 -28.8699 5
      vertex 62.7857 -31.4078 5
    endloop
  endfacet
  facet normal 0 0 1
    outer loop
      vertex 60.197 -25.1376 5
      vertex 47.2641 -15.4641 5
      vertex 58.4108 -24.7765 5
    endloop
  endfacet
  facet normal 0 0 1
    outer loop
      vertex 64.7956 -28.0698 5
      vertex 47.2641 -15.4641 5
      vertex 60.197 -25.1376 5
    endloop
  endfacet
  facet normal 0 0 1
    outer loop
      vertex 64.7956 -28.0698 5
      vertex 61.0284 -26.7592 5
      vertex 64.0692 -29.9065 5
    endloop
  endfacet
  facet normal 0 0 1
    outer loop
      vertex 64.0692 -29.9065 5
      vertex 60.2789 -28.4202 5
      vertex 62.7857 -31.4078 5
    endloop
  endfacet
  facet normal 0 0 1
    outer loop
      vertex 62.7857 -31.4078 5
      vertex 58.5129 -28.8699 5
      vertex 61.0844 -32.4111 5
    endloop
  endfacet
  facet normal 0 0 1
    outer loop
      vertex -40.3064 -6.7117 5
      vertex -44.1814 0 5
      vertex -46.2129 2.07912 5
    endloop
  endfacet
  facet normal 0 0 1
    outer loop
      vertex -32.5564 -6.7117 5
      vertex -33.3413 -9.51056 5
      vertex -31.4314 -8.66025 5
    endloop
  endfacet
  facet normal 0 0 1
    outer loop
      vertex -32.5564 -6.7117 5
      vertex -35.3862 -9.94522 5
      vertex -33.3413 -9.51056 5
    endloop
  endfacet
  facet normal 0 0 1
    outer loop
      vertex -32.5564 -6.7117 5
      vertex -37.4767 -9.94522 5
      vertex -35.3862 -9.94522 5
    endloop
  endfacet
  facet normal 0 0 1
    outer loop
      vertex -32.5564 -6.7117 5
      vertex -40.3064 -6.7117 5
      vertex -37.4767 -9.94522 5
    endloop
  endfacet
  facet normal 0 0 1
    outer loop
      vertex -27.8344 5 5
      vertex -18.683 2.04735 5
      vertex 0 5 5
    endloop
  endfacet
  facet normal 0 0 1
    outer loop
      vertex -28.6814 0 5
      vertex -29.7401 -7.43145 5
      vertex -28.3413 -5.87785 5
    endloop
  endfacet
  facet normal 0 0 1
    outer loop
      vertex -28.6814 0 5
      vertex -28.3413 -5.87785 5
      vertex -27.8344 -5 5
    endloop
  endfacet
  facet normal 0 0 1
    outer loop
      vertex -16.9064 1.64185 5
      vertex -0.489546 2.14484 5
      vertex 40.0684 5 5
    endloop
  endfacet
  facet normal 0 0 1
    outer loop
      vertex -20.1078 -0.911156 5
      vertex -20.1078 0.911156 5
      vertex -28.6814 0 5
    endloop
  endfacet
  facet normal 0 0 1
    outer loop
      vertex -0.489546 -2.14484 5
      vertex -16.9064 1.64185 5
      vertex -16.1157 0 5
    endloop
  endfacet
  facet normal 0 0 1
    outer loop
      vertex -44.1814 0 5
      vertex -40.3064 6.7117 5
      vertex -46.2129 2.07912 5
    endloop
  endfacet
  facet normal 0 0 1
    outer loop
      vertex -34.0215 -3.31697 -1
      vertex -32.5564 -6.7117 -1
      vertex -28.6814 0 -1
    endloop
  endfacet
  facet normal 0 0 1
    outer loop
      vertex -37.6984 3.89933 -1
      vertex -36.4314 4.1 -1
      vertex -32.5564 6.7117 -1
    endloop
  endfacet
  facet normal 0 0 1
    outer loop
      vertex -44.1814 0 -1
      vertex -40.5314 0 -1
      vertex -40.3064 6.7117 -1
    endloop
  endfacet
  facet normal 0 0 1
    outer loop
      vertex -44.1814 0 -1
      vertex -40.3064 -6.7117 -1
      vertex -40.5314 0 -1
    endloop
  endfacet
  facet normal 0 0 1
    outer loop
      vertex -40.5314 0 -1
      vertex -40.3308 1.26697 -1
      vertex -40.3064 6.7117 -1
    endloop
  endfacet
  facet normal 0 0 1
    outer loop
      vertex -35.1645 3.89933 -1
      vertex -34.0215 3.31697 -1
      vertex -32.5564 6.7117 -1
    endloop
  endfacet
  facet normal 0 0 1
    outer loop
      vertex -40.3064 6.7117 -1
      vertex -38.8414 3.31697 -1
      vertex -32.5564 6.7117 -1
    endloop
  endfacet
  facet normal 0 0 1
    outer loop
      vertex -40.3064 6.7117 -1
      vertex -39.7484 2.40992 -1
      vertex -38.8414 3.31697 -1
    endloop
  endfacet
  facet normal 0 0 1
    outer loop
      vertex -38.8414 3.31697 -1
      vertex -37.6984 3.89933 -1
      vertex -32.5564 6.7117 -1
    endloop
  endfacet
  facet normal 0 0 1
    outer loop
      vertex -38.8414 -3.31697 -1
      vertex -39.7484 -2.40992 -1
      vertex -40.3064 -6.7117 -1
    endloop
  endfacet
  facet normal 0 0 1
    outer loop
      vertex -36.4314 4.1 -1
      vertex -35.1645 3.89933 -1
      vertex -32.5564 6.7117 -1
    endloop
  endfacet
  facet normal 0 0 1
    outer loop
      vertex -32.5564 6.7117 -1
      vertex -34.0215 3.31697 -1
      vertex -28.6814 0 -1
    endloop
  endfacet
  facet normal 0 0 1
    outer loop
      vertex -34.0215 3.31697 -1
      vertex -33.1145 2.40992 -1
      vertex -28.6814 0 -1
    endloop
  endfacet
  facet normal 0 0 1
    outer loop
      vertex -39.7484 -2.40992 -1
      vertex -40.3308 -1.26697 -1
      vertex -40.3064 -6.7117 -1
    endloop
  endfacet
  facet normal 0 0 1
    outer loop
      vertex -33.1145 2.40992 -1
      vertex -32.5321 1.26697 -1
      vertex -28.6814 0 -1
    endloop
  endfacet
  facet normal 0 0 1
    outer loop
      vertex -32.5321 1.26697 -1
      vertex -32.3314 0 -1
      vertex -28.6814 0 -1
    endloop
  endfacet
  facet normal 0 0 1
    outer loop
      vertex -32.3314 0 -1
      vertex -32.5321 -1.26697 -1
      vertex -28.6814 0 -1
    endloop
  endfacet
  facet normal 0 0 1
    outer loop
      vertex -32.5321 -1.26697 -1
      vertex -33.1145 -2.40992 -1
      vertex -28.6814 0 -1
    endloop
  endfacet
  facet normal 0 0 1
    outer loop
      vertex -40.3064 -6.7117 -1
      vertex -32.5564 -6.7117 -1
      vertex -34.0215 -3.31697 -1
    endloop
  endfacet
  facet normal 0 0 1
    outer loop
      vertex -35.1645 -3.89933 -1
      vertex -36.4314 -4.1 -1
      vertex -40.3064 -6.7117 -1
    endloop
  endfacet
  facet normal 0 0 1
    outer loop
      vertex -40.3064 -6.7117 -1
      vertex -34.0215 -3.31697 -1
      vertex -35.1645 -3.89933 -1
    endloop
  endfacet
  facet normal 0 0 1
    outer loop
      vertex -37.6984 -3.89933 -1
      vertex -38.8414 -3.31697 -1
      vertex -40.3064 -6.7117 -1
    endloop
  endfacet
  facet normal 0 0 1
    outer loop
      vertex -40.5314 0 -1
      vertex -40.3064 -6.7117 -1
      vertex -40.3308 -1.26697 -1
    endloop
  endfacet
  facet normal 0 0 1
    outer loop
      vertex -40.3308 1.26697 -1
      vertex -39.7484 2.40992 -1
      vertex -40.3064 6.7117 -1
    endloop
  endfacet
  facet normal 0 0 1
    outer loop
      vertex -33.1145 -2.40992 -1
      vertex -34.0215 -3.31697 -1
      vertex -28.6814 0 -1
    endloop
  endfacet
  facet normal 0 0 1
    outer loop
      vertex -36.4314 -4.1 -1
      vertex -37.6984 -3.89933 -1
      vertex -40.3064 -6.7117 -1
    endloop
  endfacet
  facet normal 0.866025 0.5 0
    outer loop
      vertex -44.1814 0 5
      vertex -40.3064 -6.7117 5
      vertex -40.3064 -6.7117 -1
    endloop
  endfacet
  facet normal 0.866025 0.5 0
    outer loop
      vertex -44.1814 0 -1
      vertex -44.1814 0 5
      vertex -40.3064 -6.7117 -1
    endloop
  endfacet
  facet normal 0 1 0
    outer loop
      vertex -32.5564 -6.7117 5
      vertex -32.5564 -6.7117 -1
      vertex -40.3064 -6.7117 5
    endloop
  endfacet
  facet normal 0 1 0
    outer loop
      vertex -40.3064 -6.7117 5
      vertex -32.5564 -6.7117 -1
      vertex -40.3064 -6.7117 -1
    endloop
  endfacet
  facet normal -0.866025 0.5 0
    outer loop
      vertex -28.6814 0 5
      vertex -28.6814 0 -1
      vertex -32.5564 -6.7117 5
    endloop
  endfacet
  facet normal -0.866025 0.5 0
    outer loop
      vertex -32.5564 -6.7117 5
      vertex -28.6814 0 -1
      vertex -32.5564 -6.7117 -1
    endloop
  endfacet
  facet normal -0.866025 -0.5 0
    outer loop
      vertex -28.6814 0 5
      vertex -32.5564 6.7117 5
      vertex -28.6814 0 -1
    endloop
  endfacet
  facet normal -0.866025 -0.5 0
    outer loop
      vertex -28.6814 0 -1
      vertex -32.5564 6.7117 5
      vertex -32.5564 6.7117 -1
    endloop
  endfacet
  facet normal 0 -1 0
    outer loop
      vertex -32.5564 6.7117 -1
      vertex -32.5564 6.7117 5
      vertex -40.3064 6.7117 5
    endloop
  endfacet
  facet normal 0 -1 0
    outer loop
      vertex -40.3064 6.7117 -1
      vertex -32.5564 6.7117 -1
      vertex -40.3064 6.7117 5
    endloop
  endfacet
  facet normal 0.866025 -0.5 0
    outer loop
      vertex -40.3064 6.7117 -1
      vertex -40.3064 6.7117 5
      vertex -44.1814 0 5
    endloop
  endfacet
  facet normal 0.866025 -0.5 0
    outer loop
      vertex -44.1814 0 -1
      vertex -40.3064 6.7117 -1
      vertex -44.1814 0 5
    endloop
  endfacet
endsolid OpenSCAD_Model
