solid OpenSCAD_Model
  facet normal 0 0 -1
    outer loop
      vertex -46.4314 0 -5
      vertex -46.2129 2.07912 -5
      vertex -46.2129 -2.07912 -5
    endloop
  endfacet
  facet normal 0 0 -1
    outer loop
      vertex -46.2129 -2.07912 -5
      vertex -46.2129 2.07912 -5
      vertex -45.5669 4.06737 -5
    endloop
  endfacet
  facet normal 0 0 -1
    outer loop
      vertex -46.2129 -2.07912 -5
      vertex -45.5669 4.06737 -5
      vertex -44.5216 5.87785 -5
    endloop
  endfacet
  facet normal 0 0 -1
    outer loop
      vertex -46.2129 -2.07912 -5
      vertex -44.5216 5.87785 -5
      vertex -43.1227 7.43145 -5
    endloop
  endfacet
  facet normal 0 0 -1
    outer loop
      vertex -46.2129 -2.07912 -5
      vertex -43.1227 7.43145 -5
      vertex -41.4314 8.66025 -5
    endloop
  endfacet
  facet normal 0 0 -1
    outer loop
      vertex -46.2129 -2.07912 -5
      vertex -41.4314 8.66025 -5
      vertex -39.5216 9.51056 -5
    endloop
  endfacet
  facet normal 0 0 -1
    outer loop
      vertex -46.2129 -2.07912 -5
      vertex -39.5216 9.51056 -5
      vertex -37.4767 9.94522 -5
    endloop
  endfacet
  facet normal 0 0 -1
    outer loop
      vertex -46.2129 -2.07912 -5
      vertex -37.4767 9.94522 -5
      vertex -35.3862 9.94522 -5
    endloop
  endfacet
  facet normal 0 0 -1
    outer loop
      vertex -46.2129 -2.07912 -5
      vertex -35.3862 9.94522 -5
      vertex -33.3413 9.51056 -5
    endloop
  endfacet
  facet normal 0 0 -1
    outer loop
      vertex -38.8414 3.31697 -5
      vertex -33.3413 9.51056 -5
      vertex -31.4314 8.66025 -5
    endloop
  endfacet
  facet normal 0 0 -1
    outer loop
      vertex -36.4314 4.1 -5
      vertex -31.4314 8.66025 -5
      vertex -29.7401 7.43145 -5
    endloop
  endfacet
  facet normal 0 0 -1
    outer loop
      vertex -35.1645 3.89933 -5
      vertex -29.7401 7.43145 -5
      vertex -28.3413 5.87785 -5
    endloop
  endfacet
  facet normal 0 0 -1
    outer loop
      vertex -34.0215 3.31697 -5
      vertex -28.3413 5.87785 -5
      vertex -27.8344 5 -5
    endloop
  endfacet
  facet normal 0 0 -1
    outer loop
      vertex -32.5321 1.26697 -5
      vertex -27.8344 5 -5
      vertex 33.0559 5 -5
    endloop
  endfacet
  facet normal 0 0 -1
    outer loop
      vertex 33.0559 5 -5
      vertex 51.7258 20.666 -5
      vertex 51.7654 20.6188 -5
    endloop
  endfacet
  facet normal 0 0 -1
    outer loop
      vertex 33.0559 5 -5
      vertex 51.7654 20.6188 -5
      vertex 52.9722 21.4721 -5
    endloop
  endfacet
  facet normal 0 0 -1
    outer loop
      vertex 33.0559 5 -5
      vertex 52.9722 21.4721 -5
      vertex 54.8678 22.027 -5
    endloop
  endfacet
  facet normal 0 0 -1
    outer loop
      vertex 33.0559 5 -5
      vertex 54.8678 22.027 -5
      vertex 56.8408 21.9363 -5
    endloop
  endfacet
  facet normal 0 0 -1
    outer loop
      vertex 33.0559 5 -5
      vertex 56.8408 21.9363 -5
      vertex 58.6775 21.2099 -5
    endloop
  endfacet
  facet normal 0 0 -1
    outer loop
      vertex 55.5302 18.169 -5
      vertex 58.6775 21.2099 -5
      vertex 60.1788 19.9264 -5
    endloop
  endfacet
  facet normal 0 0 -1
    outer loop
      vertex 57.1912 17.4195 -5
      vertex 60.1788 19.9264 -5
      vertex 61.1821 18.225 -5
    endloop
  endfacet
  facet normal 0 0 -1
    outer loop
      vertex 57.6409 15.6536 -5
      vertex 61.1821 18.225 -5
      vertex 61.5785 16.2901 -5
    endloop
  endfacet
  facet normal 0 0 -1
    outer loop
      vertex 56.5406 14.201 -5
      vertex 61.5785 16.2901 -5
      vertex 61.3252 14.3313 -5
    endloop
  endfacet
  facet normal 0 0 -1
    outer loop
      vertex 47.6157 9.3847 -5
      vertex 61.3252 14.3313 -5
      vertex 60.4496 12.5608 -5
    endloop
  endfacet
  facet normal 0 0 -1
    outer loop
      vertex 45.9546 10.1342 -5
      vertex 61.3252 14.3313 -5
      vertex 47.6157 9.3847 -5
    endloop
  endfacet
  facet normal 0 0 -1
    outer loop
      vertex 37.6605 -1.66017 -5
      vertex 59.4393 11.4734 -5
      vertex 39.807 -5 -5
    endloop
  endfacet
  facet normal 0 0 -1
    outer loop
      vertex -34.0215 -3.31697 -5
      vertex 0 -5 -5
      vertex -27.8344 -5 -5
    endloop
  endfacet
  facet normal 0 0 -1
    outer loop
      vertex -35.1645 -3.89933 -5
      vertex -27.8344 -5 -5
      vertex -28.3413 -5.87785 -5
    endloop
  endfacet
  facet normal 0 0 -1
    outer loop
      vertex -37.6984 -3.89933 -5
      vertex -29.7401 -7.43145 -5
      vertex -46.2129 -2.07912 -5
    endloop
  endfacet
  facet normal 0 0 -1
    outer loop
      vertex -46.2129 -2.07912 -5
      vertex -29.7401 -7.43145 -5
      vertex -31.4314 -8.66025 -5
    endloop
  endfacet
  facet normal 0 0 -1
    outer loop
      vertex -46.2129 -2.07912 -5
      vertex -31.4314 -8.66025 -5
      vertex -33.3413 -9.51056 -5
    endloop
  endfacet
  facet normal 0 0 -1
    outer loop
      vertex -46.2129 -2.07912 -5
      vertex -33.3413 -9.51056 -5
      vertex -35.3862 -9.94522 -5
    endloop
  endfacet
  facet normal 0 0 -1
    outer loop
      vertex -46.2129 -2.07912 -5
      vertex -35.3862 -9.94522 -5
      vertex -37.4767 -9.94522 -5
    endloop
  endfacet
  facet normal 0 0 -1
    outer loop
      vertex -46.2129 -2.07912 -5
      vertex -37.4767 -9.94522 -5
      vertex -39.5216 -9.51056 -5
    endloop
  endfacet
  facet normal 0 0 -1
    outer loop
      vertex -46.2129 -2.07912 -5
      vertex -39.5216 -9.51056 -5
      vertex -41.4314 -8.66025 -5
    endloop
  endfacet
  facet normal 0 0 -1
    outer loop
      vertex -46.2129 -2.07912 -5
      vertex -41.4314 -8.66025 -5
      vertex -43.1227 -7.43145 -5
    endloop
  endfacet
  facet normal 0 0 -1
    outer loop
      vertex -46.2129 -2.07912 -5
      vertex -43.1227 -7.43145 -5
      vertex -44.5216 -5.87785 -5
    endloop
  endfacet
  facet normal 0 0 -1
    outer loop
      vertex -46.2129 -2.07912 -5
      vertex -44.5216 -5.87785 -5
      vertex -45.5669 -4.06737 -5
    endloop
  endfacet
  facet normal 0 0 -1
    outer loop
      vertex -39.7484 -2.40992 -5
      vertex -46.2129 -2.07912 -5
      vertex -40.3308 -1.26697 -5
    endloop
  endfacet
  facet normal 0 0 -1
    outer loop
      vertex -46.2129 -2.07912 -5
      vertex -40.5314 0 -5
      vertex -40.3308 -1.26697 -5
    endloop
  endfacet
  facet normal 0 0 -1
    outer loop
      vertex -38.8414 -3.31697 -5
      vertex -46.2129 -2.07912 -5
      vertex -39.7484 -2.40992 -5
    endloop
  endfacet
  facet normal 0 0 -1
    outer loop
      vertex -37.6984 -3.89933 -5
      vertex -46.2129 -2.07912 -5
      vertex -38.8414 -3.31697 -5
    endloop
  endfacet
  facet normal 0 0 -1
    outer loop
      vertex -28.3413 -5.87785 -5
      vertex -29.7401 -7.43145 -5
      vertex -37.6984 -3.89933 -5
    endloop
  endfacet
  facet normal 0 0 -1
    outer loop
      vertex -35.1645 -3.89933 -5
      vertex -28.3413 -5.87785 -5
      vertex -36.4314 -4.1 -5
    endloop
  endfacet
  facet normal 0 0 -1
    outer loop
      vertex -34.0215 -3.31697 -5
      vertex -27.8344 -5 -5
      vertex -35.1645 -3.89933 -5
    endloop
  endfacet
  facet normal 0 0 -1
    outer loop
      vertex -36.4314 -4.1 -5
      vertex -28.3413 -5.87785 -5
      vertex -37.6984 -3.89933 -5
    endloop
  endfacet
  facet normal 0 0 -1
    outer loop
      vertex -18.683 -2.04735 -5
      vertex 39.807 -5 -5
      vertex -33.1145 -2.40992 -5
    endloop
  endfacet
  facet normal 0 0 -1
    outer loop
      vertex -33.1145 -2.40992 -5
      vertex 39.807 -5 -5
      vertex 0 -5 -5
    endloop
  endfacet
  facet normal 0 0 -1
    outer loop
      vertex -20.1078 -0.911156 -5
      vertex -33.1145 -2.40992 -5
      vertex -32.5321 -1.26697 -5
    endloop
  endfacet
  facet normal 0 0 -1
    outer loop
      vertex -33.1145 -2.40992 -5
      vertex 0 -5 -5
      vertex -34.0215 -3.31697 -5
    endloop
  endfacet
  facet normal 0 0 -1
    outer loop
      vertex -20.1078 -0.911156 -5
      vertex -32.5321 -1.26697 -5
      vertex -32.3314 0 -5
    endloop
  endfacet
  facet normal 0 0 -1
    outer loop
      vertex -33.1145 2.40992 -5
      vertex -27.8344 5 -5
      vertex -32.5321 1.26697 -5
    endloop
  endfacet
  facet normal 0 0 -1
    outer loop
      vertex -18.683 2.04735 -5
      vertex -32.5321 1.26697 -5
      vertex 33.0559 5 -5
    endloop
  endfacet
  facet normal 0 0 -1
    outer loop
      vertex -1.98213 0.954544 -5
      vertex -16.1157 0 -5
      vertex -0.489546 2.14484 -5
    endloop
  endfacet
  facet normal 0 0 -1
    outer loop
      vertex 2.2 0 -5
      vertex 17.7484 -2.04735 -5
      vertex 39.807 -5 -5
    endloop
  endfacet
  facet normal 0 0 -1
    outer loop
      vertex -37.6984 3.89933 -5
      vertex -31.4314 8.66025 -5
      vertex -36.4314 4.1 -5
    endloop
  endfacet
  facet normal 0 0 -1
    outer loop
      vertex -38.8414 3.31697 -5
      vertex -31.4314 8.66025 -5
      vertex -37.6984 3.89933 -5
    endloop
  endfacet
  facet normal 0 0 -1
    outer loop
      vertex -46.2129 -2.07912 -5
      vertex -33.3413 9.51056 -5
      vertex -38.8414 3.31697 -5
    endloop
  endfacet
  facet normal 0 0 -1
    outer loop
      vertex -39.7484 2.40992 -5
      vertex -46.2129 -2.07912 -5
      vertex -38.8414 3.31697 -5
    endloop
  endfacet
  facet normal 0 0 -1
    outer loop
      vertex -40.3308 1.26697 -5
      vertex -46.2129 -2.07912 -5
      vertex -39.7484 2.40992 -5
    endloop
  endfacet
  facet normal 0 0 -1
    outer loop
      vertex -20.1078 0.911156 -5
      vertex -32.5321 1.26697 -5
      vertex -18.683 2.04735 -5
    endloop
  endfacet
  facet normal 0 0 -1
    outer loop
      vertex -20.1078 -0.911156 -5
      vertex -32.3314 0 -5
      vertex -20.1078 0.911156 -5
    endloop
  endfacet
  facet normal 0 0 -1
    outer loop
      vertex -0.489546 2.14484 -5
      vertex 33.0559 5 -5
      vertex 1.37168 1.72003 -5
    endloop
  endfacet
  facet normal 0 0 -1
    outer loop
      vertex -18.683 -2.04735 -5
      vertex -33.1145 -2.40992 -5
      vertex -20.1078 -0.911156 -5
    endloop
  endfacet
  facet normal 0 0 -1
    outer loop
      vertex -0.489546 -2.14484 -5
      vertex 39.807 -5 -5
      vertex -18.683 -2.04735 -5
    endloop
  endfacet
  facet normal 0 0 -1
    outer loop
      vertex 20.3157 0 -5
      vertex 39.807 -5 -5
      vertex 19.5251 -1.64185 -5
    endloop
  endfacet
  facet normal 0 0 -1
    outer loop
      vertex 2.2 0 -5
      vertex 16.3237 0.911156 -5
      vertex 16.3237 -0.911156 -5
    endloop
  endfacet
  facet normal 0 0 -1
    outer loop
      vertex -1.98213 -0.954544 -5
      vertex -18.683 -2.04735 -5
      vertex -16.9064 -1.64185 -5
    endloop
  endfacet
  facet normal 0 0 -1
    outer loop
      vertex -16.9064 1.64185 -5
      vertex 33.0559 5 -5
      vertex -0.489546 2.14484 -5
    endloop
  endfacet
  facet normal 0 0 -1
    outer loop
      vertex -34.0215 3.31697 -5
      vertex -27.8344 5 -5
      vertex -33.1145 2.40992 -5
    endloop
  endfacet
  facet normal 0 0 -1
    outer loop
      vertex -16.9064 1.64185 -5
      vertex -18.683 2.04735 -5
      vertex 33.0559 5 -5
    endloop
  endfacet
  facet normal 0 0 -1
    outer loop
      vertex 2.2 0 -5
      vertex 16.3237 -0.911156 -5
      vertex 17.7484 -2.04735 -5
    endloop
  endfacet
  facet normal 0 0 -1
    outer loop
      vertex -16.1157 0 -5
      vertex -1.98213 0.954544 -5
      vertex -16.9064 -1.64185 -5
    endloop
  endfacet
  facet normal 0 0 -1
    outer loop
      vertex 2.2 0 -5
      vertex 33.0559 5 -5
      vertex 17.7484 2.04735 -5
    endloop
  endfacet
  facet normal 0 0 -1
    outer loop
      vertex 1.37168 -1.72003 -5
      vertex 39.807 -5 -5
      vertex -0.489546 -2.14484 -5
    endloop
  endfacet
  facet normal 0 0 -1
    outer loop
      vertex -1.98213 -0.954544 -5
      vertex -0.489546 -2.14484 -5
      vertex -18.683 -2.04735 -5
    endloop
  endfacet
  facet normal 0 0 -1
    outer loop
      vertex 1.37168 1.72003 -5
      vertex 33.0559 5 -5
      vertex 2.2 0 -5
    endloop
  endfacet
  facet normal 0 0 -1
    outer loop
      vertex 2.2 0 -5
      vertex 17.7484 2.04735 -5
      vertex 16.3237 0.911156 -5
    endloop
  endfacet
  facet normal 0 0 -1
    outer loop
      vertex -16.9064 1.64185 -5
      vertex -0.489546 2.14484 -5
      vertex -16.1157 0 -5
    endloop
  endfacet
  facet normal 0 0 -1
    outer loop
      vertex -1.98213 -0.954544 -5
      vertex -16.9064 -1.64185 -5
      vertex -1.98213 0.954544 -5
    endloop
  endfacet
  facet normal 0 0 -1
    outer loop
      vertex 17.7484 2.04735 -5
      vertex 33.0559 5 -5
      vertex 19.5251 1.64185 -5
    endloop
  endfacet
  facet normal 0 0 -1
    outer loop
      vertex 53.5475 15.5515 -5
      vertex 33.0559 5 -5
      vertex 53.9086 17.3377 -5
    endloop
  endfacet
  facet normal 0 0 -1
    outer loop
      vertex 19.5251 -1.64185 -5
      vertex 39.807 -5 -5
      vertex 17.7484 -2.04735 -5
    endloop
  endfacet
  facet normal 0 0 -1
    outer loop
      vertex 57.6409 15.6536 -5
      vertex 61.5785 16.2901 -5
      vertex 56.5406 14.201 -5
    endloop
  endfacet
  facet normal 0 0 -1
    outer loop
      vertex 35.8998 -1.99601 -5
      vertex 39.807 -5 -5
      vertex 20.3157 0 -5
    endloop
  endfacet
  facet normal 0 0 -1
    outer loop
      vertex 33.0559 5 -5
      vertex 20.3157 0 -5
      vertex 19.5251 1.64185 -5
    endloop
  endfacet
  facet normal 0 0 -1
    outer loop
      vertex 36.2246 -1.98791 -5
      vertex 39.807 -5 -5
      vertex 35.8998 -1.99601 -5
    endloop
  endfacet
  facet normal 0 0 -1
    outer loop
      vertex 33.0559 5 -5
      vertex 34.5394 0.644023 -5
      vertex 20.3157 0 -5
    endloop
  endfacet
  facet normal 0 0 -1
    outer loop
      vertex 37.6605 -1.66017 -5
      vertex 39.807 -5 -5
      vertex 36.2246 -1.98791 -5
    endloop
  endfacet
  facet normal 0 0 -1
    outer loop
      vertex 34.5394 0.644023 -5
      vertex 34.5394 -0.82881 -5
      vertex 20.3157 0 -5
    endloop
  endfacet
  facet normal 0 0 -1
    outer loop
      vertex 34.5394 -0.82881 -5
      vertex 34.7483 -1.07771 -5
      vertex 20.3157 0 -5
    endloop
  endfacet
  facet normal 0 0 -1
    outer loop
      vertex 44.333 9.30283 -5
      vertex 33.0559 5 -5
      vertex 45.9546 10.1342 -5
    endloop
  endfacet
  facet normal 0 0 -1
    outer loop
      vertex 34.7483 -1.07771 -5
      vertex 35.8998 -1.99601 -5
      vertex 20.3157 0 -5
    endloop
  endfacet
  facet normal 0 0 -1
    outer loop
      vertex 37.8567 -1.40117 -5
      vertex 59.4393 11.4734 -5
      vertex 37.6605 -1.66017 -5
    endloop
  endfacet
  facet normal 0 0 -1
    outer loop
      vertex 36.0444 2.02903 -5
      vertex 33.0559 5 -5
      vertex 37.4803 1.70129 -5
    endloop
  endfacet
  facet normal 0 0 -1
    outer loop
      vertex 38.4957 -0.0741906 -5
      vertex 59.4393 11.4734 -5
      vertex 37.8567 -1.40117 -5
    endloop
  endfacet
  facet normal 0 0 -1
    outer loop
      vertex 47.6157 9.3847 -5
      vertex 60.4496 12.5608 -5
      vertex 59.3997 11.5206 -5
    endloop
  endfacet
  facet normal 0 0 -1
    outer loop
      vertex 38.4155 0.240675 -5
      vertex 59.4393 11.4734 -5
      vertex 38.4957 -0.0741906 -5
    endloop
  endfacet
  facet normal 0 0 -1
    outer loop
      vertex 37.7765 1.56766 -5
      vertex 59.4393 11.4734 -5
      vertex 38.4155 0.240675 -5
    endloop
  endfacet
  facet normal 0 0 -1
    outer loop
      vertex 46.965 6.16611 -5
      vertex 59.4393 11.4734 -5
      vertex 37.7765 1.56766 -5
    endloop
  endfacet
  facet normal 0 0 -1
    outer loop
      vertex 33.0559 5 -5
      vertex 37.7765 1.56766 -5
      vertex 37.4803 1.70129 -5
    endloop
  endfacet
  facet normal 0 0 -1
    outer loop
      vertex 34.6038 0.962498 -5
      vertex 33.0559 5 -5
      vertex 35.7553 1.88079 -5
    endloop
  endfacet
  facet normal 0 0 -1
    outer loop
      vertex 33.0559 5 -5
      vertex 36.0444 2.02903 -5
      vertex 35.7553 1.88079 -5
    endloop
  endfacet
  facet normal 0 0 -1
    outer loop
      vertex 47.6157 9.3847 -5
      vertex 59.3997 11.5206 -5
      vertex 59.4393 11.4734 -5
    endloop
  endfacet
  facet normal 0 0 -1
    outer loop
      vertex 33.0559 5 -5
      vertex 34.6038 0.962498 -5
      vertex 34.5394 0.644023 -5
    endloop
  endfacet
  facet normal 0 0 -1
    outer loop
      vertex 43.9719 7.51665 -5
      vertex 33.0559 5 -5
      vertex 44.333 9.30283 -5
    endloop
  endfacet
  facet normal 0 0 -1
    outer loop
      vertex 48.0654 7.61874 -5
      vertex 59.4393 11.4734 -5
      vertex 46.965 6.16611 -5
    endloop
  endfacet
  facet normal 0 0 -1
    outer loop
      vertex 33.0559 5 -5
      vertex 43.9719 7.51665 -5
      vertex 37.7765 1.56766 -5
    endloop
  endfacet
  facet normal 0 0 -1
    outer loop
      vertex 47.6157 9.3847 -5
      vertex 59.4393 11.4734 -5
      vertex 48.0654 7.61874 -5
    endloop
  endfacet
  facet normal 0 0 -1
    outer loop
      vertex 43.9719 7.51665 -5
      vertex 45.1433 6.12068 -5
      vertex 37.7765 1.56766 -5
    endloop
  endfacet
  facet normal 0 0 -1
    outer loop
      vertex 45.1433 6.12068 -5
      vertex 46.965 6.16611 -5
      vertex 37.7765 1.56766 -5
    endloop
  endfacet
  facet normal 0 0 -1
    outer loop
      vertex 45.9546 10.1342 -5
      vertex 56.5406 14.201 -5
      vertex 61.3252 14.3313 -5
    endloop
  endfacet
  facet normal 0 0 -1
    outer loop
      vertex 33.0559 5 -5
      vertex 58.6775 21.2099 -5
      vertex 53.9086 17.3377 -5
    endloop
  endfacet
  facet normal 0 0 -1
    outer loop
      vertex 54.7189 14.1555 -5
      vertex 33.0559 5 -5
      vertex 53.5475 15.5515 -5
    endloop
  endfacet
  facet normal 0 0 -1
    outer loop
      vertex 54.7189 14.1555 -5
      vertex 45.9546 10.1342 -5
      vertex 33.0559 5 -5
    endloop
  endfacet
  facet normal 0 0 -1
    outer loop
      vertex 56.5406 14.201 -5
      vertex 45.9546 10.1342 -5
      vertex 54.7189 14.1555 -5
    endloop
  endfacet
  facet normal 0 0 -1
    outer loop
      vertex 57.1912 17.4195 -5
      vertex 61.1821 18.225 -5
      vertex 57.6409 15.6536 -5
    endloop
  endfacet
  facet normal 0 0 -1
    outer loop
      vertex 55.5302 18.169 -5
      vertex 60.1788 19.9264 -5
      vertex 57.1912 17.4195 -5
    endloop
  endfacet
  facet normal 0 0 -1
    outer loop
      vertex 53.9086 17.3377 -5
      vertex 58.6775 21.2099 -5
      vertex 55.5302 18.169 -5
    endloop
  endfacet
  facet normal 0 0 -1
    outer loop
      vertex -40.5314 0 -5
      vertex -46.2129 -2.07912 -5
      vertex -40.3308 1.26697 -5
    endloop
  endfacet
  facet normal 0 0 -1
    outer loop
      vertex -36.4314 4.1 -5
      vertex -29.7401 7.43145 -5
      vertex -35.1645 3.89933 -5
    endloop
  endfacet
  facet normal 0 0 -1
    outer loop
      vertex -20.1078 0.911156 -5
      vertex -32.3314 0 -5
      vertex -32.5321 1.26697 -5
    endloop
  endfacet
  facet normal 0 0 -1
    outer loop
      vertex -35.1645 3.89933 -5
      vertex -28.3413 5.87785 -5
      vertex -34.0215 3.31697 -5
    endloop
  endfacet
  facet normal 0 0 -1
    outer loop
      vertex 2.2 0 -5
      vertex 39.807 -5 -5
      vertex 1.37168 -1.72003 -5
    endloop
  endfacet
  facet normal -0.994522 0.104528 0
    outer loop
      vertex -46.4314 0 -5
      vertex -46.4314 0 5
      vertex -46.2129 2.07912 -5
    endloop
  endfacet
  facet normal -0.994522 0.104528 0
    outer loop
      vertex -46.2129 2.07912 -5
      vertex -46.4314 0 5
      vertex -46.2129 2.07912 5
    endloop
  endfacet
  facet normal -0.994522 -0.104528 0
    outer loop
      vertex -46.4314 0 -5
      vertex -46.2129 -2.07912 -5
      vertex -46.4314 0 5
    endloop
  endfacet
  facet normal -0.994522 -0.104528 0
    outer loop
      vertex -46.4314 0 5
      vertex -46.2129 -2.07912 -5
      vertex -46.2129 -2.07912 5
    endloop
  endfacet
  facet normal -0.951057 -0.309017 0
    outer loop
      vertex -46.2129 -2.07912 -5
      vertex -45.5669 -4.06737 -5
      vertex -46.2129 -2.07912 5
    endloop
  endfacet
  facet normal -0.951057 -0.309017 0
    outer loop
      vertex -46.2129 -2.07912 5
      vertex -45.5669 -4.06737 -5
      vertex -45.5669 -4.06737 5
    endloop
  endfacet
  facet normal -0.866025 -0.5 0
    outer loop
      vertex -45.5669 -4.06737 -5
      vertex -44.5216 -5.87785 -5
      vertex -45.5669 -4.06737 5
    endloop
  endfacet
  facet normal -0.866025 -0.5 0
    outer loop
      vertex -45.5669 -4.06737 5
      vertex -44.5216 -5.87785 -5
      vertex -44.5216 -5.87785 5
    endloop
  endfacet
  facet normal -0.743145 -0.669131 0
    outer loop
      vertex -44.5216 -5.87785 -5
      vertex -43.1227 -7.43145 -5
      vertex -44.5216 -5.87785 5
    endloop
  endfacet
  facet normal -0.743145 -0.669131 0
    outer loop
      vertex -44.5216 -5.87785 5
      vertex -43.1227 -7.43145 -5
      vertex -43.1227 -7.43145 5
    endloop
  endfacet
  facet normal -0.587785 -0.809017 0
    outer loop
      vertex -43.1227 -7.43145 5
      vertex -43.1227 -7.43145 -5
      vertex -41.4314 -8.66025 -5
    endloop
  endfacet
  facet normal -0.587785 -0.809017 0
    outer loop
      vertex -41.4314 -8.66025 5
      vertex -43.1227 -7.43145 5
      vertex -41.4314 -8.66025 -5
    endloop
  endfacet
  facet normal -0.406737 -0.913545 0
    outer loop
      vertex -41.4314 -8.66025 5
      vertex -41.4314 -8.66025 -5
      vertex -39.5216 -9.51056 -5
    endloop
  endfacet
  facet normal -0.406737 -0.913545 0
    outer loop
      vertex -39.5216 -9.51056 5
      vertex -41.4314 -8.66025 5
      vertex -39.5216 -9.51056 -5
    endloop
  endfacet
  facet normal -0.207912 -0.978148 0
    outer loop
      vertex -39.5216 -9.51056 5
      vertex -39.5216 -9.51056 -5
      vertex -37.4767 -9.94522 -5
    endloop
  endfacet
  facet normal -0.207912 -0.978148 0
    outer loop
      vertex -37.4767 -9.94522 5
      vertex -39.5216 -9.51056 5
      vertex -37.4767 -9.94522 -5
    endloop
  endfacet
  facet normal 0 -1 0
    outer loop
      vertex -37.4767 -9.94522 5
      vertex -37.4767 -9.94522 -5
      vertex -35.3862 -9.94522 -5
    endloop
  endfacet
  facet normal 0 -1 0
    outer loop
      vertex -35.3862 -9.94522 5
      vertex -37.4767 -9.94522 5
      vertex -35.3862 -9.94522 -5
    endloop
  endfacet
  facet normal 0.207912 -0.978148 0
    outer loop
      vertex -35.3862 -9.94522 5
      vertex -35.3862 -9.94522 -5
      vertex -33.3413 -9.51056 -5
    endloop
  endfacet
  facet normal 0.207912 -0.978148 0
    outer loop
      vertex -33.3413 -9.51056 5
      vertex -35.3862 -9.94522 5
      vertex -33.3413 -9.51056 -5
    endloop
  endfacet
  facet normal 0.406737 -0.913545 0
    outer loop
      vertex -33.3413 -9.51056 5
      vertex -33.3413 -9.51056 -5
      vertex -31.4314 -8.66025 -5
    endloop
  endfacet
  facet normal 0.406737 -0.913545 0
    outer loop
      vertex -31.4314 -8.66025 5
      vertex -33.3413 -9.51056 5
      vertex -31.4314 -8.66025 -5
    endloop
  endfacet
  facet normal 0.587785 -0.809017 0
    outer loop
      vertex -31.4314 -8.66025 5
      vertex -31.4314 -8.66025 -5
      vertex -29.7401 -7.43145 -5
    endloop
  endfacet
  facet normal 0.587785 -0.809017 0
    outer loop
      vertex -29.7401 -7.43145 5
      vertex -31.4314 -8.66025 5
      vertex -29.7401 -7.43145 -5
    endloop
  endfacet
  facet normal 0.743145 -0.669131 0
    outer loop
      vertex -29.7401 -7.43145 5
      vertex -29.7401 -7.43145 -5
      vertex -28.3413 -5.87785 -5
    endloop
  endfacet
  facet normal 0.743145 -0.669131 0
    outer loop
      vertex -28.3413 -5.87785 5
      vertex -29.7401 -7.43145 5
      vertex -28.3413 -5.87785 -5
    endloop
  endfacet
  facet normal 0.866025 -0.5 0
    outer loop
      vertex -28.3413 -5.87785 5
      vertex -28.3413 -5.87785 -5
      vertex -27.8344 -5 -5
    endloop
  endfacet
  facet normal 0.866025 -0.5 0
    outer loop
      vertex -27.8344 -5 5
      vertex -28.3413 -5.87785 5
      vertex -27.8344 -5 -5
    endloop
  endfacet
  facet normal 0 -1 0
    outer loop
      vertex -27.8344 -5 5
      vertex -27.8344 -5 -5
      vertex 0 -5 -5
    endloop
  endfacet
  facet normal 0 -1 0
    outer loop
      vertex 0 -5 5
      vertex -27.8344 -5 5
      vertex 0 -5 -5
    endloop
  endfacet
  facet normal 0 -1 0
    outer loop
      vertex 0 -5 5
      vertex 0 -5 -5
      vertex 39.807 -5 -5
    endloop
  endfacet
  facet normal 0 -1 0
    outer loop
      vertex 39.807 -5 5
      vertex 0 -5 5
      vertex 39.807 -5 -5
    endloop
  endfacet
  facet normal 0.642788 -0.766044 0
    outer loop
      vertex 39.807 -5 5
      vertex 39.807 -5 -5
      vertex 59.4393 11.4734 -5
    endloop
  endfacet
  facet normal 0.642788 -0.766044 0
    outer loop
      vertex 59.4393 11.4734 5
      vertex 39.807 -5 5
      vertex 59.4393 11.4734 -5
    endloop
  endfacet
  facet normal 0.766044 0.642788 0
    outer loop
      vertex 59.4393 11.4734 -5
      vertex 59.3997 11.5206 -5
      vertex 59.3997 11.5206 5
    endloop
  endfacet
  facet normal 0.766044 0.642788 0
    outer loop
      vertex 59.4393 11.4734 5
      vertex 59.4393 11.4734 -5
      vertex 59.3997 11.5206 5
    endloop
  endfacet
  facet normal 0.703851 -0.710347 0
    outer loop
      vertex 59.3997 11.5206 5
      vertex 59.3997 11.5206 -5
      vertex 60.4496 12.5608 -5
    endloop
  endfacet
  facet normal 0.703851 -0.710347 0
    outer loop
      vertex 60.4496 12.5608 5
      vertex 59.3997 11.5206 5
      vertex 60.4496 12.5608 -5
    endloop
  endfacet
  facet normal 0.896364 -0.443318 0
    outer loop
      vertex 60.4496 12.5608 5
      vertex 60.4496 12.5608 -5
      vertex 61.3252 14.3313 -5
    endloop
  endfacet
  facet normal 0.896364 -0.443318 0
    outer loop
      vertex 61.3252 14.3313 5
      vertex 60.4496 12.5608 5
      vertex 61.3252 14.3313 -5
    endloop
  endfacet
  facet normal 0.991742 -0.128249 0
    outer loop
      vertex 61.3252 14.3313 5
      vertex 61.3252 14.3313 -5
      vertex 61.5785 16.2901 -5
    endloop
  endfacet
  facet normal 0.991742 -0.128249 0
    outer loop
      vertex 61.5785 16.2901 5
      vertex 61.3252 14.3313 5
      vertex 61.5785 16.2901 -5
    endloop
  endfacet
  facet normal 0.979649 0.200718 0
    outer loop
      vertex 61.5785 16.2901 -5
      vertex 61.1821 18.225 -5
      vertex 61.1821 18.225 5
    endloop
  endfacet
  facet normal 0.979649 0.200718 0
    outer loop
      vertex 61.5785 16.2901 5
      vertex 61.5785 16.2901 -5
      vertex 61.1821 18.225 5
    endloop
  endfacet
  facet normal 0.861396 0.507934 0
    outer loop
      vertex 61.1821 18.225 -5
      vertex 60.1788 19.9264 -5
      vertex 60.1788 19.9264 5
    endloop
  endfacet
  facet normal 0.861396 0.507934 0
    outer loop
      vertex 61.1821 18.225 5
      vertex 61.1821 18.225 -5
      vertex 60.1788 19.9264 5
    endloop
  endfacet
  facet normal 0.649797 0.760108 0
    outer loop
      vertex 58.6775 21.2099 -5
      vertex 58.6775 21.2099 5
      vertex 60.1788 19.9264 -5
    endloop
  endfacet
  facet normal 0.649797 0.760108 0
    outer loop
      vertex 60.1788 19.9264 -5
      vertex 58.6775 21.2099 5
      vertex 60.1788 19.9264 5
    endloop
  endfacet
  facet normal 0.367783 0.929912 0
    outer loop
      vertex 56.8408 21.9363 -5
      vertex 56.8408 21.9363 5
      vertex 58.6775 21.2099 -5
    endloop
  endfacet
  facet normal 0.367783 0.929912 0
    outer loop
      vertex 58.6775 21.2099 -5
      vertex 56.8408 21.9363 5
      vertex 58.6775 21.2099 5
    endloop
  endfacet
  facet normal 0.0459138 0.998945 0
    outer loop
      vertex 54.8678 22.027 -5
      vertex 54.8678 22.027 5
      vertex 56.8408 21.9363 -5
    endloop
  endfacet
  facet normal 0.0459138 0.998945 0
    outer loop
      vertex 56.8408 21.9363 -5
      vertex 54.8678 22.027 5
      vertex 56.8408 21.9363 5
    endloop
  endfacet
  facet normal -0.280931 0.959728 0
    outer loop
      vertex 52.9722 21.4721 -5
      vertex 52.9722 21.4721 5
      vertex 54.8678 22.027 -5
    endloop
  endfacet
  facet normal -0.280931 0.959728 0
    outer loop
      vertex 54.8678 22.027 -5
      vertex 52.9722 21.4721 5
      vertex 54.8678 22.027 5
    endloop
  endfacet
  facet normal -0.577333 0.816509 0
    outer loop
      vertex 51.7654 20.6188 -5
      vertex 51.7654 20.6188 5
      vertex 52.9722 21.4721 -5
    endloop
  endfacet
  facet normal -0.577333 0.816509 0
    outer loop
      vertex 52.9722 21.4721 -5
      vertex 51.7654 20.6188 5
      vertex 52.9722 21.4721 5
    endloop
  endfacet
  facet normal 0.766044 0.642788 0
    outer loop
      vertex 51.7654 20.6188 -5
      vertex 51.7258 20.666 -5
      vertex 51.7258 20.666 5
    endloop
  endfacet
  facet normal 0.766044 0.642788 0
    outer loop
      vertex 51.7654 20.6188 5
      vertex 51.7654 20.6188 -5
      vertex 51.7258 20.666 5
    endloop
  endfacet
  facet normal -0.642788 0.766044 0
    outer loop
      vertex 33.0559 5 -5
      vertex 33.0559 5 5
      vertex 51.7258 20.666 -5
    endloop
  endfacet
  facet normal -0.642788 0.766044 0
    outer loop
      vertex 51.7258 20.666 -5
      vertex 33.0559 5 5
      vertex 51.7258 20.666 5
    endloop
  endfacet
  facet normal 0 1 0
    outer loop
      vertex -27.8344 5 -5
      vertex -27.8344 5 5
      vertex 33.0559 5 -5
    endloop
  endfacet
  facet normal 0 1 0
    outer loop
      vertex 33.0559 5 -5
      vertex -27.8344 5 5
      vertex 33.0559 5 5
    endloop
  endfacet
  facet normal 0.866025 0.5 0
    outer loop
      vertex -27.8344 5 -5
      vertex -28.3413 5.87785 -5
      vertex -28.3413 5.87785 5
    endloop
  endfacet
  facet normal 0.866025 0.5 0
    outer loop
      vertex -27.8344 5 5
      vertex -27.8344 5 -5
      vertex -28.3413 5.87785 5
    endloop
  endfacet
  facet normal 0.743145 0.669131 0
    outer loop
      vertex -28.3413 5.87785 -5
      vertex -29.7401 7.43145 -5
      vertex -29.7401 7.43145 5
    endloop
  endfacet
  facet normal 0.743145 0.669131 0
    outer loop
      vertex -28.3413 5.87785 5
      vertex -28.3413 5.87785 -5
      vertex -29.7401 7.43145 5
    endloop
  endfacet
  facet normal 0.587785 0.809017 0
    outer loop
      vertex -31.4314 8.66025 -5
      vertex -31.4314 8.66025 5
      vertex -29.7401 7.43145 -5
    endloop
  endfacet
  facet normal 0.587785 0.809017 0
    outer loop
      vertex -29.7401 7.43145 -5
      vertex -31.4314 8.66025 5
      vertex -29.7401 7.43145 5
    endloop
  endfacet
  facet normal 0.406737 0.913545 0
    outer loop
      vertex -33.3413 9.51056 -5
      vertex -33.3413 9.51056 5
      vertex -31.4314 8.66025 -5
    endloop
  endfacet
  facet normal 0.406737 0.913545 0
    outer loop
      vertex -31.4314 8.66025 -5
      vertex -33.3413 9.51056 5
      vertex -31.4314 8.66025 5
    endloop
  endfacet
  facet normal 0.207912 0.978148 0
    outer loop
      vertex -35.3862 9.94522 -5
      vertex -35.3862 9.94522 5
      vertex -33.3413 9.51056 -5
    endloop
  endfacet
  facet normal 0.207912 0.978148 0
    outer loop
      vertex -33.3413 9.51056 -5
      vertex -35.3862 9.94522 5
      vertex -33.3413 9.51056 5
    endloop
  endfacet
  facet normal 0 1 0
    outer loop
      vertex -37.4767 9.94522 -5
      vertex -37.4767 9.94522 5
      vertex -35.3862 9.94522 -5
    endloop
  endfacet
  facet normal 0 1 0
    outer loop
      vertex -35.3862 9.94522 -5
      vertex -37.4767 9.94522 5
      vertex -35.3862 9.94522 5
    endloop
  endfacet
  facet normal -0.207912 0.978148 0
    outer loop
      vertex -39.5216 9.51056 -5
      vertex -39.5216 9.51056 5
      vertex -37.4767 9.94522 -5
    endloop
  endfacet
  facet normal -0.207912 0.978148 0
    outer loop
      vertex -37.4767 9.94522 -5
      vertex -39.5216 9.51056 5
      vertex -37.4767 9.94522 5
    endloop
  endfacet
  facet normal -0.406737 0.913545 0
    outer loop
      vertex -41.4314 8.66025 -5
      vertex -41.4314 8.66025 5
      vertex -39.5216 9.51056 -5
    endloop
  endfacet
  facet normal -0.406737 0.913545 0
    outer loop
      vertex -39.5216 9.51056 -5
      vertex -41.4314 8.66025 5
      vertex -39.5216 9.51056 5
    endloop
  endfacet
  facet normal -0.587785 0.809017 0
    outer loop
      vertex -43.1227 7.43145 -5
      vertex -43.1227 7.43145 5
      vertex -41.4314 8.66025 -5
    endloop
  endfacet
  facet normal -0.587785 0.809017 0
    outer loop
      vertex -41.4314 8.66025 -5
      vertex -43.1227 7.43145 5
      vertex -41.4314 8.66025 5
    endloop
  endfacet
  facet normal -0.743145 0.669131 0
    outer loop
      vertex -44.5216 5.87785 -5
      vertex -44.5216 5.87785 5
      vertex -43.1227 7.43145 -5
    endloop
  endfacet
  facet normal -0.743145 0.669131 0
    outer loop
      vertex -43.1227 7.43145 -5
      vertex -44.5216 5.87785 5
      vertex -43.1227 7.43145 5
    endloop
  endfacet
  facet normal -0.866025 0.5 0
    outer loop
      vertex -45.5669 4.06737 -5
      vertex -45.5669 4.06737 5
      vertex -44.5216 5.87785 -5
    endloop
  endfacet
  facet normal -0.866025 0.5 0
    outer loop
      vertex -44.5216 5.87785 -5
      vertex -45.5669 4.06737 5
      vertex -44.5216 5.87785 5
    endloop
  endfacet
  facet normal -0.951057 0.309017 0
    outer loop
      vertex -46.2129 2.07912 -5
      vertex -46.2129 2.07912 5
      vertex -45.5669 4.06737 -5
    endloop
  endfacet
  facet normal -0.951057 0.309017 0
    outer loop
      vertex -45.5669 4.06737 -5
      vertex -46.2129 2.07912 5
      vertex -45.5669 4.06737 5
    endloop
  endfacet
  facet normal 0.987688 0.156434 0
    outer loop
      vertex -40.5314 0 -1
      vertex -40.3308 -1.26697 -1
      vertex -40.3308 -1.26697 -5
    endloop
  endfacet
  facet normal 0.987688 0.156434 0
    outer loop
      vertex -40.5314 0 -5
      vertex -40.5314 0 -1
      vertex -40.3308 -1.26697 -5
    endloop
  endfacet
  facet normal 0.987688 -0.156434 0
    outer loop
      vertex -40.3308 1.26697 -5
      vertex -40.3308 1.26697 -1
      vertex -40.5314 0 -1
    endloop
  endfacet
  facet normal 0.987688 -0.156434 0
    outer loop
      vertex -40.5314 0 -5
      vertex -40.3308 1.26697 -5
      vertex -40.5314 0 -1
    endloop
  endfacet
  facet normal 0.891007 -0.45399 0
    outer loop
      vertex -39.7484 2.40992 -5
      vertex -39.7484 2.40992 -1
      vertex -40.3308 1.26697 -1
    endloop
  endfacet
  facet normal 0.891007 -0.45399 0
    outer loop
      vertex -40.3308 1.26697 -5
      vertex -39.7484 2.40992 -5
      vertex -40.3308 1.26697 -1
    endloop
  endfacet
  facet normal 0.707107 -0.707107 0
    outer loop
      vertex -38.8414 3.31697 -5
      vertex -38.8414 3.31697 -1
      vertex -39.7484 2.40992 -1
    endloop
  endfacet
  facet normal 0.707107 -0.707107 0
    outer loop
      vertex -39.7484 2.40992 -5
      vertex -38.8414 3.31697 -5
      vertex -39.7484 2.40992 -1
    endloop
  endfacet
  facet normal 0.45399 -0.891007 0
    outer loop
      vertex -37.6984 3.89933 -5
      vertex -37.6984 3.89933 -1
      vertex -38.8414 3.31697 -1
    endloop
  endfacet
  facet normal 0.45399 -0.891007 0
    outer loop
      vertex -38.8414 3.31697 -5
      vertex -37.6984 3.89933 -5
      vertex -38.8414 3.31697 -1
    endloop
  endfacet
  facet normal 0.156434 -0.987688 0
    outer loop
      vertex -36.4314 4.1 -5
      vertex -36.4314 4.1 -1
      vertex -37.6984 3.89933 -1
    endloop
  endfacet
  facet normal 0.156434 -0.987688 0
    outer loop
      vertex -37.6984 3.89933 -5
      vertex -36.4314 4.1 -5
      vertex -37.6984 3.89933 -1
    endloop
  endfacet
  facet normal -0.156434 -0.987688 0
    outer loop
      vertex -35.1645 3.89933 -5
      vertex -35.1645 3.89933 -1
      vertex -36.4314 4.1 -1
    endloop
  endfacet
  facet normal -0.156434 -0.987688 0
    outer loop
      vertex -36.4314 4.1 -5
      vertex -35.1645 3.89933 -5
      vertex -36.4314 4.1 -1
    endloop
  endfacet
  facet normal -0.45399 -0.891007 0
    outer loop
      vertex -34.0215 3.31697 -5
      vertex -34.0215 3.31697 -1
      vertex -35.1645 3.89933 -1
    endloop
  endfacet
  facet normal -0.45399 -0.891007 0
    outer loop
      vertex -35.1645 3.89933 -5
      vertex -34.0215 3.31697 -5
      vertex -35.1645 3.89933 -1
    endloop
  endfacet
  facet normal -0.707107 -0.707107 0
    outer loop
      vertex -33.1145 2.40992 -5
      vertex -33.1145 2.40992 -1
      vertex -34.0215 3.31697 -1
    endloop
  endfacet
  facet normal -0.707107 -0.707107 0
    outer loop
      vertex -34.0215 3.31697 -5
      vertex -33.1145 2.40992 -5
      vertex -34.0215 3.31697 -1
    endloop
  endfacet
  facet normal -0.891007 -0.45399 0
    outer loop
      vertex -32.5321 1.26697 -1
      vertex -33.1145 2.40992 -1
      vertex -32.5321 1.26697 -5
    endloop
  endfacet
  facet normal -0.891007 -0.45399 0
    outer loop
      vertex -32.5321 1.26697 -5
      vertex -33.1145 2.40992 -1
      vertex -33.1145 2.40992 -5
    endloop
  endfacet
  facet normal -0.987688 -0.156434 0
    outer loop
      vertex -32.3314 0 -1
      vertex -32.5321 1.26697 -1
      vertex -32.3314 0 -5
    endloop
  endfacet
  facet normal -0.987688 -0.156434 0
    outer loop
      vertex -32.3314 0 -5
      vertex -32.5321 1.26697 -1
      vertex -32.5321 1.26697 -5
    endloop
  endfacet
  facet normal -0.987688 0.156434 0
    outer loop
      vertex -32.3314 0 -1
      vertex -32.3314 0 -5
      vertex -32.5321 -1.26697 -1
    endloop
  endfacet
  facet normal -0.987688 0.156434 0
    outer loop
      vertex -32.5321 -1.26697 -1
      vertex -32.3314 0 -5
      vertex -32.5321 -1.26697 -5
    endloop
  endfacet
  facet normal -0.891007 0.45399 0
    outer loop
      vertex -32.5321 -1.26697 -1
      vertex -32.5321 -1.26697 -5
      vertex -33.1145 -2.40992 -1
    endloop
  endfacet
  facet normal -0.891007 0.45399 0
    outer loop
      vertex -33.1145 -2.40992 -1
      vertex -32.5321 -1.26697 -5
      vertex -33.1145 -2.40992 -5
    endloop
  endfacet
  facet normal -0.707107 0.707107 0
    outer loop
      vertex -33.1145 -2.40992 -1
      vertex -33.1145 -2.40992 -5
      vertex -34.0215 -3.31697 -1
    endloop
  endfacet
  facet normal -0.707107 0.707107 0
    outer loop
      vertex -34.0215 -3.31697 -1
      vertex -33.1145 -2.40992 -5
      vertex -34.0215 -3.31697 -5
    endloop
  endfacet
  facet normal -0.45399 0.891007 0
    outer loop
      vertex -34.0215 -3.31697 -1
      vertex -34.0215 -3.31697 -5
      vertex -35.1645 -3.89933 -1
    endloop
  endfacet
  facet normal -0.45399 0.891007 0
    outer loop
      vertex -35.1645 -3.89933 -1
      vertex -34.0215 -3.31697 -5
      vertex -35.1645 -3.89933 -5
    endloop
  endfacet
  facet normal -0.156434 0.987688 0
    outer loop
      vertex -35.1645 -3.89933 -1
      vertex -35.1645 -3.89933 -5
      vertex -36.4314 -4.1 -1
    endloop
  endfacet
  facet normal -0.156434 0.987688 0
    outer loop
      vertex -36.4314 -4.1 -1
      vertex -35.1645 -3.89933 -5
      vertex -36.4314 -4.1 -5
    endloop
  endfacet
  facet normal 0.156434 0.987688 0
    outer loop
      vertex -36.4314 -4.1 -1
      vertex -36.4314 -4.1 -5
      vertex -37.6984 -3.89933 -1
    endloop
  endfacet
  facet normal 0.156434 0.987688 0
    outer loop
      vertex -37.6984 -3.89933 -1
      vertex -36.4314 -4.1 -5
      vertex -37.6984 -3.89933 -5
    endloop
  endfacet
  facet normal 0.45399 0.891007 0
    outer loop
      vertex -37.6984 -3.89933 -1
      vertex -37.6984 -3.89933 -5
      vertex -38.8414 -3.31697 -1
    endloop
  endfacet
  facet normal 0.45399 0.891007 0
    outer loop
      vertex -38.8414 -3.31697 -1
      vertex -37.6984 -3.89933 -5
      vertex -38.8414 -3.31697 -5
    endloop
  endfacet
  facet normal 0.707107 0.707107 0
    outer loop
      vertex -38.8414 -3.31697 -1
      vertex -38.8414 -3.31697 -5
      vertex -39.7484 -2.40992 -1
    endloop
  endfacet
  facet normal 0.707107 0.707107 0
    outer loop
      vertex -39.7484 -2.40992 -1
      vertex -38.8414 -3.31697 -5
      vertex -39.7484 -2.40992 -5
    endloop
  endfacet
  facet normal 0.891007 0.45399 0
    outer loop
      vertex -40.3308 -1.26697 -1
      vertex -39.7484 -2.40992 -1
      vertex -39.7484 -2.40992 -5
    endloop
  endfacet
  facet normal 0.891007 0.45399 0
    outer loop
      vertex -40.3308 -1.26697 -5
      vertex -40.3308 -1.26697 -1
      vertex -39.7484 -2.40992 -5
    endloop
  endfacet
  facet normal 0.62349 -0.781831 0
    outer loop
      vertex -18.683 2.04735 -5
      vertex -18.683 2.04735 5
      vertex -20.1078 0.911156 5
    endloop
  endfacet
  facet normal 0.62349 -0.781831 0
    outer loop
      vertex -20.1078 0.911156 -5
      vertex -18.683 2.04735 -5
      vertex -20.1078 0.911156 5
    endloop
  endfacet
  facet normal 1 0 0
    outer loop
      vertex -20.1078 0.911156 -5
      vertex -20.1078 0.911156 5
      vertex -20.1078 -0.911156 5
    endloop
  endfacet
  facet normal 1 0 0
    outer loop
      vertex -20.1078 -0.911156 -5
      vertex -20.1078 0.911156 -5
      vertex -20.1078 -0.911156 5
    endloop
  endfacet
  facet normal -0.222521 -0.974928 0
    outer loop
      vertex -16.9064 1.64185 -5
      vertex -16.9064 1.64185 5
      vertex -18.683 2.04735 5
    endloop
  endfacet
  facet normal -0.222521 -0.974928 0
    outer loop
      vertex -18.683 2.04735 -5
      vertex -16.9064 1.64185 -5
      vertex -18.683 2.04735 5
    endloop
  endfacet
  facet normal -0.900969 -0.433884 0
    outer loop
      vertex -16.1157 0 5
      vertex -16.9064 1.64185 5
      vertex -16.1157 0 -5
    endloop
  endfacet
  facet normal -0.900969 -0.433884 0
    outer loop
      vertex -16.1157 0 -5
      vertex -16.9064 1.64185 5
      vertex -16.9064 1.64185 -5
    endloop
  endfacet
  facet normal -0.900969 0.433884 0
    outer loop
      vertex -16.1157 0 5
      vertex -16.1157 0 -5
      vertex -16.9064 -1.64185 5
    endloop
  endfacet
  facet normal -0.900969 0.433884 0
    outer loop
      vertex -16.9064 -1.64185 5
      vertex -16.1157 0 -5
      vertex -16.9064 -1.64185 -5
    endloop
  endfacet
  facet normal -0.222521 0.974928 0
    outer loop
      vertex -16.9064 -1.64185 5
      vertex -16.9064 -1.64185 -5
      vertex -18.683 -2.04735 5
    endloop
  endfacet
  facet normal -0.222521 0.974928 0
    outer loop
      vertex -18.683 -2.04735 5
      vertex -16.9064 -1.64185 -5
      vertex -18.683 -2.04735 -5
    endloop
  endfacet
  facet normal 0.62349 0.781831 0
    outer loop
      vertex -18.683 -2.04735 5
      vertex -18.683 -2.04735 -5
      vertex -20.1078 -0.911156 5
    endloop
  endfacet
  facet normal 0.62349 0.781831 0
    outer loop
      vertex -20.1078 -0.911156 5
      vertex -18.683 -2.04735 -5
      vertex -20.1078 -0.911156 -5
    endloop
  endfacet
  facet normal 0.62349 -0.781832 0
    outer loop
      vertex -0.489546 2.14484 -5
      vertex -0.489546 2.14484 5
      vertex -1.98213 0.954544 5
    endloop
  endfacet
  facet normal 0.62349 -0.781832 0
    outer loop
      vertex -1.98213 0.954544 -5
      vertex -0.489546 2.14484 -5
      vertex -1.98213 0.954544 5
    endloop
  endfacet
  facet normal 1 0 0
    outer loop
      vertex -1.98213 0.954544 -5
      vertex -1.98213 0.954544 5
      vertex -1.98213 -0.954544 5
    endloop
  endfacet
  facet normal 1 0 0
    outer loop
      vertex -1.98213 -0.954544 -5
      vertex -1.98213 0.954544 -5
      vertex -1.98213 -0.954544 5
    endloop
  endfacet
  facet normal -0.222521 -0.974928 0
    outer loop
      vertex 1.37168 1.72003 -5
      vertex 1.37168 1.72003 5
      vertex -0.489546 2.14484 5
    endloop
  endfacet
  facet normal -0.222521 -0.974928 0
    outer loop
      vertex -0.489546 2.14484 -5
      vertex 1.37168 1.72003 -5
      vertex -0.489546 2.14484 5
    endloop
  endfacet
  facet normal -0.900969 -0.433884 0
    outer loop
      vertex 2.2 0 5
      vertex 1.37168 1.72003 5
      vertex 2.2 0 -5
    endloop
  endfacet
  facet normal -0.900969 -0.433884 0
    outer loop
      vertex 2.2 0 -5
      vertex 1.37168 1.72003 5
      vertex 1.37168 1.72003 -5
    endloop
  endfacet
  facet normal -0.900969 0.433884 0
    outer loop
      vertex 2.2 0 5
      vertex 2.2 0 -5
      vertex 1.37168 -1.72003 5
    endloop
  endfacet
  facet normal -0.900969 0.433884 0
    outer loop
      vertex 1.37168 -1.72003 5
      vertex 2.2 0 -5
      vertex 1.37168 -1.72003 -5
    endloop
  endfacet
  facet normal -0.222521 0.974928 0
    outer loop
      vertex 1.37168 -1.72003 5
      vertex 1.37168 -1.72003 -5
      vertex -0.489546 -2.14484 5
    endloop
  endfacet
  facet normal -0.222521 0.974928 0
    outer loop
      vertex -0.489546 -2.14484 5
      vertex 1.37168 -1.72003 -5
      vertex -0.489546 -2.14484 -5
    endloop
  endfacet
  facet normal 0.62349 0.781832 0
    outer loop
      vertex -0.489546 -2.14484 5
      vertex -0.489546 -2.14484 -5
      vertex -1.98213 -0.954544 5
    endloop
  endfacet
  facet normal 0.62349 0.781832 0
    outer loop
      vertex -1.98213 -0.954544 5
      vertex -0.489546 -2.14484 -5
      vertex -1.98213 -0.954544 -5
    endloop
  endfacet
  facet normal 1 0 0
    outer loop
      vertex 16.3237 0.911156 -5
      vertex 16.3237 0.911156 5
      vertex 16.3237 -0.911156 5
    endloop
  endfacet
  facet normal 1 0 0
    outer loop
      vertex 16.3237 -0.911156 -5
      vertex 16.3237 0.911156 -5
      vertex 16.3237 -0.911156 5
    endloop
  endfacet
  facet normal 0.62349 -0.781831 0
    outer loop
      vertex 17.7484 2.04735 -5
      vertex 17.7484 2.04735 5
      vertex 16.3237 0.911156 5
    endloop
  endfacet
  facet normal 0.62349 -0.781831 0
    outer loop
      vertex 16.3237 0.911156 -5
      vertex 17.7484 2.04735 -5
      vertex 16.3237 0.911156 5
    endloop
  endfacet
  facet normal -0.222521 -0.974928 0
    outer loop
      vertex 19.5251 1.64185 -5
      vertex 19.5251 1.64185 5
      vertex 17.7484 2.04735 5
    endloop
  endfacet
  facet normal -0.222521 -0.974928 0
    outer loop
      vertex 17.7484 2.04735 -5
      vertex 19.5251 1.64185 -5
      vertex 17.7484 2.04735 5
    endloop
  endfacet
  facet normal -0.900969 -0.433884 0
    outer loop
      vertex 20.3157 0 5
      vertex 19.5251 1.64185 5
      vertex 20.3157 0 -5
    endloop
  endfacet
  facet normal -0.900969 -0.433884 0
    outer loop
      vertex 20.3157 0 -5
      vertex 19.5251 1.64185 5
      vertex 19.5251 1.64185 -5
    endloop
  endfacet
  facet normal -0.900969 0.433884 0
    outer loop
      vertex 20.3157 0 5
      vertex 20.3157 0 -5
      vertex 19.5251 -1.64185 5
    endloop
  endfacet
  facet normal -0.900969 0.433884 0
    outer loop
      vertex 19.5251 -1.64185 5
      vertex 20.3157 0 -5
      vertex 19.5251 -1.64185 -5
    endloop
  endfacet
  facet normal -0.222521 0.974928 0
    outer loop
      vertex 19.5251 -1.64185 5
      vertex 19.5251 -1.64185 -5
      vertex 17.7484 -2.04735 5
    endloop
  endfacet
  facet normal -0.222521 0.974928 0
    outer loop
      vertex 17.7484 -2.04735 5
      vertex 19.5251 -1.64185 -5
      vertex 17.7484 -2.04735 -5
    endloop
  endfacet
  facet normal 0.62349 0.781831 0
    outer loop
      vertex 17.7484 -2.04735 5
      vertex 17.7484 -2.04735 -5
      vertex 16.3237 -0.911156 5
    endloop
  endfacet
  facet normal 0.62349 0.781831 0
    outer loop
      vertex 16.3237 -0.911156 5
      vertex 17.7484 -2.04735 -5
      vertex 16.3237 -0.911156 -5
    endloop
  endfacet
  facet normal 1 0 0
    outer loop
      vertex 34.5394 0.644023 -5
      vertex 34.5394 0.644023 5
      vertex 34.5394 -0.82881 5
    endloop
  endfacet
  facet normal 1 0 0
    outer loop
      vertex 34.5394 -0.82881 -5
      vertex 34.5394 0.644023 -5
      vertex 34.5394 -0.82881 5
    endloop
  endfacet
  facet normal 0.980172 -0.198146 0
    outer loop
      vertex 34.6038 0.962498 -5
      vertex 34.6038 0.962498 5
      vertex 34.5394 0.644023 5
    endloop
  endfacet
  facet normal 0.980172 -0.198146 0
    outer loop
      vertex 34.5394 0.644023 -5
      vertex 34.6038 0.962498 -5
      vertex 34.5394 0.644023 5
    endloop
  endfacet
  facet normal 0.62349 -0.781831 0
    outer loop
      vertex 35.7553 1.88079 -5
      vertex 35.7553 1.88079 5
      vertex 34.6038 0.962498 5
    endloop
  endfacet
  facet normal 0.62349 -0.781831 0
    outer loop
      vertex 34.6038 0.962498 -5
      vertex 35.7553 1.88079 -5
      vertex 34.6038 0.962498 5
    endloop
  endfacet
  facet normal 0.456211 -0.889872 0
    outer loop
      vertex 36.0444 2.02903 -5
      vertex 36.0444 2.02903 5
      vertex 35.7553 1.88079 5
    endloop
  endfacet
  facet normal 0.456211 -0.889872 0
    outer loop
      vertex 35.7553 1.88079 -5
      vertex 36.0444 2.02903 -5
      vertex 35.7553 1.88079 5
    endloop
  endfacet
  facet normal -0.222521 -0.974928 0
    outer loop
      vertex 37.4803 1.70129 -5
      vertex 37.4803 1.70129 5
      vertex 36.0444 2.02903 5
    endloop
  endfacet
  facet normal -0.222521 -0.974928 0
    outer loop
      vertex 36.0444 2.02903 -5
      vertex 37.4803 1.70129 -5
      vertex 36.0444 2.02903 5
    endloop
  endfacet
  facet normal -0.411287 -0.911506 0
    outer loop
      vertex 37.7765 1.56766 -5
      vertex 37.7765 1.56766 5
      vertex 37.4803 1.70129 5
    endloop
  endfacet
  facet normal -0.411287 -0.911506 0
    outer loop
      vertex 37.4803 1.70129 -5
      vertex 37.7765 1.56766 -5
      vertex 37.4803 1.70129 5
    endloop
  endfacet
  facet normal -0.900969 -0.433884 0
    outer loop
      vertex 38.4155 0.240675 5
      vertex 37.7765 1.56766 5
      vertex 38.4155 0.240675 -5
    endloop
  endfacet
  facet normal -0.900969 -0.433884 0
    outer loop
      vertex 38.4155 0.240675 -5
      vertex 37.7765 1.56766 5
      vertex 37.7765 1.56766 -5
    endloop
  endfacet
  facet normal -0.969077 -0.246758 0
    outer loop
      vertex 38.4957 -0.0741906 5
      vertex 38.4155 0.240675 5
      vertex 38.4957 -0.0741906 -5
    endloop
  endfacet
  facet normal -0.969077 -0.246758 0
    outer loop
      vertex 38.4957 -0.0741906 -5
      vertex 38.4155 0.240675 5
      vertex 38.4155 0.240675 -5
    endloop
  endfacet
  facet normal -0.900969 0.433884 0
    outer loop
      vertex 38.4957 -0.0741906 5
      vertex 38.4957 -0.0741906 -5
      vertex 37.8567 -1.40117 5
    endloop
  endfacet
  facet normal -0.900969 0.433884 0
    outer loop
      vertex 37.8567 -1.40117 5
      vertex 38.4957 -0.0741906 -5
      vertex 37.8567 -1.40117 -5
    endloop
  endfacet
  facet normal -0.797132 0.603805 0
    outer loop
      vertex 37.8567 -1.40117 5
      vertex 37.8567 -1.40117 -5
      vertex 37.6605 -1.66017 5
    endloop
  endfacet
  facet normal -0.797132 0.603805 0
    outer loop
      vertex 37.6605 -1.66017 5
      vertex 37.8567 -1.40117 -5
      vertex 37.6605 -1.66017 -5
    endloop
  endfacet
  facet normal -0.222521 0.974928 0
    outer loop
      vertex 37.6605 -1.66017 5
      vertex 37.6605 -1.66017 -5
      vertex 36.2246 -1.98791 5
    endloop
  endfacet
  facet normal -0.222521 0.974928 0
    outer loop
      vertex 36.2246 -1.98791 5
      vertex 37.6605 -1.66017 -5
      vertex 36.2246 -1.98791 -5
    endloop
  endfacet
  facet normal -0.0249309 0.999689 0
    outer loop
      vertex 36.2246 -1.98791 5
      vertex 36.2246 -1.98791 -5
      vertex 35.8998 -1.99601 5
    endloop
  endfacet
  facet normal -0.0249309 0.999689 0
    outer loop
      vertex 35.8998 -1.99601 5
      vertex 36.2246 -1.98791 -5
      vertex 35.8998 -1.99601 -5
    endloop
  endfacet
  facet normal 0.62349 0.781831 0
    outer loop
      vertex 35.8998 -1.99601 5
      vertex 35.8998 -1.99601 -5
      vertex 34.7483 -1.07771 5
    endloop
  endfacet
  facet normal 0.62349 0.781831 0
    outer loop
      vertex 34.7483 -1.07771 5
      vertex 35.8998 -1.99601 -5
      vertex 34.7483 -1.07771 -5
    endloop
  endfacet
  facet normal 0.766044 0.642788 0
    outer loop
      vertex 34.5394 -0.82881 5
      vertex 34.7483 -1.07771 5
      vertex 34.7483 -1.07771 -5
    endloop
  endfacet
  facet normal 0.766044 0.642788 0
    outer loop
      vertex 34.5394 -0.82881 -5
      vertex 34.5394 -0.82881 5
      vertex 34.7483 -1.07771 -5
    endloop
  endfacet
  facet normal 0.980172 -0.198146 0
    outer loop
      vertex 44.333 9.30283 -5
      vertex 44.333 9.30283 5
      vertex 43.9719 7.51665 5
    endloop
  endfacet
  facet normal 0.980172 -0.198146 0
    outer loop
      vertex 43.9719 7.51665 -5
      vertex 44.333 9.30283 -5
      vertex 43.9719 7.51665 5
    endloop
  endfacet
  facet normal 0.45621 -0.889872 0
    outer loop
      vertex 45.9546 10.1342 -5
      vertex 45.9546 10.1342 5
      vertex 44.333 9.30283 5
    endloop
  endfacet
  facet normal 0.45621 -0.889872 0
    outer loop
      vertex 44.333 9.30283 -5
      vertex 45.9546 10.1342 -5
      vertex 44.333 9.30283 5
    endloop
  endfacet
  facet normal -0.411287 -0.911506 0
    outer loop
      vertex 47.6157 9.3847 -5
      vertex 47.6157 9.3847 5
      vertex 45.9546 10.1342 5
    endloop
  endfacet
  facet normal -0.411287 -0.911506 0
    outer loop
      vertex 45.9546 10.1342 -5
      vertex 47.6157 9.3847 -5
      vertex 45.9546 10.1342 5
    endloop
  endfacet
  facet normal -0.969077 -0.246758 0
    outer loop
      vertex 48.0654 7.61874 5
      vertex 47.6157 9.3847 5
      vertex 48.0654 7.61874 -5
    endloop
  endfacet
  facet normal -0.969077 -0.246758 0
    outer loop
      vertex 48.0654 7.61874 -5
      vertex 47.6157 9.3847 5
      vertex 47.6157 9.3847 -5
    endloop
  endfacet
  facet normal -0.797133 0.603804 0
    outer loop
      vertex 48.0654 7.61874 5
      vertex 48.0654 7.61874 -5
      vertex 46.965 6.16611 5
    endloop
  endfacet
  facet normal -0.797133 0.603804 0
    outer loop
      vertex 46.965 6.16611 5
      vertex 48.0654 7.61874 -5
      vertex 46.965 6.16611 -5
    endloop
  endfacet
  facet normal -0.0249307 0.999689 0
    outer loop
      vertex 46.965 6.16611 5
      vertex 46.965 6.16611 -5
      vertex 45.1433 6.12068 5
    endloop
  endfacet
  facet normal -0.0249307 0.999689 0
    outer loop
      vertex 45.1433 6.12068 5
      vertex 46.965 6.16611 -5
      vertex 45.1433 6.12068 -5
    endloop
  endfacet
  facet normal 0.766044 0.642788 0
    outer loop
      vertex 43.9719 7.51665 5
      vertex 45.1433 6.12068 5
      vertex 45.1433 6.12068 -5
    endloop
  endfacet
  facet normal 0.766044 0.642788 0
    outer loop
      vertex 43.9719 7.51665 -5
      vertex 43.9719 7.51665 5
      vertex 45.1433 6.12068 -5
    endloop
  endfacet
  facet normal 0.980172 -0.198146 0
    outer loop
      vertex 53.9086 17.3377 -5
      vertex 53.9086 17.3377 5
      vertex 53.5475 15.5515 5
    endloop
  endfacet
  facet normal 0.980172 -0.198146 0
    outer loop
      vertex 53.5475 15.5515 -5
      vertex 53.9086 17.3377 -5
      vertex 53.5475 15.5515 5
    endloop
  endfacet
  facet normal 0.45621 -0.889872 0
    outer loop
      vertex 55.5302 18.169 -5
      vertex 55.5302 18.169 5
      vertex 53.9086 17.3377 5
    endloop
  endfacet
  facet normal 0.45621 -0.889872 0
    outer loop
      vertex 53.9086 17.3377 -5
      vertex 55.5302 18.169 -5
      vertex 53.9086 17.3377 5
    endloop
  endfacet
  facet normal -0.411287 -0.911506 0
    outer loop
      vertex 57.1912 17.4195 -5
      vertex 57.1912 17.4195 5
      vertex 55.5302 18.169 5
    endloop
  endfacet
  facet normal -0.411287 -0.911506 0
    outer loop
      vertex 55.5302 18.169 -5
      vertex 57.1912 17.4195 -5
      vertex 55.5302 18.169 5
    endloop
  endfacet
  facet normal -0.969077 -0.246758 0
    outer loop
      vertex 57.6409 15.6536 5
      vertex 57.1912 17.4195 5
      vertex 57.6409 15.6536 -5
    endloop
  endfacet
  facet normal -0.969077 -0.246758 0
    outer loop
      vertex 57.6409 15.6536 -5
      vertex 57.1912 17.4195 5
      vertex 57.1912 17.4195 -5
    endloop
  endfacet
  facet normal -0.797133 0.603804 0
    outer loop
      vertex 57.6409 15.6536 5
      vertex 57.6409 15.6536 -5
      vertex 56.5406 14.201 5
    endloop
  endfacet
  facet normal -0.797133 0.603804 0
    outer loop
      vertex 56.5406 14.201 5
      vertex 57.6409 15.6536 -5
      vertex 56.5406 14.201 -5
    endloop
  endfacet
  facet normal -0.0249307 0.999689 0
    outer loop
      vertex 56.5406 14.201 5
      vertex 56.5406 14.201 -5
      vertex 54.7189 14.1555 5
    endloop
  endfacet
  facet normal -0.0249307 0.999689 0
    outer loop
      vertex 54.7189 14.1555 5
      vertex 56.5406 14.201 -5
      vertex 54.7189 14.1555 -5
    endloop
  endfacet
  facet normal 0.766044 0.642788 0
    outer loop
      vertex 53.5475 15.5515 5
      vertex 54.7189 14.1555 5
      vertex 54.7189 14.1555 -5
    endloop
  endfacet
  facet normal 0.766044 0.642788 0
    outer loop
      vertex 53.5475 15.5515 -5
      vertex 53.5475 15.5515 5
      vertex 54.7189 14.1555 -5
    endloop
  endfacet
  facet normal 0 0 1
    outer loop
      vertex -46.2129 2.07912 5
      vertex -46.4314 0 5
      vertex -46.2129 -2.07912 5
    endloop
  endfacet
  facet normal 0 0 1
    outer loop
      vertex -44.5216 -5.87785 5
      vertex -46.2129 2.07912 5
      vertex -45.5669 -4.06737 5
    endloop
  endfacet
  facet normal 0 0 1
    outer loop
      vertex -45.5669 -4.06737 5
      vertex -46.2129 2.07912 5
      vertex -46.2129 -2.07912 5
    endloop
  endfacet
  facet normal 0 0 1
    outer loop
      vertex -43.1227 -7.43145 5
      vertex -46.2129 2.07912 5
      vertex -44.5216 -5.87785 5
    endloop
  endfacet
  facet normal 0 0 1
    outer loop
      vertex -41.4314 -8.66025 5
      vertex -46.2129 2.07912 5
      vertex -43.1227 -7.43145 5
    endloop
  endfacet
  facet normal 0 0 1
    outer loop
      vertex -39.5216 -9.51056 5
      vertex -46.2129 2.07912 5
      vertex -41.4314 -8.66025 5
    endloop
  endfacet
  facet normal 0 0 1
    outer loop
      vertex -40.3064 -6.7117 5
      vertex -46.2129 2.07912 5
      vertex -39.5216 -9.51056 5
    endloop
  endfacet
  facet normal 0 0 1
    outer loop
      vertex -40.3064 6.7117 5
      vertex -31.4314 8.66025 5
      vertex -33.3413 9.51056 5
    endloop
  endfacet
  facet normal 0 0 1
    outer loop
      vertex -40.3064 6.7117 5
      vertex -32.5564 6.7117 5
      vertex -31.4314 8.66025 5
    endloop
  endfacet
  facet normal 0 0 1
    outer loop
      vertex -28.6814 0 5
      vertex -32.5564 -6.7117 5
      vertex -29.7401 -7.43145 5
    endloop
  endfacet
  facet normal 0 0 1
    outer loop
      vertex -27.8344 5 5
      vertex -18.683 2.04735 5
      vertex 33.0559 5 5
    endloop
  endfacet
  facet normal 0 0 1
    outer loop
      vertex -16.9064 1.64185 5
      vertex -16.1157 0 5
      vertex -1.98213 -0.954544 5
    endloop
  endfacet
  facet normal 0 0 1
    outer loop
      vertex -32.5564 -6.7117 5
      vertex -35.3862 -9.94522 5
      vertex -33.3413 -9.51056 5
    endloop
  endfacet
  facet normal 0 0 1
    outer loop
      vertex -32.5564 -6.7117 5
      vertex -37.4767 -9.94522 5
      vertex -35.3862 -9.94522 5
    endloop
  endfacet
  facet normal 0 0 1
    outer loop
      vertex -32.5564 -6.7117 5
      vertex -40.3064 -6.7117 5
      vertex -37.4767 -9.94522 5
    endloop
  endfacet
  facet normal 0 0 1
    outer loop
      vertex -16.9064 1.64185 5
      vertex -0.489546 2.14484 5
      vertex 33.0559 5 5
    endloop
  endfacet
  facet normal 0 0 1
    outer loop
      vertex -18.683 -2.04735 5
      vertex -27.8344 -5 5
      vertex 0 -5 5
    endloop
  endfacet
  facet normal 0 0 1
    outer loop
      vertex -16.9064 -1.64185 5
      vertex -18.683 -2.04735 5
      vertex 0 -5 5
    endloop
  endfacet
  facet normal 0 0 1
    outer loop
      vertex -40.3064 -6.7117 5
      vertex -44.1814 0 5
      vertex -46.2129 2.07912 5
    endloop
  endfacet
  facet normal 0 0 1
    outer loop
      vertex 54.8678 22.027 5
      vertex 52.9722 21.4721 5
      vertex 56.8408 21.9363 5
    endloop
  endfacet
  facet normal 0 0 1
    outer loop
      vertex 56.8408 21.9363 5
      vertex 51.7654 20.6188 5
      vertex 58.6775 21.2099 5
    endloop
  endfacet
  facet normal 0 0 1
    outer loop
      vertex -44.1814 0 5
      vertex -40.3064 6.7117 5
      vertex -46.2129 2.07912 5
    endloop
  endfacet
  facet normal 0 0 1
    outer loop
      vertex 1.37168 1.72003 5
      vertex 2.2 0 5
      vertex 17.7484 -2.04735 5
    endloop
  endfacet
  facet normal 0 0 1
    outer loop
      vertex -32.5564 -6.7117 5
      vertex -33.3413 -9.51056 5
      vertex -31.4314 -8.66025 5
    endloop
  endfacet
  facet normal 0 0 1
    outer loop
      vertex -28.6814 0 5
      vertex -27.8344 -5 5
      vertex -18.683 -2.04735 5
    endloop
  endfacet
  facet normal 0 0 1
    outer loop
      vertex 1.37168 1.72003 5
      vertex 16.3237 0.911156 5
      vertex 17.7484 2.04735 5
    endloop
  endfacet
  facet normal 0 0 1
    outer loop
      vertex -32.5564 6.7117 5
      vertex -28.6814 0 5
      vertex -20.1078 0.911156 5
    endloop
  endfacet
  facet normal 0 0 1
    outer loop
      vertex -27.8344 5 5
      vertex -20.1078 0.911156 5
      vertex -18.683 2.04735 5
    endloop
  endfacet
  facet normal 0 0 1
    outer loop
      vertex -32.5564 6.7117 5
      vertex -27.8344 5 5
      vertex -28.3413 5.87785 5
    endloop
  endfacet
  facet normal 0 0 1
    outer loop
      vertex -39.5216 9.51056 5
      vertex -46.2129 2.07912 5
      vertex -37.4767 9.94522 5
    endloop
  endfacet
  facet normal 0 0 1
    outer loop
      vertex -41.4314 8.66025 5
      vertex -46.2129 2.07912 5
      vertex -39.5216 9.51056 5
    endloop
  endfacet
  facet normal 0 0 1
    outer loop
      vertex -43.1227 7.43145 5
      vertex -46.2129 2.07912 5
      vertex -41.4314 8.66025 5
    endloop
  endfacet
  facet normal 0 0 1
    outer loop
      vertex -44.5216 5.87785 5
      vertex -46.2129 2.07912 5
      vertex -43.1227 7.43145 5
    endloop
  endfacet
  facet normal 0 0 1
    outer loop
      vertex -45.5669 4.06737 5
      vertex -46.2129 2.07912 5
      vertex -44.5216 5.87785 5
    endloop
  endfacet
  facet normal 0 0 1
    outer loop
      vertex -37.4767 -9.94522 5
      vertex -40.3064 -6.7117 5
      vertex -39.5216 -9.51056 5
    endloop
  endfacet
  facet normal 0 0 1
    outer loop
      vertex -40.3064 6.7117 5
      vertex -33.3413 9.51056 5
      vertex -35.3862 9.94522 5
    endloop
  endfacet
  facet normal 0 0 1
    outer loop
      vertex -32.5564 6.7117 5
      vertex -28.3413 5.87785 5
      vertex -29.7401 7.43145 5
    endloop
  endfacet
  facet normal 0 0 1
    outer loop
      vertex -20.1078 -0.911156 5
      vertex -20.1078 0.911156 5
      vertex -28.6814 0 5
    endloop
  endfacet
  facet normal 0 0 1
    outer loop
      vertex -37.4767 9.94522 5
      vertex -40.3064 6.7117 5
      vertex -35.3862 9.94522 5
    endloop
  endfacet
  facet normal 0 0 1
    outer loop
      vertex -37.4767 9.94522 5
      vertex -46.2129 2.07912 5
      vertex -40.3064 6.7117 5
    endloop
  endfacet
  facet normal 0 0 1
    outer loop
      vertex -31.4314 8.66025 5
      vertex -32.5564 6.7117 5
      vertex -29.7401 7.43145 5
    endloop
  endfacet
  facet normal 0 0 1
    outer loop
      vertex -32.5564 6.7117 5
      vertex -20.1078 0.911156 5
      vertex -27.8344 5 5
    endloop
  endfacet
  facet normal 0 0 1
    outer loop
      vertex -1.98213 -0.954544 5
      vertex -1.98213 0.954544 5
      vertex -16.9064 1.64185 5
    endloop
  endfacet
  facet normal 0 0 1
    outer loop
      vertex -29.7401 -7.43145 5
      vertex -32.5564 -6.7117 5
      vertex -31.4314 -8.66025 5
    endloop
  endfacet
  facet normal 0 0 1
    outer loop
      vertex 1.37168 1.72003 5
      vertex 17.7484 2.04735 5
      vertex 33.0559 5 5
    endloop
  endfacet
  facet normal 0 0 1
    outer loop
      vertex -16.1157 0 5
      vertex 0 -5 5
      vertex -0.489546 -2.14484 5
    endloop
  endfacet
  facet normal 0 0 1
    outer loop
      vertex 17.7484 2.04735 5
      vertex 19.5251 1.64185 5
      vertex 33.0559 5 5
    endloop
  endfacet
  facet normal 0 0 1
    outer loop
      vertex 33.0559 5 5
      vertex -18.683 2.04735 5
      vertex -16.9064 1.64185 5
    endloop
  endfacet
  facet normal 0 0 1
    outer loop
      vertex 17.7484 -2.04735 5
      vertex 16.3237 -0.911156 5
      vertex 1.37168 1.72003 5
    endloop
  endfacet
  facet normal 0 0 1
    outer loop
      vertex 1.37168 -1.72003 5
      vertex -0.489546 -2.14484 5
      vertex 39.807 -5 5
    endloop
  endfacet
  facet normal 0 0 1
    outer loop
      vertex 1.37168 1.72003 5
      vertex 16.3237 -0.911156 5
      vertex 16.3237 0.911156 5
    endloop
  endfacet
  facet normal 0 0 1
    outer loop
      vertex -0.489546 -2.14484 5
      vertex 0 -5 5
      vertex 39.807 -5 5
    endloop
  endfacet
  facet normal 0 0 1
    outer loop
      vertex 34.6038 0.962498 5
      vertex 35.7553 1.88079 5
      vertex 33.0559 5 5
    endloop
  endfacet
  facet normal 0 0 1
    outer loop
      vertex 19.5251 -1.64185 5
      vertex 17.7484 -2.04735 5
      vertex 39.807 -5 5
    endloop
  endfacet
  facet normal 0 0 1
    outer loop
      vertex 33.0559 5 5
      vertex -0.489546 2.14484 5
      vertex 1.37168 1.72003 5
    endloop
  endfacet
  facet normal 0 0 1
    outer loop
      vertex 17.7484 -2.04735 5
      vertex 2.2 0 5
      vertex 39.807 -5 5
    endloop
  endfacet
  facet normal 0 0 1
    outer loop
      vertex -16.1157 0 5
      vertex -16.9064 -1.64185 5
      vertex 0 -5 5
    endloop
  endfacet
  facet normal 0 0 1
    outer loop
      vertex -0.489546 -2.14484 5
      vertex -1.98213 -0.954544 5
      vertex -16.1157 0 5
    endloop
  endfacet
  facet normal 0 0 1
    outer loop
      vertex 19.5251 1.64185 5
      vertex 20.3157 0 5
      vertex 33.0559 5 5
    endloop
  endfacet
  facet normal 0 0 1
    outer loop
      vertex 20.3157 0 5
      vertex 19.5251 -1.64185 5
      vertex 39.807 -5 5
    endloop
  endfacet
  facet normal 0 0 1
    outer loop
      vertex 35.8998 -1.99601 5
      vertex 20.3157 0 5
      vertex 39.807 -5 5
    endloop
  endfacet
  facet normal 0 0 1
    outer loop
      vertex 43.9719 7.51665 5
      vertex 44.333 9.30283 5
      vertex 33.0559 5 5
    endloop
  endfacet
  facet normal 0 0 1
    outer loop
      vertex 2.2 0 5
      vertex 1.37168 -1.72003 5
      vertex 39.807 -5 5
    endloop
  endfacet
  facet normal 0 0 1
    outer loop
      vertex 45.1433 6.12068 5
      vertex 43.9719 7.51665 5
      vertex 36.0444 2.02903 5
    endloop
  endfacet
  facet normal 0 0 1
    outer loop
      vertex 33.0559 5 5
      vertex 20.3157 0 5
      vertex 34.5394 -0.82881 5
    endloop
  endfacet
  facet normal 0 0 1
    outer loop
      vertex 36.2246 -1.98791 5
      vertex 35.8998 -1.99601 5
      vertex 39.807 -5 5
    endloop
  endfacet
  facet normal 0 0 1
    outer loop
      vertex 33.0559 5 5
      vertex 34.5394 -0.82881 5
      vertex 34.5394 0.644023 5
    endloop
  endfacet
  facet normal 0 0 1
    outer loop
      vertex 36.0444 2.02903 5
      vertex 37.4803 1.70129 5
      vertex 46.965 6.16611 5
    endloop
  endfacet
  facet normal 0 0 1
    outer loop
      vertex 33.0559 5 5
      vertex 34.5394 0.644023 5
      vertex 34.6038 0.962498 5
    endloop
  endfacet
  facet normal 0 0 1
    outer loop
      vertex 36.0444 2.02903 5
      vertex 33.0559 5 5
      vertex 35.7553 1.88079 5
    endloop
  endfacet
  facet normal 0 0 1
    outer loop
      vertex 38.4957 -0.0741906 5
      vertex 37.8567 -1.40117 5
      vertex 39.807 -5 5
    endloop
  endfacet
  facet normal 0 0 1
    outer loop
      vertex 43.9719 7.51665 5
      vertex 33.0559 5 5
      vertex 36.0444 2.02903 5
    endloop
  endfacet
  facet normal 0 0 1
    outer loop
      vertex 37.8567 -1.40117 5
      vertex 37.6605 -1.66017 5
      vertex 39.807 -5 5
    endloop
  endfacet
  facet normal 0 0 1
    outer loop
      vertex 37.6605 -1.66017 5
      vertex 36.2246 -1.98791 5
      vertex 39.807 -5 5
    endloop
  endfacet
  facet normal 0 0 1
    outer loop
      vertex 59.4393 11.4734 5
      vertex 37.4803 1.70129 5
      vertex 37.7765 1.56766 5
    endloop
  endfacet
  facet normal 0 0 1
    outer loop
      vertex 59.4393 11.4734 5
      vertex 38.4155 0.240675 5
      vertex 39.807 -5 5
    endloop
  endfacet
  facet normal 0 0 1
    outer loop
      vertex 59.4393 11.4734 5
      vertex 37.7765 1.56766 5
      vertex 38.4155 0.240675 5
    endloop
  endfacet
  facet normal 0 0 1
    outer loop
      vertex 38.4155 0.240675 5
      vertex 38.4957 -0.0741906 5
      vertex 39.807 -5 5
    endloop
  endfacet
  facet normal 0 0 1
    outer loop
      vertex 34.7483 -1.07771 5
      vertex 20.3157 0 5
      vertex 35.8998 -1.99601 5
    endloop
  endfacet
  facet normal 0 0 1
    outer loop
      vertex 34.5394 -0.82881 5
      vertex 20.3157 0 5
      vertex 34.7483 -1.07771 5
    endloop
  endfacet
  facet normal 0 0 1
    outer loop
      vertex 48.0654 7.61874 5
      vertex 46.965 6.16611 5
      vertex 59.4393 11.4734 5
    endloop
  endfacet
  facet normal 0 0 1
    outer loop
      vertex 47.6157 9.3847 5
      vertex 48.0654 7.61874 5
      vertex 59.4393 11.4734 5
    endloop
  endfacet
  facet normal 0 0 1
    outer loop
      vertex 45.9546 10.1342 5
      vertex 47.6157 9.3847 5
      vertex 59.4393 11.4734 5
    endloop
  endfacet
  facet normal 0 0 1
    outer loop
      vertex 46.965 6.16611 5
      vertex 45.1433 6.12068 5
      vertex 36.0444 2.02903 5
    endloop
  endfacet
  facet normal 0 0 1
    outer loop
      vertex 59.4393 11.4734 5
      vertex 46.965 6.16611 5
      vertex 37.4803 1.70129 5
    endloop
  endfacet
  facet normal 0 0 1
    outer loop
      vertex 55.5302 18.169 5
      vertex 61.1821 18.225 5
      vertex 60.1788 19.9264 5
    endloop
  endfacet
  facet normal 0 0 1
    outer loop
      vertex 55.5302 18.169 5
      vertex 57.1912 17.4195 5
      vertex 61.1821 18.225 5
    endloop
  endfacet
  facet normal 0 0 1
    outer loop
      vertex 57.1912 17.4195 5
      vertex 61.5785 16.2901 5
      vertex 61.1821 18.225 5
    endloop
  endfacet
  facet normal 0 0 1
    outer loop
      vertex 57.1912 17.4195 5
      vertex 57.6409 15.6536 5
      vertex 61.5785 16.2901 5
    endloop
  endfacet
  facet normal 0 0 1
    outer loop
      vertex -18.683 -2.04735 5
      vertex -20.1078 -0.911156 5
      vertex -28.6814 0 5
    endloop
  endfacet
  facet normal 0 0 1
    outer loop
      vertex 61.5785 16.2901 5
      vertex 57.6409 15.6536 5
      vertex 61.3252 14.3313 5
    endloop
  endfacet
  facet normal 0 0 1
    outer loop
      vertex -16.9064 1.64185 5
      vertex -1.98213 0.954544 5
      vertex -0.489546 2.14484 5
    endloop
  endfacet
  facet normal 0 0 1
    outer loop
      vertex 57.6409 15.6536 5
      vertex 56.5406 14.201 5
      vertex 61.3252 14.3313 5
    endloop
  endfacet
  facet normal 0 0 1
    outer loop
      vertex -28.6814 0 5
      vertex -29.7401 -7.43145 5
      vertex -28.3413 -5.87785 5
    endloop
  endfacet
  facet normal 0 0 1
    outer loop
      vertex -28.6814 0 5
      vertex -28.3413 -5.87785 5
      vertex -27.8344 -5 5
    endloop
  endfacet
  facet normal 0 0 1
    outer loop
      vertex 52.9722 21.4721 5
      vertex 51.7654 20.6188 5
      vertex 56.8408 21.9363 5
    endloop
  endfacet
  facet normal 0 0 1
    outer loop
      vertex 51.7654 20.6188 5
      vertex 60.1788 19.9264 5
      vertex 58.6775 21.2099 5
    endloop
  endfacet
  facet normal 0 0 1
    outer loop
      vertex 51.7654 20.6188 5
      vertex 55.5302 18.169 5
      vertex 60.1788 19.9264 5
    endloop
  endfacet
  facet normal 0 0 1
    outer loop
      vertex 51.7654 20.6188 5
      vertex 53.9086 17.3377 5
      vertex 55.5302 18.169 5
    endloop
  endfacet
  facet normal 0 0 1
    outer loop
      vertex 51.7258 20.666 5
      vertex 53.9086 17.3377 5
      vertex 51.7654 20.6188 5
    endloop
  endfacet
  facet normal 0 0 1
    outer loop
      vertex 51.7258 20.666 5
      vertex 53.5475 15.5515 5
      vertex 53.9086 17.3377 5
    endloop
  endfacet
  facet normal 0 0 1
    outer loop
      vertex 56.5406 14.201 5
      vertex 60.4496 12.5608 5
      vertex 61.3252 14.3313 5
    endloop
  endfacet
  facet normal 0 0 1
    outer loop
      vertex 54.7189 14.1555 5
      vertex 60.4496 12.5608 5
      vertex 56.5406 14.201 5
    endloop
  endfacet
  facet normal 0 0 1
    outer loop
      vertex 54.7189 14.1555 5
      vertex 59.3997 11.5206 5
      vertex 60.4496 12.5608 5
    endloop
  endfacet
  facet normal 0 0 1
    outer loop
      vertex 54.7189 14.1555 5
      vertex 59.4393 11.4734 5
      vertex 59.3997 11.5206 5
    endloop
  endfacet
  facet normal 0 0 1
    outer loop
      vertex 54.7189 14.1555 5
      vertex 45.9546 10.1342 5
      vertex 59.4393 11.4734 5
    endloop
  endfacet
  facet normal 0 0 1
    outer loop
      vertex 53.5475 15.5515 5
      vertex 45.9546 10.1342 5
      vertex 54.7189 14.1555 5
    endloop
  endfacet
  facet normal 0 0 1
    outer loop
      vertex 51.7258 20.666 5
      vertex 45.9546 10.1342 5
      vertex 53.5475 15.5515 5
    endloop
  endfacet
  facet normal 0 0 1
    outer loop
      vertex 51.7258 20.666 5
      vertex 44.333 9.30283 5
      vertex 45.9546 10.1342 5
    endloop
  endfacet
  facet normal 0 0 1
    outer loop
      vertex 51.7258 20.666 5
      vertex 33.0559 5 5
      vertex 44.333 9.30283 5
    endloop
  endfacet
  facet normal 0 0 1
    outer loop
      vertex -34.0215 -3.31697 -1
      vertex -32.5564 -6.7117 -1
      vertex -28.6814 0 -1
    endloop
  endfacet
  facet normal 0 0 1
    outer loop
      vertex -37.6984 3.89933 -1
      vertex -36.4314 4.1 -1
      vertex -32.5564 6.7117 -1
    endloop
  endfacet
  facet normal 0 0 1
    outer loop
      vertex -44.1814 0 -1
      vertex -40.5314 0 -1
      vertex -40.3064 6.7117 -1
    endloop
  endfacet
  facet normal 0 0 1
    outer loop
      vertex -44.1814 0 -1
      vertex -40.3064 -6.7117 -1
      vertex -40.5314 0 -1
    endloop
  endfacet
  facet normal 0 0 1
    outer loop
      vertex -40.5314 0 -1
      vertex -40.3308 1.26697 -1
      vertex -40.3064 6.7117 -1
    endloop
  endfacet
  facet normal 0 0 1
    outer loop
      vertex -35.1645 3.89933 -1
      vertex -34.0215 3.31697 -1
      vertex -32.5564 6.7117 -1
    endloop
  endfacet
  facet normal 0 0 1
    outer loop
      vertex -40.3064 6.7117 -1
      vertex -38.8414 3.31697 -1
      vertex -32.5564 6.7117 -1
    endloop
  endfacet
  facet normal 0 0 1
    outer loop
      vertex -40.3064 6.7117 -1
      vertex -39.7484 2.40992 -1
      vertex -38.8414 3.31697 -1
    endloop
  endfacet
  facet normal 0 0 1
    outer loop
      vertex -38.8414 3.31697 -1
      vertex -37.6984 3.89933 -1
      vertex -32.5564 6.7117 -1
    endloop
  endfacet
  facet normal 0 0 1
    outer loop
      vertex -38.8414 -3.31697 -1
      vertex -39.7484 -2.40992 -1
      vertex -40.3064 -6.7117 -1
    endloop
  endfacet
  facet normal 0 0 1
    outer loop
      vertex -36.4314 4.1 -1
      vertex -35.1645 3.89933 -1
      vertex -32.5564 6.7117 -1
    endloop
  endfacet
  facet normal 0 0 1
    outer loop
      vertex -32.5564 6.7117 -1
      vertex -34.0215 3.31697 -1
      vertex -28.6814 0 -1
    endloop
  endfacet
  facet normal 0 0 1
    outer loop
      vertex -34.0215 3.31697 -1
      vertex -33.1145 2.40992 -1
      vertex -28.6814 0 -1
    endloop
  endfacet
  facet normal 0 0 1
    outer loop
      vertex -39.7484 -2.40992 -1
      vertex -40.3308 -1.26697 -1
      vertex -40.3064 -6.7117 -1
    endloop
  endfacet
  facet normal 0 0 1
    outer loop
      vertex -33.1145 2.40992 -1
      vertex -32.5321 1.26697 -1
      vertex -28.6814 0 -1
    endloop
  endfacet
  facet normal 0 0 1
    outer loop
      vertex -32.5321 1.26697 -1
      vertex -32.3314 0 -1
      vertex -28.6814 0 -1
    endloop
  endfacet
  facet normal 0 0 1
    outer loop
      vertex -32.3314 0 -1
      vertex -32.5321 -1.26697 -1
      vertex -28.6814 0 -1
    endloop
  endfacet
  facet normal 0 0 1
    outer loop
      vertex -32.5321 -1.26697 -1
      vertex -33.1145 -2.40992 -1
      vertex -28.6814 0 -1
    endloop
  endfacet
  facet normal 0 0 1
    outer loop
      vertex -40.3064 -6.7117 -1
      vertex -32.5564 -6.7117 -1
      vertex -34.0215 -3.31697 -1
    endloop
  endfacet
  facet normal 0 0 1
    outer loop
      vertex -35.1645 -3.89933 -1
      vertex -36.4314 -4.1 -1
      vertex -40.3064 -6.7117 -1
    endloop
  endfacet
  facet normal 0 0 1
    outer loop
      vertex -40.3064 -6.7117 -1
      vertex -34.0215 -3.31697 -1
      vertex -35.1645 -3.89933 -1
    endloop
  endfacet
  facet normal 0 0 1
    outer loop
      vertex -37.6984 -3.89933 -1
      vertex -38.8414 -3.31697 -1
      vertex -40.3064 -6.7117 -1
    endloop
  endfacet
  facet normal 0 0 1
    outer loop
      vertex -40.5314 0 -1
      vertex -40.3064 -6.7117 -1
      vertex -40.3308 -1.26697 -1
    endloop
  endfacet
  facet normal 0 0 1
    outer loop
      vertex -40.3308 1.26697 -1
      vertex -39.7484 2.40992 -1
      vertex -40.3064 6.7117 -1
    endloop
  endfacet
  facet normal 0 0 1
    outer loop
      vertex -33.1145 -2.40992 -1
      vertex -34.0215 -3.31697 -1
      vertex -28.6814 0 -1
    endloop
  endfacet
  facet normal 0 0 1
    outer loop
      vertex -36.4314 -4.1 -1
      vertex -37.6984 -3.89933 -1
      vertex -40.3064 -6.7117 -1
    endloop
  endfacet
  facet normal 0.866025 0.5 0
    outer loop
      vertex -44.1814 0 5
      vertex -40.3064 -6.7117 5
      vertex -40.3064 -6.7117 -1
    endloop
  endfacet
  facet normal 0.866025 0.5 0
    outer loop
      vertex -44.1814 0 -1
      vertex -44.1814 0 5
      vertex -40.3064 -6.7117 -1
    endloop
  endfacet
  facet normal 0 1 0
    outer loop
      vertex -32.5564 -6.7117 5
      vertex -32.5564 -6.7117 -1
      vertex -40.3064 -6.7117 5
    endloop
  endfacet
  facet normal 0 1 0
    outer loop
      vertex -40.3064 -6.7117 5
      vertex -32.5564 -6.7117 -1
      vertex -40.3064 -6.7117 -1
    endloop
  endfacet
  facet normal -0.866025 0.5 0
    outer loop
      vertex -28.6814 0 5
      vertex -28.6814 0 -1
      vertex -32.5564 -6.7117 5
    endloop
  endfacet
  facet normal -0.866025 0.5 0
    outer loop
      vertex -32.5564 -6.7117 5
      vertex -28.6814 0 -1
      vertex -32.5564 -6.7117 -1
    endloop
  endfacet
  facet normal -0.866025 -0.5 0
    outer loop
      vertex -28.6814 0 5
      vertex -32.5564 6.7117 5
      vertex -28.6814 0 -1
    endloop
  endfacet
  facet normal -0.866025 -0.5 0
    outer loop
      vertex -28.6814 0 -1
      vertex -32.5564 6.7117 5
      vertex -32.5564 6.7117 -1
    endloop
  endfacet
  facet normal 0 -1 0
    outer loop
      vertex -32.5564 6.7117 -1
      vertex -32.5564 6.7117 5
      vertex -40.3064 6.7117 5
    endloop
  endfacet
  facet normal 0 -1 0
    outer loop
      vertex -40.3064 6.7117 -1
      vertex -32.5564 6.7117 -1
      vertex -40.3064 6.7117 5
    endloop
  endfacet
  facet normal 0.866025 -0.5 0
    outer loop
      vertex -40.3064 6.7117 -1
      vertex -40.3064 6.7117 5
      vertex -44.1814 0 5
    endloop
  endfacet
  facet normal 0.866025 -0.5 0
    outer loop
      vertex -44.1814 0 -1
      vertex -40.3064 6.7117 -1
      vertex -44.1814 0 5
    endloop
  endfacet
endsolid OpenSCAD_Model
