solid OpenSCAD_Model
  facet normal 0 0 -1
    outer loop
      vertex -66.2681 60.1526 -5
      vertex -65.641 62 -5
      vertex -66.1405 58.2059 -5
    endloop
  endfacet
  facet normal 0 0 -1
    outer loop
      vertex -66.1405 58.2059 -5
      vertex -65.641 62 -5
      vertex -64.3547 63.4668 -5
    endloop
  endfacet
  facet normal 0 0 -1
    outer loop
      vertex -66.1405 58.2059 -5
      vertex -64.3547 63.4668 -5
      vertex -62.605 64.3296 -5
    endloop
  endfacet
  facet normal 0 0 -1
    outer loop
      vertex -66.1405 58.2059 -5
      vertex -62.605 64.3296 -5
      vertex -60.6583 64.4572 -5
    endloop
  endfacet
  facet normal 0 0 -1
    outer loop
      vertex -62.4939 61.2351 -5
      vertex -60.6583 64.4572 -5
      vertex -58.8109 63.8301 -5
    endloop
  endfacet
  facet normal 0 0 -1
    outer loop
      vertex -59.4922 58.45 -5
      vertex -58.8109 63.8301 -5
      vertex -0.21539 30 -5
    endloop
  endfacet
  facet normal 0 0 -1
    outer loop
      vertex -0.21539 30 -5
      vertex 0 30 -5
      vertex 1.91342 29.6194 -5
    endloop
  endfacet
  facet normal 0 0 -1
    outer loop
      vertex -0.21539 30 -5
      vertex 1.91342 29.6194 -5
      vertex 3.53553 28.5355 -5
    endloop
  endfacet
  facet normal 0 0 -1
    outer loop
      vertex -0.21539 30 -5
      vertex 3.53553 28.5355 -5
      vertex 4.6194 26.9134 -5
    endloop
  endfacet
  facet normal 0 0 -1
    outer loop
      vertex -0.21539 30 -5
      vertex 4.6194 26.9134 -5
      vertex -66.1405 58.2059 -5
    endloop
  endfacet
  facet normal 0 0 -1
    outer loop
      vertex -66.1405 58.2059 -5
      vertex 4.6194 26.9134 -5
      vertex 5 25 -5
    endloop
  endfacet
  facet normal 0 0 -1
    outer loop
      vertex -5 10 -5
      vertex 5 25 -5
      vertex 5 -16.3397 -5
    endloop
  endfacet
  facet normal 0 0 -1
    outer loop
      vertex 5 -16.3397 -5
      vertex 6.69131 -17.5686 -5
      vertex 8.09017 -19.1221 -5
    endloop
  endfacet
  facet normal 0 0 -1
    outer loop
      vertex 5 -16.3397 -5
      vertex 8.09017 -19.1221 -5
      vertex 9.13546 -20.9326 -5
    endloop
  endfacet
  facet normal 0 0 -1
    outer loop
      vertex 3.95 -18.1584 -5
      vertex 9.78148 -22.9209 -5
      vertex 10 -25 -5
    endloop
  endfacet
  facet normal 0 0 -1
    outer loop
      vertex 7.9 -25 -5
      vertex 9.78148 -27.0791 -5
      vertex 9.13546 -29.0674 -5
    endloop
  endfacet
  facet normal 0 0 -1
    outer loop
      vertex 3.95 -31.8416 -5
      vertex 6.69131 -32.4314 -5
      vertex 5 -33.6603 -5
    endloop
  endfacet
  facet normal 0 0 -1
    outer loop
      vertex -65.2777 56.4562 -5
      vertex -66.1405 58.2059 -5
      vertex -63.8109 55.1699 -5
    endloop
  endfacet
  facet normal 0 0 -1
    outer loop
      vertex -3.95 -31.8416 -5
      vertex -1.04529 -34.9452 -5
      vertex -3.09017 -34.5106 -5
    endloop
  endfacet
  facet normal 0 0 -1
    outer loop
      vertex -10 -25 -5
      vertex -3.09017 -34.5106 -5
      vertex -5 -33.6603 -5
    endloop
  endfacet
  facet normal 0 0 -1
    outer loop
      vertex -9.78148 -27.0791 -5
      vertex -5 -33.6603 -5
      vertex -6.69131 -32.4314 -5
    endloop
  endfacet
  facet normal 0 0 -1
    outer loop
      vertex -9.13546 -29.0674 -5
      vertex -6.69131 -32.4314 -5
      vertex -8.09017 -30.8779 -5
    endloop
  endfacet
  facet normal 0 0 -1
    outer loop
      vertex -7.9 -25 -5
      vertex -9.13546 -20.9326 -5
      vertex -8.09017 -19.1221 -5
    endloop
  endfacet
  facet normal 0 0 -1
    outer loop
      vertex 3.95 -31.8416 -5
      vertex 5 -33.6603 -5
      vertex 3.09017 -34.5106 -5
    endloop
  endfacet
  facet normal 0 0 -1
    outer loop
      vertex -10 -25 -5
      vertex -5 -33.6603 -5
      vertex -9.78148 -27.0791 -5
    endloop
  endfacet
  facet normal 0 0 -1
    outer loop
      vertex -9.13546 -20.9326 -5
      vertex -7.9 -25 -5
      vertex -9.78148 -22.9209 -5
    endloop
  endfacet
  facet normal 0 0 -1
    outer loop
      vertex -9.78148 -22.9209 -5
      vertex -3.09017 -34.5106 -5
      vertex -10 -25 -5
    endloop
  endfacet
  facet normal 0 0 -1
    outer loop
      vertex 7.9 -25 -5
      vertex 8.09017 -30.8779 -5
      vertex 6.69131 -32.4314 -5
    endloop
  endfacet
  facet normal 0 0 -1
    outer loop
      vertex 3.95 -31.8416 -5
      vertex 1.04529 -34.9452 -5
      vertex -1.04529 -34.9452 -5
    endloop
  endfacet
  facet normal 0 0 -1
    outer loop
      vertex -3.95 -31.8416 -5
      vertex -9.78148 -22.9209 -5
      vertex -7.9 -25 -5
    endloop
  endfacet
  facet normal 0 0 -1
    outer loop
      vertex -5 10 -5
      vertex 5 -16.3397 -5
      vertex 3.95 -18.1584 -5
    endloop
  endfacet
  facet normal 0 0 -1
    outer loop
      vertex 0.648936 23.0028 -5
      vertex 5 25 -5
      vertex -5 10 -5
    endloop
  endfacet
  facet normal 0 0 -1
    outer loop
      vertex -20 29.8756 -5
      vertex -5 10 -5
      vertex -20 10 -5
    endloop
  endfacet
  facet normal 0 0 -1
    outer loop
      vertex 0 27.1 -5
      vertex -66.1405 58.2059 -5
      vertex 0.648936 26.9972 -5
    endloop
  endfacet
  facet normal 0 0 -1
    outer loop
      vertex -63.8109 55.1699 -5
      vertex -66.1405 58.2059 -5
      vertex -20 29.8756 -5
    endloop
  endfacet
  facet normal 0 0 -1
    outer loop
      vertex -5 -16.3397 -5
      vertex -3.95 -18.1584 -5
      vertex -6.69131 -17.5686 -5
    endloop
  endfacet
  facet normal 0 0 -1
    outer loop
      vertex 7.9 -25 -5
      vertex 6.69131 -32.4314 -5
      vertex 3.95 -31.8416 -5
    endloop
  endfacet
  facet normal 0 0 -1
    outer loop
      vertex -63.405 59.6569 -5
      vertex -66.1405 58.2059 -5
      vertex -62.4939 61.2351 -5
    endloop
  endfacet
  facet normal 0 0 -1
    outer loop
      vertex -59.4922 58.45 -5
      vertex -0.21539 30 -5
      vertex -60.9979 57.4235 -5
    endloop
  endfacet
  facet normal 0 0 -1
    outer loop
      vertex -66.1405 58.2059 -5
      vertex -63.405 59.6569 -5
      vertex -62.7393 57.9606 -5
    endloop
  endfacet
  facet normal 0 0 -1
    outer loop
      vertex -66.1405 58.2059 -5
      vertex -62.7393 57.9606 -5
      vertex -0.21539 30 -5
    endloop
  endfacet
  facet normal 0 0 -1
    outer loop
      vertex -62.7393 57.9606 -5
      vertex -60.9979 57.4235 -5
      vertex -0.21539 30 -5
    endloop
  endfacet
  facet normal 0 0 -1
    outer loop
      vertex -59.3561 60.2672 -5
      vertex -58.8109 63.8301 -5
      vertex -59.4922 58.45 -5
    endloop
  endfacet
  facet normal 0 0 -1
    outer loop
      vertex -62.4939 61.2351 -5
      vertex -58.8109 63.8301 -5
      vertex -60.6919 61.5067 -5
    endloop
  endfacet
  facet normal 0 0 -1
    outer loop
      vertex -60.6919 61.5067 -5
      vertex -58.8109 63.8301 -5
      vertex -59.3561 60.2672 -5
    endloop
  endfacet
  facet normal 0 0 -1
    outer loop
      vertex -7.9 -25 -5
      vertex -8.09017 -19.1221 -5
      vertex -6.69131 -17.5686 -5
    endloop
  endfacet
  facet normal 0 0 -1
    outer loop
      vertex -66.1405 58.2059 -5
      vertex -60.6583 64.4572 -5
      vertex -62.4939 61.2351 -5
    endloop
  endfacet
  facet normal 0 0 -1
    outer loop
      vertex 3.95 -31.8416 -5
      vertex -1.04529 -34.9452 -5
      vertex -3.95 -31.8416 -5
    endloop
  endfacet
  facet normal 0 0 -1
    outer loop
      vertex 3.95 -31.8416 -5
      vertex 3.09017 -34.5106 -5
      vertex 1.04529 -34.9452 -5
    endloop
  endfacet
  facet normal 0 0 -1
    outer loop
      vertex -9.78148 -22.9209 -5
      vertex -3.95 -31.8416 -5
      vertex -3.09017 -34.5106 -5
    endloop
  endfacet
  facet normal 0 0 -1
    outer loop
      vertex -3.95 -18.1584 -5
      vertex -5 -16.3397 -5
      vertex 3.95 -18.1584 -5
    endloop
  endfacet
  facet normal 0 0 -1
    outer loop
      vertex 5 -16.3397 -5
      vertex 9.13546 -20.9326 -5
      vertex 9.78148 -22.9209 -5
    endloop
  endfacet
  facet normal 0 0 -1
    outer loop
      vertex 5 -16.3397 -5
      vertex 9.78148 -22.9209 -5
      vertex 3.95 -18.1584 -5
    endloop
  endfacet
  facet normal 0 0 -1
    outer loop
      vertex -20 29.8756 -5
      vertex -2.1 25 -5
      vertex -5 10 -5
    endloop
  endfacet
  facet normal 0 0 -1
    outer loop
      vertex 1.99722 25.6489 -5
      vertex 5 25 -5
      vertex 2.1 25 -5
    endloop
  endfacet
  facet normal 0 0 -1
    outer loop
      vertex -2.1 25 -5
      vertex -1.99722 24.3511 -5
      vertex -5 10 -5
    endloop
  endfacet
  facet normal 0 0 -1
    outer loop
      vertex -1.99722 25.6489 -5
      vertex -20 29.8756 -5
      vertex -1.69894 26.2343 -5
    endloop
  endfacet
  facet normal 0 0 -1
    outer loop
      vertex -1.99722 24.3511 -5
      vertex -1.69894 23.7657 -5
      vertex -5 10 -5
    endloop
  endfacet
  facet normal 0 0 -1
    outer loop
      vertex 2.1 25 -5
      vertex 5 25 -5
      vertex 1.99722 24.3511 -5
    endloop
  endfacet
  facet normal 0 0 -1
    outer loop
      vertex -1.69894 23.7657 -5
      vertex -1.23435 23.3011 -5
      vertex -5 10 -5
    endloop
  endfacet
  facet normal 0 0 -1
    outer loop
      vertex -1.23435 23.3011 -5
      vertex -0.648936 23.0028 -5
      vertex -5 10 -5
    endloop
  endfacet
  facet normal 0 0 -1
    outer loop
      vertex 1.99722 24.3511 -5
      vertex 5 25 -5
      vertex 1.69894 23.7657 -5
    endloop
  endfacet
  facet normal 0 0 -1
    outer loop
      vertex -0.648936 23.0028 -5
      vertex 0 22.9 -5
      vertex -5 10 -5
    endloop
  endfacet
  facet normal 0 0 -1
    outer loop
      vertex 1.23435 23.3011 -5
      vertex 5 25 -5
      vertex 0.648936 23.0028 -5
    endloop
  endfacet
  facet normal 0 0 -1
    outer loop
      vertex 0 22.9 -5
      vertex 0.648936 23.0028 -5
      vertex -5 10 -5
    endloop
  endfacet
  facet normal 0 0 -1
    outer loop
      vertex 1.69894 26.2343 -5
      vertex 5 25 -5
      vertex 1.99722 25.6489 -5
    endloop
  endfacet
  facet normal 0 0 -1
    outer loop
      vertex 1.23435 26.6989 -5
      vertex 5 25 -5
      vertex 1.69894 26.2343 -5
    endloop
  endfacet
  facet normal 0 0 -1
    outer loop
      vertex 0.648936 26.9972 -5
      vertex 5 25 -5
      vertex 1.23435 26.6989 -5
    endloop
  endfacet
  facet normal 0 0 -1
    outer loop
      vertex -66.1405 58.2059 -5
      vertex 5 25 -5
      vertex 0.648936 26.9972 -5
    endloop
  endfacet
  facet normal 0 0 -1
    outer loop
      vertex -0.648936 26.9972 -5
      vertex -66.1405 58.2059 -5
      vertex 0 27.1 -5
    endloop
  endfacet
  facet normal 0 0 -1
    outer loop
      vertex -1.23435 26.6989 -5
      vertex -66.1405 58.2059 -5
      vertex -0.648936 26.9972 -5
    endloop
  endfacet
  facet normal 0 0 -1
    outer loop
      vertex -1.69894 26.2343 -5
      vertex -20 29.8756 -5
      vertex -1.23435 26.6989 -5
    endloop
  endfacet
  facet normal 0 0 -1
    outer loop
      vertex -66.1405 58.2059 -5
      vertex -1.23435 26.6989 -5
      vertex -20 29.8756 -5
    endloop
  endfacet
  facet normal 0 0 -1
    outer loop
      vertex -20 29.8756 -5
      vertex -1.99722 25.6489 -5
      vertex -2.1 25 -5
    endloop
  endfacet
  facet normal 0 0 -1
    outer loop
      vertex -9.78148 -27.0791 -5
      vertex -6.69131 -32.4314 -5
      vertex -9.13546 -29.0674 -5
    endloop
  endfacet
  facet normal 0 0 -1
    outer loop
      vertex -7.9 -25 -5
      vertex -6.69131 -17.5686 -5
      vertex -3.95 -18.1584 -5
    endloop
  endfacet
  facet normal 0 0 -1
    outer loop
      vertex 7.9 -25 -5
      vertex 9.13546 -29.0674 -5
      vertex 8.09017 -30.8779 -5
    endloop
  endfacet
  facet normal 0 0 -1
    outer loop
      vertex 3.95 -18.1584 -5
      vertex 10 -25 -5
      vertex 9.78148 -27.0791 -5
    endloop
  endfacet
  facet normal 0 0 -1
    outer loop
      vertex 3.95 -18.1584 -5
      vertex 9.78148 -27.0791 -5
      vertex 7.9 -25 -5
    endloop
  endfacet
  facet normal 0 0 -1
    outer loop
      vertex 1.69894 23.7657 -5
      vertex 5 25 -5
      vertex 1.23435 23.3011 -5
    endloop
  endfacet
  facet normal 0 0 -1
    outer loop
      vertex -5 10 -5
      vertex 3.95 -18.1584 -5
      vertex -5 -16.3397 -5
    endloop
  endfacet
  facet normal -0.94693 0.32144 0
    outer loop
      vertex -66.2681 60.1526 -5
      vertex -66.2681 60.1526 5
      vertex -65.641 62 -5
    endloop
  endfacet
  facet normal -0.94693 0.32144 0
    outer loop
      vertex -65.641 62 -5
      vertex -66.2681 60.1526 5
      vertex -65.641 62 5
    endloop
  endfacet
  facet normal -0.997859 -0.0654032 0
    outer loop
      vertex -66.2681 60.1526 -5
      vertex -66.1405 58.2059 -5
      vertex -66.2681 60.1526 5
    endloop
  endfacet
  facet normal -0.997859 -0.0654032 0
    outer loop
      vertex -66.2681 60.1526 5
      vertex -66.1405 58.2059 -5
      vertex -66.1405 58.2059 5
    endloop
  endfacet
  facet normal -0.896873 -0.442289 0
    outer loop
      vertex -66.1405 58.2059 -5
      vertex -65.2777 56.4562 -5
      vertex -66.1405 58.2059 5
    endloop
  endfacet
  facet normal -0.896873 -0.442289 0
    outer loop
      vertex -66.1405 58.2059 5
      vertex -65.2777 56.4562 -5
      vertex -65.2777 56.4562 5
    endloop
  endfacet
  facet normal -0.659346 -0.75184 0
    outer loop
      vertex -65.2777 56.4562 5
      vertex -65.2777 56.4562 -5
      vertex -63.8109 55.1699 -5
    endloop
  endfacet
  facet normal -0.659346 -0.75184 0
    outer loop
      vertex -63.8109 55.1699 5
      vertex -65.2777 56.4562 5
      vertex -63.8109 55.1699 -5
    endloop
  endfacet
  facet normal -0.5 -0.866025 0
    outer loop
      vertex -63.8109 55.1699 5
      vertex -63.8109 55.1699 -5
      vertex -20 29.8756 -5
    endloop
  endfacet
  facet normal -0.5 -0.866025 0
    outer loop
      vertex -5 21.2154 0
      vertex -63.8109 55.1699 5
      vertex -20 29.8756 0
    endloop
  endfacet
  facet normal -0.5 -0.866025 0
    outer loop
      vertex -20 29.8756 0
      vertex -63.8109 55.1699 5
      vertex -20 29.8756 -5
    endloop
  endfacet
  facet normal -0.5 -0.866025 0
    outer loop
      vertex -5 21.2154 5
      vertex -63.8109 55.1699 5
      vertex -5 21.2154 0
    endloop
  endfacet
  facet normal -1 0 0
    outer loop
      vertex -20 10 -5
      vertex -20 10 0
      vertex -20 29.8756 -5
    endloop
  endfacet
  facet normal -1 0 0
    outer loop
      vertex -20 29.8756 -5
      vertex -20 10 0
      vertex -20 29.8756 0
    endloop
  endfacet
  facet normal 0 -1 0
    outer loop
      vertex -20 10 0
      vertex -20 10 -5
      vertex -5 10 -5
    endloop
  endfacet
  facet normal 0 -1 0
    outer loop
      vertex -5 10 0
      vertex -20 10 0
      vertex -5 10 -5
    endloop
  endfacet
  facet normal -1 0 0
    outer loop
      vertex -5 -16.3397 -5
      vertex -5 -16.3397 5
      vertex -5 10 -5
    endloop
  endfacet
  facet normal -1 0 0
    outer loop
      vertex -5 10 0
      vertex -5 -16.3397 5
      vertex -5 21.2154 5
    endloop
  endfacet
  facet normal -1 0 0
    outer loop
      vertex -5 10 -5
      vertex -5 -16.3397 5
      vertex -5 10 0
    endloop
  endfacet
  facet normal -1 0 0
    outer loop
      vertex -5 10 0
      vertex -5 21.2154 5
      vertex -5 21.2154 0
    endloop
  endfacet
  facet normal -0.587785 0.809017 0
    outer loop
      vertex -6.69131 -17.5686 -5
      vertex -6.69131 -17.5686 5
      vertex -5 -16.3397 -5
    endloop
  endfacet
  facet normal -0.587785 0.809017 0
    outer loop
      vertex -5 -16.3397 -5
      vertex -6.69131 -17.5686 5
      vertex -5 -16.3397 5
    endloop
  endfacet
  facet normal -0.743145 0.669131 0
    outer loop
      vertex -8.09017 -19.1221 -5
      vertex -8.09017 -19.1221 5
      vertex -6.69131 -17.5686 -5
    endloop
  endfacet
  facet normal -0.743145 0.669131 0
    outer loop
      vertex -6.69131 -17.5686 -5
      vertex -8.09017 -19.1221 5
      vertex -6.69131 -17.5686 5
    endloop
  endfacet
  facet normal -0.866025 0.5 0
    outer loop
      vertex -9.13546 -20.9326 -5
      vertex -9.13546 -20.9326 5
      vertex -8.09017 -19.1221 -5
    endloop
  endfacet
  facet normal -0.866025 0.5 0
    outer loop
      vertex -8.09017 -19.1221 -5
      vertex -9.13546 -20.9326 5
      vertex -8.09017 -19.1221 5
    endloop
  endfacet
  facet normal -0.951057 0.309017 0
    outer loop
      vertex -9.78148 -22.9209 -5
      vertex -9.78148 -22.9209 5
      vertex -9.13546 -20.9326 -5
    endloop
  endfacet
  facet normal -0.951057 0.309017 0
    outer loop
      vertex -9.13546 -20.9326 -5
      vertex -9.78148 -22.9209 5
      vertex -9.13546 -20.9326 5
    endloop
  endfacet
  facet normal -0.994522 0.104528 0
    outer loop
      vertex -10 -25 -5
      vertex -10 -25 5
      vertex -9.78148 -22.9209 -5
    endloop
  endfacet
  facet normal -0.994522 0.104528 0
    outer loop
      vertex -9.78148 -22.9209 -5
      vertex -10 -25 5
      vertex -9.78148 -22.9209 5
    endloop
  endfacet
  facet normal -0.994522 -0.104528 0
    outer loop
      vertex -10 -25 -5
      vertex -9.78148 -27.0791 -5
      vertex -10 -25 5
    endloop
  endfacet
  facet normal -0.994522 -0.104528 0
    outer loop
      vertex -10 -25 5
      vertex -9.78148 -27.0791 -5
      vertex -9.78148 -27.0791 5
    endloop
  endfacet
  facet normal -0.951057 -0.309017 0
    outer loop
      vertex -9.78148 -27.0791 -5
      vertex -9.13546 -29.0674 -5
      vertex -9.78148 -27.0791 5
    endloop
  endfacet
  facet normal -0.951057 -0.309017 0
    outer loop
      vertex -9.78148 -27.0791 5
      vertex -9.13546 -29.0674 -5
      vertex -9.13546 -29.0674 5
    endloop
  endfacet
  facet normal -0.866025 -0.5 0
    outer loop
      vertex -9.13546 -29.0674 -5
      vertex -8.09017 -30.8779 -5
      vertex -9.13546 -29.0674 5
    endloop
  endfacet
  facet normal -0.866025 -0.5 0
    outer loop
      vertex -9.13546 -29.0674 5
      vertex -8.09017 -30.8779 -5
      vertex -8.09017 -30.8779 5
    endloop
  endfacet
  facet normal -0.743145 -0.669131 0
    outer loop
      vertex -8.09017 -30.8779 -5
      vertex -6.69131 -32.4314 -5
      vertex -8.09017 -30.8779 5
    endloop
  endfacet
  facet normal -0.743145 -0.669131 0
    outer loop
      vertex -8.09017 -30.8779 5
      vertex -6.69131 -32.4314 -5
      vertex -6.69131 -32.4314 5
    endloop
  endfacet
  facet normal -0.587785 -0.809017 0
    outer loop
      vertex -6.69131 -32.4314 5
      vertex -6.69131 -32.4314 -5
      vertex -5 -33.6603 -5
    endloop
  endfacet
  facet normal -0.587785 -0.809017 0
    outer loop
      vertex -5 -33.6603 5
      vertex -6.69131 -32.4314 5
      vertex -5 -33.6603 -5
    endloop
  endfacet
  facet normal -0.406737 -0.913545 0
    outer loop
      vertex -5 -33.6603 5
      vertex -5 -33.6603 -5
      vertex -3.09017 -34.5106 -5
    endloop
  endfacet
  facet normal -0.406737 -0.913545 0
    outer loop
      vertex -3.09017 -34.5106 5
      vertex -5 -33.6603 5
      vertex -3.09017 -34.5106 -5
    endloop
  endfacet
  facet normal -0.207912 -0.978148 0
    outer loop
      vertex -3.09017 -34.5106 5
      vertex -3.09017 -34.5106 -5
      vertex -1.04529 -34.9452 -5
    endloop
  endfacet
  facet normal -0.207912 -0.978148 0
    outer loop
      vertex -1.04529 -34.9452 5
      vertex -3.09017 -34.5106 5
      vertex -1.04529 -34.9452 -5
    endloop
  endfacet
  facet normal 0 -1 0
    outer loop
      vertex -1.04529 -34.9452 5
      vertex -1.04529 -34.9452 -5
      vertex 1.04529 -34.9452 -5
    endloop
  endfacet
  facet normal 0 -1 0
    outer loop
      vertex 1.04529 -34.9452 5
      vertex -1.04529 -34.9452 5
      vertex 1.04529 -34.9452 -5
    endloop
  endfacet
  facet normal 0.207912 -0.978148 0
    outer loop
      vertex 1.04529 -34.9452 5
      vertex 1.04529 -34.9452 -5
      vertex 3.09017 -34.5106 -5
    endloop
  endfacet
  facet normal 0.207912 -0.978148 0
    outer loop
      vertex 3.09017 -34.5106 5
      vertex 1.04529 -34.9452 5
      vertex 3.09017 -34.5106 -5
    endloop
  endfacet
  facet normal 0.406737 -0.913545 0
    outer loop
      vertex 3.09017 -34.5106 5
      vertex 3.09017 -34.5106 -5
      vertex 5 -33.6603 -5
    endloop
  endfacet
  facet normal 0.406737 -0.913545 0
    outer loop
      vertex 5 -33.6603 5
      vertex 3.09017 -34.5106 5
      vertex 5 -33.6603 -5
    endloop
  endfacet
  facet normal 0.587785 -0.809017 0
    outer loop
      vertex 5 -33.6603 5
      vertex 5 -33.6603 -5
      vertex 6.69131 -32.4314 -5
    endloop
  endfacet
  facet normal 0.587785 -0.809017 0
    outer loop
      vertex 6.69131 -32.4314 5
      vertex 5 -33.6603 5
      vertex 6.69131 -32.4314 -5
    endloop
  endfacet
  facet normal 0.743145 -0.669131 0
    outer loop
      vertex 6.69131 -32.4314 5
      vertex 6.69131 -32.4314 -5
      vertex 8.09017 -30.8779 -5
    endloop
  endfacet
  facet normal 0.743145 -0.669131 0
    outer loop
      vertex 8.09017 -30.8779 5
      vertex 6.69131 -32.4314 5
      vertex 8.09017 -30.8779 -5
    endloop
  endfacet
  facet normal 0.866025 -0.5 0
    outer loop
      vertex 8.09017 -30.8779 5
      vertex 8.09017 -30.8779 -5
      vertex 9.13546 -29.0674 -5
    endloop
  endfacet
  facet normal 0.866025 -0.5 0
    outer loop
      vertex 9.13546 -29.0674 5
      vertex 8.09017 -30.8779 5
      vertex 9.13546 -29.0674 -5
    endloop
  endfacet
  facet normal 0.951057 -0.309017 0
    outer loop
      vertex 9.13546 -29.0674 5
      vertex 9.13546 -29.0674 -5
      vertex 9.78148 -27.0791 -5
    endloop
  endfacet
  facet normal 0.951057 -0.309017 0
    outer loop
      vertex 9.78148 -27.0791 5
      vertex 9.13546 -29.0674 5
      vertex 9.78148 -27.0791 -5
    endloop
  endfacet
  facet normal 0.994522 -0.104528 0
    outer loop
      vertex 9.78148 -27.0791 5
      vertex 9.78148 -27.0791 -5
      vertex 10 -25 -5
    endloop
  endfacet
  facet normal 0.994522 -0.104528 0
    outer loop
      vertex 10 -25 5
      vertex 9.78148 -27.0791 5
      vertex 10 -25 -5
    endloop
  endfacet
  facet normal 0.994522 0.104528 0
    outer loop
      vertex 10 -25 -5
      vertex 9.78148 -22.9209 -5
      vertex 9.78148 -22.9209 5
    endloop
  endfacet
  facet normal 0.994522 0.104528 0
    outer loop
      vertex 10 -25 5
      vertex 10 -25 -5
      vertex 9.78148 -22.9209 5
    endloop
  endfacet
  facet normal 0.951057 0.309017 0
    outer loop
      vertex 9.78148 -22.9209 -5
      vertex 9.13546 -20.9326 -5
      vertex 9.13546 -20.9326 5
    endloop
  endfacet
  facet normal 0.951057 0.309017 0
    outer loop
      vertex 9.78148 -22.9209 5
      vertex 9.78148 -22.9209 -5
      vertex 9.13546 -20.9326 5
    endloop
  endfacet
  facet normal 0.866025 0.5 0
    outer loop
      vertex 9.13546 -20.9326 -5
      vertex 8.09017 -19.1221 -5
      vertex 8.09017 -19.1221 5
    endloop
  endfacet
  facet normal 0.866025 0.5 0
    outer loop
      vertex 9.13546 -20.9326 5
      vertex 9.13546 -20.9326 -5
      vertex 8.09017 -19.1221 5
    endloop
  endfacet
  facet normal 0.743145 0.669131 0
    outer loop
      vertex 8.09017 -19.1221 -5
      vertex 6.69131 -17.5686 -5
      vertex 6.69131 -17.5686 5
    endloop
  endfacet
  facet normal 0.743145 0.669131 0
    outer loop
      vertex 8.09017 -19.1221 5
      vertex 8.09017 -19.1221 -5
      vertex 6.69131 -17.5686 5
    endloop
  endfacet
  facet normal 0.587785 0.809017 0
    outer loop
      vertex 5 -16.3397 -5
      vertex 5 -16.3397 5
      vertex 6.69131 -17.5686 -5
    endloop
  endfacet
  facet normal 0.587785 0.809017 0
    outer loop
      vertex 6.69131 -17.5686 -5
      vertex 5 -16.3397 5
      vertex 6.69131 -17.5686 5
    endloop
  endfacet
  facet normal 1 0 0
    outer loop
      vertex 5 -16.3397 5
      vertex 5 -16.3397 -5
      vertex 5 25 -5
    endloop
  endfacet
  facet normal 1 0 0
    outer loop
      vertex 5 25 5
      vertex 5 -16.3397 5
      vertex 5 25 -5
    endloop
  endfacet
  facet normal 0.980785 0.19509 0
    outer loop
      vertex 5 25 -5
      vertex 4.6194 26.9134 -5
      vertex 4.6194 26.9134 5
    endloop
  endfacet
  facet normal 0.980785 0.19509 0
    outer loop
      vertex 5 25 5
      vertex 5 25 -5
      vertex 4.6194 26.9134 5
    endloop
  endfacet
  facet normal 0.83147 0.55557 0
    outer loop
      vertex 4.6194 26.9134 -5
      vertex 3.53553 28.5355 -5
      vertex 3.53553 28.5355 5
    endloop
  endfacet
  facet normal 0.83147 0.55557 0
    outer loop
      vertex 4.6194 26.9134 5
      vertex 4.6194 26.9134 -5
      vertex 3.53553 28.5355 5
    endloop
  endfacet
  facet normal 0.55557 0.83147 0
    outer loop
      vertex 1.91342 29.6194 -5
      vertex 1.91342 29.6194 5
      vertex 3.53553 28.5355 -5
    endloop
  endfacet
  facet normal 0.55557 0.83147 0
    outer loop
      vertex 3.53553 28.5355 -5
      vertex 1.91342 29.6194 5
      vertex 3.53553 28.5355 5
    endloop
  endfacet
  facet normal 0.19509 0.980785 0
    outer loop
      vertex 0 30 -5
      vertex 0 30 0
      vertex 1.91342 29.6194 -5
    endloop
  endfacet
  facet normal 0.19509 0.980785 0
    outer loop
      vertex 1.91342 29.6194 -5
      vertex 0 30 0
      vertex 0 30 5
    endloop
  endfacet
  facet normal 0.19509 0.980785 0
    outer loop
      vertex 1.91342 29.6194 -5
      vertex 0 30 5
      vertex 1.91342 29.6194 5
    endloop
  endfacet
  facet normal 0 1 0
    outer loop
      vertex -0.21539 30 -5
      vertex -0.21539 30 0
      vertex 0 30 -5
    endloop
  endfacet
  facet normal 0 1 0
    outer loop
      vertex 0 30 -5
      vertex -0.21539 30 0
      vertex 0 30 0
    endloop
  endfacet
  facet normal 0.5 0.866025 0
    outer loop
      vertex -58.8109 63.8301 -5
      vertex -58.8109 63.8301 5
      vertex -0.21539 30 -5
    endloop
  endfacet
  facet normal 0.5 0.866025 0
    outer loop
      vertex -0.21539 30 0
      vertex -58.8109 63.8301 5
      vertex -0.160198 29.9681 5
    endloop
  endfacet
  facet normal 0.5 0.866025 0
    outer loop
      vertex -0.21539 30 -5
      vertex -58.8109 63.8301 5
      vertex -0.21539 30 0
    endloop
  endfacet
  facet normal 0.5 0.866025 0
    outer loop
      vertex -0.21539 30 0
      vertex -0.160198 29.9681 5
      vertex -0.160198 29.9681 0
    endloop
  endfacet
  facet normal 0.32144 0.94693 0
    outer loop
      vertex -60.6583 64.4572 -5
      vertex -60.6583 64.4572 5
      vertex -58.8109 63.8301 -5
    endloop
  endfacet
  facet normal 0.32144 0.94693 0
    outer loop
      vertex -58.8109 63.8301 -5
      vertex -60.6583 64.4572 5
      vertex -58.8109 63.8301 5
    endloop
  endfacet
  facet normal -0.0654032 0.997859 0
    outer loop
      vertex -62.605 64.3296 -5
      vertex -62.605 64.3296 5
      vertex -60.6583 64.4572 -5
    endloop
  endfacet
  facet normal -0.0654032 0.997859 0
    outer loop
      vertex -60.6583 64.4572 -5
      vertex -62.605 64.3296 5
      vertex -60.6583 64.4572 5
    endloop
  endfacet
  facet normal -0.442289 0.896873 0
    outer loop
      vertex -64.3547 63.4668 -5
      vertex -64.3547 63.4668 5
      vertex -62.605 64.3296 -5
    endloop
  endfacet
  facet normal -0.442289 0.896873 0
    outer loop
      vertex -62.605 64.3296 -5
      vertex -64.3547 63.4668 5
      vertex -62.605 64.3296 5
    endloop
  endfacet
  facet normal -0.75184 0.659346 0
    outer loop
      vertex -65.641 62 -5
      vertex -65.641 62 5
      vertex -64.3547 63.4668 -5
    endloop
  endfacet
  facet normal -0.75184 0.659346 0
    outer loop
      vertex -64.3547 63.4668 -5
      vertex -65.641 62 5
      vertex -64.3547 63.4668 5
    endloop
  endfacet
  facet normal 0.866025 -0.5 0
    outer loop
      vertex -62.4939 61.2351 -5
      vertex -62.4939 61.2351 5
      vertex -63.405 59.6569 5
    endloop
  endfacet
  facet normal 0.866025 -0.5 0
    outer loop
      vertex -63.405 59.6569 -5
      vertex -62.4939 61.2351 -5
      vertex -63.405 59.6569 5
    endloop
  endfacet
  facet normal 0.930874 0.365341 0
    outer loop
      vertex -63.405 59.6569 5
      vertex -62.7393 57.9606 5
      vertex -62.7393 57.9606 -5
    endloop
  endfacet
  facet normal 0.930874 0.365341 0
    outer loop
      vertex -63.405 59.6569 -5
      vertex -63.405 59.6569 5
      vertex -62.7393 57.9606 -5
    endloop
  endfacet
  facet normal 0.149042 -0.988831 0
    outer loop
      vertex -60.6919 61.5067 -5
      vertex -60.6919 61.5067 5
      vertex -62.4939 61.2351 5
    endloop
  endfacet
  facet normal 0.149042 -0.988831 0
    outer loop
      vertex -62.4939 61.2351 -5
      vertex -60.6919 61.5067 -5
      vertex -62.4939 61.2351 5
    endloop
  endfacet
  facet normal -0.680173 -0.733052 0
    outer loop
      vertex -59.3561 60.2672 -5
      vertex -59.3561 60.2672 5
      vertex -60.6919 61.5067 5
    endloop
  endfacet
  facet normal -0.680173 -0.733052 0
    outer loop
      vertex -60.6919 61.5067 -5
      vertex -59.3561 60.2672 -5
      vertex -60.6919 61.5067 5
    endloop
  endfacet
  facet normal -0.997204 0.0747303 0
    outer loop
      vertex -59.3561 60.2672 5
      vertex -59.3561 60.2672 -5
      vertex -59.4922 58.45 5
    endloop
  endfacet
  facet normal -0.997204 0.0747303 0
    outer loop
      vertex -59.4922 58.45 5
      vertex -59.3561 60.2672 -5
      vertex -59.4922 58.45 -5
    endloop
  endfacet
  facet normal -0.56332 0.826239 0
    outer loop
      vertex -59.4922 58.45 5
      vertex -59.4922 58.45 -5
      vertex -60.9979 57.4235 5
    endloop
  endfacet
  facet normal -0.56332 0.826239 0
    outer loop
      vertex -60.9979 57.4235 5
      vertex -59.4922 58.45 -5
      vertex -60.9979 57.4235 -5
    endloop
  endfacet
  facet normal 0.294755 0.955573 0
    outer loop
      vertex -60.9979 57.4235 5
      vertex -60.9979 57.4235 -5
      vertex -62.7393 57.9606 5
    endloop
  endfacet
  facet normal 0.294755 0.955573 0
    outer loop
      vertex -62.7393 57.9606 5
      vertex -60.9979 57.4235 -5
      vertex -62.7393 57.9606 -5
    endloop
  endfacet
  facet normal 0.866025 -0.5 0
    outer loop
      vertex -3.95 -18.1584 -5
      vertex -3.95 -18.1584 4
      vertex -7.9 -25 4
    endloop
  endfacet
  facet normal 0.866025 -0.5 0
    outer loop
      vertex -7.9 -25 -5
      vertex -3.95 -18.1584 -5
      vertex -7.9 -25 4
    endloop
  endfacet
  facet normal 0.866025 0.5 0
    outer loop
      vertex -7.9 -25 4
      vertex -3.95 -31.8416 4
      vertex -3.95 -31.8416 -5
    endloop
  endfacet
  facet normal 0.866025 0.5 0
    outer loop
      vertex -7.9 -25 -5
      vertex -7.9 -25 4
      vertex -3.95 -31.8416 -5
    endloop
  endfacet
  facet normal 0 -1 0
    outer loop
      vertex 3.95 -18.1584 -5
      vertex 3.95 -18.1584 4
      vertex -3.95 -18.1584 4
    endloop
  endfacet
  facet normal 0 -1 0
    outer loop
      vertex -3.95 -18.1584 -5
      vertex 3.95 -18.1584 -5
      vertex -3.95 -18.1584 4
    endloop
  endfacet
  facet normal -0.866025 -0.5 0
    outer loop
      vertex 7.9 -25 4
      vertex 3.95 -18.1584 4
      vertex 7.9 -25 -5
    endloop
  endfacet
  facet normal -0.866025 -0.5 0
    outer loop
      vertex 7.9 -25 -5
      vertex 3.95 -18.1584 4
      vertex 3.95 -18.1584 -5
    endloop
  endfacet
  facet normal -0.866025 0.5 0
    outer loop
      vertex 7.9 -25 4
      vertex 7.9 -25 -5
      vertex 3.95 -31.8416 4
    endloop
  endfacet
  facet normal -0.866025 0.5 0
    outer loop
      vertex 3.95 -31.8416 4
      vertex 7.9 -25 -5
      vertex 3.95 -31.8416 -5
    endloop
  endfacet
  facet normal 0 1 0
    outer loop
      vertex 3.95 -31.8416 4
      vertex 3.95 -31.8416 -5
      vertex -3.95 -31.8416 4
    endloop
  endfacet
  facet normal 0 1 0
    outer loop
      vertex -3.95 -31.8416 4
      vertex 3.95 -31.8416 -5
      vertex -3.95 -31.8416 -5
    endloop
  endfacet
  facet normal 0.987688 -0.156434 0
    outer loop
      vertex -1.99722 25.6489 -5
      vertex -1.99722 25.6489 5
      vertex -2.1 25 5
    endloop
  endfacet
  facet normal 0.987688 -0.156434 0
    outer loop
      vertex -2.1 25 -5
      vertex -1.99722 25.6489 -5
      vertex -2.1 25 5
    endloop
  endfacet
  facet normal 0.987688 0.156434 0
    outer loop
      vertex -2.1 25 5
      vertex -1.99722 24.3511 5
      vertex -1.99722 24.3511 -5
    endloop
  endfacet
  facet normal 0.987688 0.156434 0
    outer loop
      vertex -2.1 25 -5
      vertex -2.1 25 5
      vertex -1.99722 24.3511 -5
    endloop
  endfacet
  facet normal 0.891006 -0.453991 0
    outer loop
      vertex -1.69894 26.2343 -5
      vertex -1.69894 26.2343 5
      vertex -1.99722 25.6489 5
    endloop
  endfacet
  facet normal 0.891006 -0.453991 0
    outer loop
      vertex -1.99722 25.6489 -5
      vertex -1.69894 26.2343 -5
      vertex -1.99722 25.6489 5
    endloop
  endfacet
  facet normal 0.707107 -0.707107 0
    outer loop
      vertex -1.23435 26.6989 -5
      vertex -1.23435 26.6989 5
      vertex -1.69894 26.2343 5
    endloop
  endfacet
  facet normal 0.707107 -0.707107 0
    outer loop
      vertex -1.69894 26.2343 -5
      vertex -1.23435 26.6989 -5
      vertex -1.69894 26.2343 5
    endloop
  endfacet
  facet normal 0.453991 -0.891006 0
    outer loop
      vertex -0.648936 26.9972 -5
      vertex -0.648936 26.9972 5
      vertex -1.23435 26.6989 5
    endloop
  endfacet
  facet normal 0.453991 -0.891006 0
    outer loop
      vertex -1.23435 26.6989 -5
      vertex -0.648936 26.9972 -5
      vertex -1.23435 26.6989 5
    endloop
  endfacet
  facet normal 0.156434 -0.987688 0
    outer loop
      vertex 0 27.1 -5
      vertex 0 27.1 5
      vertex -0.648936 26.9972 5
    endloop
  endfacet
  facet normal 0.156434 -0.987688 0
    outer loop
      vertex -0.648936 26.9972 -5
      vertex 0 27.1 -5
      vertex -0.648936 26.9972 5
    endloop
  endfacet
  facet normal -0.156434 -0.987688 0
    outer loop
      vertex 0.648936 26.9972 -5
      vertex 0.648936 26.9972 5
      vertex 0 27.1 5
    endloop
  endfacet
  facet normal -0.156434 -0.987688 0
    outer loop
      vertex 0 27.1 -5
      vertex 0.648936 26.9972 -5
      vertex 0 27.1 5
    endloop
  endfacet
  facet normal -0.453991 -0.891006 0
    outer loop
      vertex 1.23435 26.6989 -5
      vertex 1.23435 26.6989 5
      vertex 0.648936 26.9972 5
    endloop
  endfacet
  facet normal -0.453991 -0.891006 0
    outer loop
      vertex 0.648936 26.9972 -5
      vertex 1.23435 26.6989 -5
      vertex 0.648936 26.9972 5
    endloop
  endfacet
  facet normal -0.707107 -0.707107 0
    outer loop
      vertex 1.69894 26.2343 -5
      vertex 1.69894 26.2343 5
      vertex 1.23435 26.6989 5
    endloop
  endfacet
  facet normal -0.707107 -0.707107 0
    outer loop
      vertex 1.23435 26.6989 -5
      vertex 1.69894 26.2343 -5
      vertex 1.23435 26.6989 5
    endloop
  endfacet
  facet normal -0.891006 -0.453991 0
    outer loop
      vertex 1.99722 25.6489 5
      vertex 1.69894 26.2343 5
      vertex 1.99722 25.6489 -5
    endloop
  endfacet
  facet normal -0.891006 -0.453991 0
    outer loop
      vertex 1.99722 25.6489 -5
      vertex 1.69894 26.2343 5
      vertex 1.69894 26.2343 -5
    endloop
  endfacet
  facet normal -0.987688 -0.156434 0
    outer loop
      vertex 2.1 25 5
      vertex 1.99722 25.6489 5
      vertex 2.1 25 -5
    endloop
  endfacet
  facet normal -0.987688 -0.156434 0
    outer loop
      vertex 2.1 25 -5
      vertex 1.99722 25.6489 5
      vertex 1.99722 25.6489 -5
    endloop
  endfacet
  facet normal -0.987688 0.156434 0
    outer loop
      vertex 2.1 25 5
      vertex 2.1 25 -5
      vertex 1.99722 24.3511 5
    endloop
  endfacet
  facet normal -0.987688 0.156434 0
    outer loop
      vertex 1.99722 24.3511 5
      vertex 2.1 25 -5
      vertex 1.99722 24.3511 -5
    endloop
  endfacet
  facet normal -0.891006 0.453991 0
    outer loop
      vertex 1.99722 24.3511 5
      vertex 1.99722 24.3511 -5
      vertex 1.69894 23.7657 5
    endloop
  endfacet
  facet normal -0.891006 0.453991 0
    outer loop
      vertex 1.69894 23.7657 5
      vertex 1.99722 24.3511 -5
      vertex 1.69894 23.7657 -5
    endloop
  endfacet
  facet normal -0.707107 0.707107 0
    outer loop
      vertex 1.69894 23.7657 5
      vertex 1.69894 23.7657 -5
      vertex 1.23435 23.3011 5
    endloop
  endfacet
  facet normal -0.707107 0.707107 0
    outer loop
      vertex 1.23435 23.3011 5
      vertex 1.69894 23.7657 -5
      vertex 1.23435 23.3011 -5
    endloop
  endfacet
  facet normal -0.453991 0.891006 0
    outer loop
      vertex 1.23435 23.3011 5
      vertex 1.23435 23.3011 -5
      vertex 0.648936 23.0028 5
    endloop
  endfacet
  facet normal -0.453991 0.891006 0
    outer loop
      vertex 0.648936 23.0028 5
      vertex 1.23435 23.3011 -5
      vertex 0.648936 23.0028 -5
    endloop
  endfacet
  facet normal -0.156434 0.987688 0
    outer loop
      vertex 0.648936 23.0028 5
      vertex 0.648936 23.0028 -5
      vertex 0 22.9 5
    endloop
  endfacet
  facet normal -0.156434 0.987688 0
    outer loop
      vertex 0 22.9 5
      vertex 0.648936 23.0028 -5
      vertex 0 22.9 -5
    endloop
  endfacet
  facet normal 0.156434 0.987688 0
    outer loop
      vertex 0 22.9 5
      vertex 0 22.9 -5
      vertex -0.648936 23.0028 5
    endloop
  endfacet
  facet normal 0.156434 0.987688 0
    outer loop
      vertex -0.648936 23.0028 5
      vertex 0 22.9 -5
      vertex -0.648936 23.0028 -5
    endloop
  endfacet
  facet normal 0.453991 0.891006 0
    outer loop
      vertex -0.648936 23.0028 5
      vertex -0.648936 23.0028 -5
      vertex -1.23435 23.3011 5
    endloop
  endfacet
  facet normal 0.453991 0.891006 0
    outer loop
      vertex -1.23435 23.3011 5
      vertex -0.648936 23.0028 -5
      vertex -1.23435 23.3011 -5
    endloop
  endfacet
  facet normal 0.707107 0.707107 0
    outer loop
      vertex -1.23435 23.3011 5
      vertex -1.23435 23.3011 -5
      vertex -1.69894 23.7657 5
    endloop
  endfacet
  facet normal 0.707107 0.707107 0
    outer loop
      vertex -1.69894 23.7657 5
      vertex -1.23435 23.3011 -5
      vertex -1.69894 23.7657 -5
    endloop
  endfacet
  facet normal 0.891006 0.453991 0
    outer loop
      vertex -1.99722 24.3511 5
      vertex -1.69894 23.7657 5
      vertex -1.69894 23.7657 -5
    endloop
  endfacet
  facet normal 0.891006 0.453991 0
    outer loop
      vertex -1.99722 24.3511 -5
      vertex -1.99722 24.3511 5
      vertex -1.69894 23.7657 -5
    endloop
  endfacet
  facet normal 0 0 1
    outer loop
      vertex -65.641 62 5
      vertex -66.2681 60.1526 5
      vertex -66.1405 58.2059 5
    endloop
  endfacet
  facet normal 0 0 1
    outer loop
      vertex -63.8109 55.1699 5
      vertex -65.641 62 5
      vertex -65.2777 56.4562 5
    endloop
  endfacet
  facet normal 0 0 1
    outer loop
      vertex -65.2777 56.4562 5
      vertex -65.641 62 5
      vertex -66.1405 58.2059 5
    endloop
  endfacet
  facet normal 0 0 1
    outer loop
      vertex -62.7393 57.9606 5
      vertex -65.641 62 5
      vertex -63.8109 55.1699 5
    endloop
  endfacet
  facet normal 0 0 1
    outer loop
      vertex -3.89933 -23.733 5
      vertex -3.31697 -22.5901 5
      vertex -5 21.2154 5
    endloop
  endfacet
  facet normal 0 0 1
    outer loop
      vertex -8.09017 -19.1221 5
      vertex -5 -16.3397 5
      vertex -6.69131 -17.5686 5
    endloop
  endfacet
  facet normal 0 0 1
    outer loop
      vertex -9.13546 -20.9326 5
      vertex -5 -16.3397 5
      vertex -8.09017 -19.1221 5
    endloop
  endfacet
  facet normal 0 0 1
    outer loop
      vertex -9.78148 -22.9209 5
      vertex -5 -16.3397 5
      vertex -9.13546 -20.9326 5
    endloop
  endfacet
  facet normal 0 0 1
    outer loop
      vertex -10 -25 5
      vertex -5 -16.3397 5
      vertex -9.78148 -22.9209 5
    endloop
  endfacet
  facet normal 0 0 1
    outer loop
      vertex -9.78148 -27.0791 5
      vertex -5 -16.3397 5
      vertex -10 -25 5
    endloop
  endfacet
  facet normal 0 0 1
    outer loop
      vertex -9.13546 -29.0674 5
      vertex -5 -16.3397 5
      vertex -9.78148 -27.0791 5
    endloop
  endfacet
  facet normal 0 0 1
    outer loop
      vertex -8.09017 -30.8779 5
      vertex -5 -16.3397 5
      vertex -9.13546 -29.0674 5
    endloop
  endfacet
  facet normal 0 0 1
    outer loop
      vertex -6.69131 -32.4314 5
      vertex -5 -16.3397 5
      vertex -8.09017 -30.8779 5
    endloop
  endfacet
  facet normal 0 0 1
    outer loop
      vertex -5 -33.6603 5
      vertex -5 -16.3397 5
      vertex -6.69131 -32.4314 5
    endloop
  endfacet
  facet normal 0 0 1
    outer loop
      vertex -4.1 -25 5
      vertex -5 -16.3397 5
      vertex -5 -33.6603 5
    endloop
  endfacet
  facet normal 0 0 1
    outer loop
      vertex -4.1 -25 5
      vertex -3.89933 -23.733 5
      vertex -5 21.2154 5
    endloop
  endfacet
  facet normal 0 0 1
    outer loop
      vertex -1.26697 -21.1007 5
      vertex 0 -20.9 5
      vertex -5 21.2154 5
    endloop
  endfacet
  facet normal 0 0 1
    outer loop
      vertex 3.31697 -27.4099 5
      vertex 2.40992 -28.317 5
      vertex 5 -33.6603 5
    endloop
  endfacet
  facet normal 0 0 1
    outer loop
      vertex 8.09017 -30.8779 5
      vertex -5 21.2154 5
      vertex 6.69131 -32.4314 5
    endloop
  endfacet
  facet normal 0 0 1
    outer loop
      vertex 5 -16.3397 5
      vertex -5 21.2154 5
      vertex 8.09017 -30.8779 5
    endloop
  endfacet
  facet normal 0 0 1
    outer loop
      vertex 6.69131 -17.5686 5
      vertex 5 -16.3397 5
      vertex 9.13546 -29.0674 5
    endloop
  endfacet
  facet normal 0 0 1
    outer loop
      vertex 8.09017 -19.1221 5
      vertex 6.69131 -17.5686 5
      vertex 9.78148 -27.0791 5
    endloop
  endfacet
  facet normal 0 0 1
    outer loop
      vertex 10 -25 5
      vertex 8.09017 -19.1221 5
      vertex 9.78148 -27.0791 5
    endloop
  endfacet
  facet normal 0 0 1
    outer loop
      vertex -0.160198 29.9681 5
      vertex -60.6919 61.5067 5
      vertex -59.3561 60.2672 5
    endloop
  endfacet
  facet normal 0 0 1
    outer loop
      vertex 9.78148 -27.0791 5
      vertex 6.69131 -17.5686 5
      vertex 9.13546 -29.0674 5
    endloop
  endfacet
  facet normal 0 0 1
    outer loop
      vertex -0.160198 29.9681 5
      vertex -58.8109 63.8301 5
      vertex -60.6919 61.5067 5
    endloop
  endfacet
  facet normal 0 0 1
    outer loop
      vertex 9.13546 -29.0674 5
      vertex 5 -16.3397 5
      vertex 8.09017 -30.8779 5
    endloop
  endfacet
  facet normal 0 0 1
    outer loop
      vertex -59.3561 60.2672 5
      vertex 5 25 5
      vertex 4.6194 26.9134 5
    endloop
  endfacet
  facet normal 0 0 1
    outer loop
      vertex -59.3561 60.2672 5
      vertex 4.6194 26.9134 5
      vertex -0.160198 29.9681 5
    endloop
  endfacet
  facet normal 0 0 1
    outer loop
      vertex 3.53553 28.5355 5
      vertex 0 30 5
      vertex 4.6194 26.9134 5
    endloop
  endfacet
  facet normal 0 0 1
    outer loop
      vertex 0 30 5
      vertex -0.160198 29.9681 5
      vertex 4.6194 26.9134 5
    endloop
  endfacet
  facet normal 0 0 1
    outer loop
      vertex -63.405 59.6569 5
      vertex -62.4939 61.2351 5
      vertex -65.641 62 5
    endloop
  endfacet
  facet normal 0 0 1
    outer loop
      vertex -60.6583 64.4572 5
      vertex -65.641 62 5
      vertex -58.8109 63.8301 5
    endloop
  endfacet
  facet normal 0 0 1
    outer loop
      vertex -62.605 64.3296 5
      vertex -65.641 62 5
      vertex -60.6583 64.4572 5
    endloop
  endfacet
  facet normal 0 0 1
    outer loop
      vertex -64.3547 63.4668 5
      vertex -65.641 62 5
      vertex -62.605 64.3296 5
    endloop
  endfacet
  facet normal 0 0 1
    outer loop
      vertex -5 21.2154 5
      vertex -62.7393 57.9606 5
      vertex -63.8109 55.1699 5
    endloop
  endfacet
  facet normal 0 0 1
    outer loop
      vertex -63.405 59.6569 5
      vertex -65.641 62 5
      vertex -62.7393 57.9606 5
    endloop
  endfacet
  facet normal 0 0 1
    outer loop
      vertex -58.8109 63.8301 5
      vertex -65.641 62 5
      vertex -62.4939 61.2351 5
    endloop
  endfacet
  facet normal 0 0 1
    outer loop
      vertex -3.31697 -27.4099 5
      vertex -3.89933 -26.267 5
      vertex -3.09017 -34.5106 5
    endloop
  endfacet
  facet normal 0 0 1
    outer loop
      vertex -58.8109 63.8301 5
      vertex -62.4939 61.2351 5
      vertex -60.6919 61.5067 5
    endloop
  endfacet
  facet normal 0 0 1
    outer loop
      vertex -59.4922 58.45 5
      vertex -60.9979 57.4235 5
      vertex -5 21.2154 5
    endloop
  endfacet
  facet normal 0 0 1
    outer loop
      vertex -1.99722 24.3511 5
      vertex -59.4922 58.45 5
      vertex -5 21.2154 5
    endloop
  endfacet
  facet normal 0 0 1
    outer loop
      vertex -59.3561 60.2672 5
      vertex -59.4922 58.45 5
      vertex 5 25 5
    endloop
  endfacet
  facet normal 0 0 1
    outer loop
      vertex -5 21.2154 5
      vertex -60.9979 57.4235 5
      vertex -62.7393 57.9606 5
    endloop
  endfacet
  facet normal 0 0 1
    outer loop
      vertex -4.1 -25 5
      vertex -5 21.2154 5
      vertex -5 -16.3397 5
    endloop
  endfacet
  facet normal 0 0 1
    outer loop
      vertex -3.09017 -34.5106 5
      vertex -4.1 -25 5
      vertex -5 -33.6603 5
    endloop
  endfacet
  facet normal 0 0 1
    outer loop
      vertex -2.40992 -21.683 5
      vertex -1.26697 -21.1007 5
      vertex -5 21.2154 5
    endloop
  endfacet
  facet normal 0 0 1
    outer loop
      vertex -3.89933 -26.267 5
      vertex -4.1 -25 5
      vertex -3.09017 -34.5106 5
    endloop
  endfacet
  facet normal 0 0 1
    outer loop
      vertex 1.23435 26.6989 5
      vertex 1.69894 26.2343 5
      vertex 5 25 5
    endloop
  endfacet
  facet normal 0 0 1
    outer loop
      vertex -2.40992 -21.683 5
      vertex -5 21.2154 5
      vertex -3.31697 -22.5901 5
    endloop
  endfacet
  facet normal 0 0 1
    outer loop
      vertex -2.40992 -28.317 5
      vertex -3.31697 -27.4099 5
      vertex -3.09017 -34.5106 5
    endloop
  endfacet
  facet normal 0 0 1
    outer loop
      vertex 3.89933 -26.267 5
      vertex 3.31697 -27.4099 5
      vertex 5 -33.6603 5
    endloop
  endfacet
  facet normal 0 0 1
    outer loop
      vertex 0 -20.9 5
      vertex 1.26697 -21.1007 5
      vertex -5 21.2154 5
    endloop
  endfacet
  facet normal 0 0 1
    outer loop
      vertex -1.26697 -28.8993 5
      vertex -2.40992 -28.317 5
      vertex -1.04529 -34.9452 5
    endloop
  endfacet
  facet normal 0 0 1
    outer loop
      vertex 2.40992 -21.683 5
      vertex 3.31697 -22.5901 5
      vertex -5 21.2154 5
    endloop
  endfacet
  facet normal 0 0 1
    outer loop
      vertex 1.26697 -28.8993 5
      vertex 0 -29.1 5
      vertex 1.04529 -34.9452 5
    endloop
  endfacet
  facet normal 0 0 1
    outer loop
      vertex 2.40992 -21.683 5
      vertex -5 21.2154 5
      vertex 1.26697 -21.1007 5
    endloop
  endfacet
  facet normal 0 0 1
    outer loop
      vertex 3.89933 -23.733 5
      vertex 4.1 -25 5
      vertex 6.69131 -32.4314 5
    endloop
  endfacet
  facet normal 0 0 1
    outer loop
      vertex 2.40992 -28.317 5
      vertex 1.26697 -28.8993 5
      vertex 3.09017 -34.5106 5
    endloop
  endfacet
  facet normal 0 0 1
    outer loop
      vertex 3.89933 -23.733 5
      vertex -5 21.2154 5
      vertex 3.31697 -22.5901 5
    endloop
  endfacet
  facet normal 0 0 1
    outer loop
      vertex 6.69131 -32.4314 5
      vertex -5 21.2154 5
      vertex 3.89933 -23.733 5
    endloop
  endfacet
  facet normal 0 0 1
    outer loop
      vertex 6.69131 -32.4314 5
      vertex 4.1 -25 5
      vertex 5 -33.6603 5
    endloop
  endfacet
  facet normal 0 0 1
    outer loop
      vertex 4.1 -25 5
      vertex 3.89933 -26.267 5
      vertex 5 -33.6603 5
    endloop
  endfacet
  facet normal 0 0 1
    outer loop
      vertex 5 -33.6603 5
      vertex 2.40992 -28.317 5
      vertex 3.09017 -34.5106 5
    endloop
  endfacet
  facet normal 0 0 1
    outer loop
      vertex 3.09017 -34.5106 5
      vertex 1.26697 -28.8993 5
      vertex 1.04529 -34.9452 5
    endloop
  endfacet
  facet normal 0 0 1
    outer loop
      vertex 1.04529 -34.9452 5
      vertex 0 -29.1 5
      vertex -1.04529 -34.9452 5
    endloop
  endfacet
  facet normal 0 0 1
    outer loop
      vertex 0 -29.1 5
      vertex -1.26697 -28.8993 5
      vertex -1.04529 -34.9452 5
    endloop
  endfacet
  facet normal 0 0 1
    outer loop
      vertex -1.04529 -34.9452 5
      vertex -2.40992 -28.317 5
      vertex -3.09017 -34.5106 5
    endloop
  endfacet
  facet normal 0 0 1
    outer loop
      vertex 1.69894 26.2343 5
      vertex 1.99722 25.6489 5
      vertex 5 25 5
    endloop
  endfacet
  facet normal 0 0 1
    outer loop
      vertex -1.69894 23.7657 5
      vertex -1.99722 24.3511 5
      vertex -5 21.2154 5
    endloop
  endfacet
  facet normal 0 0 1
    outer loop
      vertex -2.1 25 5
      vertex -59.4922 58.45 5
      vertex -1.99722 24.3511 5
    endloop
  endfacet
  facet normal 0 0 1
    outer loop
      vertex -1.99722 25.6489 5
      vertex -59.4922 58.45 5
      vertex -2.1 25 5
    endloop
  endfacet
  facet normal 0 0 1
    outer loop
      vertex -1.69894 26.2343 5
      vertex -59.4922 58.45 5
      vertex -1.99722 25.6489 5
    endloop
  endfacet
  facet normal 0 0 1
    outer loop
      vertex 2.1 25 5
      vertex 1.99722 24.3511 5
      vertex 5 25 5
    endloop
  endfacet
  facet normal 0 0 1
    outer loop
      vertex -1.23435 26.6989 5
      vertex -59.4922 58.45 5
      vertex -1.69894 26.2343 5
    endloop
  endfacet
  facet normal 0 0 1
    outer loop
      vertex -0.648936 26.9972 5
      vertex -59.4922 58.45 5
      vertex -1.23435 26.6989 5
    endloop
  endfacet
  facet normal 0 0 1
    outer loop
      vertex 0 27.1 5
      vertex -59.4922 58.45 5
      vertex -0.648936 26.9972 5
    endloop
  endfacet
  facet normal 0 0 1
    outer loop
      vertex 0.648936 26.9972 5
      vertex -59.4922 58.45 5
      vertex 0 27.1 5
    endloop
  endfacet
  facet normal 0 0 1
    outer loop
      vertex 5 25 5
      vertex -59.4922 58.45 5
      vertex 0.648936 26.9972 5
    endloop
  endfacet
  facet normal 0 0 1
    outer loop
      vertex 5 25 5
      vertex 0.648936 26.9972 5
      vertex 1.23435 26.6989 5
    endloop
  endfacet
  facet normal 0 0 1
    outer loop
      vertex 1.99722 25.6489 5
      vertex 2.1 25 5
      vertex 5 25 5
    endloop
  endfacet
  facet normal 0 0 1
    outer loop
      vertex 1.69894 23.7657 5
      vertex 1.23435 23.3011 5
      vertex 5 25 5
    endloop
  endfacet
  facet normal 0 0 1
    outer loop
      vertex -0.648936 23.0028 5
      vertex -1.23435 23.3011 5
      vertex -5 21.2154 5
    endloop
  endfacet
  facet normal 0 0 1
    outer loop
      vertex 5 25 5
      vertex 1.99722 24.3511 5
      vertex 1.69894 23.7657 5
    endloop
  endfacet
  facet normal 0 0 1
    outer loop
      vertex 1.91342 29.6194 5
      vertex 0 30 5
      vertex 3.53553 28.5355 5
    endloop
  endfacet
  facet normal 0 0 1
    outer loop
      vertex 0 22.9 5
      vertex -0.648936 23.0028 5
      vertex -5 21.2154 5
    endloop
  endfacet
  facet normal 0 0 1
    outer loop
      vertex 0.648936 23.0028 5
      vertex 0 22.9 5
      vertex -5 21.2154 5
    endloop
  endfacet
  facet normal 0 0 1
    outer loop
      vertex -1.23435 23.3011 5
      vertex -1.69894 23.7657 5
      vertex -5 21.2154 5
    endloop
  endfacet
  facet normal 0 0 1
    outer loop
      vertex 9.13546 -20.9326 5
      vertex 10 -25 5
      vertex 9.78148 -22.9209 5
    endloop
  endfacet
  facet normal 0 0 1
    outer loop
      vertex 9.13546 -20.9326 5
      vertex 8.09017 -19.1221 5
      vertex 10 -25 5
    endloop
  endfacet
  facet normal 0 0 1
    outer loop
      vertex 5 -16.3397 5
      vertex 0.648936 23.0028 5
      vertex -5 21.2154 5
    endloop
  endfacet
  facet normal 0 0 1
    outer loop
      vertex 5 -16.3397 5
      vertex 1.23435 23.3011 5
      vertex 0.648936 23.0028 5
    endloop
  endfacet
  facet normal 0 0 1
    outer loop
      vertex 5 -16.3397 5
      vertex 5 25 5
      vertex 1.23435 23.3011 5
    endloop
  endfacet
  facet normal 0 0 1
    outer loop
      vertex -20 29.8756 0
      vertex -20 10 0
      vertex -5 10 0
    endloop
  endfacet
  facet normal 0 0 1
    outer loop
      vertex -5 21.2154 0
      vertex -20 29.8756 0
      vertex -5 10 0
    endloop
  endfacet
  facet normal -0.19509 0.980785 0
    outer loop
      vertex -0.160198 29.9681 0
      vertex -0.160198 29.9681 5
      vertex 0 30 0
    endloop
  endfacet
  facet normal -0.19509 0.980785 0
    outer loop
      vertex 0 30 0
      vertex -0.160198 29.9681 5
      vertex 0 30 5
    endloop
  endfacet
  facet normal 0 0 1
    outer loop
      vertex 0 30 0
      vertex -0.21539 30 0
      vertex -0.160198 29.9681 0
    endloop
  endfacet
  facet normal 0 0 -1
    outer loop
      vertex 2.40992 -28.317 4
      vertex 7.9 -25 4
      vertex 3.95 -31.8416 4
    endloop
  endfacet
  facet normal 0 0 -1
    outer loop
      vertex -2.40992 -28.317 4
      vertex 3.95 -31.8416 4
      vertex -3.95 -31.8416 4
    endloop
  endfacet
  facet normal 0 0 -1
    outer loop
      vertex -4.1 -25 4
      vertex -3.95 -31.8416 4
      vertex -7.9 -25 4
    endloop
  endfacet
  facet normal 0 0 -1
    outer loop
      vertex 2.40992 -28.317 4
      vertex 3.95 -31.8416 4
      vertex 1.26697 -28.8993 4
    endloop
  endfacet
  facet normal 0 0 -1
    outer loop
      vertex 0 -29.1 4
      vertex 3.95 -31.8416 4
      vertex -1.26697 -28.8993 4
    endloop
  endfacet
  facet normal 0 0 -1
    outer loop
      vertex 1.26697 -28.8993 4
      vertex 3.95 -31.8416 4
      vertex 0 -29.1 4
    endloop
  endfacet
  facet normal 0 0 -1
    outer loop
      vertex -3.89933 -26.267 4
      vertex -3.31697 -27.4099 4
      vertex -3.95 -31.8416 4
    endloop
  endfacet
  facet normal 0 0 -1
    outer loop
      vertex -1.26697 -28.8993 4
      vertex 3.95 -31.8416 4
      vertex -2.40992 -28.317 4
    endloop
  endfacet
  facet normal 0 0 -1
    outer loop
      vertex -3.31697 -27.4099 4
      vertex -2.40992 -28.317 4
      vertex -3.95 -31.8416 4
    endloop
  endfacet
  facet normal 0 0 -1
    outer loop
      vertex 3.31697 -27.4099 4
      vertex 7.9 -25 4
      vertex 2.40992 -28.317 4
    endloop
  endfacet
  facet normal 0 0 -1
    outer loop
      vertex 2.40992 -21.683 4
      vertex 7.9 -25 4
      vertex 3.31697 -22.5901 4
    endloop
  endfacet
  facet normal 0 0 -1
    outer loop
      vertex 3.89933 -26.267 4
      vertex 7.9 -25 4
      vertex 3.31697 -27.4099 4
    endloop
  endfacet
  facet normal 0 0 -1
    outer loop
      vertex 4.1 -25 4
      vertex 7.9 -25 4
      vertex 3.89933 -26.267 4
    endloop
  endfacet
  facet normal 0 0 -1
    outer loop
      vertex 3.89933 -23.733 4
      vertex 7.9 -25 4
      vertex 4.1 -25 4
    endloop
  endfacet
  facet normal 0 0 -1
    outer loop
      vertex 3.31697 -22.5901 4
      vertex 7.9 -25 4
      vertex 3.89933 -23.733 4
    endloop
  endfacet
  facet normal 0 0 -1
    outer loop
      vertex 3.95 -18.1584 4
      vertex 7.9 -25 4
      vertex 2.40992 -21.683 4
    endloop
  endfacet
  facet normal 0 0 -1
    outer loop
      vertex 3.95 -18.1584 4
      vertex 2.40992 -21.683 4
      vertex -3.95 -18.1584 4
    endloop
  endfacet
  facet normal 0 0 -1
    outer loop
      vertex 0 -20.9 4
      vertex -3.95 -18.1584 4
      vertex 1.26697 -21.1007 4
    endloop
  endfacet
  facet normal 0 0 -1
    outer loop
      vertex 2.40992 -21.683 4
      vertex 1.26697 -21.1007 4
      vertex -3.95 -18.1584 4
    endloop
  endfacet
  facet normal 0 0 -1
    outer loop
      vertex -1.26697 -21.1007 4
      vertex -3.95 -18.1584 4
      vertex 0 -20.9 4
    endloop
  endfacet
  facet normal 0 0 -1
    outer loop
      vertex -2.40992 -21.683 4
      vertex -3.95 -18.1584 4
      vertex -1.26697 -21.1007 4
    endloop
  endfacet
  facet normal 0 0 -1
    outer loop
      vertex -4.1 -25 4
      vertex -3.95 -18.1584 4
      vertex -3.89933 -23.733 4
    endloop
  endfacet
  facet normal 0 0 -1
    outer loop
      vertex -3.95 -18.1584 4
      vertex -2.40992 -21.683 4
      vertex -3.31697 -22.5901 4
    endloop
  endfacet
  facet normal 0 0 -1
    outer loop
      vertex -3.95 -18.1584 4
      vertex -3.31697 -22.5901 4
      vertex -3.89933 -23.733 4
    endloop
  endfacet
  facet normal 0 0 -1
    outer loop
      vertex -3.95 -18.1584 4
      vertex -4.1 -25 4
      vertex -7.9 -25 4
    endloop
  endfacet
  facet normal 0 0 -1
    outer loop
      vertex -3.89933 -26.267 4
      vertex -3.95 -31.8416 4
      vertex -4.1 -25 4
    endloop
  endfacet
  facet normal 0.987688 0.156434 0
    outer loop
      vertex -4.1 -25 5
      vertex -3.89933 -26.267 5
      vertex -3.89933 -26.267 4
    endloop
  endfacet
  facet normal 0.987688 0.156434 0
    outer loop
      vertex -4.1 -25 4
      vertex -4.1 -25 5
      vertex -3.89933 -26.267 4
    endloop
  endfacet
  facet normal 0.891007 0.45399 0
    outer loop
      vertex -3.89933 -26.267 5
      vertex -3.31697 -27.4099 5
      vertex -3.31697 -27.4099 4
    endloop
  endfacet
  facet normal 0.891007 0.45399 0
    outer loop
      vertex -3.89933 -26.267 4
      vertex -3.89933 -26.267 5
      vertex -3.31697 -27.4099 4
    endloop
  endfacet
  facet normal 0.707107 0.707107 0
    outer loop
      vertex -2.40992 -28.317 5
      vertex -2.40992 -28.317 4
      vertex -3.31697 -27.4099 5
    endloop
  endfacet
  facet normal 0.707107 0.707107 0
    outer loop
      vertex -3.31697 -27.4099 5
      vertex -2.40992 -28.317 4
      vertex -3.31697 -27.4099 4
    endloop
  endfacet
  facet normal 0.45399 0.891007 0
    outer loop
      vertex -1.26697 -28.8993 5
      vertex -1.26697 -28.8993 4
      vertex -2.40992 -28.317 5
    endloop
  endfacet
  facet normal 0.45399 0.891007 0
    outer loop
      vertex -2.40992 -28.317 5
      vertex -1.26697 -28.8993 4
      vertex -2.40992 -28.317 4
    endloop
  endfacet
  facet normal 0.156434 0.987688 0
    outer loop
      vertex 0 -29.1 5
      vertex 0 -29.1 4
      vertex -1.26697 -28.8993 5
    endloop
  endfacet
  facet normal 0.156434 0.987688 0
    outer loop
      vertex -1.26697 -28.8993 5
      vertex 0 -29.1 4
      vertex -1.26697 -28.8993 4
    endloop
  endfacet
  facet normal -0.156434 0.987688 0
    outer loop
      vertex 1.26697 -28.8993 5
      vertex 1.26697 -28.8993 4
      vertex 0 -29.1 5
    endloop
  endfacet
  facet normal -0.156434 0.987688 0
    outer loop
      vertex 0 -29.1 5
      vertex 1.26697 -28.8993 4
      vertex 0 -29.1 4
    endloop
  endfacet
  facet normal -0.45399 0.891007 0
    outer loop
      vertex 2.40992 -28.317 5
      vertex 2.40992 -28.317 4
      vertex 1.26697 -28.8993 5
    endloop
  endfacet
  facet normal -0.45399 0.891007 0
    outer loop
      vertex 1.26697 -28.8993 5
      vertex 2.40992 -28.317 4
      vertex 1.26697 -28.8993 4
    endloop
  endfacet
  facet normal -0.707107 0.707107 0
    outer loop
      vertex 3.31697 -27.4099 5
      vertex 3.31697 -27.4099 4
      vertex 2.40992 -28.317 5
    endloop
  endfacet
  facet normal -0.707107 0.707107 0
    outer loop
      vertex 2.40992 -28.317 5
      vertex 3.31697 -27.4099 4
      vertex 2.40992 -28.317 4
    endloop
  endfacet
  facet normal -0.891007 0.45399 0
    outer loop
      vertex 3.89933 -26.267 5
      vertex 3.89933 -26.267 4
      vertex 3.31697 -27.4099 5
    endloop
  endfacet
  facet normal -0.891007 0.45399 0
    outer loop
      vertex 3.31697 -27.4099 5
      vertex 3.89933 -26.267 4
      vertex 3.31697 -27.4099 4
    endloop
  endfacet
  facet normal -0.987688 0.156434 0
    outer loop
      vertex 4.1 -25 5
      vertex 4.1 -25 4
      vertex 3.89933 -26.267 5
    endloop
  endfacet
  facet normal -0.987688 0.156434 0
    outer loop
      vertex 3.89933 -26.267 5
      vertex 4.1 -25 4
      vertex 3.89933 -26.267 4
    endloop
  endfacet
  facet normal -0.987688 -0.156434 0
    outer loop
      vertex 4.1 -25 5
      vertex 3.89933 -23.733 5
      vertex 4.1 -25 4
    endloop
  endfacet
  facet normal -0.987688 -0.156434 0
    outer loop
      vertex 4.1 -25 4
      vertex 3.89933 -23.733 5
      vertex 3.89933 -23.733 4
    endloop
  endfacet
  facet normal -0.891007 -0.45399 0
    outer loop
      vertex 3.89933 -23.733 5
      vertex 3.31697 -22.5901 5
      vertex 3.89933 -23.733 4
    endloop
  endfacet
  facet normal -0.891007 -0.45399 0
    outer loop
      vertex 3.89933 -23.733 4
      vertex 3.31697 -22.5901 5
      vertex 3.31697 -22.5901 4
    endloop
  endfacet
  facet normal -0.707107 -0.707107 0
    outer loop
      vertex 3.31697 -22.5901 4
      vertex 3.31697 -22.5901 5
      vertex 2.40992 -21.683 5
    endloop
  endfacet
  facet normal -0.707107 -0.707107 0
    outer loop
      vertex 2.40992 -21.683 4
      vertex 3.31697 -22.5901 4
      vertex 2.40992 -21.683 5
    endloop
  endfacet
  facet normal -0.45399 -0.891007 0
    outer loop
      vertex 2.40992 -21.683 4
      vertex 2.40992 -21.683 5
      vertex 1.26697 -21.1007 5
    endloop
  endfacet
  facet normal -0.45399 -0.891007 0
    outer loop
      vertex 1.26697 -21.1007 4
      vertex 2.40992 -21.683 4
      vertex 1.26697 -21.1007 5
    endloop
  endfacet
  facet normal -0.156434 -0.987688 0
    outer loop
      vertex 1.26697 -21.1007 4
      vertex 1.26697 -21.1007 5
      vertex 0 -20.9 5
    endloop
  endfacet
  facet normal -0.156434 -0.987688 0
    outer loop
      vertex 0 -20.9 4
      vertex 1.26697 -21.1007 4
      vertex 0 -20.9 5
    endloop
  endfacet
  facet normal 0.156434 -0.987688 0
    outer loop
      vertex 0 -20.9 4
      vertex 0 -20.9 5
      vertex -1.26697 -21.1007 5
    endloop
  endfacet
  facet normal 0.156434 -0.987688 0
    outer loop
      vertex -1.26697 -21.1007 4
      vertex 0 -20.9 4
      vertex -1.26697 -21.1007 5
    endloop
  endfacet
  facet normal 0.45399 -0.891007 0
    outer loop
      vertex -1.26697 -21.1007 4
      vertex -1.26697 -21.1007 5
      vertex -2.40992 -21.683 5
    endloop
  endfacet
  facet normal 0.45399 -0.891007 0
    outer loop
      vertex -2.40992 -21.683 4
      vertex -1.26697 -21.1007 4
      vertex -2.40992 -21.683 5
    endloop
  endfacet
  facet normal 0.707107 -0.707107 0
    outer loop
      vertex -2.40992 -21.683 4
      vertex -2.40992 -21.683 5
      vertex -3.31697 -22.5901 5
    endloop
  endfacet
  facet normal 0.707107 -0.707107 0
    outer loop
      vertex -3.31697 -22.5901 4
      vertex -2.40992 -21.683 4
      vertex -3.31697 -22.5901 5
    endloop
  endfacet
  facet normal 0.891007 -0.45399 0
    outer loop
      vertex -3.31697 -22.5901 4
      vertex -3.31697 -22.5901 5
      vertex -3.89933 -23.733 5
    endloop
  endfacet
  facet normal 0.891007 -0.45399 0
    outer loop
      vertex -3.89933 -23.733 4
      vertex -3.31697 -22.5901 4
      vertex -3.89933 -23.733 5
    endloop
  endfacet
  facet normal 0.987688 -0.156434 0
    outer loop
      vertex -3.89933 -23.733 4
      vertex -3.89933 -23.733 5
      vertex -4.1 -25 5
    endloop
  endfacet
  facet normal 0.987688 -0.156434 0
    outer loop
      vertex -4.1 -25 4
      vertex -3.89933 -23.733 4
      vertex -4.1 -25 5
    endloop
  endfacet
endsolid OpenSCAD_Model
