solid OpenSCAD_Model
  facet normal 0 0 -1
    outer loop
      vertex -27.5 0 -2.5
      vertex -27.2815 2.07912 -2.5
      vertex -27.2815 -2.07912 -2.5
    endloop
  endfacet
  facet normal 0 0 -1
    outer loop
      vertex -27.2815 -2.07912 -2.5
      vertex -27.2815 2.07912 -2.5
      vertex -26.6355 4.06737 -2.5
    endloop
  endfacet
  facet normal 0 0 -1
    outer loop
      vertex -27.2815 -2.07912 -2.5
      vertex -26.6355 4.06737 -2.5
      vertex -25.5902 5.87785 -2.5
    endloop
  endfacet
  facet normal 0 0 -1
    outer loop
      vertex -27.2815 -2.07912 -2.5
      vertex -25.5902 5.87785 -2.5
      vertex -24.1913 7.43145 -2.5
    endloop
  endfacet
  facet normal 0 0 -1
    outer loop
      vertex -27.2815 -2.07912 -2.5
      vertex -24.1913 7.43145 -2.5
      vertex -22.5 8.66025 -2.5
    endloop
  endfacet
  facet normal 0 0 -1
    outer loop
      vertex -27.2815 -2.07912 -2.5
      vertex -22.5 8.66025 -2.5
      vertex -20.5902 9.51056 -2.5
    endloop
  endfacet
  facet normal 0 0 -1
    outer loop
      vertex -27.2815 -2.07912 -2.5
      vertex -20.5902 9.51056 -2.5
      vertex -18.5453 9.94522 -2.5
    endloop
  endfacet
  facet normal 0 0 -1
    outer loop
      vertex -27.2815 -2.07912 -2.5
      vertex -18.5453 9.94522 -2.5
      vertex -16.4547 9.94522 -2.5
    endloop
  endfacet
  facet normal 0 0 -1
    outer loop
      vertex -27.2815 -2.07912 -2.5
      vertex -16.4547 9.94522 -2.5
      vertex -14.4098 9.51056 -2.5
    endloop
  endfacet
  facet normal 0 0 -1
    outer loop
      vertex -19.9099 3.31697 -2.5
      vertex -14.4098 9.51056 -2.5
      vertex -12.5 8.66025 -2.5
    endloop
  endfacet
  facet normal 0 0 -1
    outer loop
      vertex -17.5 4.1 -2.5
      vertex -12.5 8.66025 -2.5
      vertex -10.8087 7.43145 -2.5
    endloop
  endfacet
  facet normal 0 0 -1
    outer loop
      vertex -16.233 3.89933 -2.5
      vertex -10.8087 7.43145 -2.5
      vertex -9.40983 5.87785 -2.5
    endloop
  endfacet
  facet normal 0 0 -1
    outer loop
      vertex -15.0901 3.31697 -2.5
      vertex -9.40983 5.87785 -2.5
      vertex -8.903 5 -2.5
    endloop
  endfacet
  facet normal 0 0 -1
    outer loop
      vertex -9.21729 2.04735 -2.5
      vertex -8.903 5 -2.5
      vertex 17.5 5 -2.5
    endloop
  endfacet
  facet normal 0 0 -1
    outer loop
      vertex -0.467294 2.04735 -2.5
      vertex 17.5 5 -2.5
      vertex 19.4134 4.6194 -2.5
    endloop
  endfacet
  facet normal 0 0 -1
    outer loop
      vertex 1.30933 1.64185 -2.5
      vertex 19.4134 4.6194 -2.5
      vertex 21.0355 3.53553 -2.5
    endloop
  endfacet
  facet normal 0 0 -1
    outer loop
      vertex 17.0327 2.04735 -2.5
      vertex 21.0355 3.53553 -2.5
      vertex 22.1194 1.91342 -2.5
    endloop
  endfacet
  facet normal 0 0 -1
    outer loop
      vertex 17.0327 -2.04735 -2.5
      vertex 22.1194 -1.91342 -2.5
      vertex 21.0355 -3.53553 -2.5
    endloop
  endfacet
  facet normal 0 0 -1
    outer loop
      vertex -13.6007 -1.26697 -2.5
      vertex -9.21729 -2.04735 -2.5
      vertex -14.183 -2.40992 -2.5
    endloop
  endfacet
  facet normal 0 0 -1
    outer loop
      vertex -15.0901 -3.31697 -2.5
      vertex 17.5 -5 -2.5
      vertex -8.903 -5 -2.5
    endloop
  endfacet
  facet normal 0 0 -1
    outer loop
      vertex -16.233 -3.89933 -2.5
      vertex -8.903 -5 -2.5
      vertex -9.40983 -5.87785 -2.5
    endloop
  endfacet
  facet normal 0 0 -1
    outer loop
      vertex -18.767 -3.89933 -2.5
      vertex -9.40983 -5.87785 -2.5
      vertex -10.8087 -7.43145 -2.5
    endloop
  endfacet
  facet normal 0 0 -1
    outer loop
      vertex -27.2815 -2.07912 -2.5
      vertex -10.8087 -7.43145 -2.5
      vertex -12.5 -8.66025 -2.5
    endloop
  endfacet
  facet normal 0 0 -1
    outer loop
      vertex -27.2815 -2.07912 -2.5
      vertex -12.5 -8.66025 -2.5
      vertex -14.4098 -9.51056 -2.5
    endloop
  endfacet
  facet normal 0 0 -1
    outer loop
      vertex -27.2815 -2.07912 -2.5
      vertex -14.4098 -9.51056 -2.5
      vertex -16.4547 -9.94522 -2.5
    endloop
  endfacet
  facet normal 0 0 -1
    outer loop
      vertex -27.2815 -2.07912 -2.5
      vertex -16.4547 -9.94522 -2.5
      vertex -18.5453 -9.94522 -2.5
    endloop
  endfacet
  facet normal 0 0 -1
    outer loop
      vertex -27.2815 -2.07912 -2.5
      vertex -18.5453 -9.94522 -2.5
      vertex -20.5902 -9.51056 -2.5
    endloop
  endfacet
  facet normal 0 0 -1
    outer loop
      vertex -27.2815 -2.07912 -2.5
      vertex -20.5902 -9.51056 -2.5
      vertex -22.5 -8.66025 -2.5
    endloop
  endfacet
  facet normal 0 0 -1
    outer loop
      vertex -27.2815 -2.07912 -2.5
      vertex -22.5 -8.66025 -2.5
      vertex -24.1913 -7.43145 -2.5
    endloop
  endfacet
  facet normal 0 0 -1
    outer loop
      vertex -27.2815 -2.07912 -2.5
      vertex -24.1913 -7.43145 -2.5
      vertex -25.5902 -5.87785 -2.5
    endloop
  endfacet
  facet normal 0 0 -1
    outer loop
      vertex -27.2815 -2.07912 -2.5
      vertex -25.5902 -5.87785 -2.5
      vertex -26.6355 -4.06737 -2.5
    endloop
  endfacet
  facet normal 0 0 -1
    outer loop
      vertex -21.3993 -1.26697 -2.5
      vertex -27.2815 -2.07912 -2.5
      vertex -21.6 0 -2.5
    endloop
  endfacet
  facet normal 0 0 -1
    outer loop
      vertex -20.817 -2.40992 -2.5
      vertex -27.2815 -2.07912 -2.5
      vertex -21.3993 -1.26697 -2.5
    endloop
  endfacet
  facet normal 0 0 -1
    outer loop
      vertex -19.9099 -3.31697 -2.5
      vertex -27.2815 -2.07912 -2.5
      vertex -20.817 -2.40992 -2.5
    endloop
  endfacet
  facet normal 0 0 -1
    outer loop
      vertex 1.30933 1.64185 -2.5
      vertex 6.85797 0.911156 -2.5
      vertex 2.1 0 -2.5
    endloop
  endfacet
  facet normal 0 0 -1
    outer loop
      vertex -18.767 -3.89933 -2.5
      vertex -27.2815 -2.07912 -2.5
      vertex -19.9099 -3.31697 -2.5
    endloop
  endfacet
  facet normal 0 0 -1
    outer loop
      vertex -16.233 -3.89933 -2.5
      vertex -9.40983 -5.87785 -2.5
      vertex -17.5 -4.1 -2.5
    endloop
  endfacet
  facet normal 0 0 -1
    outer loop
      vertex -27.2815 -2.07912 -2.5
      vertex -18.767 -3.89933 -2.5
      vertex -10.8087 -7.43145 -2.5
    endloop
  endfacet
  facet normal 0 0 -1
    outer loop
      vertex -14.183 -2.40992 -2.5
      vertex 17.5 -5 -2.5
      vertex -15.0901 -3.31697 -2.5
    endloop
  endfacet
  facet normal 0 0 -1
    outer loop
      vertex -15.0901 -3.31697 -2.5
      vertex -8.903 -5 -2.5
      vertex -16.233 -3.89933 -2.5
    endloop
  endfacet
  facet normal 0 0 -1
    outer loop
      vertex -17.5 -4.1 -2.5
      vertex -9.40983 -5.87785 -2.5
      vertex -18.767 -3.89933 -2.5
    endloop
  endfacet
  facet normal 0 0 -1
    outer loop
      vertex 19.6 0 -2.5
      vertex 22.1194 -1.91342 -2.5
      vertex 18.8093 -1.64185 -2.5
    endloop
  endfacet
  facet normal 0 0 -1
    outer loop
      vertex 6.85797 -0.911156 -2.5
      vertex 2.1 0 -2.5
      vertex 6.85797 0.911156 -2.5
    endloop
  endfacet
  facet normal 0 0 -1
    outer loop
      vertex -14.183 2.40992 -2.5
      vertex -8.903 5 -2.5
      vertex -13.6007 1.26697 -2.5
    endloop
  endfacet
  facet normal 0 0 -1
    outer loop
      vertex -15.0901 3.31697 -2.5
      vertex -8.903 5 -2.5
      vertex -14.183 2.40992 -2.5
    endloop
  endfacet
  facet normal 0 0 -1
    outer loop
      vertex -18.767 3.89933 -2.5
      vertex -12.5 8.66025 -2.5
      vertex -17.5 4.1 -2.5
    endloop
  endfacet
  facet normal 0 0 -1
    outer loop
      vertex -19.9099 3.31697 -2.5
      vertex -12.5 8.66025 -2.5
      vertex -18.767 3.89933 -2.5
    endloop
  endfacet
  facet normal 0 0 -1
    outer loop
      vertex -27.2815 -2.07912 -2.5
      vertex -14.4098 9.51056 -2.5
      vertex -19.9099 3.31697 -2.5
    endloop
  endfacet
  facet normal 0 0 -1
    outer loop
      vertex -20.817 2.40992 -2.5
      vertex -27.2815 -2.07912 -2.5
      vertex -19.9099 3.31697 -2.5
    endloop
  endfacet
  facet normal 0 0 -1
    outer loop
      vertex -21.3993 1.26697 -2.5
      vertex -27.2815 -2.07912 -2.5
      vertex -20.817 2.40992 -2.5
    endloop
  endfacet
  facet normal 0 0 -1
    outer loop
      vertex -9.21729 2.04735 -2.5
      vertex 17.5 5 -2.5
      vertex -7.44067 1.64185 -2.5
    endloop
  endfacet
  facet normal 0 0 -1
    outer loop
      vertex 6.85797 0.911156 -2.5
      vertex 1.30933 1.64185 -2.5
      vertex 8.28271 2.04735 -2.5
    endloop
  endfacet
  facet normal 0 0 -1
    outer loop
      vertex 8.28271 2.04735 -2.5
      vertex 21.0355 3.53553 -2.5
      vertex 10.0593 1.64185 -2.5
    endloop
  endfacet
  facet normal 0 0 -1
    outer loop
      vertex -14.183 -2.40992 -2.5
      vertex 21.0355 -3.53553 -2.5
      vertex 19.4134 -4.6194 -2.5
    endloop
  endfacet
  facet normal 0 0 -1
    outer loop
      vertex -1.89203 -0.911156 -2.5
      vertex -6.65 0 -2.5
      vertex -1.89203 0.911156 -2.5
    endloop
  endfacet
  facet normal 0 0 -1
    outer loop
      vertex -7.44067 1.64185 -2.5
      vertex 17.5 5 -2.5
      vertex -0.467294 2.04735 -2.5
    endloop
  endfacet
  facet normal 0 0 -1
    outer loop
      vertex -14.183 -2.40992 -2.5
      vertex 19.4134 -4.6194 -2.5
      vertex 17.5 -5 -2.5
    endloop
  endfacet
  facet normal 0 0 -1
    outer loop
      vertex -1.89203 0.911156 -2.5
      vertex -7.44067 1.64185 -2.5
      vertex -0.467294 2.04735 -2.5
    endloop
  endfacet
  facet normal 0 0 -1
    outer loop
      vertex -13.6007 1.26697 -2.5
      vertex -8.903 5 -2.5
      vertex -9.21729 2.04735 -2.5
    endloop
  endfacet
  facet normal 0 0 -1
    outer loop
      vertex -0.467294 2.04735 -2.5
      vertex 19.4134 4.6194 -2.5
      vertex 1.30933 1.64185 -2.5
    endloop
  endfacet
  facet normal 0 0 -1
    outer loop
      vertex -13.4 0 -2.5
      vertex -10.642 -0.911156 -2.5
      vertex -13.6007 -1.26697 -2.5
    endloop
  endfacet
  facet normal 0 0 -1
    outer loop
      vertex -9.21729 -2.04735 -2.5
      vertex -13.6007 -1.26697 -2.5
      vertex -10.642 -0.911156 -2.5
    endloop
  endfacet
  facet normal 0 0 -1
    outer loop
      vertex -9.21729 -2.04735 -2.5
      vertex -0.467294 -2.04735 -2.5
      vertex -14.183 -2.40992 -2.5
    endloop
  endfacet
  facet normal 0 0 -1
    outer loop
      vertex 10.0593 1.64185 -2.5
      vertex 15.608 0.911156 -2.5
      vertex 10.85 0 -2.5
    endloop
  endfacet
  facet normal 0 0 -1
    outer loop
      vertex 8.28271 -2.04735 -2.5
      vertex -0.467294 -2.04735 -2.5
      vertex 1.30933 -1.64185 -2.5
    endloop
  endfacet
  facet normal 0 0 -1
    outer loop
      vertex -6.65 0 -2.5
      vertex -1.89203 -0.911156 -2.5
      vertex -7.44067 -1.64185 -2.5
    endloop
  endfacet
  facet normal 0 0 -1
    outer loop
      vertex 18.8093 -1.64185 -2.5
      vertex 22.1194 -1.91342 -2.5
      vertex 17.0327 -2.04735 -2.5
    endloop
  endfacet
  facet normal 0 0 -1
    outer loop
      vertex -10.642 -0.911156 -2.5
      vertex -13.4 0 -2.5
      vertex -10.642 0.911156 -2.5
    endloop
  endfacet
  facet normal 0 0 -1
    outer loop
      vertex -13.6007 1.26697 -2.5
      vertex -10.642 0.911156 -2.5
      vertex -13.4 0 -2.5
    endloop
  endfacet
  facet normal 0 0 -1
    outer loop
      vertex 15.608 0.911156 -2.5
      vertex 10.0593 1.64185 -2.5
      vertex 17.0327 2.04735 -2.5
    endloop
  endfacet
  facet normal 0 0 -1
    outer loop
      vertex 2.1 0 -2.5
      vertex 6.85797 -0.911156 -2.5
      vertex 1.30933 -1.64185 -2.5
    endloop
  endfacet
  facet normal 0 0 -1
    outer loop
      vertex 17.0327 -2.04735 -2.5
      vertex 8.28271 -2.04735 -2.5
      vertex 10.0593 -1.64185 -2.5
    endloop
  endfacet
  facet normal 0 0 -1
    outer loop
      vertex -0.467294 -2.04735 -2.5
      vertex 8.28271 -2.04735 -2.5
      vertex -14.183 -2.40992 -2.5
    endloop
  endfacet
  facet normal 0 0 -1
    outer loop
      vertex 15.608 -0.911156 -2.5
      vertex 10.0593 -1.64185 -2.5
      vertex 10.85 0 -2.5
    endloop
  endfacet
  facet normal 0 0 -1
    outer loop
      vertex -0.467294 -2.04735 -2.5
      vertex -9.21729 -2.04735 -2.5
      vertex -7.44067 -1.64185 -2.5
    endloop
  endfacet
  facet normal 0 0 -1
    outer loop
      vertex 19.6 0 -2.5
      vertex 22.1194 1.91342 -2.5
      vertex 22.5 0 -2.5
    endloop
  endfacet
  facet normal 0 0 -1
    outer loop
      vertex 17.0327 -2.04735 -2.5
      vertex 10.0593 -1.64185 -2.5
      vertex 15.608 -0.911156 -2.5
    endloop
  endfacet
  facet normal 0 0 -1
    outer loop
      vertex 15.608 -0.911156 -2.5
      vertex 10.85 0 -2.5
      vertex 15.608 0.911156 -2.5
    endloop
  endfacet
  facet normal 0 0 -1
    outer loop
      vertex 8.28271 -2.04735 -2.5
      vertex 1.30933 -1.64185 -2.5
      vertex 6.85797 -0.911156 -2.5
    endloop
  endfacet
  facet normal 0 0 -1
    outer loop
      vertex 17.0327 -2.04735 -2.5
      vertex -14.183 -2.40992 -2.5
      vertex 8.28271 -2.04735 -2.5
    endloop
  endfacet
  facet normal 0 0 -1
    outer loop
      vertex 19.6 0 -2.5
      vertex 22.5 0 -2.5
      vertex 22.1194 -1.91342 -2.5
    endloop
  endfacet
  facet normal 0 0 -1
    outer loop
      vertex -14.183 -2.40992 -2.5
      vertex 17.0327 -2.04735 -2.5
      vertex 21.0355 -3.53553 -2.5
    endloop
  endfacet
  facet normal 0 0 -1
    outer loop
      vertex 1.30933 1.64185 -2.5
      vertex 21.0355 3.53553 -2.5
      vertex 8.28271 2.04735 -2.5
    endloop
  endfacet
  facet normal 0 0 -1
    outer loop
      vertex 17.0327 2.04735 -2.5
      vertex 22.1194 1.91342 -2.5
      vertex 18.8093 1.64185 -2.5
    endloop
  endfacet
  facet normal 0 0 -1
    outer loop
      vertex -21.6 0 -2.5
      vertex -27.2815 -2.07912 -2.5
      vertex -21.3993 1.26697 -2.5
    endloop
  endfacet
  facet normal 0 0 -1
    outer loop
      vertex -17.5 4.1 -2.5
      vertex -10.8087 7.43145 -2.5
      vertex -16.233 3.89933 -2.5
    endloop
  endfacet
  facet normal 0 0 -1
    outer loop
      vertex -10.642 0.911156 -2.5
      vertex -13.6007 1.26697 -2.5
      vertex -9.21729 2.04735 -2.5
    endloop
  endfacet
  facet normal 0 0 -1
    outer loop
      vertex -16.233 3.89933 -2.5
      vertex -9.40983 5.87785 -2.5
      vertex -15.0901 3.31697 -2.5
    endloop
  endfacet
  facet normal 0 0 -1
    outer loop
      vertex 18.8093 1.64185 -2.5
      vertex 22.1194 1.91342 -2.5
      vertex 19.6 0 -2.5
    endloop
  endfacet
  facet normal 0 0 -1
    outer loop
      vertex -0.467294 -2.04735 -2.5
      vertex -7.44067 -1.64185 -2.5
      vertex -1.89203 -0.911156 -2.5
    endloop
  endfacet
  facet normal 0 0 -1
    outer loop
      vertex 10.0593 1.64185 -2.5
      vertex 21.0355 3.53553 -2.5
      vertex 17.0327 2.04735 -2.5
    endloop
  endfacet
  facet normal 0 0 -1
    outer loop
      vertex -7.44067 1.64185 -2.5
      vertex -1.89203 0.911156 -2.5
      vertex -6.65 0 -2.5
    endloop
  endfacet
  facet normal -0.994522 0.104528 0
    outer loop
      vertex -27.5 0 -2.5
      vertex -27.5 0 2.5
      vertex -27.2815 2.07912 -2.5
    endloop
  endfacet
  facet normal -0.994522 0.104528 0
    outer loop
      vertex -27.2815 2.07912 -2.5
      vertex -27.5 0 2.5
      vertex -27.2815 2.07912 2.5
    endloop
  endfacet
  facet normal -0.994522 -0.104528 0
    outer loop
      vertex -27.5 0 -2.5
      vertex -27.2815 -2.07912 -2.5
      vertex -27.5 0 2.5
    endloop
  endfacet
  facet normal -0.994522 -0.104528 0
    outer loop
      vertex -27.5 0 2.5
      vertex -27.2815 -2.07912 -2.5
      vertex -27.2815 -2.07912 2.5
    endloop
  endfacet
  facet normal -0.951057 -0.309017 0
    outer loop
      vertex -27.2815 -2.07912 -2.5
      vertex -26.6355 -4.06737 -2.5
      vertex -27.2815 -2.07912 2.5
    endloop
  endfacet
  facet normal -0.951057 -0.309017 0
    outer loop
      vertex -27.2815 -2.07912 2.5
      vertex -26.6355 -4.06737 -2.5
      vertex -26.6355 -4.06737 2.5
    endloop
  endfacet
  facet normal -0.866025 -0.5 0
    outer loop
      vertex -26.6355 -4.06737 -2.5
      vertex -25.5902 -5.87785 -2.5
      vertex -26.6355 -4.06737 2.5
    endloop
  endfacet
  facet normal -0.866025 -0.5 0
    outer loop
      vertex -26.6355 -4.06737 2.5
      vertex -25.5902 -5.87785 -2.5
      vertex -25.5902 -5.87785 2.5
    endloop
  endfacet
  facet normal -0.743145 -0.669131 0
    outer loop
      vertex -25.5902 -5.87785 -2.5
      vertex -24.1913 -7.43145 -2.5
      vertex -25.5902 -5.87785 2.5
    endloop
  endfacet
  facet normal -0.743145 -0.669131 0
    outer loop
      vertex -25.5902 -5.87785 2.5
      vertex -24.1913 -7.43145 -2.5
      vertex -24.1913 -7.43145 2.5
    endloop
  endfacet
  facet normal -0.587785 -0.809017 0
    outer loop
      vertex -24.1913 -7.43145 2.5
      vertex -24.1913 -7.43145 -2.5
      vertex -22.5 -8.66025 -2.5
    endloop
  endfacet
  facet normal -0.587785 -0.809017 0
    outer loop
      vertex -22.5 -8.66025 2.5
      vertex -24.1913 -7.43145 2.5
      vertex -22.5 -8.66025 -2.5
    endloop
  endfacet
  facet normal -0.406737 -0.913545 0
    outer loop
      vertex -22.5 -8.66025 2.5
      vertex -22.5 -8.66025 -2.5
      vertex -20.5902 -9.51056 -2.5
    endloop
  endfacet
  facet normal -0.406737 -0.913545 0
    outer loop
      vertex -20.5902 -9.51056 2.5
      vertex -22.5 -8.66025 2.5
      vertex -20.5902 -9.51056 -2.5
    endloop
  endfacet
  facet normal -0.207912 -0.978148 0
    outer loop
      vertex -20.5902 -9.51056 2.5
      vertex -20.5902 -9.51056 -2.5
      vertex -18.5453 -9.94522 -2.5
    endloop
  endfacet
  facet normal -0.207912 -0.978148 0
    outer loop
      vertex -18.5453 -9.94522 2.5
      vertex -20.5902 -9.51056 2.5
      vertex -18.5453 -9.94522 -2.5
    endloop
  endfacet
  facet normal 0 -1 0
    outer loop
      vertex -18.5453 -9.94522 2.5
      vertex -18.5453 -9.94522 -2.5
      vertex -16.4547 -9.94522 -2.5
    endloop
  endfacet
  facet normal 0 -1 0
    outer loop
      vertex -16.4547 -9.94522 2.5
      vertex -18.5453 -9.94522 2.5
      vertex -16.4547 -9.94522 -2.5
    endloop
  endfacet
  facet normal 0.207912 -0.978148 0
    outer loop
      vertex -16.4547 -9.94522 2.5
      vertex -16.4547 -9.94522 -2.5
      vertex -14.4098 -9.51056 -2.5
    endloop
  endfacet
  facet normal 0.207912 -0.978148 0
    outer loop
      vertex -14.4098 -9.51056 2.5
      vertex -16.4547 -9.94522 2.5
      vertex -14.4098 -9.51056 -2.5
    endloop
  endfacet
  facet normal 0.406737 -0.913545 0
    outer loop
      vertex -14.4098 -9.51056 2.5
      vertex -14.4098 -9.51056 -2.5
      vertex -12.5 -8.66025 -2.5
    endloop
  endfacet
  facet normal 0.406737 -0.913545 0
    outer loop
      vertex -12.5 -8.66025 2.5
      vertex -14.4098 -9.51056 2.5
      vertex -12.5 -8.66025 -2.5
    endloop
  endfacet
  facet normal 0.587785 -0.809017 0
    outer loop
      vertex -12.5 -8.66025 2.5
      vertex -12.5 -8.66025 -2.5
      vertex -10.8087 -7.43145 -2.5
    endloop
  endfacet
  facet normal 0.587785 -0.809017 0
    outer loop
      vertex -10.8087 -7.43145 2.5
      vertex -12.5 -8.66025 2.5
      vertex -10.8087 -7.43145 -2.5
    endloop
  endfacet
  facet normal 0.743145 -0.669131 0
    outer loop
      vertex -10.8087 -7.43145 2.5
      vertex -10.8087 -7.43145 -2.5
      vertex -9.40983 -5.87785 -2.5
    endloop
  endfacet
  facet normal 0.743145 -0.669131 0
    outer loop
      vertex -9.40983 -5.87785 2.5
      vertex -10.8087 -7.43145 2.5
      vertex -9.40983 -5.87785 -2.5
    endloop
  endfacet
  facet normal 0.866025 -0.5 0
    outer loop
      vertex -9.40983 -5.87785 2.5
      vertex -9.40983 -5.87785 -2.5
      vertex -8.903 -5 -2.5
    endloop
  endfacet
  facet normal 0.866025 -0.5 0
    outer loop
      vertex -8.903 -5 2.5
      vertex -9.40983 -5.87785 2.5
      vertex -8.903 -5 -2.5
    endloop
  endfacet
  facet normal 0 -1 0
    outer loop
      vertex -8.903 -5 2.5
      vertex -8.903 -5 -2.5
      vertex 17.5 -5 -2.5
    endloop
  endfacet
  facet normal 0 -1 0
    outer loop
      vertex 17.5 -5 2.5
      vertex -8.903 -5 2.5
      vertex 17.5 -5 -2.5
    endloop
  endfacet
  facet normal 0.19509 -0.980785 0
    outer loop
      vertex 17.5 -5 2.5
      vertex 17.5 -5 -2.5
      vertex 19.4134 -4.6194 -2.5
    endloop
  endfacet
  facet normal 0.19509 -0.980785 0
    outer loop
      vertex 19.4134 -4.6194 2.5
      vertex 17.5 -5 2.5
      vertex 19.4134 -4.6194 -2.5
    endloop
  endfacet
  facet normal 0.55557 -0.83147 0
    outer loop
      vertex 19.4134 -4.6194 2.5
      vertex 19.4134 -4.6194 -2.5
      vertex 21.0355 -3.53553 -2.5
    endloop
  endfacet
  facet normal 0.55557 -0.83147 0
    outer loop
      vertex 21.0355 -3.53553 2.5
      vertex 19.4134 -4.6194 2.5
      vertex 21.0355 -3.53553 -2.5
    endloop
  endfacet
  facet normal 0.83147 -0.55557 0
    outer loop
      vertex 21.0355 -3.53553 2.5
      vertex 21.0355 -3.53553 -2.5
      vertex 22.1194 -1.91342 -2.5
    endloop
  endfacet
  facet normal 0.83147 -0.55557 0
    outer loop
      vertex 22.1194 -1.91342 2.5
      vertex 21.0355 -3.53553 2.5
      vertex 22.1194 -1.91342 -2.5
    endloop
  endfacet
  facet normal 0.980785 -0.19509 0
    outer loop
      vertex 22.1194 -1.91342 2.5
      vertex 22.1194 -1.91342 -2.5
      vertex 22.5 0 -2.5
    endloop
  endfacet
  facet normal 0.980785 -0.19509 0
    outer loop
      vertex 22.5 0 2.5
      vertex 22.1194 -1.91342 2.5
      vertex 22.5 0 -2.5
    endloop
  endfacet
  facet normal 0.980785 0.19509 0
    outer loop
      vertex 22.5 0 -2.5
      vertex 22.1194 1.91342 -2.5
      vertex 22.1194 1.91342 2.5
    endloop
  endfacet
  facet normal 0.980785 0.19509 0
    outer loop
      vertex 22.5 0 2.5
      vertex 22.5 0 -2.5
      vertex 22.1194 1.91342 2.5
    endloop
  endfacet
  facet normal 0.83147 0.55557 0
    outer loop
      vertex 22.1194 1.91342 -2.5
      vertex 21.0355 3.53553 -2.5
      vertex 21.0355 3.53553 2.5
    endloop
  endfacet
  facet normal 0.83147 0.55557 0
    outer loop
      vertex 22.1194 1.91342 2.5
      vertex 22.1194 1.91342 -2.5
      vertex 21.0355 3.53553 2.5
    endloop
  endfacet
  facet normal 0.55557 0.83147 0
    outer loop
      vertex 19.4134 4.6194 -2.5
      vertex 19.4134 4.6194 2.5
      vertex 21.0355 3.53553 -2.5
    endloop
  endfacet
  facet normal 0.55557 0.83147 0
    outer loop
      vertex 21.0355 3.53553 -2.5
      vertex 19.4134 4.6194 2.5
      vertex 21.0355 3.53553 2.5
    endloop
  endfacet
  facet normal 0.19509 0.980785 0
    outer loop
      vertex 17.5 5 -2.5
      vertex 17.5 5 2.5
      vertex 19.4134 4.6194 -2.5
    endloop
  endfacet
  facet normal 0.19509 0.980785 0
    outer loop
      vertex 19.4134 4.6194 -2.5
      vertex 17.5 5 2.5
      vertex 19.4134 4.6194 2.5
    endloop
  endfacet
  facet normal 0 1 0
    outer loop
      vertex -8.903 5 -2.5
      vertex -8.903 5 2.5
      vertex 17.5 5 -2.5
    endloop
  endfacet
  facet normal 0 1 0
    outer loop
      vertex 17.5 5 -2.5
      vertex -8.903 5 2.5
      vertex 17.5 5 2.5
    endloop
  endfacet
  facet normal 0.866025 0.5 0
    outer loop
      vertex -8.903 5 -2.5
      vertex -9.40983 5.87785 -2.5
      vertex -9.40983 5.87785 2.5
    endloop
  endfacet
  facet normal 0.866025 0.5 0
    outer loop
      vertex -8.903 5 2.5
      vertex -8.903 5 -2.5
      vertex -9.40983 5.87785 2.5
    endloop
  endfacet
  facet normal 0.743145 0.669131 0
    outer loop
      vertex -9.40983 5.87785 -2.5
      vertex -10.8087 7.43145 -2.5
      vertex -10.8087 7.43145 2.5
    endloop
  endfacet
  facet normal 0.743145 0.669131 0
    outer loop
      vertex -9.40983 5.87785 2.5
      vertex -9.40983 5.87785 -2.5
      vertex -10.8087 7.43145 2.5
    endloop
  endfacet
  facet normal 0.587785 0.809017 0
    outer loop
      vertex -12.5 8.66025 -2.5
      vertex -12.5 8.66025 2.5
      vertex -10.8087 7.43145 -2.5
    endloop
  endfacet
  facet normal 0.587785 0.809017 0
    outer loop
      vertex -10.8087 7.43145 -2.5
      vertex -12.5 8.66025 2.5
      vertex -10.8087 7.43145 2.5
    endloop
  endfacet
  facet normal 0.406737 0.913545 0
    outer loop
      vertex -14.4098 9.51056 -2.5
      vertex -14.4098 9.51056 2.5
      vertex -12.5 8.66025 -2.5
    endloop
  endfacet
  facet normal 0.406737 0.913545 0
    outer loop
      vertex -12.5 8.66025 -2.5
      vertex -14.4098 9.51056 2.5
      vertex -12.5 8.66025 2.5
    endloop
  endfacet
  facet normal 0.207912 0.978148 0
    outer loop
      vertex -16.4547 9.94522 -2.5
      vertex -16.4547 9.94522 2.5
      vertex -14.4098 9.51056 -2.5
    endloop
  endfacet
  facet normal 0.207912 0.978148 0
    outer loop
      vertex -14.4098 9.51056 -2.5
      vertex -16.4547 9.94522 2.5
      vertex -14.4098 9.51056 2.5
    endloop
  endfacet
  facet normal 0 1 0
    outer loop
      vertex -18.5453 9.94522 -2.5
      vertex -18.5453 9.94522 2.5
      vertex -16.4547 9.94522 -2.5
    endloop
  endfacet
  facet normal 0 1 0
    outer loop
      vertex -16.4547 9.94522 -2.5
      vertex -18.5453 9.94522 2.5
      vertex -16.4547 9.94522 2.5
    endloop
  endfacet
  facet normal -0.207912 0.978148 0
    outer loop
      vertex -20.5902 9.51056 -2.5
      vertex -20.5902 9.51056 2.5
      vertex -18.5453 9.94522 -2.5
    endloop
  endfacet
  facet normal -0.207912 0.978148 0
    outer loop
      vertex -18.5453 9.94522 -2.5
      vertex -20.5902 9.51056 2.5
      vertex -18.5453 9.94522 2.5
    endloop
  endfacet
  facet normal -0.406737 0.913545 0
    outer loop
      vertex -22.5 8.66025 -2.5
      vertex -22.5 8.66025 2.5
      vertex -20.5902 9.51056 -2.5
    endloop
  endfacet
  facet normal -0.406737 0.913545 0
    outer loop
      vertex -20.5902 9.51056 -2.5
      vertex -22.5 8.66025 2.5
      vertex -20.5902 9.51056 2.5
    endloop
  endfacet
  facet normal -0.587785 0.809017 0
    outer loop
      vertex -24.1913 7.43145 -2.5
      vertex -24.1913 7.43145 2.5
      vertex -22.5 8.66025 -2.5
    endloop
  endfacet
  facet normal -0.587785 0.809017 0
    outer loop
      vertex -22.5 8.66025 -2.5
      vertex -24.1913 7.43145 2.5
      vertex -22.5 8.66025 2.5
    endloop
  endfacet
  facet normal -0.743145 0.669131 0
    outer loop
      vertex -25.5902 5.87785 -2.5
      vertex -25.5902 5.87785 2.5
      vertex -24.1913 7.43145 -2.5
    endloop
  endfacet
  facet normal -0.743145 0.669131 0
    outer loop
      vertex -24.1913 7.43145 -2.5
      vertex -25.5902 5.87785 2.5
      vertex -24.1913 7.43145 2.5
    endloop
  endfacet
  facet normal -0.866025 0.5 0
    outer loop
      vertex -26.6355 4.06737 -2.5
      vertex -26.6355 4.06737 2.5
      vertex -25.5902 5.87785 -2.5
    endloop
  endfacet
  facet normal -0.866025 0.5 0
    outer loop
      vertex -25.5902 5.87785 -2.5
      vertex -26.6355 4.06737 2.5
      vertex -25.5902 5.87785 2.5
    endloop
  endfacet
  facet normal -0.951057 0.309017 0
    outer loop
      vertex -27.2815 2.07912 -2.5
      vertex -27.2815 2.07912 2.5
      vertex -26.6355 4.06737 -2.5
    endloop
  endfacet
  facet normal -0.951057 0.309017 0
    outer loop
      vertex -26.6355 4.06737 -2.5
      vertex -27.2815 2.07912 2.5
      vertex -26.6355 4.06737 2.5
    endloop
  endfacet
  facet normal 0.987688 -0.156434 0
    outer loop
      vertex -21.3993 1.26697 -2.5
      vertex -21.3993 1.26697 -0.5
      vertex -21.6 0 -0.5
    endloop
  endfacet
  facet normal 0.987688 -0.156434 0
    outer loop
      vertex -21.6 0 -2.5
      vertex -21.3993 1.26697 -2.5
      vertex -21.6 0 -0.5
    endloop
  endfacet
  facet normal 0.987688 0.156434 0
    outer loop
      vertex -21.6 0 -0.5
      vertex -21.3993 -1.26697 -0.5
      vertex -21.3993 -1.26697 -2.5
    endloop
  endfacet
  facet normal 0.987688 0.156434 0
    outer loop
      vertex -21.6 0 -2.5
      vertex -21.6 0 -0.5
      vertex -21.3993 -1.26697 -2.5
    endloop
  endfacet
  facet normal 0.891007 -0.45399 0
    outer loop
      vertex -20.817 2.40992 -2.5
      vertex -20.817 2.40992 -0.5
      vertex -21.3993 1.26697 -0.5
    endloop
  endfacet
  facet normal 0.891007 -0.45399 0
    outer loop
      vertex -21.3993 1.26697 -2.5
      vertex -20.817 2.40992 -2.5
      vertex -21.3993 1.26697 -0.5
    endloop
  endfacet
  facet normal 0.707107 -0.707107 0
    outer loop
      vertex -19.9099 3.31697 -2.5
      vertex -19.9099 3.31697 -0.5
      vertex -20.817 2.40992 -0.5
    endloop
  endfacet
  facet normal 0.707107 -0.707107 0
    outer loop
      vertex -20.817 2.40992 -2.5
      vertex -19.9099 3.31697 -2.5
      vertex -20.817 2.40992 -0.5
    endloop
  endfacet
  facet normal 0.45399 -0.891007 0
    outer loop
      vertex -18.767 3.89933 -2.5
      vertex -18.767 3.89933 -0.5
      vertex -19.9099 3.31697 -0.5
    endloop
  endfacet
  facet normal 0.45399 -0.891007 0
    outer loop
      vertex -19.9099 3.31697 -2.5
      vertex -18.767 3.89933 -2.5
      vertex -19.9099 3.31697 -0.5
    endloop
  endfacet
  facet normal 0.156434 -0.987688 0
    outer loop
      vertex -17.5 4.1 -2.5
      vertex -17.5 4.1 -0.5
      vertex -18.767 3.89933 -0.5
    endloop
  endfacet
  facet normal 0.156434 -0.987688 0
    outer loop
      vertex -18.767 3.89933 -2.5
      vertex -17.5 4.1 -2.5
      vertex -18.767 3.89933 -0.5
    endloop
  endfacet
  facet normal -0.156434 -0.987688 0
    outer loop
      vertex -16.233 3.89933 -2.5
      vertex -16.233 3.89933 -0.5
      vertex -17.5 4.1 -0.5
    endloop
  endfacet
  facet normal -0.156434 -0.987688 0
    outer loop
      vertex -17.5 4.1 -2.5
      vertex -16.233 3.89933 -2.5
      vertex -17.5 4.1 -0.5
    endloop
  endfacet
  facet normal -0.45399 -0.891007 0
    outer loop
      vertex -15.0901 3.31697 -2.5
      vertex -15.0901 3.31697 -0.5
      vertex -16.233 3.89933 -0.5
    endloop
  endfacet
  facet normal -0.45399 -0.891007 0
    outer loop
      vertex -16.233 3.89933 -2.5
      vertex -15.0901 3.31697 -2.5
      vertex -16.233 3.89933 -0.5
    endloop
  endfacet
  facet normal -0.707107 -0.707107 0
    outer loop
      vertex -14.183 2.40992 -2.5
      vertex -14.183 2.40992 -0.5
      vertex -15.0901 3.31697 -0.5
    endloop
  endfacet
  facet normal -0.707107 -0.707107 0
    outer loop
      vertex -15.0901 3.31697 -2.5
      vertex -14.183 2.40992 -2.5
      vertex -15.0901 3.31697 -0.5
    endloop
  endfacet
  facet normal -0.891007 -0.45399 0
    outer loop
      vertex -13.6007 1.26697 -0.5
      vertex -14.183 2.40992 -0.5
      vertex -13.6007 1.26697 -2.5
    endloop
  endfacet
  facet normal -0.891007 -0.45399 0
    outer loop
      vertex -13.6007 1.26697 -2.5
      vertex -14.183 2.40992 -0.5
      vertex -14.183 2.40992 -2.5
    endloop
  endfacet
  facet normal -0.987688 -0.156434 0
    outer loop
      vertex -13.4 0 -0.5
      vertex -13.6007 1.26697 -0.5
      vertex -13.4 0 -2.5
    endloop
  endfacet
  facet normal -0.987688 -0.156434 0
    outer loop
      vertex -13.4 0 -2.5
      vertex -13.6007 1.26697 -0.5
      vertex -13.6007 1.26697 -2.5
    endloop
  endfacet
  facet normal -0.987688 0.156434 0
    outer loop
      vertex -13.4 0 -0.5
      vertex -13.4 0 -2.5
      vertex -13.6007 -1.26697 -0.5
    endloop
  endfacet
  facet normal -0.987688 0.156434 0
    outer loop
      vertex -13.6007 -1.26697 -0.5
      vertex -13.4 0 -2.5
      vertex -13.6007 -1.26697 -2.5
    endloop
  endfacet
  facet normal -0.891007 0.45399 0
    outer loop
      vertex -13.6007 -1.26697 -0.5
      vertex -13.6007 -1.26697 -2.5
      vertex -14.183 -2.40992 -0.5
    endloop
  endfacet
  facet normal -0.891007 0.45399 0
    outer loop
      vertex -14.183 -2.40992 -0.5
      vertex -13.6007 -1.26697 -2.5
      vertex -14.183 -2.40992 -2.5
    endloop
  endfacet
  facet normal -0.707107 0.707107 0
    outer loop
      vertex -14.183 -2.40992 -0.5
      vertex -14.183 -2.40992 -2.5
      vertex -15.0901 -3.31697 -0.5
    endloop
  endfacet
  facet normal -0.707107 0.707107 0
    outer loop
      vertex -15.0901 -3.31697 -0.5
      vertex -14.183 -2.40992 -2.5
      vertex -15.0901 -3.31697 -2.5
    endloop
  endfacet
  facet normal -0.45399 0.891007 0
    outer loop
      vertex -15.0901 -3.31697 -0.5
      vertex -15.0901 -3.31697 -2.5
      vertex -16.233 -3.89933 -0.5
    endloop
  endfacet
  facet normal -0.45399 0.891007 0
    outer loop
      vertex -16.233 -3.89933 -0.5
      vertex -15.0901 -3.31697 -2.5
      vertex -16.233 -3.89933 -2.5
    endloop
  endfacet
  facet normal -0.156434 0.987688 0
    outer loop
      vertex -16.233 -3.89933 -0.5
      vertex -16.233 -3.89933 -2.5
      vertex -17.5 -4.1 -0.5
    endloop
  endfacet
  facet normal -0.156434 0.987688 0
    outer loop
      vertex -17.5 -4.1 -0.5
      vertex -16.233 -3.89933 -2.5
      vertex -17.5 -4.1 -2.5
    endloop
  endfacet
  facet normal 0.156434 0.987688 0
    outer loop
      vertex -17.5 -4.1 -0.5
      vertex -17.5 -4.1 -2.5
      vertex -18.767 -3.89933 -0.5
    endloop
  endfacet
  facet normal 0.156434 0.987688 0
    outer loop
      vertex -18.767 -3.89933 -0.5
      vertex -17.5 -4.1 -2.5
      vertex -18.767 -3.89933 -2.5
    endloop
  endfacet
  facet normal 0.45399 0.891007 0
    outer loop
      vertex -18.767 -3.89933 -0.5
      vertex -18.767 -3.89933 -2.5
      vertex -19.9099 -3.31697 -0.5
    endloop
  endfacet
  facet normal 0.45399 0.891007 0
    outer loop
      vertex -19.9099 -3.31697 -0.5
      vertex -18.767 -3.89933 -2.5
      vertex -19.9099 -3.31697 -2.5
    endloop
  endfacet
  facet normal 0.707107 0.707107 0
    outer loop
      vertex -19.9099 -3.31697 -0.5
      vertex -19.9099 -3.31697 -2.5
      vertex -20.817 -2.40992 -0.5
    endloop
  endfacet
  facet normal 0.707107 0.707107 0
    outer loop
      vertex -20.817 -2.40992 -0.5
      vertex -19.9099 -3.31697 -2.5
      vertex -20.817 -2.40992 -2.5
    endloop
  endfacet
  facet normal 0.891007 0.45399 0
    outer loop
      vertex -21.3993 -1.26697 -0.5
      vertex -20.817 -2.40992 -0.5
      vertex -20.817 -2.40992 -2.5
    endloop
  endfacet
  facet normal 0.891007 0.45399 0
    outer loop
      vertex -21.3993 -1.26697 -2.5
      vertex -21.3993 -1.26697 -0.5
      vertex -20.817 -2.40992 -2.5
    endloop
  endfacet
  facet normal 0.62349 -0.781831 0
    outer loop
      vertex -9.21729 2.04735 -2.5
      vertex -9.21729 2.04735 2.5
      vertex -10.3914 1.111 2.5
    endloop
  endfacet
  facet normal 0.62349 -0.781831 0
    outer loop
      vertex -10.642 0.911156 -0.5
      vertex -9.21729 2.04735 -2.5
      vertex -10.3914 1.111 -0.5
    endloop
  endfacet
  facet normal 0.62349 -0.781831 0
    outer loop
      vertex -10.3914 1.111 -0.5
      vertex -9.21729 2.04735 -2.5
      vertex -10.3914 1.111 2.5
    endloop
  endfacet
  facet normal 0.62349 -0.781831 0
    outer loop
      vertex -10.642 0.911156 -2.5
      vertex -9.21729 2.04735 -2.5
      vertex -10.642 0.911156 -0.5
    endloop
  endfacet
  facet normal 1 0 0
    outer loop
      vertex -10.642 0.911156 -2.5
      vertex -10.642 0.911156 -0.5
      vertex -10.642 -0.911156 -0.5
    endloop
  endfacet
  facet normal 1 0 0
    outer loop
      vertex -10.642 -0.911156 -2.5
      vertex -10.642 0.911156 -2.5
      vertex -10.642 -0.911156 -0.5
    endloop
  endfacet
  facet normal -0.222521 -0.974928 0
    outer loop
      vertex -7.44067 1.64185 -2.5
      vertex -7.44067 1.64185 2.5
      vertex -9.21729 2.04735 2.5
    endloop
  endfacet
  facet normal -0.222521 -0.974928 0
    outer loop
      vertex -9.21729 2.04735 -2.5
      vertex -7.44067 1.64185 -2.5
      vertex -9.21729 2.04735 2.5
    endloop
  endfacet
  facet normal -0.900969 -0.433884 0
    outer loop
      vertex -6.65 0 2.5
      vertex -7.44067 1.64185 2.5
      vertex -6.65 0 -2.5
    endloop
  endfacet
  facet normal -0.900969 -0.433884 0
    outer loop
      vertex -6.65 0 -2.5
      vertex -7.44067 1.64185 2.5
      vertex -7.44067 1.64185 -2.5
    endloop
  endfacet
  facet normal -0.900969 0.433884 0
    outer loop
      vertex -6.65 0 2.5
      vertex -6.65 0 -2.5
      vertex -7.44067 -1.64185 2.5
    endloop
  endfacet
  facet normal -0.900969 0.433884 0
    outer loop
      vertex -7.44067 -1.64185 2.5
      vertex -6.65 0 -2.5
      vertex -7.44067 -1.64185 -2.5
    endloop
  endfacet
  facet normal -0.222521 0.974928 0
    outer loop
      vertex -7.44067 -1.64185 2.5
      vertex -7.44067 -1.64185 -2.5
      vertex -9.21729 -2.04735 2.5
    endloop
  endfacet
  facet normal -0.222521 0.974928 0
    outer loop
      vertex -9.21729 -2.04735 2.5
      vertex -7.44067 -1.64185 -2.5
      vertex -9.21729 -2.04735 -2.5
    endloop
  endfacet
  facet normal 0.62349 0.781831 0
    outer loop
      vertex -10.3914 -1.111 -0.5
      vertex -10.3914 -1.111 2.5
      vertex -9.21729 -2.04735 2.5
    endloop
  endfacet
  facet normal 0.62349 0.781831 0
    outer loop
      vertex -10.3914 -1.111 -0.5
      vertex -9.21729 -2.04735 2.5
      vertex -9.21729 -2.04735 -2.5
    endloop
  endfacet
  facet normal 0.62349 0.781831 0
    outer loop
      vertex -10.3914 -1.111 -0.5
      vertex -9.21729 -2.04735 -2.5
      vertex -10.642 -0.911156 -0.5
    endloop
  endfacet
  facet normal 0.62349 0.781831 0
    outer loop
      vertex -9.21729 -2.04735 -2.5
      vertex -10.642 -0.911156 -2.5
      vertex -10.642 -0.911156 -0.5
    endloop
  endfacet
  facet normal 0.62349 -0.781831 0
    outer loop
      vertex -0.467294 2.04735 -2.5
      vertex -0.467294 2.04735 2.5
      vertex -1.89203 0.911156 2.5
    endloop
  endfacet
  facet normal 0.62349 -0.781831 0
    outer loop
      vertex -1.89203 0.911156 -2.5
      vertex -0.467294 2.04735 -2.5
      vertex -1.89203 0.911156 2.5
    endloop
  endfacet
  facet normal 1 0 0
    outer loop
      vertex -1.89203 0.911156 -2.5
      vertex -1.89203 0.911156 2.5
      vertex -1.89203 -0.911156 2.5
    endloop
  endfacet
  facet normal 1 0 0
    outer loop
      vertex -1.89203 -0.911156 -2.5
      vertex -1.89203 0.911156 -2.5
      vertex -1.89203 -0.911156 2.5
    endloop
  endfacet
  facet normal -0.222521 -0.974928 0
    outer loop
      vertex 1.30933 1.64185 -2.5
      vertex 1.30933 1.64185 2.5
      vertex -0.467294 2.04735 2.5
    endloop
  endfacet
  facet normal -0.222521 -0.974928 0
    outer loop
      vertex -0.467294 2.04735 -2.5
      vertex 1.30933 1.64185 -2.5
      vertex -0.467294 2.04735 2.5
    endloop
  endfacet
  facet normal -0.900969 -0.433884 0
    outer loop
      vertex 2.1 0 2.5
      vertex 1.30933 1.64185 2.5
      vertex 2.1 0 -2.5
    endloop
  endfacet
  facet normal -0.900969 -0.433884 0
    outer loop
      vertex 2.1 0 -2.5
      vertex 1.30933 1.64185 2.5
      vertex 1.30933 1.64185 -2.5
    endloop
  endfacet
  facet normal -0.900969 0.433884 0
    outer loop
      vertex 2.1 0 2.5
      vertex 2.1 0 -2.5
      vertex 1.30933 -1.64185 2.5
    endloop
  endfacet
  facet normal -0.900969 0.433884 0
    outer loop
      vertex 1.30933 -1.64185 2.5
      vertex 2.1 0 -2.5
      vertex 1.30933 -1.64185 -2.5
    endloop
  endfacet
  facet normal -0.222521 0.974928 0
    outer loop
      vertex 1.30933 -1.64185 2.5
      vertex 1.30933 -1.64185 -2.5
      vertex -0.467294 -2.04735 2.5
    endloop
  endfacet
  facet normal -0.222521 0.974928 0
    outer loop
      vertex -0.467294 -2.04735 2.5
      vertex 1.30933 -1.64185 -2.5
      vertex -0.467294 -2.04735 -2.5
    endloop
  endfacet
  facet normal 0.62349 0.781831 0
    outer loop
      vertex -0.467294 -2.04735 2.5
      vertex -0.467294 -2.04735 -2.5
      vertex -1.89203 -0.911156 2.5
    endloop
  endfacet
  facet normal 0.62349 0.781831 0
    outer loop
      vertex -1.89203 -0.911156 2.5
      vertex -0.467294 -2.04735 -2.5
      vertex -1.89203 -0.911156 -2.5
    endloop
  endfacet
  facet normal 0.62349 -0.781831 0
    outer loop
      vertex 8.28271 2.04735 -2.5
      vertex 8.28271 2.04735 2.5
      vertex 6.85797 0.911156 2.5
    endloop
  endfacet
  facet normal 0.62349 -0.781831 0
    outer loop
      vertex 6.85797 0.911156 -2.5
      vertex 8.28271 2.04735 -2.5
      vertex 6.85797 0.911156 2.5
    endloop
  endfacet
  facet normal 1 0 0
    outer loop
      vertex 6.85797 0.911156 -2.5
      vertex 6.85797 0.911156 2.5
      vertex 6.85797 -0.911156 2.5
    endloop
  endfacet
  facet normal 1 0 0
    outer loop
      vertex 6.85797 -0.911156 -2.5
      vertex 6.85797 0.911156 -2.5
      vertex 6.85797 -0.911156 2.5
    endloop
  endfacet
  facet normal -0.222521 -0.974928 0
    outer loop
      vertex 10.0593 1.64185 -2.5
      vertex 10.0593 1.64185 2.5
      vertex 8.28271 2.04735 2.5
    endloop
  endfacet
  facet normal -0.222521 -0.974928 0
    outer loop
      vertex 8.28271 2.04735 -2.5
      vertex 10.0593 1.64185 -2.5
      vertex 8.28271 2.04735 2.5
    endloop
  endfacet
  facet normal -0.900969 -0.433884 0
    outer loop
      vertex 10.85 0 2.5
      vertex 10.0593 1.64185 2.5
      vertex 10.85 0 -2.5
    endloop
  endfacet
  facet normal -0.900969 -0.433884 0
    outer loop
      vertex 10.85 0 -2.5
      vertex 10.0593 1.64185 2.5
      vertex 10.0593 1.64185 -2.5
    endloop
  endfacet
  facet normal -0.900969 0.433884 0
    outer loop
      vertex 10.85 0 2.5
      vertex 10.85 0 -2.5
      vertex 10.0593 -1.64185 2.5
    endloop
  endfacet
  facet normal -0.900969 0.433884 0
    outer loop
      vertex 10.0593 -1.64185 2.5
      vertex 10.85 0 -2.5
      vertex 10.0593 -1.64185 -2.5
    endloop
  endfacet
  facet normal -0.222521 0.974928 0
    outer loop
      vertex 10.0593 -1.64185 2.5
      vertex 10.0593 -1.64185 -2.5
      vertex 8.28271 -2.04735 2.5
    endloop
  endfacet
  facet normal -0.222521 0.974928 0
    outer loop
      vertex 8.28271 -2.04735 2.5
      vertex 10.0593 -1.64185 -2.5
      vertex 8.28271 -2.04735 -2.5
    endloop
  endfacet
  facet normal 0.62349 0.781831 0
    outer loop
      vertex 8.28271 -2.04735 2.5
      vertex 8.28271 -2.04735 -2.5
      vertex 6.85797 -0.911156 2.5
    endloop
  endfacet
  facet normal 0.62349 0.781831 0
    outer loop
      vertex 6.85797 -0.911156 2.5
      vertex 8.28271 -2.04735 -2.5
      vertex 6.85797 -0.911156 -2.5
    endloop
  endfacet
  facet normal 1 0 0
    outer loop
      vertex 15.608 0.911156 -2.5
      vertex 15.608 0.911156 2.5
      vertex 15.608 -0.911156 2.5
    endloop
  endfacet
  facet normal 1 0 0
    outer loop
      vertex 15.608 -0.911156 -2.5
      vertex 15.608 0.911156 -2.5
      vertex 15.608 -0.911156 2.5
    endloop
  endfacet
  facet normal 0.62349 -0.781831 0
    outer loop
      vertex 17.0327 2.04735 -2.5
      vertex 17.0327 2.04735 2.5
      vertex 15.608 0.911156 2.5
    endloop
  endfacet
  facet normal 0.62349 -0.781831 0
    outer loop
      vertex 15.608 0.911156 -2.5
      vertex 17.0327 2.04735 -2.5
      vertex 15.608 0.911156 2.5
    endloop
  endfacet
  facet normal -0.222521 -0.974928 0
    outer loop
      vertex 18.8093 1.64185 -2.5
      vertex 18.8093 1.64185 2.5
      vertex 17.0327 2.04735 2.5
    endloop
  endfacet
  facet normal -0.222521 -0.974928 0
    outer loop
      vertex 17.0327 2.04735 -2.5
      vertex 18.8093 1.64185 -2.5
      vertex 17.0327 2.04735 2.5
    endloop
  endfacet
  facet normal -0.900969 -0.433884 0
    outer loop
      vertex 19.6 0 2.5
      vertex 18.8093 1.64185 2.5
      vertex 19.6 0 -2.5
    endloop
  endfacet
  facet normal -0.900969 -0.433884 0
    outer loop
      vertex 19.6 0 -2.5
      vertex 18.8093 1.64185 2.5
      vertex 18.8093 1.64185 -2.5
    endloop
  endfacet
  facet normal -0.900969 0.433884 0
    outer loop
      vertex 19.6 0 2.5
      vertex 19.6 0 -2.5
      vertex 18.8093 -1.64185 2.5
    endloop
  endfacet
  facet normal -0.900969 0.433884 0
    outer loop
      vertex 18.8093 -1.64185 2.5
      vertex 19.6 0 -2.5
      vertex 18.8093 -1.64185 -2.5
    endloop
  endfacet
  facet normal -0.222521 0.974928 0
    outer loop
      vertex 18.8093 -1.64185 2.5
      vertex 18.8093 -1.64185 -2.5
      vertex 17.0327 -2.04735 2.5
    endloop
  endfacet
  facet normal -0.222521 0.974928 0
    outer loop
      vertex 17.0327 -2.04735 2.5
      vertex 18.8093 -1.64185 -2.5
      vertex 17.0327 -2.04735 -2.5
    endloop
  endfacet
  facet normal 0.62349 0.781831 0
    outer loop
      vertex 17.0327 -2.04735 2.5
      vertex 17.0327 -2.04735 -2.5
      vertex 15.608 -0.911156 2.5
    endloop
  endfacet
  facet normal 0.62349 0.781831 0
    outer loop
      vertex 15.608 -0.911156 2.5
      vertex 17.0327 -2.04735 -2.5
      vertex 15.608 -0.911156 -2.5
    endloop
  endfacet
  facet normal 0 0 1
    outer loop
      vertex -27.2815 2.07912 2.5
      vertex -27.5 0 2.5
      vertex -27.2815 -2.07912 2.5
    endloop
  endfacet
  facet normal 0 0 1
    outer loop
      vertex -25.5902 -5.87785 2.5
      vertex -27.2815 2.07912 2.5
      vertex -26.6355 -4.06737 2.5
    endloop
  endfacet
  facet normal 0 0 1
    outer loop
      vertex -26.6355 -4.06737 2.5
      vertex -27.2815 2.07912 2.5
      vertex -27.2815 -2.07912 2.5
    endloop
  endfacet
  facet normal 0 0 1
    outer loop
      vertex -24.1913 -7.43145 2.5
      vertex -27.2815 2.07912 2.5
      vertex -25.5902 -5.87785 2.5
    endloop
  endfacet
  facet normal 0 0 1
    outer loop
      vertex -22.5 -8.66025 2.5
      vertex -27.2815 2.07912 2.5
      vertex -24.1913 -7.43145 2.5
    endloop
  endfacet
  facet normal 0 0 1
    outer loop
      vertex -20.5902 -9.51056 2.5
      vertex -27.2815 2.07912 2.5
      vertex -22.5 -8.66025 2.5
    endloop
  endfacet
  facet normal 0 0 1
    outer loop
      vertex -21.375 -6.7117 2.5
      vertex -27.2815 2.07912 2.5
      vertex -20.5902 -9.51056 2.5
    endloop
  endfacet
  facet normal 0 0 1
    outer loop
      vertex -21.375 6.7117 2.5
      vertex -12.5 8.66025 2.5
      vertex -14.4098 9.51056 2.5
    endloop
  endfacet
  facet normal 0 0 1
    outer loop
      vertex -21.375 6.7117 2.5
      vertex -13.625 6.7117 2.5
      vertex -12.5 8.66025 2.5
    endloop
  endfacet
  facet normal 0 0 1
    outer loop
      vertex -8.903 5 2.5
      vertex 19.4134 4.6194 2.5
      vertex 17.5 5 2.5
    endloop
  endfacet
  facet normal 0 0 1
    outer loop
      vertex -1.89203 -0.911156 2.5
      vertex -1.89203 0.911156 2.5
      vertex -7.44067 1.64185 2.5
    endloop
  endfacet
  facet normal 0 0 1
    outer loop
      vertex 8.28271 -2.04735 2.5
      vertex 1.30933 -1.64185 2.5
      vertex 19.4134 -4.6194 2.5
    endloop
  endfacet
  facet normal 0 0 1
    outer loop
      vertex 2.1 0 2.5
      vertex 1.30933 -1.64185 2.5
      vertex 8.28271 -2.04735 2.5
    endloop
  endfacet
  facet normal 0 0 1
    outer loop
      vertex 6.85797 0.911156 2.5
      vertex 8.28271 2.04735 2.5
      vertex -0.467294 2.04735 2.5
    endloop
  endfacet
  facet normal 0 0 1
    outer loop
      vertex -13.625 6.7117 2.5
      vertex -9.21729 2.04735 2.5
      vertex -8.903 5 2.5
    endloop
  endfacet
  facet normal 0 0 1
    outer loop
      vertex -13.625 6.7117 2.5
      vertex -8.903 5 2.5
      vertex -9.40983 5.87785 2.5
    endloop
  endfacet
  facet normal 0 0 1
    outer loop
      vertex -20.5902 9.51056 2.5
      vertex -27.2815 2.07912 2.5
      vertex -18.5453 9.94522 2.5
    endloop
  endfacet
  facet normal 0 0 1
    outer loop
      vertex -22.5 8.66025 2.5
      vertex -27.2815 2.07912 2.5
      vertex -20.5902 9.51056 2.5
    endloop
  endfacet
  facet normal 0 0 1
    outer loop
      vertex -24.1913 7.43145 2.5
      vertex -27.2815 2.07912 2.5
      vertex -22.5 8.66025 2.5
    endloop
  endfacet
  facet normal 0 0 1
    outer loop
      vertex -25.5902 5.87785 2.5
      vertex -27.2815 2.07912 2.5
      vertex -24.1913 7.43145 2.5
    endloop
  endfacet
  facet normal 0 0 1
    outer loop
      vertex -26.6355 4.06737 2.5
      vertex -27.2815 2.07912 2.5
      vertex -25.5902 5.87785 2.5
    endloop
  endfacet
  facet normal 0 0 1
    outer loop
      vertex -18.5453 -9.94522 2.5
      vertex -21.375 -6.7117 2.5
      vertex -20.5902 -9.51056 2.5
    endloop
  endfacet
  facet normal 0 0 1
    outer loop
      vertex -21.375 6.7117 2.5
      vertex -14.4098 9.51056 2.5
      vertex -16.4547 9.94522 2.5
    endloop
  endfacet
  facet normal 0 0 1
    outer loop
      vertex -13.625 6.7117 2.5
      vertex -9.40983 5.87785 2.5
      vertex -10.8087 7.43145 2.5
    endloop
  endfacet
  facet normal 0 0 1
    outer loop
      vertex -18.5453 9.94522 2.5
      vertex -21.375 6.7117 2.5
      vertex -16.4547 9.94522 2.5
    endloop
  endfacet
  facet normal 0 0 1
    outer loop
      vertex -18.5453 9.94522 2.5
      vertex -27.2815 2.07912 2.5
      vertex -21.375 6.7117 2.5
    endloop
  endfacet
  facet normal 0 0 1
    outer loop
      vertex -12.5 8.66025 2.5
      vertex -13.625 6.7117 2.5
      vertex -10.8087 7.43145 2.5
    endloop
  endfacet
  facet normal 0 0 1
    outer loop
      vertex -13.625 6.7117 2.5
      vertex -10.3914 1.111 2.5
      vertex -9.21729 2.04735 2.5
    endloop
  endfacet
  facet normal 0 0 1
    outer loop
      vertex -10.3914 -1.111 2.5
      vertex -9.40983 -5.87785 2.5
      vertex -8.903 -5 2.5
    endloop
  endfacet
  facet normal 0 0 1
    outer loop
      vertex 17.5 -5 2.5
      vertex -7.44067 -1.64185 2.5
      vertex -8.903 -5 2.5
    endloop
  endfacet
  facet normal 0 0 1
    outer loop
      vertex -7.44067 -1.64185 2.5
      vertex -9.21729 -2.04735 2.5
      vertex -8.903 -5 2.5
    endloop
  endfacet
  facet normal 0 0 1
    outer loop
      vertex -10.8087 -7.43145 2.5
      vertex -13.625 -6.7117 2.5
      vertex -12.5 -8.66025 2.5
    endloop
  endfacet
  facet normal 0 0 1
    outer loop
      vertex 8.28271 -2.04735 2.5
      vertex 6.85797 -0.911156 2.5
      vertex 2.1 0 2.5
    endloop
  endfacet
  facet normal 0 0 1
    outer loop
      vertex 21.0355 3.53553 2.5
      vertex -9.21729 2.04735 2.5
      vertex -0.467294 2.04735 2.5
    endloop
  endfacet
  facet normal 0 0 1
    outer loop
      vertex 10.85 0 2.5
      vertex 21.0355 -3.53553 2.5
      vertex 17.0327 -2.04735 2.5
    endloop
  endfacet
  facet normal 0 0 1
    outer loop
      vertex 22.5 0 2.5
      vertex 19.6 0 2.5
      vertex 22.1194 -1.91342 2.5
    endloop
  endfacet
  facet normal 0 0 1
    outer loop
      vertex -10.3914 -1.111 2.5
      vertex -10.8087 -7.43145 2.5
      vertex -9.40983 -5.87785 2.5
    endloop
  endfacet
  facet normal 0 0 1
    outer loop
      vertex 19.4134 -4.6194 2.5
      vertex -0.467294 -2.04735 2.5
      vertex 17.5 -5 2.5
    endloop
  endfacet
  facet normal 0 0 1
    outer loop
      vertex 17.0327 -2.04735 2.5
      vertex 15.608 -0.911156 2.5
      vertex 10.85 0 2.5
    endloop
  endfacet
  facet normal 0 0 1
    outer loop
      vertex -1.89203 0.911156 2.5
      vertex -9.21729 2.04735 2.5
      vertex -7.44067 1.64185 2.5
    endloop
  endfacet
  facet normal 0 0 1
    outer loop
      vertex 10.85 0 2.5
      vertex 10.0593 -1.64185 2.5
      vertex 21.0355 -3.53553 2.5
    endloop
  endfacet
  facet normal 0 0 1
    outer loop
      vertex 18.8093 1.64185 2.5
      vertex 22.5 0 2.5
      vertex 22.1194 1.91342 2.5
    endloop
  endfacet
  facet normal 0 0 1
    outer loop
      vertex 21.0355 3.53553 2.5
      vertex -0.467294 2.04735 2.5
      vertex 8.28271 2.04735 2.5
    endloop
  endfacet
  facet normal 0 0 1
    outer loop
      vertex 17.0327 2.04735 2.5
      vertex 18.8093 1.64185 2.5
      vertex 22.1194 1.91342 2.5
    endloop
  endfacet
  facet normal 0 0 1
    outer loop
      vertex 15.608 0.911156 2.5
      vertex 8.28271 2.04735 2.5
      vertex 10.0593 1.64185 2.5
    endloop
  endfacet
  facet normal 0 0 1
    outer loop
      vertex -10.3914 -1.111 2.5
      vertex -13.625 -6.7117 2.5
      vertex -10.8087 -7.43145 2.5
    endloop
  endfacet
  facet normal 0 0 1
    outer loop
      vertex -1.89203 0.911156 2.5
      vertex -0.467294 2.04735 2.5
      vertex -9.21729 2.04735 2.5
    endloop
  endfacet
  facet normal 0 0 1
    outer loop
      vertex 6.85797 0.911156 2.5
      vertex -0.467294 2.04735 2.5
      vertex 1.30933 1.64185 2.5
    endloop
  endfacet
  facet normal 0 0 1
    outer loop
      vertex 21.0355 3.53553 2.5
      vertex 17.0327 2.04735 2.5
      vertex 22.1194 1.91342 2.5
    endloop
  endfacet
  facet normal 0 0 1
    outer loop
      vertex 21.0355 3.53553 2.5
      vertex 8.28271 2.04735 2.5
      vertex 17.0327 2.04735 2.5
    endloop
  endfacet
  facet normal 0 0 1
    outer loop
      vertex 19.6 0 2.5
      vertex 18.8093 -1.64185 2.5
      vertex 22.1194 -1.91342 2.5
    endloop
  endfacet
  facet normal 0 0 1
    outer loop
      vertex 18.8093 1.64185 2.5
      vertex 19.6 0 2.5
      vertex 22.5 0 2.5
    endloop
  endfacet
  facet normal 0 0 1
    outer loop
      vertex 15.608 0.911156 2.5
      vertex 17.0327 2.04735 2.5
      vertex 8.28271 2.04735 2.5
    endloop
  endfacet
  facet normal 0 0 1
    outer loop
      vertex 6.85797 -0.911156 2.5
      vertex 1.30933 1.64185 2.5
      vertex 2.1 0 2.5
    endloop
  endfacet
  facet normal 0 0 1
    outer loop
      vertex -6.65 0 2.5
      vertex -7.44067 -1.64185 2.5
      vertex -0.467294 -2.04735 2.5
    endloop
  endfacet
  facet normal 0 0 1
    outer loop
      vertex 22.1194 -1.91342 2.5
      vertex 17.0327 -2.04735 2.5
      vertex 21.0355 -3.53553 2.5
    endloop
  endfacet
  facet normal 0 0 1
    outer loop
      vertex -21.375 -6.7117 2.5
      vertex -25.25 0 2.5
      vertex -27.2815 2.07912 2.5
    endloop
  endfacet
  facet normal 0 0 1
    outer loop
      vertex -13.625 -6.7117 2.5
      vertex -14.4098 -9.51056 2.5
      vertex -12.5 -8.66025 2.5
    endloop
  endfacet
  facet normal 0 0 1
    outer loop
      vertex -13.625 -6.7117 2.5
      vertex -16.4547 -9.94522 2.5
      vertex -14.4098 -9.51056 2.5
    endloop
  endfacet
  facet normal 0 0 1
    outer loop
      vertex -13.625 -6.7117 2.5
      vertex -18.5453 -9.94522 2.5
      vertex -16.4547 -9.94522 2.5
    endloop
  endfacet
  facet normal 0 0 1
    outer loop
      vertex -13.625 -6.7117 2.5
      vertex -21.375 -6.7117 2.5
      vertex -18.5453 -9.94522 2.5
    endloop
  endfacet
  facet normal 0 0 1
    outer loop
      vertex -8.903 5 2.5
      vertex 21.0355 3.53553 2.5
      vertex 19.4134 4.6194 2.5
    endloop
  endfacet
  facet normal 0 0 1
    outer loop
      vertex -8.903 5 2.5
      vertex -9.21729 2.04735 2.5
      vertex 21.0355 3.53553 2.5
    endloop
  endfacet
  facet normal 0 0 1
    outer loop
      vertex 8.28271 -2.04735 2.5
      vertex 19.4134 -4.6194 2.5
      vertex 21.0355 -3.53553 2.5
    endloop
  endfacet
  facet normal 0 0 1
    outer loop
      vertex 18.8093 -1.64185 2.5
      vertex 17.0327 -2.04735 2.5
      vertex 22.1194 -1.91342 2.5
    endloop
  endfacet
  facet normal 0 0 1
    outer loop
      vertex 6.85797 -0.911156 2.5
      vertex 6.85797 0.911156 2.5
      vertex 1.30933 1.64185 2.5
    endloop
  endfacet
  facet normal 0 0 1
    outer loop
      vertex -1.89203 -0.911156 2.5
      vertex -7.44067 1.64185 2.5
      vertex -6.65 0 2.5
    endloop
  endfacet
  facet normal 0 0 1
    outer loop
      vertex 15.608 -0.911156 2.5
      vertex 15.608 0.911156 2.5
      vertex 10.0593 1.64185 2.5
    endloop
  endfacet
  facet normal 0 0 1
    outer loop
      vertex 15.608 -0.911156 2.5
      vertex 10.0593 1.64185 2.5
      vertex 10.85 0 2.5
    endloop
  endfacet
  facet normal 0 0 1
    outer loop
      vertex 1.30933 -1.64185 2.5
      vertex -0.467294 -2.04735 2.5
      vertex 19.4134 -4.6194 2.5
    endloop
  endfacet
  facet normal 0 0 1
    outer loop
      vertex -10.3914 -1.111 2.5
      vertex -8.903 -5 2.5
      vertex -9.21729 -2.04735 2.5
    endloop
  endfacet
  facet normal 0 0 1
    outer loop
      vertex -0.467294 -2.04735 2.5
      vertex -7.44067 -1.64185 2.5
      vertex 17.5 -5 2.5
    endloop
  endfacet
  facet normal 0 0 1
    outer loop
      vertex 10.0593 -1.64185 2.5
      vertex 8.28271 -2.04735 2.5
      vertex 21.0355 -3.53553 2.5
    endloop
  endfacet
  facet normal 0 0 1
    outer loop
      vertex -0.467294 -2.04735 2.5
      vertex -1.89203 -0.911156 2.5
      vertex -6.65 0 2.5
    endloop
  endfacet
  facet normal 0 0 1
    outer loop
      vertex -25.25 0 2.5
      vertex -21.375 6.7117 2.5
      vertex -27.2815 2.07912 2.5
    endloop
  endfacet
  facet normal 0 0 1
    outer loop
      vertex -21.375 -6.7117 -0.5
      vertex -13.625 -6.7117 -0.5
      vertex -10.3914 -1.111 -0.5
    endloop
  endfacet
  facet normal 0 0 1
    outer loop
      vertex -16.233 -3.89933 -0.5
      vertex -17.5 -4.1 -0.5
      vertex -21.375 -6.7117 -0.5
    endloop
  endfacet
  facet normal 0 0 1
    outer loop
      vertex -15.0901 -3.31697 -0.5
      vertex -21.375 -6.7117 -0.5
      vertex -10.3914 -1.111 -0.5
    endloop
  endfacet
  facet normal 0 0 1
    outer loop
      vertex -14.183 -2.40992 -0.5
      vertex -15.0901 -3.31697 -0.5
      vertex -10.642 -0.911156 -0.5
    endloop
  endfacet
  facet normal 0 0 1
    outer loop
      vertex -13.4 0 -0.5
      vertex -10.642 0.911156 -0.5
      vertex -10.3914 1.111 -0.5
    endloop
  endfacet
  facet normal 0 0 1
    outer loop
      vertex -18.767 3.89933 -0.5
      vertex -17.5 4.1 -0.5
      vertex -13.625 6.7117 -0.5
    endloop
  endfacet
  facet normal 0 0 1
    outer loop
      vertex -25.25 0 -0.5
      vertex -21.6 0 -0.5
      vertex -21.375 6.7117 -0.5
    endloop
  endfacet
  facet normal 0 0 1
    outer loop
      vertex -25.25 0 -0.5
      vertex -21.375 -6.7117 -0.5
      vertex -21.6 0 -0.5
    endloop
  endfacet
  facet normal 0 0 1
    outer loop
      vertex -21.6 0 -0.5
      vertex -21.3993 1.26697 -0.5
      vertex -21.375 6.7117 -0.5
    endloop
  endfacet
  facet normal 0 0 1
    outer loop
      vertex -16.233 3.89933 -0.5
      vertex -15.0901 3.31697 -0.5
      vertex -13.625 6.7117 -0.5
    endloop
  endfacet
  facet normal 0 0 1
    outer loop
      vertex -21.375 6.7117 -0.5
      vertex -19.9099 3.31697 -0.5
      vertex -13.625 6.7117 -0.5
    endloop
  endfacet
  facet normal 0 0 1
    outer loop
      vertex -21.375 6.7117 -0.5
      vertex -20.817 2.40992 -0.5
      vertex -19.9099 3.31697 -0.5
    endloop
  endfacet
  facet normal 0 0 1
    outer loop
      vertex -19.9099 3.31697 -0.5
      vertex -18.767 3.89933 -0.5
      vertex -13.625 6.7117 -0.5
    endloop
  endfacet
  facet normal 0 0 1
    outer loop
      vertex -19.9099 -3.31697 -0.5
      vertex -20.817 -2.40992 -0.5
      vertex -21.375 -6.7117 -0.5
    endloop
  endfacet
  facet normal 0 0 1
    outer loop
      vertex -17.5 4.1 -0.5
      vertex -16.233 3.89933 -0.5
      vertex -13.625 6.7117 -0.5
    endloop
  endfacet
  facet normal 0 0 1
    outer loop
      vertex -13.625 6.7117 -0.5
      vertex -15.0901 3.31697 -0.5
      vertex -10.3914 1.111 -0.5
    endloop
  endfacet
  facet normal 0 0 1
    outer loop
      vertex -15.0901 3.31697 -0.5
      vertex -14.183 2.40992 -0.5
      vertex -10.3914 1.111 -0.5
    endloop
  endfacet
  facet normal 0 0 1
    outer loop
      vertex -20.817 -2.40992 -0.5
      vertex -21.3993 -1.26697 -0.5
      vertex -21.375 -6.7117 -0.5
    endloop
  endfacet
  facet normal 0 0 1
    outer loop
      vertex -14.183 2.40992 -0.5
      vertex -13.6007 1.26697 -0.5
      vertex -10.3914 1.111 -0.5
    endloop
  endfacet
  facet normal 0 0 1
    outer loop
      vertex -13.6007 1.26697 -0.5
      vertex -13.4 0 -0.5
      vertex -10.3914 1.111 -0.5
    endloop
  endfacet
  facet normal 0 0 1
    outer loop
      vertex -10.642 0.911156 -0.5
      vertex -13.6007 -1.26697 -0.5
      vertex -10.642 -0.911156 -0.5
    endloop
  endfacet
  facet normal 0 0 1
    outer loop
      vertex -15.0901 -3.31697 -0.5
      vertex -16.233 -3.89933 -0.5
      vertex -21.375 -6.7117 -0.5
    endloop
  endfacet
  facet normal 0 0 1
    outer loop
      vertex -13.6007 -1.26697 -0.5
      vertex -14.183 -2.40992 -0.5
      vertex -10.642 -0.911156 -0.5
    endloop
  endfacet
  facet normal 0 0 1
    outer loop
      vertex -10.642 -0.911156 -0.5
      vertex -15.0901 -3.31697 -0.5
      vertex -10.3914 -1.111 -0.5
    endloop
  endfacet
  facet normal 0 0 1
    outer loop
      vertex -18.767 -3.89933 -0.5
      vertex -19.9099 -3.31697 -0.5
      vertex -21.375 -6.7117 -0.5
    endloop
  endfacet
  facet normal 0 0 1
    outer loop
      vertex -21.6 0 -0.5
      vertex -21.375 -6.7117 -0.5
      vertex -21.3993 -1.26697 -0.5
    endloop
  endfacet
  facet normal 0 0 1
    outer loop
      vertex -21.3993 1.26697 -0.5
      vertex -20.817 2.40992 -0.5
      vertex -21.375 6.7117 -0.5
    endloop
  endfacet
  facet normal 0 0 1
    outer loop
      vertex -13.4 0 -0.5
      vertex -13.6007 -1.26697 -0.5
      vertex -10.642 0.911156 -0.5
    endloop
  endfacet
  facet normal 0 0 1
    outer loop
      vertex -17.5 -4.1 -0.5
      vertex -18.767 -3.89933 -0.5
      vertex -21.375 -6.7117 -0.5
    endloop
  endfacet
  facet normal -0.866025 -0.5 0
    outer loop
      vertex -10.3914 1.111 2.5
      vertex -13.625 6.7117 2.5
      vertex -10.3914 1.111 -0.5
    endloop
  endfacet
  facet normal -0.866025 -0.5 0
    outer loop
      vertex -10.3914 1.111 -0.5
      vertex -13.625 6.7117 2.5
      vertex -13.625 6.7117 -0.5
    endloop
  endfacet
  facet normal -0.866025 0.5 0
    outer loop
      vertex -10.3914 -1.111 2.5
      vertex -10.3914 -1.111 -0.5
      vertex -13.625 -6.7117 2.5
    endloop
  endfacet
  facet normal -0.866025 0.5 0
    outer loop
      vertex -13.625 -6.7117 2.5
      vertex -10.3914 -1.111 -0.5
      vertex -13.625 -6.7117 -0.5
    endloop
  endfacet
  facet normal 0.866025 0.5 0
    outer loop
      vertex -25.25 0 2.5
      vertex -21.375 -6.7117 2.5
      vertex -21.375 -6.7117 -0.5
    endloop
  endfacet
  facet normal 0.866025 0.5 0
    outer loop
      vertex -25.25 0 -0.5
      vertex -25.25 0 2.5
      vertex -21.375 -6.7117 -0.5
    endloop
  endfacet
  facet normal 0 1 0
    outer loop
      vertex -13.625 -6.7117 2.5
      vertex -13.625 -6.7117 -0.5
      vertex -21.375 -6.7117 2.5
    endloop
  endfacet
  facet normal 0 1 0
    outer loop
      vertex -21.375 -6.7117 2.5
      vertex -13.625 -6.7117 -0.5
      vertex -21.375 -6.7117 -0.5
    endloop
  endfacet
  facet normal 0 -1 0
    outer loop
      vertex -13.625 6.7117 -0.5
      vertex -13.625 6.7117 2.5
      vertex -21.375 6.7117 2.5
    endloop
  endfacet
  facet normal 0 -1 0
    outer loop
      vertex -21.375 6.7117 -0.5
      vertex -13.625 6.7117 -0.5
      vertex -21.375 6.7117 2.5
    endloop
  endfacet
  facet normal 0.866025 -0.5 0
    outer loop
      vertex -21.375 6.7117 -0.5
      vertex -21.375 6.7117 2.5
      vertex -25.25 0 2.5
    endloop
  endfacet
  facet normal 0.866025 -0.5 0
    outer loop
      vertex -25.25 0 -0.5
      vertex -21.375 6.7117 -0.5
      vertex -25.25 0 2.5
    endloop
  endfacet
endsolid OpenSCAD_Model
