solid OpenSCAD_Model
  facet normal -0.75471 -0.656059 0
    outer loop
      vertex -38 20.9374 0
      vertex -17.1989 -2.9915 0
      vertex -38 20.9374 5
    endloop
  endfacet
  facet normal -0.75471 -0.656059 0
    outer loop
      vertex -38 20.9374 5
      vertex -17.1989 -2.9915 0
      vertex -17.1989 -2.9915 5
    endloop
  endfacet
  facet normal 0 0 -1
    outer loop
      vertex -38 20.9374 0
      vertex -38 26.5 0
      vertex -17.1989 -2.9915 0
    endloop
  endfacet
  facet normal 0 0 -1
    outer loop
      vertex -17.1989 -2.9915 0
      vertex -38 26.5 0
      vertex 38 26.5 0
    endloop
  endfacet
  facet normal 0 0 -1
    outer loop
      vertex -1.29787 3.99444 0
      vertex 38 26.5 0
      vertex 38 20.9374 0
    endloop
  endfacet
  facet normal 0 0 -1
    outer loop
      vertex 4.2 0 0
      vertex 38 20.9374 0
      vertex 17.1989 -2.9915 0
    endloop
  endfacet
  facet normal 0 0 -1
    outer loop
      vertex 2.4687 -3.39787 0
      vertex 17.1989 -2.9915 0
      vertex 16.1803 -4.7557 0
    endloop
  endfacet
  facet normal 0 0 -1
    outer loop
      vertex 0 -4.2 0
      vertex 16.1803 -4.7557 0
      vertex 13.3826 -7.8629 0
    endloop
  endfacet
  facet normal 0 0 -1
    outer loop
      vertex -17.1989 -2.9915 0
      vertex 13.3826 -7.8629 0
      vertex 10 -10.3205 0
    endloop
  endfacet
  facet normal 0 0 -1
    outer loop
      vertex -17.1989 -2.9915 0
      vertex 10 -10.3205 0
      vertex 6.18034 -12.0211 0
    endloop
  endfacet
  facet normal 0 0 -1
    outer loop
      vertex -17.1989 -2.9915 0
      vertex 6.18034 -12.0211 0
      vertex 2.09057 -12.8904 0
    endloop
  endfacet
  facet normal 0 0 -1
    outer loop
      vertex -17.1989 -2.9915 0
      vertex 2.09057 -12.8904 0
      vertex -2.09057 -12.8904 0
    endloop
  endfacet
  facet normal 0 0 -1
    outer loop
      vertex -17.1989 -2.9915 0
      vertex -2.09057 -12.8904 0
      vertex -6.18034 -12.0211 0
    endloop
  endfacet
  facet normal 0 0 -1
    outer loop
      vertex -17.1989 -2.9915 0
      vertex -6.18034 -12.0211 0
      vertex -10 -10.3205 0
    endloop
  endfacet
  facet normal 0 0 -1
    outer loop
      vertex -17.1989 -2.9915 0
      vertex -10 -10.3205 0
      vertex -13.3826 -7.8629 0
    endloop
  endfacet
  facet normal 0 0 -1
    outer loop
      vertex -2.4687 -3.39787 0
      vertex -17.1989 -2.9915 0
      vertex -3.39787 -2.4687 0
    endloop
  endfacet
  facet normal 0 0 -1
    outer loop
      vertex -1.29787 3.99444 0
      vertex 38 20.9374 0
      vertex 0 4.2 0
    endloop
  endfacet
  facet normal 0 0 -1
    outer loop
      vertex -17.1989 -2.9915 0
      vertex -4.2 0 0
      vertex -3.99444 -1.29787 0
    endloop
  endfacet
  facet normal 0 0 -1
    outer loop
      vertex -17.1989 -2.9915 0
      vertex -3.99444 -1.29787 0
      vertex -3.39787 -2.4687 0
    endloop
  endfacet
  facet normal 0 0 -1
    outer loop
      vertex -1.29787 -3.99444 0
      vertex -17.1989 -2.9915 0
      vertex -2.4687 -3.39787 0
    endloop
  endfacet
  facet normal 0 0 -1
    outer loop
      vertex 2.4687 -3.39787 0
      vertex 16.1803 -4.7557 0
      vertex 1.29787 -3.99444 0
    endloop
  endfacet
  facet normal 0 0 -1
    outer loop
      vertex -17.1989 -2.9915 0
      vertex -1.29787 -3.99444 0
      vertex 13.3826 -7.8629 0
    endloop
  endfacet
  facet normal 0 0 -1
    outer loop
      vertex -1.29787 -3.99444 0
      vertex 0 -4.2 0
      vertex 13.3826 -7.8629 0
    endloop
  endfacet
  facet normal 0 0 -1
    outer loop
      vertex 1.29787 -3.99444 0
      vertex 16.1803 -4.7557 0
      vertex 0 -4.2 0
    endloop
  endfacet
  facet normal 0 0 -1
    outer loop
      vertex 3.39787 -2.4687 0
      vertex 17.1989 -2.9915 0
      vertex 2.4687 -3.39787 0
    endloop
  endfacet
  facet normal 0 0 -1
    outer loop
      vertex 3.99444 -1.29787 0
      vertex 17.1989 -2.9915 0
      vertex 3.39787 -2.4687 0
    endloop
  endfacet
  facet normal 0 0 -1
    outer loop
      vertex 4.2 0 0
      vertex 17.1989 -2.9915 0
      vertex 3.99444 -1.29787 0
    endloop
  endfacet
  facet normal 0 0 -1
    outer loop
      vertex 3.99444 1.29787 0
      vertex 38 20.9374 0
      vertex 4.2 0 0
    endloop
  endfacet
  facet normal 0 0 -1
    outer loop
      vertex 2.4687 3.39787 0
      vertex 38 20.9374 0
      vertex 3.39787 2.4687 0
    endloop
  endfacet
  facet normal 0 0 -1
    outer loop
      vertex 3.39787 2.4687 0
      vertex 38 20.9374 0
      vertex 3.99444 1.29787 0
    endloop
  endfacet
  facet normal 0 0 -1
    outer loop
      vertex 1.29787 3.99444 0
      vertex 38 20.9374 0
      vertex 2.4687 3.39787 0
    endloop
  endfacet
  facet normal 0 0 -1
    outer loop
      vertex 0 4.2 0
      vertex 38 20.9374 0
      vertex 1.29787 3.99444 0
    endloop
  endfacet
  facet normal 0 0 -1
    outer loop
      vertex -17.1989 -2.9915 0
      vertex 38 26.5 0
      vertex -1.29787 3.99444 0
    endloop
  endfacet
  facet normal 0 0 -1
    outer loop
      vertex -3.39787 2.4687 0
      vertex -17.1989 -2.9915 0
      vertex -2.4687 3.39787 0
    endloop
  endfacet
  facet normal 0 0 -1
    outer loop
      vertex -17.1989 -2.9915 0
      vertex -1.29787 3.99444 0
      vertex -2.4687 3.39787 0
    endloop
  endfacet
  facet normal 0 0 -1
    outer loop
      vertex -3.99444 1.29787 0
      vertex -17.1989 -2.9915 0
      vertex -3.39787 2.4687 0
    endloop
  endfacet
  facet normal 0 0 -1
    outer loop
      vertex -17.1989 -2.9915 0
      vertex -3.99444 1.29787 0
      vertex -4.2 0 0
    endloop
  endfacet
  facet normal 0 0 -1
    outer loop
      vertex -17.1989 -2.9915 0
      vertex -13.3826 -7.8629 0
      vertex -16.1803 -4.7557 0
    endloop
  endfacet
  facet normal -1 0 0
    outer loop
      vertex -38 20.9374 0
      vertex -38 20.9374 5
      vertex -38 26.5 0
    endloop
  endfacet
  facet normal -1 0 0
    outer loop
      vertex -38 26.5 0
      vertex -38 20.9374 5
      vertex -38 21.5 5
    endloop
  endfacet
  facet normal -1 0 0
    outer loop
      vertex -38 26.5 0
      vertex -38 21.5 5
      vertex -38 21.5 15
    endloop
  endfacet
  facet normal -1 0 0
    outer loop
      vertex -38 26.5 0
      vertex -38 21.5 15
      vertex -38 26.5 15
    endloop
  endfacet
  facet normal 0 0 1
    outer loop
      vertex -38 21.5 5
      vertex -38 20.9374 5
      vertex -17.1989 -2.9915 5
    endloop
  endfacet
  facet normal 0 0 1
    outer loop
      vertex -19.563 2.84177 5
      vertex -38 21.5 5
      vertex -18.2709 -1.13473 5
    endloop
  endfacet
  facet normal 0 0 1
    outer loop
      vertex -18.2709 -1.13473 5
      vertex -38 21.5 5
      vertex -17.1989 -2.9915 5
    endloop
  endfacet
  facet normal 0 0 1
    outer loop
      vertex -20 6 5
      vertex -38 21.5 5
      vertex -19.563 2.84177 5
    endloop
  endfacet
  facet normal 0 0 1
    outer loop
      vertex -19.8949 6 5
      vertex -20 6 5
      vertex -19.563 2.84177 5
    endloop
  endfacet
  facet normal 0 0 1
    outer loop
      vertex -20 6 5
      vertex -20 21.5 5
      vertex -38 21.5 5
    endloop
  endfacet
  facet normal -0.866025 -0.5 0
    outer loop
      vertex -18.2709 -1.13473 5
      vertex -17.1989 -2.9915 5
      vertex -18.2709 -1.13473 12
    endloop
  endfacet
  facet normal -0.866025 -0.5 0
    outer loop
      vertex -16.1803 -4.7557 0
      vertex -17.1989 -2.9915 5
      vertex -17.1989 -2.9915 0
    endloop
  endfacet
  facet normal -0.866025 -0.5 0
    outer loop
      vertex -18.2709 -1.13473 12
      vertex -17.1989 -2.9915 5
      vertex -16.1803 -4.7557 0
    endloop
  endfacet
  facet normal -0.866025 -0.5 0
    outer loop
      vertex -18.2709 -1.13473 12
      vertex -16.1803 -4.7557 0
      vertex -16.1803 -4.7557 12
    endloop
  endfacet
  facet normal -0.743145 -0.669131 0
    outer loop
      vertex -16.1803 -4.7557 0
      vertex -13.3826 -7.8629 0
      vertex -16.1803 -4.7557 12
    endloop
  endfacet
  facet normal -0.743145 -0.669131 0
    outer loop
      vertex -16.1803 -4.7557 12
      vertex -13.3826 -7.8629 0
      vertex -13.3826 -7.8629 12
    endloop
  endfacet
  facet normal -0.587785 -0.809017 0
    outer loop
      vertex -13.3826 -7.8629 12
      vertex -13.3826 -7.8629 0
      vertex -10 -10.3205 0
    endloop
  endfacet
  facet normal -0.587785 -0.809017 0
    outer loop
      vertex -10 -10.3205 12
      vertex -13.3826 -7.8629 12
      vertex -10 -10.3205 0
    endloop
  endfacet
  facet normal -0.406737 -0.913545 0
    outer loop
      vertex -10 -10.3205 12
      vertex -10 -10.3205 0
      vertex -6.18034 -12.0211 0
    endloop
  endfacet
  facet normal -0.406737 -0.913545 0
    outer loop
      vertex -6.18034 -12.0211 12
      vertex -10 -10.3205 12
      vertex -6.18034 -12.0211 0
    endloop
  endfacet
  facet normal -0.207912 -0.978148 0
    outer loop
      vertex -6.18034 -12.0211 12
      vertex -6.18034 -12.0211 0
      vertex -2.09057 -12.8904 0
    endloop
  endfacet
  facet normal -0.207912 -0.978148 0
    outer loop
      vertex -2.09057 -12.8904 12
      vertex -6.18034 -12.0211 12
      vertex -2.09057 -12.8904 0
    endloop
  endfacet
  facet normal 0 -1 0
    outer loop
      vertex -2.09057 -12.8904 12
      vertex -2.09057 -12.8904 0
      vertex 2.09057 -12.8904 0
    endloop
  endfacet
  facet normal 0 -1 0
    outer loop
      vertex 2.09057 -12.8904 12
      vertex -2.09057 -12.8904 12
      vertex 2.09057 -12.8904 0
    endloop
  endfacet
  facet normal 0.207912 -0.978148 0
    outer loop
      vertex 2.09057 -12.8904 12
      vertex 2.09057 -12.8904 0
      vertex 6.18034 -12.0211 0
    endloop
  endfacet
  facet normal 0.207912 -0.978148 0
    outer loop
      vertex 6.18034 -12.0211 12
      vertex 2.09057 -12.8904 12
      vertex 6.18034 -12.0211 0
    endloop
  endfacet
  facet normal 0.406737 -0.913545 0
    outer loop
      vertex 6.18034 -12.0211 12
      vertex 6.18034 -12.0211 0
      vertex 10 -10.3205 0
    endloop
  endfacet
  facet normal 0.406737 -0.913545 0
    outer loop
      vertex 10 -10.3205 12
      vertex 6.18034 -12.0211 12
      vertex 10 -10.3205 0
    endloop
  endfacet
  facet normal 0.587785 -0.809017 0
    outer loop
      vertex 10 -10.3205 12
      vertex 10 -10.3205 0
      vertex 13.3826 -7.8629 0
    endloop
  endfacet
  facet normal 0.587785 -0.809017 0
    outer loop
      vertex 13.3826 -7.8629 12
      vertex 10 -10.3205 12
      vertex 13.3826 -7.8629 0
    endloop
  endfacet
  facet normal 0.743145 -0.669131 0
    outer loop
      vertex 13.3826 -7.8629 12
      vertex 13.3826 -7.8629 0
      vertex 16.1803 -4.7557 0
    endloop
  endfacet
  facet normal 0.743145 -0.669131 0
    outer loop
      vertex 16.1803 -4.7557 12
      vertex 13.3826 -7.8629 12
      vertex 16.1803 -4.7557 0
    endloop
  endfacet
  facet normal 0.866025 -0.5 0
    outer loop
      vertex 16.1803 -4.7557 12
      vertex 16.1803 -4.7557 0
      vertex 17.1989 -2.9915 0
    endloop
  endfacet
  facet normal 0.866025 -0.5 0
    outer loop
      vertex 18.2709 -1.13473 5
      vertex 16.1803 -4.7557 12
      vertex 17.1989 -2.9915 5
    endloop
  endfacet
  facet normal 0.866025 -0.5 0
    outer loop
      vertex 17.1989 -2.9915 5
      vertex 16.1803 -4.7557 12
      vertex 17.1989 -2.9915 0
    endloop
  endfacet
  facet normal 0.866025 -0.5 0
    outer loop
      vertex 18.2709 -1.13473 12
      vertex 16.1803 -4.7557 12
      vertex 18.2709 -1.13473 5
    endloop
  endfacet
  facet normal 0.75471 -0.656059 0
    outer loop
      vertex 17.1989 -2.9915 5
      vertex 17.1989 -2.9915 0
      vertex 38 20.9374 0
    endloop
  endfacet
  facet normal 0.75471 -0.656059 0
    outer loop
      vertex 38 20.9374 5
      vertex 17.1989 -2.9915 5
      vertex 38 20.9374 0
    endloop
  endfacet
  facet normal 1 0 0
    outer loop
      vertex 38 20.9374 5
      vertex 38 20.9374 0
      vertex 38 26.5 0
    endloop
  endfacet
  facet normal 1 0 0
    outer loop
      vertex 38 21.5 5
      vertex 38 20.9374 5
      vertex 38 26.5 0
    endloop
  endfacet
  facet normal 1 0 0
    outer loop
      vertex 38 26.5 15
      vertex 38 21.5 5
      vertex 38 26.5 0
    endloop
  endfacet
  facet normal 1 0 0
    outer loop
      vertex 38 21.5 15
      vertex 38 21.5 5
      vertex 38 26.5 15
    endloop
  endfacet
  facet normal 0 1 0
    outer loop
      vertex -32.892 26.5 15.9112
      vertex -38 26.5 15
      vertex -38 26.5 18.8197
    endloop
  endfacet
  facet normal 0 1 0
    outer loop
      vertex 38 26.5 0
      vertex -38 26.5 18.8197
      vertex -29.4935 26.5 25
    endloop
  endfacet
  facet normal 0 1 0
    outer loop
      vertex 29.108 26.5 15.9112
      vertex -29.4935 26.5 25
      vertex 29.4935 26.5 25
    endloop
  endfacet
  facet normal 0 1 0
    outer loop
      vertex 38 26.5 15
      vertex 29.4935 26.5 25
      vertex 38 26.5 18.8197
    endloop
  endfacet
  facet normal 0 1 0
    outer loop
      vertex 33.1 26.5 15
      vertex 29.4935 26.5 25
      vertex 38 26.5 15
    endloop
  endfacet
  facet normal 0 1 0
    outer loop
      vertex -32.892 26.5 14.0888
      vertex -38 26.5 15
      vertex -32.892 26.5 15.9112
    endloop
  endfacet
  facet normal 0 1 0
    outer loop
      vertex -31.4673 26.5 17.0473
      vertex -32.892 26.5 15.9112
      vertex -38 26.5 18.8197
    endloop
  endfacet
  facet normal 0 1 0
    outer loop
      vertex -38 26.5 0
      vertex -38 26.5 15
      vertex -31.4673 26.5 12.9527
    endloop
  endfacet
  facet normal 0 1 0
    outer loop
      vertex -38 26.5 0
      vertex -31.4673 26.5 12.9527
      vertex 38 26.5 0
    endloop
  endfacet
  facet normal 0 1 0
    outer loop
      vertex -28.9 26.5 15
      vertex 38 26.5 0
      vertex -29.6907 26.5 13.3582
    endloop
  endfacet
  facet normal 0 1 0
    outer loop
      vertex -31.4673 26.5 12.9527
      vertex -29.6907 26.5 13.3582
      vertex 38 26.5 0
    endloop
  endfacet
  facet normal 0 1 0
    outer loop
      vertex -29.6907 26.5 16.6418
      vertex 38 26.5 0
      vertex -28.9 26.5 15
    endloop
  endfacet
  facet normal 0 1 0
    outer loop
      vertex 32.3093 26.5 13.3582
      vertex 38 26.5 0
      vertex 30.5327 26.5 12.9527
    endloop
  endfacet
  facet normal 0 1 0
    outer loop
      vertex 38 26.5 0
      vertex -29.6907 26.5 16.6418
      vertex -38 26.5 18.8197
    endloop
  endfacet
  facet normal 0 1 0
    outer loop
      vertex -29.6907 26.5 16.6418
      vertex -31.4673 26.5 17.0473
      vertex -38 26.5 18.8197
    endloop
  endfacet
  facet normal 0 1 0
    outer loop
      vertex 29.108 26.5 14.0888
      vertex -29.4935 26.5 25
      vertex 29.108 26.5 15.9112
    endloop
  endfacet
  facet normal 0 1 0
    outer loop
      vertex 30.5327 26.5 17.0473
      vertex 29.108 26.5 15.9112
      vertex 29.4935 26.5 25
    endloop
  endfacet
  facet normal 0 1 0
    outer loop
      vertex 38 26.5 0
      vertex -29.4935 26.5 25
      vertex 29.108 26.5 14.0888
    endloop
  endfacet
  facet normal 0 1 0
    outer loop
      vertex 38 26.5 0
      vertex 29.108 26.5 14.0888
      vertex 30.5327 26.5 12.9527
    endloop
  endfacet
  facet normal 0 1 0
    outer loop
      vertex 32.3093 26.5 16.6418
      vertex 29.4935 26.5 25
      vertex 33.1 26.5 15
    endloop
  endfacet
  facet normal 0 1 0
    outer loop
      vertex 33.1 26.5 15
      vertex 38 26.5 0
      vertex 32.3093 26.5 13.3582
    endloop
  endfacet
  facet normal 0 1 0
    outer loop
      vertex 30.5327 26.5 17.0473
      vertex 29.4935 26.5 25
      vertex 32.3093 26.5 16.6418
    endloop
  endfacet
  facet normal 0 1 0
    outer loop
      vertex 38 26.5 0
      vertex 33.1 26.5 15
      vertex 38 26.5 15
    endloop
  endfacet
  facet normal 0 1 0
    outer loop
      vertex -31.4673 26.5 12.9527
      vertex -38 26.5 15
      vertex -32.892 26.5 14.0888
    endloop
  endfacet
  facet normal 0.987688 0.156435 0
    outer loop
      vertex -4.2 0 4
      vertex -3.99444 -1.29787 4
      vertex -3.99444 -1.29787 0
    endloop
  endfacet
  facet normal 0.987688 0.156435 0
    outer loop
      vertex -4.2 0 0
      vertex -4.2 0 4
      vertex -3.99444 -1.29787 0
    endloop
  endfacet
  facet normal 0.987688 -0.156435 0
    outer loop
      vertex -3.99444 1.29787 0
      vertex -3.99444 1.29787 4
      vertex -4.2 0 4
    endloop
  endfacet
  facet normal 0.987688 -0.156435 0
    outer loop
      vertex -4.2 0 0
      vertex -3.99444 1.29787 0
      vertex -4.2 0 4
    endloop
  endfacet
  facet normal 0.891007 -0.45399 0
    outer loop
      vertex -3.39787 2.4687 0
      vertex -3.39787 2.4687 4
      vertex -3.99444 1.29787 4
    endloop
  endfacet
  facet normal 0.891007 -0.45399 0
    outer loop
      vertex -3.99444 1.29787 0
      vertex -3.39787 2.4687 0
      vertex -3.99444 1.29787 4
    endloop
  endfacet
  facet normal 0.707107 -0.707107 0
    outer loop
      vertex -2.4687 3.39787 0
      vertex -2.4687 3.39787 4
      vertex -3.39787 2.4687 4
    endloop
  endfacet
  facet normal 0.707107 -0.707107 0
    outer loop
      vertex -3.39787 2.4687 0
      vertex -2.4687 3.39787 0
      vertex -3.39787 2.4687 4
    endloop
  endfacet
  facet normal 0.45399 -0.891007 0
    outer loop
      vertex -1.29787 3.99444 0
      vertex -1.29787 3.99444 4
      vertex -2.4687 3.39787 4
    endloop
  endfacet
  facet normal 0.45399 -0.891007 0
    outer loop
      vertex -2.4687 3.39787 0
      vertex -1.29787 3.99444 0
      vertex -2.4687 3.39787 4
    endloop
  endfacet
  facet normal 0.156435 -0.987688 0
    outer loop
      vertex 0 4.2 0
      vertex 0 4.2 4
      vertex -1.29787 3.99444 4
    endloop
  endfacet
  facet normal 0.156435 -0.987688 0
    outer loop
      vertex -1.29787 3.99444 0
      vertex 0 4.2 0
      vertex -1.29787 3.99444 4
    endloop
  endfacet
  facet normal -0.156435 -0.987688 0
    outer loop
      vertex 1.29787 3.99444 0
      vertex 1.29787 3.99444 4
      vertex 0 4.2 4
    endloop
  endfacet
  facet normal -0.156435 -0.987688 0
    outer loop
      vertex 0 4.2 0
      vertex 1.29787 3.99444 0
      vertex 0 4.2 4
    endloop
  endfacet
  facet normal -0.45399 -0.891007 0
    outer loop
      vertex 2.4687 3.39787 0
      vertex 2.4687 3.39787 4
      vertex 1.29787 3.99444 4
    endloop
  endfacet
  facet normal -0.45399 -0.891007 0
    outer loop
      vertex 1.29787 3.99444 0
      vertex 2.4687 3.39787 0
      vertex 1.29787 3.99444 4
    endloop
  endfacet
  facet normal -0.707107 -0.707107 0
    outer loop
      vertex 3.39787 2.4687 0
      vertex 3.39787 2.4687 4
      vertex 2.4687 3.39787 4
    endloop
  endfacet
  facet normal -0.707107 -0.707107 0
    outer loop
      vertex 2.4687 3.39787 0
      vertex 3.39787 2.4687 0
      vertex 2.4687 3.39787 4
    endloop
  endfacet
  facet normal -0.891007 -0.45399 0
    outer loop
      vertex 3.99444 1.29787 4
      vertex 3.39787 2.4687 4
      vertex 3.99444 1.29787 0
    endloop
  endfacet
  facet normal -0.891007 -0.45399 0
    outer loop
      vertex 3.99444 1.29787 0
      vertex 3.39787 2.4687 4
      vertex 3.39787 2.4687 0
    endloop
  endfacet
  facet normal -0.987688 -0.156435 0
    outer loop
      vertex 4.2 0 4
      vertex 3.99444 1.29787 4
      vertex 4.2 0 0
    endloop
  endfacet
  facet normal -0.987688 -0.156435 0
    outer loop
      vertex 4.2 0 0
      vertex 3.99444 1.29787 4
      vertex 3.99444 1.29787 0
    endloop
  endfacet
  facet normal -0.987688 0.156435 0
    outer loop
      vertex 4.2 0 4
      vertex 4.2 0 0
      vertex 3.99444 -1.29787 4
    endloop
  endfacet
  facet normal -0.987688 0.156435 0
    outer loop
      vertex 3.99444 -1.29787 4
      vertex 4.2 0 0
      vertex 3.99444 -1.29787 0
    endloop
  endfacet
  facet normal -0.891007 0.45399 0
    outer loop
      vertex 3.99444 -1.29787 4
      vertex 3.99444 -1.29787 0
      vertex 3.39787 -2.4687 4
    endloop
  endfacet
  facet normal -0.891007 0.45399 0
    outer loop
      vertex 3.39787 -2.4687 4
      vertex 3.99444 -1.29787 0
      vertex 3.39787 -2.4687 0
    endloop
  endfacet
  facet normal -0.707107 0.707107 0
    outer loop
      vertex 3.39787 -2.4687 4
      vertex 3.39787 -2.4687 0
      vertex 2.4687 -3.39787 4
    endloop
  endfacet
  facet normal -0.707107 0.707107 0
    outer loop
      vertex 2.4687 -3.39787 4
      vertex 3.39787 -2.4687 0
      vertex 2.4687 -3.39787 0
    endloop
  endfacet
  facet normal -0.45399 0.891007 0
    outer loop
      vertex 2.4687 -3.39787 4
      vertex 2.4687 -3.39787 0
      vertex 1.29787 -3.99444 4
    endloop
  endfacet
  facet normal -0.45399 0.891007 0
    outer loop
      vertex 1.29787 -3.99444 4
      vertex 2.4687 -3.39787 0
      vertex 1.29787 -3.99444 0
    endloop
  endfacet
  facet normal -0.156435 0.987688 0
    outer loop
      vertex 1.29787 -3.99444 4
      vertex 1.29787 -3.99444 0
      vertex 0 -4.2 4
    endloop
  endfacet
  facet normal -0.156435 0.987688 0
    outer loop
      vertex 0 -4.2 4
      vertex 1.29787 -3.99444 0
      vertex 0 -4.2 0
    endloop
  endfacet
  facet normal 0.156435 0.987688 0
    outer loop
      vertex 0 -4.2 4
      vertex 0 -4.2 0
      vertex -1.29787 -3.99444 4
    endloop
  endfacet
  facet normal 0.156435 0.987688 0
    outer loop
      vertex -1.29787 -3.99444 4
      vertex 0 -4.2 0
      vertex -1.29787 -3.99444 0
    endloop
  endfacet
  facet normal 0.45399 0.891007 0
    outer loop
      vertex -1.29787 -3.99444 4
      vertex -1.29787 -3.99444 0
      vertex -2.4687 -3.39787 4
    endloop
  endfacet
  facet normal 0.45399 0.891007 0
    outer loop
      vertex -2.4687 -3.39787 4
      vertex -1.29787 -3.99444 0
      vertex -2.4687 -3.39787 0
    endloop
  endfacet
  facet normal 0.707107 0.707107 0
    outer loop
      vertex -2.4687 -3.39787 4
      vertex -2.4687 -3.39787 0
      vertex -3.39787 -2.4687 4
    endloop
  endfacet
  facet normal 0.707107 0.707107 0
    outer loop
      vertex -3.39787 -2.4687 4
      vertex -2.4687 -3.39787 0
      vertex -3.39787 -2.4687 0
    endloop
  endfacet
  facet normal 0.891007 0.45399 0
    outer loop
      vertex -3.99444 -1.29787 4
      vertex -3.39787 -2.4687 4
      vertex -3.39787 -2.4687 0
    endloop
  endfacet
  facet normal 0.891007 0.45399 0
    outer loop
      vertex -3.99444 -1.29787 0
      vertex -3.99444 -1.29787 4
      vertex -3.39787 -2.4687 0
    endloop
  endfacet
  facet normal -1 0 0
    outer loop
      vertex -38 21.5 15
      vertex -38 21.5 18.8197
      vertex -38 26.5 15
    endloop
  endfacet
  facet normal -1 0 0
    outer loop
      vertex -38 26.5 15
      vertex -38 21.5 18.8197
      vertex -38 26.5 18.8197
    endloop
  endfacet
  facet normal 0 -1 0
    outer loop
      vertex -38 21.5 15
      vertex -38 21.5 5
      vertex -20 21.5 5
    endloop
  endfacet
  facet normal 0 -1 0
    outer loop
      vertex -31.4673 21.5 12.9527
      vertex -38 21.5 15
      vertex -20 21.5 5
    endloop
  endfacet
  facet normal 0 -1 0
    outer loop
      vertex 38 21.5 5
      vertex 20 21.5 12
      vertex 20 21.5 5
    endloop
  endfacet
  facet normal 0 -1 0
    outer loop
      vertex 30.5327 21.5 12.9527
      vertex 20 21.5 12
      vertex 38 21.5 5
    endloop
  endfacet
  facet normal 0 -1 0
    outer loop
      vertex -38 21.5 18.8197
      vertex -38 21.5 15
      vertex -29.4935 21.5 25
    endloop
  endfacet
  facet normal 0 -1 0
    outer loop
      vertex -7.58625 21.5 20.5709
      vertex -1.638 21.5 20.0765
      vertex -0.196 21.5 20.5997
    endloop
  endfacet
  facet normal 0 -1 0
    outer loop
      vertex -29.4935 21.5 25
      vertex -38 21.5 15
      vertex -32.892 21.5 15.9112
    endloop
  endfacet
  facet normal 0 -1 0
    outer loop
      vertex -29.4935 21.5 25
      vertex -32.892 21.5 15.9112
      vertex -31.4673 21.5 17.0473
    endloop
  endfacet
  facet normal 0 -1 0
    outer loop
      vertex -20 21.5 12
      vertex -29.6907 21.5 13.3582
      vertex -20 21.5 5
    endloop
  endfacet
  facet normal 0 -1 0
    outer loop
      vertex -7.58625 21.5 20.5709
      vertex -0.196 21.5 20.5997
      vertex 29.4935 21.5 25
    endloop
  endfacet
  facet normal 0 -1 0
    outer loop
      vertex -32.892 21.5 14.0888
      vertex -38 21.5 15
      vertex -31.4673 21.5 12.9527
    endloop
  endfacet
  facet normal 0 -1 0
    outer loop
      vertex -29.4935 21.5 25
      vertex -12.0312 21.5 20.5709
      vertex 29.4935 21.5 25
    endloop
  endfacet
  facet normal 0 -1 0
    outer loop
      vertex -29.4935 21.5 25
      vertex -31.4673 21.5 17.0473
      vertex -12.0312 21.5 20.5709
    endloop
  endfacet
  facet normal 0 -1 0
    outer loop
      vertex -12.0312 21.5 20.5709
      vertex -11.3347 21.5 20.5709
      vertex 29.4935 21.5 25
    endloop
  endfacet
  facet normal 0 -1 0
    outer loop
      vertex -0.993125 21.5 14.8046
      vertex -1.32212 21.5 14.3347
      vertex 4.18337 21.5 14.4887
    endloop
  endfacet
  facet normal 0 -1 0
    outer loop
      vertex -0.7805 21.5 16.1145
      vertex 0.618625 21.5 17.6116
      vertex -2.2575 21.5 18.5549
    endloop
  endfacet
  facet normal 0 -1 0
    outer loop
      vertex -7.58625 21.5 20.5709
      vertex -2.40537 21.5 13.5
      vertex -2.31437 21.5 14.1029
    endloop
  endfacet
  facet normal 0 -1 0
    outer loop
      vertex 29.108 21.5 14.0888
      vertex 29.108 21.5 15.9112
      vertex 11.417 21.5 17.1076
    endloop
  endfacet
  facet normal 0 -1 0
    outer loop
      vertex -11.3347 21.5 20.5709
      vertex -8.2425 21.5 20.5709
      vertex 29.4935 21.5 25
    endloop
  endfacet
  facet normal 0 -1 0
    outer loop
      vertex -8.2425 21.5 20.5709
      vertex -7.58625 21.5 20.5709
      vertex 29.4935 21.5 25
    endloop
  endfacet
  facet normal 0 -1 0
    outer loop
      vertex 20 21.5 12
      vertex -9.4885 21.5 13.5
      vertex -20 21.5 12
    endloop
  endfacet
  facet normal 0 -1 0
    outer loop
      vertex -9.4885 21.5 13.5
      vertex -10.1482 21.5 13.5
      vertex -20 21.5 12
    endloop
  endfacet
  facet normal 0 -1 0
    outer loop
      vertex -2.40537 21.5 13.5
      vertex -9.4885 21.5 13.5
      vertex 20 21.5 12
    endloop
  endfacet
  facet normal 0 -1 0
    outer loop
      vertex -2.31437 21.5 14.1029
      vertex -1.80075 21.5 15.0435
      vertex -7.58625 21.5 20.5709
    endloop
  endfacet
  facet normal 0 -1 0
    outer loop
      vertex -7.58625 21.5 20.5709
      vertex -9.4885 21.5 13.5
      vertex -2.40537 21.5 13.5
    endloop
  endfacet
  facet normal 0 -1 0
    outer loop
      vertex 11.417 21.5 17.1076
      vertex 29.108 21.5 15.9112
      vertex 30.5327 21.5 17.0473
    endloop
  endfacet
  facet normal 0 -1 0
    outer loop
      vertex -7.58625 21.5 20.5709
      vertex -1.80075 21.5 15.0435
      vertex -0.7805 21.5 16.1145
    endloop
  endfacet
  facet normal 0 -1 0
    outer loop
      vertex -1.45687 21.5 18.463
      vertex 0.618625 21.5 17.6116
      vertex 0.982625 21.5 18.6564
    endloop
  endfacet
  facet normal 0 -1 0
    outer loop
      vertex -9.555 21.5 15.4346
      vertex -8.2425 21.5 20.5709
      vertex -11.3347 21.5 20.5709
    endloop
  endfacet
  facet normal 0 -1 0
    outer loop
      vertex -2.2575 21.5 18.5549
      vertex -1.638 21.5 20.0765
      vertex -7.58625 21.5 20.5709
    endloop
  endfacet
  facet normal 0 -1 0
    outer loop
      vertex -0.212625 21.5 19.8814
      vertex -1.11387 21.5 19.5051
      vertex 0.651 21.5 19.527
    endloop
  endfacet
  facet normal 0 -1 0
    outer loop
      vertex -9.555 21.5 15.4346
      vertex -11.3347 21.5 20.5709
      vertex -10.0721 21.5 15.4346
    endloop
  endfacet
  facet normal 0 -1 0
    outer loop
      vertex 0.651 21.5 19.527
      vertex -1.45687 21.5 18.463
      vertex 0.982625 21.5 18.6564
    endloop
  endfacet
  facet normal 0 -1 0
    outer loop
      vertex -1.11387 21.5 19.5051
      vertex -1.45687 21.5 18.463
      vertex 0.651 21.5 19.527
    endloop
  endfacet
  facet normal 0 -1 0
    outer loop
      vertex 1.25125 21.5 20.0354
      vertex 9.31787 21.5 20.7205
      vertex 29.4935 21.5 25
    endloop
  endfacet
  facet normal 0 -1 0
    outer loop
      vertex -0.196 21.5 20.5997
      vertex 1.25125 21.5 20.0354
      vertex 29.4935 21.5 25
    endloop
  endfacet
  facet normal 0 -1 0
    outer loop
      vertex 1.79287 21.5 14.3347
      vertex 1.79287 21.5 13.5
      vertex 4.18337 21.5 13.5
    endloop
  endfacet
  facet normal 0 -1 0
    outer loop
      vertex 7.21875 21.5 17.1076
      vertex 1.62837 21.5 17.8024
      vertex 1.11038 21.5 16.9387
    endloop
  endfacet
  facet normal 0 -1 0
    outer loop
      vertex 10.8727 21.5 19.8306
      vertex 11.2717 21.5 18.7789
      vertex 38 21.5 18.8197
    endloop
  endfacet
  facet normal 0 -1 0
    outer loop
      vertex 29.108 21.5 14.0888
      vertex 11.417 21.5 17.1076
      vertex 11.1842 21.5 15.0995
    endloop
  endfacet
  facet normal 0 -1 0
    outer loop
      vertex 5.17212 21.5 14.4887
      vertex -0.993125 21.5 14.8046
      vertex 4.18337 21.5 14.4887
    endloop
  endfacet
  facet normal 0 -1 0
    outer loop
      vertex 1.25125 21.5 20.0354
      vertex 1.78412 21.5 18.6371
      vertex 8.15237 21.5 20.3057
    endloop
  endfacet
  facet normal 0 -1 0
    outer loop
      vertex 4.18337 21.5 13.5
      vertex 4.18337 21.5 14.4887
      vertex 1.79287 21.5 14.3347
    endloop
  endfacet
  facet normal 0 -1 0
    outer loop
      vertex 1.25125 21.5 20.0354
      vertex 8.15237 21.5 20.3057
      vertex 9.31787 21.5 20.7205
    endloop
  endfacet
  facet normal 0 -1 0
    outer loop
      vertex 5.17212 21.5 13.5
      vertex 4.18337 21.5 13.5
      vertex 20 21.5 12
    endloop
  endfacet
  facet normal 0 -1 0
    outer loop
      vertex 9.31787 21.5 13.5
      vertex 7.85575 21.5 14.2332
      vertex 5.17212 21.5 14.4887
    endloop
  endfacet
  facet normal 0 -1 0
    outer loop
      vertex 9.31787 21.5 13.5
      vertex 5.17212 21.5 13.5
      vertex 20 21.5 12
    endloop
  endfacet
  facet normal 0 -1 0
    outer loop
      vertex 11.417 21.5 17.1076
      vertex 30.5327 21.5 17.0473
      vertex 38 21.5 18.8197
    endloop
  endfacet
  facet normal 0 -1 0
    outer loop
      vertex 7.45412 21.5 19.1262
      vertex 1.78412 21.5 18.6371
      vertex 1.62837 21.5 17.8024
    endloop
  endfacet
  facet normal 0 -1 0
    outer loop
      vertex 11.2717 21.5 18.7789
      vertex 11.417 21.5 17.1076
      vertex 38 21.5 18.8197
    endloop
  endfacet
  facet normal 0 -1 0
    outer loop
      vertex 29.108 21.5 14.0888
      vertex 11.1842 21.5 15.0995
      vertex 10.4886 21.5 13.9174
    endloop
  endfacet
  facet normal 0 -1 0
    outer loop
      vertex 30.5327 21.5 17.0473
      vertex 32.3093 21.5 16.6418
      vertex 38 21.5 18.8197
    endloop
  endfacet
  facet normal 0 -1 0
    outer loop
      vertex 10.227 21.5 20.4912
      vertex 10.8727 21.5 19.8306
      vertex 29.4935 21.5 25
    endloop
  endfacet
  facet normal 0 -1 0
    outer loop
      vertex 4.18337 21.5 13.5
      vertex 1.79287 21.5 13.5
      vertex 20 21.5 12
    endloop
  endfacet
  facet normal 0 -1 0
    outer loop
      vertex 9.31787 21.5 20.7205
      vertex 10.227 21.5 20.4912
      vertex 29.4935 21.5 25
    endloop
  endfacet
  facet normal 0 -1 0
    outer loop
      vertex 29.4935 21.5 25
      vertex 10.8727 21.5 19.8306
      vertex 38 21.5 18.8197
    endloop
  endfacet
  facet normal 0 -1 0
    outer loop
      vertex 29.108 21.5 14.0888
      vertex 10.4886 21.5 13.9174
      vertex 9.31787 21.5 13.5
    endloop
  endfacet
  facet normal 0 -1 0
    outer loop
      vertex 29.108 21.5 14.0888
      vertex 9.31787 21.5 13.5
      vertex 20 21.5 12
    endloop
  endfacet
  facet normal 0 -1 0
    outer loop
      vertex 30.5327 21.5 12.9527
      vertex 29.108 21.5 14.0888
      vertex 20 21.5 12
    endloop
  endfacet
  facet normal 0 -1 0
    outer loop
      vertex 1.79287 21.5 14.3347
      vertex 4.18337 21.5 14.4887
      vertex -1.32212 21.5 14.3347
    endloop
  endfacet
  facet normal 0 -1 0
    outer loop
      vertex 33.1 21.5 15
      vertex 32.3093 21.5 13.3582
      vertex 38 21.5 15
    endloop
  endfacet
  facet normal 0 -1 0
    outer loop
      vertex 7.45412 21.5 19.1262
      vertex 8.15237 21.5 20.3057
      vertex 1.78412 21.5 18.6371
    endloop
  endfacet
  facet normal 0 -1 0
    outer loop
      vertex 32.3093 21.5 16.6418
      vertex 33.1 21.5 15
      vertex 38 21.5 15
    endloop
  endfacet
  facet normal 0 -1 0
    outer loop
      vertex 7.21875 21.5 17.1076
      vertex 7.45412 21.5 19.1262
      vertex 1.62837 21.5 17.8024
    endloop
  endfacet
  facet normal 0 -1 0
    outer loop
      vertex 38 21.5 18.8197
      vertex 32.3093 21.5 16.6418
      vertex 38 21.5 15
    endloop
  endfacet
  facet normal 0 -1 0
    outer loop
      vertex 1.79287 21.5 13.5
      vertex -2.40537 21.5 13.5
      vertex 20 21.5 12
    endloop
  endfacet
  facet normal 0 -1 0
    outer loop
      vertex 38 21.5 15
      vertex 32.3093 21.5 13.3582
      vertex 38 21.5 5
    endloop
  endfacet
  facet normal 0 -1 0
    outer loop
      vertex 32.3093 21.5 13.3582
      vertex 30.5327 21.5 12.9527
      vertex 38 21.5 5
    endloop
  endfacet
  facet normal 0 -1 0
    outer loop
      vertex 9.31787 21.5 13.5
      vertex 5.17212 21.5 14.4887
      vertex 5.17212 21.5 13.5
    endloop
  endfacet
  facet normal 0 -1 0
    outer loop
      vertex 7.85575 21.5 14.2332
      vertex 7.21875 21.5 17.1076
      vertex 1.11038 21.5 16.9387
    endloop
  endfacet
  facet normal 0 -1 0
    outer loop
      vertex 7.85575 21.5 14.2332
      vertex 1.11038 21.5 16.9387
      vertex -0.091875 21.5 15.6945
    endloop
  endfacet
  facet normal 0 -1 0
    outer loop
      vertex 7.85575 21.5 14.2332
      vertex -0.091875 21.5 15.6945
      vertex 5.17212 21.5 14.4887
    endloop
  endfacet
  facet normal 0 -1 0
    outer loop
      vertex 5.17212 21.5 14.4887
      vertex -0.091875 21.5 15.6945
      vertex -0.993125 21.5 14.8046
    endloop
  endfacet
  facet normal 0 -1 0
    outer loop
      vertex -2.2575 21.5 18.5549
      vertex 0.618625 21.5 17.6116
      vertex -1.45687 21.5 18.463
    endloop
  endfacet
  facet normal 0 -1 0
    outer loop
      vertex -9.81663 21.5 14.277
      vertex -9.555 21.5 15.4346
      vertex -10.0721 21.5 15.4346
    endloop
  endfacet
  facet normal 0 -1 0
    outer loop
      vertex -28.9 21.5 15
      vertex -29.6907 21.5 13.3582
      vertex -20 21.5 12
    endloop
  endfacet
  facet normal 0 -1 0
    outer loop
      vertex -0.7805 21.5 16.1145
      vertex -2.2575 21.5 18.5549
      vertex -7.58625 21.5 20.5709
    endloop
  endfacet
  facet normal 0 -1 0
    outer loop
      vertex -28.9 21.5 15
      vertex -20 21.5 12
      vertex -10.1482 21.5 13.5
    endloop
  endfacet
  facet normal 0 -1 0
    outer loop
      vertex -29.6907 21.5 13.3582
      vertex -31.4673 21.5 12.9527
      vertex -20 21.5 5
    endloop
  endfacet
  facet normal 0 -1 0
    outer loop
      vertex -32.892 21.5 14.0888
      vertex -32.892 21.5 15.9112
      vertex -38 21.5 15
    endloop
  endfacet
  facet normal 0 -1 0
    outer loop
      vertex -10.1482 21.5 13.5
      vertex -29.6907 21.5 16.6418
      vertex -28.9 21.5 15
    endloop
  endfacet
  facet normal 0 -1 0
    outer loop
      vertex -10.1482 21.5 13.5
      vertex -31.4673 21.5 17.0473
      vertex -29.6907 21.5 16.6418
    endloop
  endfacet
  facet normal 0 -1 0
    outer loop
      vertex -10.1482 21.5 13.5
      vertex -12.0312 21.5 20.5709
      vertex -31.4673 21.5 17.0473
    endloop
  endfacet
  facet normal -1 0 0
    outer loop
      vertex -20 6 5
      vertex -20 6 12
      vertex -20 21.5 5
    endloop
  endfacet
  facet normal -1 0 0
    outer loop
      vertex -20 21.5 5
      vertex -20 6 12
      vertex -20 21.5 12
    endloop
  endfacet
  facet normal 0 -1 0
    outer loop
      vertex -20 6 12
      vertex -20 6 5
      vertex -19.8949 6 5
    endloop
  endfacet
  facet normal 0 -1 0
    outer loop
      vertex -19.8949 6 12
      vertex -20 6 12
      vertex -19.8949 6 5
    endloop
  endfacet
  facet normal -0.994522 -0.104528 0
    outer loop
      vertex -19.8949 6 5
      vertex -19.563 2.84177 5
      vertex -19.8949 6 12
    endloop
  endfacet
  facet normal -0.994522 -0.104528 0
    outer loop
      vertex -19.8949 6 12
      vertex -19.563 2.84177 5
      vertex -19.563 2.84177 12
    endloop
  endfacet
  facet normal -0.951057 -0.309017 0
    outer loop
      vertex -19.563 2.84177 5
      vertex -18.2709 -1.13473 5
      vertex -19.563 2.84177 12
    endloop
  endfacet
  facet normal -0.951057 -0.309017 0
    outer loop
      vertex -19.563 2.84177 12
      vertex -18.2709 -1.13473 5
      vertex -18.2709 -1.13473 12
    endloop
  endfacet
  facet normal 0 0 1
    outer loop
      vertex 19.8949 6 12
      vertex 20 6 12
      vertex -20 21.5 12
    endloop
  endfacet
  facet normal 0 0 1
    outer loop
      vertex -20 21.5 12
      vertex -20 6 12
      vertex -19.8949 6 12
    endloop
  endfacet
  facet normal 0 0 1
    outer loop
      vertex -19.563 2.84177 12
      vertex -20 21.5 12
      vertex -19.8949 6 12
    endloop
  endfacet
  facet normal 0 0 1
    outer loop
      vertex -19.563 2.84177 12
      vertex -18.2709 -1.13473 12
      vertex -20 21.5 12
    endloop
  endfacet
  facet normal 0 0 1
    outer loop
      vertex -18.2709 -1.13473 12
      vertex -16.1803 -4.7557 12
      vertex -20 21.5 12
    endloop
  endfacet
  facet normal 0 0 1
    outer loop
      vertex -16.1803 -4.7557 12
      vertex -13.3826 -7.8629 12
      vertex -20 21.5 12
    endloop
  endfacet
  facet normal 0 0 1
    outer loop
      vertex -13.3826 -7.8629 12
      vertex -10 -10.3205 12
      vertex -20 21.5 12
    endloop
  endfacet
  facet normal 0 0 1
    outer loop
      vertex -10 -10.3205 12
      vertex -6.18034 -12.0211 12
      vertex -20 21.5 12
    endloop
  endfacet
  facet normal 0 0 1
    outer loop
      vertex 6.8416 3.95 12
      vertex 6.8416 -3.95 12
      vertex 13.3826 -7.8629 12
    endloop
  endfacet
  facet normal 0 0 1
    outer loop
      vertex 6.8416 3.95 12
      vertex 13.3826 -7.8629 12
      vertex 16.1803 -4.7557 12
    endloop
  endfacet
  facet normal 0 0 1
    outer loop
      vertex 1.75415e-015 7.9 12
      vertex 18.2709 -1.13473 12
      vertex -20 21.5 12
    endloop
  endfacet
  facet normal 0 0 1
    outer loop
      vertex 18.2709 -1.13473 12
      vertex 19.563 2.84177 12
      vertex -20 21.5 12
    endloop
  endfacet
  facet normal 0 0 1
    outer loop
      vertex 19.563 2.84177 12
      vertex 19.8949 6 12
      vertex -20 21.5 12
    endloop
  endfacet
  facet normal 0 0 1
    outer loop
      vertex 20 6 12
      vertex 20 21.5 12
      vertex -20 21.5 12
    endloop
  endfacet
  facet normal 0 0 1
    outer loop
      vertex -6.18034 -12.0211 12
      vertex -6.8416 -3.95 12
      vertex -20 21.5 12
    endloop
  endfacet
  facet normal 0 0 1
    outer loop
      vertex -6.18034 -12.0211 12
      vertex -2.09057 -12.8904 12
      vertex -6.8416 -3.95 12
    endloop
  endfacet
  facet normal 0 0 1
    outer loop
      vertex 6.8416 3.95 12
      vertex 18.2709 -1.13473 12
      vertex 1.75415e-015 7.9 12
    endloop
  endfacet
  facet normal 0 0 1
    outer loop
      vertex 6.8416 -3.95 12
      vertex 6.18034 -12.0211 12
      vertex 10 -10.3205 12
    endloop
  endfacet
  facet normal 0 0 1
    outer loop
      vertex 16.1803 -4.7557 12
      vertex 18.2709 -1.13473 12
      vertex 6.8416 3.95 12
    endloop
  endfacet
  facet normal 0 0 1
    outer loop
      vertex 6.8416 -3.95 12
      vertex -1.75415e-015 -7.9 12
      vertex 6.18034 -12.0211 12
    endloop
  endfacet
  facet normal 0 0 1
    outer loop
      vertex 10 -10.3205 12
      vertex 13.3826 -7.8629 12
      vertex 6.8416 -3.95 12
    endloop
  endfacet
  facet normal 0 0 1
    outer loop
      vertex 2.09057 -12.8904 12
      vertex 6.18034 -12.0211 12
      vertex -1.75415e-015 -7.9 12
    endloop
  endfacet
  facet normal 0 0 1
    outer loop
      vertex -6.8416 -3.95 12
      vertex -6.8416 3.95 12
      vertex -20 21.5 12
    endloop
  endfacet
  facet normal 0 0 1
    outer loop
      vertex -1.75415e-015 -7.9 12
      vertex -2.09057 -12.8904 12
      vertex 2.09057 -12.8904 12
    endloop
  endfacet
  facet normal 0 0 1
    outer loop
      vertex -1.75415e-015 -7.9 12
      vertex -6.8416 -3.95 12
      vertex -2.09057 -12.8904 12
    endloop
  endfacet
  facet normal 0 0 1
    outer loop
      vertex -6.8416 3.95 12
      vertex 1.75415e-015 7.9 12
      vertex -20 21.5 12
    endloop
  endfacet
  facet normal 0.951057 -0.309017 0
    outer loop
      vertex 18.2709 -1.13473 12
      vertex 18.2709 -1.13473 5
      vertex 19.563 2.84177 5
    endloop
  endfacet
  facet normal 0.951057 -0.309017 0
    outer loop
      vertex 19.563 2.84177 12
      vertex 18.2709 -1.13473 12
      vertex 19.563 2.84177 5
    endloop
  endfacet
  facet normal 0 0 1
    outer loop
      vertex 18.2709 -1.13473 5
      vertex 17.1989 -2.9915 5
      vertex 38 20.9374 5
    endloop
  endfacet
  facet normal 0 0 1
    outer loop
      vertex 19.563 2.84177 5
      vertex 18.2709 -1.13473 5
      vertex 38 21.5 5
    endloop
  endfacet
  facet normal 0 0 1
    outer loop
      vertex 38 21.5 5
      vertex 18.2709 -1.13473 5
      vertex 38 20.9374 5
    endloop
  endfacet
  facet normal 0 0 1
    outer loop
      vertex 20 21.5 5
      vertex 20 6 5
      vertex 38 21.5 5
    endloop
  endfacet
  facet normal 0 0 1
    outer loop
      vertex 20 6 5
      vertex 19.563 2.84177 5
      vertex 38 21.5 5
    endloop
  endfacet
  facet normal 0 0 1
    outer loop
      vertex 19.8949 6 5
      vertex 19.563 2.84177 5
      vertex 20 6 5
    endloop
  endfacet
  facet normal 1 0 0
    outer loop
      vertex 38 21.5 18.8197
      vertex 38 21.5 15
      vertex 38 26.5 15
    endloop
  endfacet
  facet normal 1 0 0
    outer loop
      vertex 38 26.5 18.8197
      vertex 38 21.5 18.8197
      vertex 38 26.5 15
    endloop
  endfacet
  facet normal 0.587785 0 0.809017
    outer loop
      vertex 38 21.5 18.8197
      vertex 38 26.5 18.8197
      vertex 29.4935 26.5 25
    endloop
  endfacet
  facet normal 0.587785 0 0.809017
    outer loop
      vertex 29.4935 21.5 25
      vertex 38 21.5 18.8197
      vertex 29.4935 26.5 25
    endloop
  endfacet
  facet normal 0 0 1
    outer loop
      vertex -29.4935 26.5 25
      vertex -29.4935 21.5 25
      vertex 29.4935 21.5 25
    endloop
  endfacet
  facet normal 0 0 1
    outer loop
      vertex 29.4935 26.5 25
      vertex -29.4935 26.5 25
      vertex 29.4935 21.5 25
    endloop
  endfacet
  facet normal -0.587785 0 0.809017
    outer loop
      vertex -29.4935 21.5 25
      vertex -29.4935 26.5 25
      vertex -38 26.5 18.8197
    endloop
  endfacet
  facet normal -0.587785 0 0.809017
    outer loop
      vertex -38 21.5 18.8197
      vertex -29.4935 21.5 25
      vertex -38 26.5 18.8197
    endloop
  endfacet
  facet normal 1 0 0
    outer loop
      vertex -32.892 26.5 14.0888
      vertex -32.892 26.5 15.9112
      vertex -32.892 21.5 15.9112
    endloop
  endfacet
  facet normal 1 0 0
    outer loop
      vertex -32.892 21.5 14.0888
      vertex -32.892 26.5 14.0888
      vertex -32.892 21.5 15.9112
    endloop
  endfacet
  facet normal 0.62349 -1.73601e-016 -0.781831
    outer loop
      vertex -31.4673 26.5 17.0473
      vertex -31.4673 21.5 17.0473
      vertex -32.892 26.5 15.9112
    endloop
  endfacet
  facet normal 0.62349 -1.73601e-016 -0.781831
    outer loop
      vertex -32.892 26.5 15.9112
      vertex -31.4673 21.5 17.0473
      vertex -32.892 21.5 15.9112
    endloop
  endfacet
  facet normal -0.222521 -2.16477e-016 -0.974928
    outer loop
      vertex -29.6907 26.5 16.6418
      vertex -29.6907 21.5 16.6418
      vertex -31.4673 26.5 17.0473
    endloop
  endfacet
  facet normal -0.222521 -2.16477e-016 -0.974928
    outer loop
      vertex -31.4673 26.5 17.0473
      vertex -29.6907 21.5 16.6418
      vertex -31.4673 21.5 17.0473
    endloop
  endfacet
  facet normal -0.900969 -9.63415e-017 -0.433884
    outer loop
      vertex -28.9 26.5 15
      vertex -28.9 21.5 15
      vertex -29.6907 26.5 16.6418
    endloop
  endfacet
  facet normal -0.900969 -9.63415e-017 -0.433884
    outer loop
      vertex -29.6907 26.5 16.6418
      vertex -28.9 21.5 15
      vertex -29.6907 21.5 16.6418
    endloop
  endfacet
  facet normal -0.900969 9.63415e-017 0.433884
    outer loop
      vertex -28.9 26.5 15
      vertex -29.6907 26.5 13.3582
      vertex -28.9 21.5 15
    endloop
  endfacet
  facet normal -0.900969 9.63415e-017 0.433884
    outer loop
      vertex -28.9 21.5 15
      vertex -29.6907 26.5 13.3582
      vertex -29.6907 21.5 13.3582
    endloop
  endfacet
  facet normal -0.222521 2.16477e-016 0.974928
    outer loop
      vertex -29.6907 21.5 13.3582
      vertex -29.6907 26.5 13.3582
      vertex -31.4673 26.5 12.9527
    endloop
  endfacet
  facet normal -0.222521 2.16477e-016 0.974928
    outer loop
      vertex -31.4673 21.5 12.9527
      vertex -29.6907 21.5 13.3582
      vertex -31.4673 26.5 12.9527
    endloop
  endfacet
  facet normal 0.62349 1.73601e-016 0.781831
    outer loop
      vertex -31.4673 21.5 12.9527
      vertex -31.4673 26.5 12.9527
      vertex -32.892 26.5 14.0888
    endloop
  endfacet
  facet normal 0.62349 1.73601e-016 0.781831
    outer loop
      vertex -32.892 21.5 14.0888
      vertex -31.4673 21.5 12.9527
      vertex -32.892 26.5 14.0888
    endloop
  endfacet
  facet normal 1 0 0
    outer loop
      vertex 29.108 26.5 14.0888
      vertex 29.108 26.5 15.9112
      vertex 29.108 21.5 15.9112
    endloop
  endfacet
  facet normal 1 0 0
    outer loop
      vertex 29.108 21.5 14.0888
      vertex 29.108 26.5 14.0888
      vertex 29.108 21.5 15.9112
    endloop
  endfacet
  facet normal 0.62349 -1.73601e-016 -0.781831
    outer loop
      vertex 30.5327 26.5 17.0473
      vertex 30.5327 21.5 17.0473
      vertex 29.108 26.5 15.9112
    endloop
  endfacet
  facet normal 0.62349 -1.73601e-016 -0.781831
    outer loop
      vertex 29.108 26.5 15.9112
      vertex 30.5327 21.5 17.0473
      vertex 29.108 21.5 15.9112
    endloop
  endfacet
  facet normal -0.222521 -2.16477e-016 -0.974928
    outer loop
      vertex 32.3093 26.5 16.6418
      vertex 32.3093 21.5 16.6418
      vertex 30.5327 26.5 17.0473
    endloop
  endfacet
  facet normal -0.222521 -2.16477e-016 -0.974928
    outer loop
      vertex 30.5327 26.5 17.0473
      vertex 32.3093 21.5 16.6418
      vertex 30.5327 21.5 17.0473
    endloop
  endfacet
  facet normal -0.900969 -9.63415e-017 -0.433884
    outer loop
      vertex 33.1 26.5 15
      vertex 33.1 21.5 15
      vertex 32.3093 26.5 16.6418
    endloop
  endfacet
  facet normal -0.900969 -9.63415e-017 -0.433884
    outer loop
      vertex 32.3093 26.5 16.6418
      vertex 33.1 21.5 15
      vertex 32.3093 21.5 16.6418
    endloop
  endfacet
  facet normal -0.900969 9.63415e-017 0.433884
    outer loop
      vertex 33.1 26.5 15
      vertex 32.3093 26.5 13.3582
      vertex 33.1 21.5 15
    endloop
  endfacet
  facet normal -0.900969 9.63415e-017 0.433884
    outer loop
      vertex 33.1 21.5 15
      vertex 32.3093 26.5 13.3582
      vertex 32.3093 21.5 13.3582
    endloop
  endfacet
  facet normal -0.222521 2.16477e-016 0.974928
    outer loop
      vertex 32.3093 21.5 13.3582
      vertex 32.3093 26.5 13.3582
      vertex 30.5327 26.5 12.9527
    endloop
  endfacet
  facet normal -0.222521 2.16477e-016 0.974928
    outer loop
      vertex 30.5327 21.5 12.9527
      vertex 32.3093 21.5 13.3582
      vertex 30.5327 26.5 12.9527
    endloop
  endfacet
  facet normal 0.62349 1.73601e-016 0.781831
    outer loop
      vertex 30.5327 21.5 12.9527
      vertex 30.5327 26.5 12.9527
      vertex 29.108 26.5 14.0888
    endloop
  endfacet
  facet normal 0.62349 1.73601e-016 0.781831
    outer loop
      vertex 29.108 21.5 14.0888
      vertex 30.5327 21.5 12.9527
      vertex 29.108 26.5 14.0888
    endloop
  endfacet
  facet normal 0 0 1
    outer loop
      vertex 3.99444 -1.29787 4
      vertex 6.8416 -3.95 4
      vertex 6.8416 3.95 4
    endloop
  endfacet
  facet normal 0 0 1
    outer loop
      vertex 4.2 0 4
      vertex 3.99444 -1.29787 4
      vertex 6.8416 3.95 4
    endloop
  endfacet
  facet normal 0 0 1
    outer loop
      vertex 3.39787 -2.4687 4
      vertex 2.4687 -3.39787 4
      vertex -1.75415e-015 -7.9 4
    endloop
  endfacet
  facet normal 0 0 1
    outer loop
      vertex 0 4.2 4
      vertex 1.29787 3.99444 4
      vertex 1.75415e-015 7.9 4
    endloop
  endfacet
  facet normal 0 0 1
    outer loop
      vertex -2.4687 3.39787 4
      vertex -1.29787 3.99444 4
      vertex 1.75415e-015 7.9 4
    endloop
  endfacet
  facet normal 0 0 1
    outer loop
      vertex -6.8416 3.95 4
      vertex -4.2 0 4
      vertex -3.99444 1.29787 4
    endloop
  endfacet
  facet normal 0 0 1
    outer loop
      vertex -6.8416 3.95 4
      vertex -3.39787 2.4687 4
      vertex 1.75415e-015 7.9 4
    endloop
  endfacet
  facet normal 0 0 1
    outer loop
      vertex -6.8416 3.95 4
      vertex -3.99444 1.29787 4
      vertex -3.39787 2.4687 4
    endloop
  endfacet
  facet normal 0 0 1
    outer loop
      vertex -1.29787 3.99444 4
      vertex 0 4.2 4
      vertex 1.75415e-015 7.9 4
    endloop
  endfacet
  facet normal 0 0 1
    outer loop
      vertex -1.29787 -3.99444 4
      vertex -2.4687 -3.39787 4
      vertex -1.75415e-015 -7.9 4
    endloop
  endfacet
  facet normal 0 0 1
    outer loop
      vertex 1.75415e-015 7.9 4
      vertex 1.29787 3.99444 4
      vertex 6.8416 3.95 4
    endloop
  endfacet
  facet normal 0 0 1
    outer loop
      vertex 1.29787 3.99444 4
      vertex 2.4687 3.39787 4
      vertex 6.8416 3.95 4
    endloop
  endfacet
  facet normal 0 0 1
    outer loop
      vertex 2.4687 3.39787 4
      vertex 3.39787 2.4687 4
      vertex 6.8416 3.95 4
    endloop
  endfacet
  facet normal 0 0 1
    outer loop
      vertex 0 -4.2 4
      vertex -1.29787 -3.99444 4
      vertex -1.75415e-015 -7.9 4
    endloop
  endfacet
  facet normal 0 0 1
    outer loop
      vertex 3.39787 2.4687 4
      vertex 3.99444 1.29787 4
      vertex 6.8416 3.95 4
    endloop
  endfacet
  facet normal 0 0 1
    outer loop
      vertex 3.99444 1.29787 4
      vertex 4.2 0 4
      vertex 6.8416 3.95 4
    endloop
  endfacet
  facet normal 0 0 1
    outer loop
      vertex 3.39787 -2.4687 4
      vertex 6.8416 -3.95 4
      vertex 3.99444 -1.29787 4
    endloop
  endfacet
  facet normal 0 0 1
    outer loop
      vertex -1.75415e-015 -7.9 4
      vertex 6.8416 -3.95 4
      vertex 3.39787 -2.4687 4
    endloop
  endfacet
  facet normal 0 0 1
    outer loop
      vertex 2.4687 -3.39787 4
      vertex 1.29787 -3.99444 4
      vertex -1.75415e-015 -7.9 4
    endloop
  endfacet
  facet normal 0 0 1
    outer loop
      vertex -2.4687 -3.39787 4
      vertex -3.39787 -2.4687 4
      vertex -1.75415e-015 -7.9 4
    endloop
  endfacet
  facet normal 0 0 1
    outer loop
      vertex -3.39787 2.4687 4
      vertex -2.4687 3.39787 4
      vertex 1.75415e-015 7.9 4
    endloop
  endfacet
  facet normal 0 0 1
    outer loop
      vertex -6.8416 -3.95 4
      vertex -3.39787 -2.4687 4
      vertex -6.8416 3.95 4
    endloop
  endfacet
  facet normal 0 0 1
    outer loop
      vertex -6.8416 -3.95 4
      vertex -1.75415e-015 -7.9 4
      vertex -3.39787 -2.4687 4
    endloop
  endfacet
  facet normal 0 0 1
    outer loop
      vertex -3.39787 -2.4687 4
      vertex -3.99444 -1.29787 4
      vertex -6.8416 3.95 4
    endloop
  endfacet
  facet normal 0 0 1
    outer loop
      vertex -3.99444 -1.29787 4
      vertex -4.2 0 4
      vertex -6.8416 3.95 4
    endloop
  endfacet
  facet normal 0 0 1
    outer loop
      vertex 1.29787 -3.99444 4
      vertex 0 -4.2 4
      vertex -1.75415e-015 -7.9 4
    endloop
  endfacet
  facet normal 1 0 0
    outer loop
      vertex 20 6 12
      vertex 20 6 5
      vertex 20 21.5 5
    endloop
  endfacet
  facet normal 1 0 0
    outer loop
      vertex 20 21.5 12
      vertex 20 6 12
      vertex 20 21.5 5
    endloop
  endfacet
  facet normal 0.966322 5.71399e-017 0.257335
    outer loop
      vertex -10.1482 21.5 13.5
      vertex -10.1482 22.55 13.5
      vertex -12.0312 22.55 20.5709
    endloop
  endfacet
  facet normal 0.966322 5.71399e-017 0.257335
    outer loop
      vertex -12.0312 21.5 20.5709
      vertex -10.1482 21.5 13.5
      vertex -12.0312 22.55 20.5709
    endloop
  endfacet
  facet normal 0 -2.22045e-016 -1
    outer loop
      vertex -11.3347 22.55 20.5709
      vertex -11.3347 21.5 20.5709
      vertex -12.0312 22.55 20.5709
    endloop
  endfacet
  facet normal 0 -2.22045e-016 -1
    outer loop
      vertex -12.0312 22.55 20.5709
      vertex -11.3347 21.5 20.5709
      vertex -12.0312 21.5 20.5709
    endloop
  endfacet
  facet normal 0 2.22045e-016 1
    outer loop
      vertex -9.4885 21.5 13.5
      vertex -9.4885 22.55 13.5
      vertex -10.1482 22.55 13.5
    endloop
  endfacet
  facet normal 0 2.22045e-016 1
    outer loop
      vertex -10.1482 21.5 13.5
      vertex -9.4885 21.5 13.5
      vertex -10.1482 22.55 13.5
    endloop
  endfacet
  facet normal -0.965665 5.76848e-017 0.259789
    outer loop
      vertex -7.58625 22.55 20.5709
      vertex -9.4885 22.55 13.5
      vertex -7.58625 21.5 20.5709
    endloop
  endfacet
  facet normal -0.965665 5.76848e-017 0.259789
    outer loop
      vertex -7.58625 21.5 20.5709
      vertex -9.4885 22.55 13.5
      vertex -9.4885 21.5 13.5
    endloop
  endfacet
  facet normal 0 -2.22045e-016 -1
    outer loop
      vertex -7.58625 22.55 20.5709
      vertex -7.58625 21.5 20.5709
      vertex -8.2425 22.55 20.5709
    endloop
  endfacet
  facet normal 0 -2.22045e-016 -1
    outer loop
      vertex -8.2425 22.55 20.5709
      vertex -7.58625 21.5 20.5709
      vertex -8.2425 21.5 20.5709
    endloop
  endfacet
  facet normal 0.968867 -5.4974e-017 -0.247581
    outer loop
      vertex -9.555 22.55 15.4346
      vertex -8.2425 22.55 20.5709
      vertex -8.2425 21.5 20.5709
    endloop
  endfacet
  facet normal 0.968867 -5.4974e-017 -0.247581
    outer loop
      vertex -9.555 21.5 15.4346
      vertex -9.555 22.55 15.4346
      vertex -8.2425 21.5 20.5709
    endloop
  endfacet
  facet normal 0.9754 -4.89479e-017 -0.220442
    outer loop
      vertex -9.81663 22.55 14.277
      vertex -9.555 22.55 15.4346
      vertex -9.555 21.5 15.4346
    endloop
  endfacet
  facet normal 0.9754 -4.89479e-017 -0.220442
    outer loop
      vertex -9.81663 21.5 14.277
      vertex -9.81663 22.55 14.277
      vertex -9.555 21.5 15.4346
    endloop
  endfacet
  facet normal -0.976499 -4.78558e-017 -0.215524
    outer loop
      vertex -9.81663 22.55 14.277
      vertex -9.81663 21.5 14.277
      vertex -10.0721 22.55 15.4346
    endloop
  endfacet
  facet normal -0.976499 -4.78558e-017 -0.215524
    outer loop
      vertex -10.0721 22.55 15.4346
      vertex -9.81663 21.5 14.277
      vertex -10.0721 21.5 15.4346
    endloop
  endfacet
  facet normal -0.971089 -5.30063e-017 -0.238719
    outer loop
      vertex -10.0721 22.55 15.4346
      vertex -10.0721 21.5 15.4346
      vertex -11.3347 22.55 20.5709
    endloop
  endfacet
  facet normal -0.971089 -5.30063e-017 -0.238719
    outer loop
      vertex -11.3347 22.55 20.5709
      vertex -10.0721 21.5 15.4346
      vertex -11.3347 21.5 20.5709
    endloop
  endfacet
  facet normal 0 2.22045e-016 1
    outer loop
      vertex 1.79287 21.5 13.5
      vertex 1.79287 22.55 13.5
      vertex -2.40537 22.55 13.5
    endloop
  endfacet
  facet normal 0 2.22045e-016 1
    outer loop
      vertex -2.40537 21.5 13.5
      vertex 1.79287 21.5 13.5
      vertex -2.40537 22.55 13.5
    endloop
  endfacet
  facet normal 0.988799 -3.31408e-017 -0.149253
    outer loop
      vertex -2.40537 22.55 13.5
      vertex -2.31437 22.55 14.1029
      vertex -2.31437 21.5 14.1029
    endloop
  endfacet
  facet normal 0.988799 -3.31408e-017 -0.149253
    outer loop
      vertex -2.40537 21.5 13.5
      vertex -2.40537 22.55 13.5
      vertex -2.31437 21.5 14.1029
    endloop
  endfacet
  facet normal -1 0 0
    outer loop
      vertex 1.79287 22.55 14.3347
      vertex 1.79287 22.55 13.5
      vertex 1.79287 21.5 14.3347
    endloop
  endfacet
  facet normal -1 0 0
    outer loop
      vertex 1.79287 21.5 14.3347
      vertex 1.79287 22.55 13.5
      vertex 1.79287 21.5 13.5
    endloop
  endfacet
  facet normal 0 -2.22045e-016 -1
    outer loop
      vertex 1.79287 22.55 14.3347
      vertex 1.79287 21.5 14.3347
      vertex -1.32212 22.55 14.3347
    endloop
  endfacet
  facet normal 0 -2.22045e-016 -1
    outer loop
      vertex -1.32212 22.55 14.3347
      vertex 1.79287 21.5 14.3347
      vertex -1.32212 21.5 14.3347
    endloop
  endfacet
  facet normal -0.81916 1.27357e-016 0.573565
    outer loop
      vertex -0.993125 22.55 14.8046
      vertex -1.32212 22.55 14.3347
      vertex -0.993125 21.5 14.8046
    endloop
  endfacet
  facet normal -0.81916 1.27357e-016 0.573565
    outer loop
      vertex -0.993125 21.5 14.8046
      vertex -1.32212 22.55 14.3347
      vertex -1.32212 21.5 14.3347
    endloop
  endfacet
  facet normal -0.702602 1.58003e-016 0.711583
    outer loop
      vertex -0.091875 21.5 15.6945
      vertex -0.091875 22.55 15.6945
      vertex -0.993125 22.55 14.8046
    endloop
  endfacet
  facet normal -0.702602 1.58003e-016 0.711583
    outer loop
      vertex -0.993125 21.5 14.8046
      vertex -0.091875 21.5 15.6945
      vertex -0.993125 22.55 14.8046
    endloop
  endfacet
  facet normal -0.71914 1.54291e-016 0.694865
    outer loop
      vertex 1.11038 22.55 16.9387
      vertex -0.091875 22.55 15.6945
      vertex 1.11038 21.5 16.9387
    endloop
  endfacet
  facet normal -0.71914 1.54291e-016 0.694865
    outer loop
      vertex 1.11038 21.5 16.9387
      vertex -0.091875 22.55 15.6945
      vertex -0.091875 21.5 15.6945
    endloop
  endfacet
  facet normal -0.85757 1.14213e-016 0.514368
    outer loop
      vertex 1.62837 22.55 17.8024
      vertex 1.11038 22.55 16.9387
      vertex 1.62837 21.5 17.8024
    endloop
  endfacet
  facet normal -0.85757 1.14213e-016 0.514368
    outer loop
      vertex 1.62837 21.5 17.8024
      vertex 1.11038 22.55 16.9387
      vertex 1.11038 21.5 16.9387
    endloop
  endfacet
  facet normal -0.983035 4.07269e-017 0.183417
    outer loop
      vertex 1.78412 22.55 18.6371
      vertex 1.62837 22.55 17.8024
      vertex 1.78412 21.5 18.6371
    endloop
  endfacet
  facet normal -0.983035 4.07269e-017 0.183417
    outer loop
      vertex 1.78412 21.5 18.6371
      vertex 1.62837 22.55 17.8024
      vertex 1.62837 21.5 17.8024
    endloop
  endfacet
  facet normal -0.934441 -7.90738e-017 -0.356117
    outer loop
      vertex 1.78412 22.55 18.6371
      vertex 1.78412 21.5 18.6371
      vertex 1.25125 22.55 20.0354
    endloop
  endfacet
  facet normal -0.934441 -7.90738e-017 -0.356117
    outer loop
      vertex 1.25125 22.55 20.0354
      vertex 1.78412 21.5 18.6371
      vertex 1.25125 21.5 20.0354
    endloop
  endfacet
  facet normal -0.363316 -2.06871e-016 -0.931666
    outer loop
      vertex 1.25125 22.55 20.0354
      vertex 1.25125 21.5 20.0354
      vertex -0.196 22.55 20.5997
    endloop
  endfacet
  facet normal -0.363316 -2.06871e-016 -0.931666
    outer loop
      vertex -0.196 22.55 20.5997
      vertex 1.25125 21.5 20.0354
      vertex -0.196 21.5 20.5997
    endloop
  endfacet
  facet normal 0.341102 -2.08728e-016 -0.940026
    outer loop
      vertex -0.196 22.55 20.5997
      vertex -0.196 21.5 20.5997
      vertex -1.638 22.55 20.0765
    endloop
  endfacet
  facet normal 0.341102 -2.08728e-016 -0.940026
    outer loop
      vertex -1.638 22.55 20.0765
      vertex -0.196 21.5 20.5997
      vertex -1.638 21.5 20.0765
    endloop
  endfacet
  facet normal 0.926182 -8.37279e-017 -0.377077
    outer loop
      vertex -2.2575 22.55 18.5549
      vertex -1.638 22.55 20.0765
      vertex -1.638 21.5 20.0765
    endloop
  endfacet
  facet normal 0.926182 -8.37279e-017 -0.377077
    outer loop
      vertex -2.2575 21.5 18.5549
      vertex -2.2575 22.55 18.5549
      vertex -1.638 21.5 20.0765
    endloop
  endfacet
  facet normal 0.114006 2.20597e-016 0.99348
    outer loop
      vertex -1.45687 21.5 18.463
      vertex -1.45687 22.55 18.463
      vertex -2.2575 22.55 18.5549
    endloop
  endfacet
  facet normal 0.114006 2.20597e-016 0.99348
    outer loop
      vertex -2.2575 21.5 18.5549
      vertex -1.45687 21.5 18.463
      vertex -2.2575 22.55 18.5549
    endloop
  endfacet
  facet normal -0.949873 6.94193e-017 0.312637
    outer loop
      vertex -1.11387 22.55 19.5051
      vertex -1.45687 22.55 18.463
      vertex -1.11387 21.5 19.5051
    endloop
  endfacet
  facet normal -0.949873 6.94193e-017 0.312637
    outer loop
      vertex -1.11387 21.5 19.5051
      vertex -1.45687 22.55 18.463
      vertex -1.45687 21.5 18.463
    endloop
  endfacet
  facet normal -0.385251 2.04905e-016 0.922812
    outer loop
      vertex -0.212625 21.5 19.8814
      vertex -0.212625 22.55 19.8814
      vertex -1.11387 22.55 19.5051
    endloop
  endfacet
  facet normal -0.385251 2.04905e-016 0.922812
    outer loop
      vertex -1.11387 21.5 19.5051
      vertex -0.212625 21.5 19.8814
      vertex -1.11387 22.55 19.5051
    endloop
  endfacet
  facet normal 0.379618 2.05423e-016 0.925143
    outer loop
      vertex 0.651 21.5 19.527
      vertex 0.651 22.55 19.527
      vertex -0.212625 22.55 19.8814
    endloop
  endfacet
  facet normal 0.379618 2.05423e-016 0.925143
    outer loop
      vertex -0.212625 21.5 19.8814
      vertex 0.651 21.5 19.527
      vertex -0.212625 22.55 19.8814
    endloop
  endfacet
  facet normal 0.934503 7.90382e-017 0.355956
    outer loop
      vertex 0.982625 21.5 18.6564
      vertex 0.982625 22.55 18.6564
      vertex 0.651 22.55 19.527
    endloop
  endfacet
  facet normal 0.934503 7.90382e-017 0.355956
    outer loop
      vertex 0.651 21.5 19.527
      vertex 0.982625 21.5 18.6564
      vertex 0.651 22.55 19.527
    endloop
  endfacet
  facet normal 0.944326 -7.30552e-017 -0.329011
    outer loop
      vertex 0.618625 22.55 17.6116
      vertex 0.982625 22.55 18.6564
      vertex 0.982625 21.5 18.6564
    endloop
  endfacet
  facet normal 0.944326 -7.30552e-017 -0.329011
    outer loop
      vertex 0.618625 21.5 17.6116
      vertex 0.618625 22.55 17.6116
      vertex 0.982625 21.5 18.6564
    endloop
  endfacet
  facet normal 0.730615 -1.5161e-016 -0.68279
    outer loop
      vertex -0.7805 22.55 16.1145
      vertex 0.618625 22.55 17.6116
      vertex 0.618625 21.5 17.6116
    endloop
  endfacet
  facet normal 0.730615 -1.5161e-016 -0.68279
    outer loop
      vertex -0.7805 21.5 16.1145
      vertex -0.7805 22.55 16.1145
      vertex 0.618625 21.5 17.6116
    endloop
  endfacet
  facet normal 0.724054 -1.53154e-016 -0.689744
    outer loop
      vertex -1.80075 22.55 15.0435
      vertex -0.7805 22.55 16.1145
      vertex -0.7805 21.5 16.1145
    endloop
  endfacet
  facet normal 0.724054 -1.53154e-016 -0.689744
    outer loop
      vertex -1.80075 21.5 15.0435
      vertex -1.80075 22.55 15.0435
      vertex -0.7805 21.5 16.1145
    endloop
  endfacet
  facet normal 0.877677 -1.06415e-016 -0.479253
    outer loop
      vertex -2.31437 22.55 14.1029
      vertex -1.80075 22.55 15.0435
      vertex -1.80075 21.5 15.0435
    endloop
  endfacet
  facet normal 0.877677 -1.06415e-016 -0.479253
    outer loop
      vertex -2.31437 21.5 14.1029
      vertex -2.31437 22.55 14.1029
      vertex -1.80075 21.5 15.0435
    endloop
  endfacet
  facet normal 0 2.22045e-016 1
    outer loop
      vertex 5.17212 21.5 13.5
      vertex 5.17212 22.55 13.5
      vertex 4.18337 22.55 13.5
    endloop
  endfacet
  facet normal 0 2.22045e-016 1
    outer loop
      vertex 4.18337 21.5 13.5
      vertex 5.17212 21.5 13.5
      vertex 4.18337 22.55 13.5
    endloop
  endfacet
  facet normal 1 0 0
    outer loop
      vertex 4.18337 22.55 13.5
      vertex 4.18337 22.55 14.4887
      vertex 4.18337 21.5 14.4887
    endloop
  endfacet
  facet normal 1 0 0
    outer loop
      vertex 4.18337 21.5 13.5
      vertex 4.18337 22.55 13.5
      vertex 4.18337 21.5 14.4887
    endloop
  endfacet
  facet normal -1 0 0
    outer loop
      vertex 5.17212 22.55 14.4887
      vertex 5.17212 22.55 13.5
      vertex 5.17212 21.5 14.4887
    endloop
  endfacet
  facet normal -1 0 0
    outer loop
      vertex 5.17212 21.5 14.4887
      vertex 5.17212 22.55 13.5
      vertex 5.17212 21.5 13.5
    endloop
  endfacet
  facet normal 0 -2.22045e-016 -1
    outer loop
      vertex 5.17212 22.55 14.4887
      vertex 5.17212 21.5 14.4887
      vertex 4.18337 22.55 14.4887
    endloop
  endfacet
  facet normal 0 -2.22045e-016 -1
    outer loop
      vertex 4.18337 22.55 14.4887
      vertex 5.17212 21.5 14.4887
      vertex 4.18337 21.5 14.4887
    endloop
  endfacet
  facet normal 0.976313 4.80425e-017 0.216364
    outer loop
      vertex 7.85575 21.5 14.2332
      vertex 7.85575 22.55 14.2332
      vertex 7.21875 22.55 17.1076
    endloop
  endfacet
  facet normal 0.976313 4.80425e-017 0.216364
    outer loop
      vertex 7.21875 21.5 17.1076
      vertex 7.85575 21.5 14.2332
      vertex 7.21875 22.55 17.1076
    endloop
  endfacet
  facet normal 0.993271 -2.57165e-017 -0.115817
    outer loop
      vertex 7.21875 22.55 17.1076
      vertex 7.45412 22.55 19.1262
      vertex 7.45412 21.5 19.1262
    endloop
  endfacet
  facet normal 0.993271 -2.57165e-017 -0.115817
    outer loop
      vertex 7.21875 21.5 17.1076
      vertex 7.21875 22.55 17.1076
      vertex 7.45412 21.5 19.1262
    endloop
  endfacet
  facet normal 0.448283 1.98484e-016 0.893892
    outer loop
      vertex 9.31787 21.5 13.5
      vertex 9.31787 22.55 13.5
      vertex 7.85575 22.55 14.2332
    endloop
  endfacet
  facet normal 0.448283 1.98484e-016 0.893892
    outer loop
      vertex 7.85575 21.5 14.2332
      vertex 9.31787 21.5 13.5
      vertex 7.85575 22.55 14.2332
    endloop
  endfacet
  facet normal -0.335801 2.09151e-016 0.941933
    outer loop
      vertex 10.4886 21.5 13.9174
      vertex 10.4886 22.55 13.9174
      vertex 9.31787 22.55 13.5
    endloop
  endfacet
  facet normal -0.335801 2.09151e-016 0.941933
    outer loop
      vertex 9.31787 21.5 13.5
      vertex 10.4886 21.5 13.9174
      vertex 9.31787 22.55 13.5
    endloop
  endfacet
  facet normal -0.861852 1.12612e-016 0.50716
    outer loop
      vertex 11.1842 22.55 15.0995
      vertex 10.4886 22.55 13.9174
      vertex 11.1842 21.5 15.0995
    endloop
  endfacet
  facet normal -0.861852 1.12612e-016 0.50716
    outer loop
      vertex 11.1842 21.5 15.0995
      vertex 10.4886 22.55 13.9174
      vertex 10.4886 21.5 13.9174
    endloop
  endfacet
  facet normal -0.99335 2.55647e-017 0.115133
    outer loop
      vertex 11.417 22.55 17.1076
      vertex 11.1842 22.55 15.0995
      vertex 11.417 21.5 17.1076
    endloop
  endfacet
  facet normal -0.99335 2.55647e-017 0.115133
    outer loop
      vertex 11.417 21.5 17.1076
      vertex 11.1842 22.55 15.0995
      vertex 11.1842 21.5 15.0995
    endloop
  endfacet
  facet normal -0.996245 -1.92256e-017 -0.0865846
    outer loop
      vertex 11.417 22.55 17.1076
      vertex 11.417 21.5 17.1076
      vertex 11.2717 22.55 18.7789
    endloop
  endfacet
  facet normal -0.996245 -1.92256e-017 -0.0865846
    outer loop
      vertex 11.2717 22.55 18.7789
      vertex 11.417 21.5 17.1076
      vertex 11.2717 21.5 18.7789
    endloop
  endfacet
  facet normal -0.93498 -7.87595e-017 -0.354701
    outer loop
      vertex 11.2717 22.55 18.7789
      vertex 11.2717 21.5 18.7789
      vertex 10.8727 22.55 19.8306
    endloop
  endfacet
  facet normal -0.93498 -7.87595e-017 -0.354701
    outer loop
      vertex 10.8727 22.55 19.8306
      vertex 11.2717 21.5 18.7789
      vertex 10.8727 21.5 19.8306
    endloop
  endfacet
  facet normal -0.715112 -1.55211e-016 -0.69901
    outer loop
      vertex 10.8727 22.55 19.8306
      vertex 10.8727 21.5 19.8306
      vertex 10.227 22.55 20.4912
    endloop
  endfacet
  facet normal -0.715112 -1.55211e-016 -0.69901
    outer loop
      vertex 10.227 22.55 20.4912
      vertex 10.8727 21.5 19.8306
      vertex 10.227 21.5 20.4912
    endloop
  endfacet
  facet normal -0.244511 -2.15305e-016 -0.969646
    outer loop
      vertex 10.227 22.55 20.4912
      vertex 10.227 21.5 20.4912
      vertex 9.31787 22.55 20.7205
    endloop
  endfacet
  facet normal -0.244511 -2.15305e-016 -0.969646
    outer loop
      vertex 9.31787 22.55 20.7205
      vertex 10.227 21.5 20.4912
      vertex 9.31787 21.5 20.7205
    endloop
  endfacet
  facet normal 0.335261 -2.09194e-016 -0.942125
    outer loop
      vertex 9.31787 22.55 20.7205
      vertex 9.31787 21.5 20.7205
      vertex 8.15237 22.55 20.3057
    endloop
  endfacet
  facet normal 0.335261 -2.09194e-016 -0.942125
    outer loop
      vertex 8.15237 22.55 20.3057
      vertex 9.31787 21.5 20.7205
      vertex 8.15237 21.5 20.3057
    endloop
  endfacet
  facet normal 0.86052 -1.13113e-016 -0.509417
    outer loop
      vertex 7.45412 22.55 19.1262
      vertex 8.15237 22.55 20.3057
      vertex 8.15237 21.5 20.3057
    endloop
  endfacet
  facet normal 0.86052 -1.13113e-016 -0.509417
    outer loop
      vertex 7.45412 21.5 19.1262
      vertex 7.45412 22.55 19.1262
      vertex 8.15237 21.5 20.3057
    endloop
  endfacet
  facet normal 0 -1 0
    outer loop
      vertex 19.8949 6 12
      vertex 19.8949 6 5
      vertex 20 6 5
    endloop
  endfacet
  facet normal 0 -1 0
    outer loop
      vertex 20 6 12
      vertex 19.8949 6 12
      vertex 20 6 5
    endloop
  endfacet
  facet normal 0.994522 -0.104528 0
    outer loop
      vertex 19.563 2.84177 12
      vertex 19.563 2.84177 5
      vertex 19.8949 6 5
    endloop
  endfacet
  facet normal 0.994522 -0.104528 0
    outer loop
      vertex 19.8949 6 12
      vertex 19.563 2.84177 12
      vertex 19.8949 6 5
    endloop
  endfacet
  facet normal 1 -2.22045e-016 0
    outer loop
      vertex -6.8416 3.95 4
      vertex -6.8416 3.95 12
      vertex -6.8416 -3.95 12
    endloop
  endfacet
  facet normal 1 -2.22045e-016 0
    outer loop
      vertex -6.8416 -3.95 4
      vertex -6.8416 3.95 4
      vertex -6.8416 -3.95 12
    endloop
  endfacet
  facet normal 0.5 0.866025 0
    outer loop
      vertex -1.75415e-015 -7.9 12
      vertex -1.75415e-015 -7.9 4
      vertex -6.8416 -3.95 12
    endloop
  endfacet
  facet normal 0.5 0.866025 0
    outer loop
      vertex -6.8416 -3.95 12
      vertex -1.75415e-015 -7.9 4
      vertex -6.8416 -3.95 4
    endloop
  endfacet
  facet normal -0.5 0.866025 0
    outer loop
      vertex 6.8416 -3.95 12
      vertex 6.8416 -3.95 4
      vertex -1.75415e-015 -7.9 12
    endloop
  endfacet
  facet normal -0.5 0.866025 0
    outer loop
      vertex -1.75415e-015 -7.9 12
      vertex 6.8416 -3.95 4
      vertex -1.75415e-015 -7.9 4
    endloop
  endfacet
  facet normal -1 2.22045e-016 0
    outer loop
      vertex 6.8416 3.95 12
      vertex 6.8416 3.95 4
      vertex 6.8416 -3.95 12
    endloop
  endfacet
  facet normal -1 2.22045e-016 0
    outer loop
      vertex 6.8416 -3.95 12
      vertex 6.8416 3.95 4
      vertex 6.8416 -3.95 4
    endloop
  endfacet
  facet normal -0.5 -0.866025 0
    outer loop
      vertex 6.8416 3.95 4
      vertex 6.8416 3.95 12
      vertex 1.75415e-015 7.9 12
    endloop
  endfacet
  facet normal -0.5 -0.866025 0
    outer loop
      vertex 1.75415e-015 7.9 4
      vertex 6.8416 3.95 4
      vertex 1.75415e-015 7.9 12
    endloop
  endfacet
  facet normal 0.5 -0.866025 0
    outer loop
      vertex 1.75415e-015 7.9 4
      vertex 1.75415e-015 7.9 12
      vertex -6.8416 3.95 12
    endloop
  endfacet
  facet normal 0.5 -0.866025 0
    outer loop
      vertex -6.8416 3.95 4
      vertex 1.75415e-015 7.9 4
      vertex -6.8416 3.95 12
    endloop
  endfacet
  facet normal 0 -1 2.22045e-016
    outer loop
      vertex -9.81663 22.55 14.277
      vertex -9.4885 22.55 13.5
      vertex -7.58625 22.55 20.5709
    endloop
  endfacet
  facet normal 0 -1 2.22045e-016
    outer loop
      vertex -8.2425 22.55 20.5709
      vertex -9.555 22.55 15.4346
      vertex -7.58625 22.55 20.5709
    endloop
  endfacet
  facet normal 0 -1 2.22045e-016
    outer loop
      vertex -10.1482 22.55 13.5
      vertex -9.4885 22.55 13.5
      vertex -9.81663 22.55 14.277
    endloop
  endfacet
  facet normal 0 -1 2.22045e-016
    outer loop
      vertex -11.3347 22.55 20.5709
      vertex -10.1482 22.55 13.5
      vertex -10.0721 22.55 15.4346
    endloop
  endfacet
  facet normal 0 -1 2.22045e-016
    outer loop
      vertex -12.0312 22.55 20.5709
      vertex -10.1482 22.55 13.5
      vertex -11.3347 22.55 20.5709
    endloop
  endfacet
  facet normal 0 -1 2.22045e-016
    outer loop
      vertex -9.555 22.55 15.4346
      vertex -9.81663 22.55 14.277
      vertex -7.58625 22.55 20.5709
    endloop
  endfacet
  facet normal 0 -1 2.22045e-016
    outer loop
      vertex -9.81663 22.55 14.277
      vertex -10.0721 22.55 15.4346
      vertex -10.1482 22.55 13.5
    endloop
  endfacet
  facet normal 0 -1 2.22045e-016
    outer loop
      vertex 1.79287 22.55 13.5
      vertex 1.79287 22.55 14.3347
      vertex -1.32212 22.55 14.3347
    endloop
  endfacet
  facet normal 0 -1 2.22045e-016
    outer loop
      vertex -0.091875 22.55 15.6945
      vertex 1.11038 22.55 16.9387
      vertex -0.993125 22.55 14.8046
    endloop
  endfacet
  facet normal 0 -1 2.22045e-016
    outer loop
      vertex -2.31437 22.55 14.1029
      vertex 1.79287 22.55 13.5
      vertex -1.32212 22.55 14.3347
    endloop
  endfacet
  facet normal 0 -1 2.22045e-016
    outer loop
      vertex -1.80075 22.55 15.0435
      vertex -2.31437 22.55 14.1029
      vertex -1.32212 22.55 14.3347
    endloop
  endfacet
  facet normal 0 -1 2.22045e-016
    outer loop
      vertex 1.11038 22.55 16.9387
      vertex 1.62837 22.55 17.8024
      vertex -0.993125 22.55 14.8046
    endloop
  endfacet
  facet normal 0 -1 2.22045e-016
    outer loop
      vertex 1.62837 22.55 17.8024
      vertex 1.78412 22.55 18.6371
      vertex -0.993125 22.55 14.8046
    endloop
  endfacet
  facet normal 0 -1 2.22045e-016
    outer loop
      vertex -1.11387 22.55 19.5051
      vertex -1.638 22.55 20.0765
      vertex -1.45687 22.55 18.463
    endloop
  endfacet
  facet normal 0 -1 2.22045e-016
    outer loop
      vertex 0.651 22.55 19.527
      vertex 0.982625 22.55 18.6564
      vertex 1.25125 22.55 20.0354
    endloop
  endfacet
  facet normal 0 -1 2.22045e-016
    outer loop
      vertex -0.196 22.55 20.5997
      vertex -1.638 22.55 20.0765
      vertex -1.11387 22.55 19.5051
    endloop
  endfacet
  facet normal 0 -1 2.22045e-016
    outer loop
      vertex 1.25125 22.55 20.0354
      vertex -0.196 22.55 20.5997
      vertex -0.212625 22.55 19.8814
    endloop
  endfacet
  facet normal 0 -1 2.22045e-016
    outer loop
      vertex 0.618625 22.55 17.6116
      vertex -1.32212 22.55 14.3347
      vertex -0.993125 22.55 14.8046
    endloop
  endfacet
  facet normal 0 -1 2.22045e-016
    outer loop
      vertex 1.25125 22.55 20.0354
      vertex -0.212625 22.55 19.8814
      vertex 0.651 22.55 19.527
    endloop
  endfacet
  facet normal 0 -1 2.22045e-016
    outer loop
      vertex -0.7805 22.55 16.1145
      vertex -1.80075 22.55 15.0435
      vertex -1.32212 22.55 14.3347
    endloop
  endfacet
  facet normal 0 -1 2.22045e-016
    outer loop
      vertex 1.78412 22.55 18.6371
      vertex 1.25125 22.55 20.0354
      vertex 0.982625 22.55 18.6564
    endloop
  endfacet
  facet normal 0 -1 2.22045e-016
    outer loop
      vertex 1.78412 22.55 18.6371
      vertex 0.618625 22.55 17.6116
      vertex -0.993125 22.55 14.8046
    endloop
  endfacet
  facet normal 0 -1 2.22045e-016
    outer loop
      vertex 1.78412 22.55 18.6371
      vertex 0.982625 22.55 18.6564
      vertex 0.618625 22.55 17.6116
    endloop
  endfacet
  facet normal 0 -1 2.22045e-016
    outer loop
      vertex -2.31437 22.55 14.1029
      vertex -2.40537 22.55 13.5
      vertex 1.79287 22.55 13.5
    endloop
  endfacet
  facet normal 0 -1 2.22045e-016
    outer loop
      vertex -2.2575 22.55 18.5549
      vertex -1.45687 22.55 18.463
      vertex -1.638 22.55 20.0765
    endloop
  endfacet
  facet normal 0 -1 2.22045e-016
    outer loop
      vertex -1.11387 22.55 19.5051
      vertex -0.212625 22.55 19.8814
      vertex -0.196 22.55 20.5997
    endloop
  endfacet
  facet normal 0 -1 2.22045e-016
    outer loop
      vertex 0.618625 22.55 17.6116
      vertex -0.7805 22.55 16.1145
      vertex -1.32212 22.55 14.3347
    endloop
  endfacet
  facet normal 0 -1 2.22045e-016
    outer loop
      vertex 5.17212 22.55 13.5
      vertex 5.17212 22.55 14.4887
      vertex 4.18337 22.55 14.4887
    endloop
  endfacet
  facet normal 0 -1 2.22045e-016
    outer loop
      vertex 4.18337 22.55 13.5
      vertex 5.17212 22.55 13.5
      vertex 4.18337 22.55 14.4887
    endloop
  endfacet
  facet normal 0 -1 2.22045e-016
    outer loop
      vertex 7.85575 22.55 14.2332
      vertex 9.31787 22.55 13.5
      vertex 10.4886 22.55 13.9174
    endloop
  endfacet
  facet normal 0 -1 2.22045e-016
    outer loop
      vertex 9.31787 22.55 14.214
      vertex 8.40262 22.55 14.7906
      vertex 7.85575 22.55 14.2332
    endloop
  endfacet
  facet normal 0 -1 2.22045e-016
    outer loop
      vertex 9.31787 22.55 14.214
      vertex 7.85575 22.55 14.2332
      vertex 10.4886 22.55 13.9174
    endloop
  endfacet
  facet normal 0 -1 2.22045e-016
    outer loop
      vertex 10.234 22.55 19.4281
      vertex 10.605 22.55 17.1076
      vertex 11.2717 22.55 18.7789
    endloop
  endfacet
  facet normal 0 -1 2.22045e-016
    outer loop
      vertex 7.45412 22.55 19.1262
      vertex 7.85575 22.55 14.2332
      vertex 8.15237 22.55 20.3057
    endloop
  endfacet
  facet normal 0 -1 2.22045e-016
    outer loop
      vertex 7.21875 22.55 17.1076
      vertex 7.85575 22.55 14.2332
      vertex 7.45412 22.55 19.1262
    endloop
  endfacet
  facet normal 0 -1 2.22045e-016
    outer loop
      vertex 9.30912 22.55 20.0021
      vertex 10.234 22.55 19.4281
      vertex 10.227 22.55 20.4912
    endloop
  endfacet
  facet normal 0 -1 2.22045e-016
    outer loop
      vertex 8.15237 22.55 20.3057
      vertex 7.85575 22.55 14.2332
      vertex 8.03162 22.55 17.1076
    endloop
  endfacet
  facet normal 0 -1 2.22045e-016
    outer loop
      vertex 8.15237 22.55 20.3057
      vertex 8.43937 22.55 19.4955
      vertex 9.31787 22.55 20.7205
    endloop
  endfacet
  facet normal 0 -1 2.22045e-016
    outer loop
      vertex 8.15237 22.55 20.3057
      vertex 8.03162 22.55 17.1076
      vertex 8.43937 22.55 19.4955
    endloop
  endfacet
  facet normal 0 -1 2.22045e-016
    outer loop
      vertex 9.31787 22.55 20.7205
      vertex 9.30912 22.55 20.0021
      vertex 10.227 22.55 20.4912
    endloop
  endfacet
  facet normal 0 -1 2.22045e-016
    outer loop
      vertex 8.43937 22.55 19.4955
      vertex 9.30912 22.55 20.0021
      vertex 9.31787 22.55 20.7205
    endloop
  endfacet
  facet normal 0 -1 2.22045e-016
    outer loop
      vertex 10.227 22.55 20.4912
      vertex 10.234 22.55 19.4281
      vertex 10.8727 22.55 19.8306
    endloop
  endfacet
  facet normal 0 -1 2.22045e-016
    outer loop
      vertex 10.605 22.55 17.1076
      vertex 10.234 22.55 14.7932
      vertex 11.1842 22.55 15.0995
    endloop
  endfacet
  facet normal 0 -1 2.22045e-016
    outer loop
      vertex 11.2717 22.55 18.7789
      vertex 10.605 22.55 17.1076
      vertex 11.417 22.55 17.1076
    endloop
  endfacet
  facet normal 0 -1 2.22045e-016
    outer loop
      vertex 11.1842 22.55 15.0995
      vertex 10.234 22.55 14.7932
      vertex 10.4886 22.55 13.9174
    endloop
  endfacet
  facet normal 0 -1 2.22045e-016
    outer loop
      vertex 10.234 22.55 14.7932
      vertex 9.31787 22.55 14.214
      vertex 10.4886 22.55 13.9174
    endloop
  endfacet
  facet normal 0 -1 2.22045e-016
    outer loop
      vertex 10.234 22.55 19.4281
      vertex 11.2717 22.55 18.7789
      vertex 10.8727 22.55 19.8306
    endloop
  endfacet
  facet normal 0 -1 2.22045e-016
    outer loop
      vertex 10.605 22.55 17.1076
      vertex 11.1842 22.55 15.0995
      vertex 11.417 22.55 17.1076
    endloop
  endfacet
  facet normal 0 -1 2.22045e-016
    outer loop
      vertex 8.40262 22.55 14.7906
      vertex 8.03162 22.55 17.1076
      vertex 7.85575 22.55 14.2332
    endloop
  endfacet
  facet normal -0.987422 -3.51068e-017 -0.158107
    outer loop
      vertex 8.40262 22.55 14.7906
      vertex 8.40262 21.5 14.7906
      vertex 8.03162 22.55 17.1076
    endloop
  endfacet
  facet normal -0.987422 -3.51068e-017 -0.158107
    outer loop
      vertex 8.03162 22.55 17.1076
      vertex 8.40262 21.5 14.7906
      vertex 8.03162 21.5 17.1076
    endloop
  endfacet
  facet normal -0.985732 3.7375e-017 0.168322
    outer loop
      vertex 8.43937 22.55 19.4955
      vertex 8.03162 22.55 17.1076
      vertex 8.43937 21.5 19.4955
    endloop
  endfacet
  facet normal -0.985732 3.7375e-017 0.168322
    outer loop
      vertex 8.43937 21.5 19.4955
      vertex 8.03162 22.55 17.1076
      vertex 8.03162 21.5 17.1076
    endloop
  endfacet
  facet normal -0.533049 -1.87868e-016 -0.846084
    outer loop
      vertex 9.31787 22.55 14.214
      vertex 9.31787 21.5 14.214
      vertex 8.40262 22.55 14.7906
    endloop
  endfacet
  facet normal -0.533049 -1.87868e-016 -0.846084
    outer loop
      vertex 8.40262 22.55 14.7906
      vertex 9.31787 21.5 14.214
      vertex 8.40262 21.5 14.7906
    endloop
  endfacet
  facet normal 0.534418 -1.87677e-016 -0.84522
    outer loop
      vertex 10.234 22.55 14.7932
      vertex 10.234 21.5 14.7932
      vertex 9.31787 22.55 14.214
    endloop
  endfacet
  facet normal 0.534418 -1.87677e-016 -0.84522
    outer loop
      vertex 9.31787 22.55 14.214
      vertex 10.234 21.5 14.7932
      vertex 9.31787 21.5 14.214
    endloop
  endfacet
  facet normal 0.987394 -3.51456e-017 -0.158282
    outer loop
      vertex 10.234 22.55 14.7932
      vertex 10.605 22.55 17.1076
      vertex 10.605 21.5 17.1076
    endloop
  endfacet
  facet normal 0.987394 -3.51456e-017 -0.158282
    outer loop
      vertex 10.234 21.5 14.7932
      vertex 10.234 22.55 14.7932
      vertex 10.605 21.5 17.1076
    endloop
  endfacet
  facet normal 0.987459 3.50551e-017 0.157874
    outer loop
      vertex 10.605 21.5 17.1076
      vertex 10.605 22.55 17.1076
      vertex 10.234 22.55 19.4281
    endloop
  endfacet
  facet normal 0.987459 3.50551e-017 0.157874
    outer loop
      vertex 10.234 21.5 19.4281
      vertex 10.605 21.5 17.1076
      vertex 10.234 22.55 19.4281
    endloop
  endfacet
  facet normal 0.527323 1.88664e-016 0.849665
    outer loop
      vertex 10.234 21.5 19.4281
      vertex 10.234 22.55 19.4281
      vertex 9.30912 22.55 20.0021
    endloop
  endfacet
  facet normal 0.527323 1.88664e-016 0.849665
    outer loop
      vertex 9.30912 21.5 20.0021
      vertex 10.234 21.5 19.4281
      vertex 9.30912 22.55 20.0021
    endloop
  endfacet
  facet normal -0.50333 1.91867e-016 0.864094
    outer loop
      vertex 9.30912 21.5 20.0021
      vertex 9.30912 22.55 20.0021
      vertex 8.43937 22.55 19.4955
    endloop
  endfacet
  facet normal -0.50333 1.91867e-016 0.864094
    outer loop
      vertex 8.43937 21.5 19.4955
      vertex 9.30912 21.5 20.0021
      vertex 8.43937 22.55 19.4955
    endloop
  endfacet
  facet normal 0 -1 0
    outer loop
      vertex 8.43937 21.5 19.4955
      vertex 8.03162 21.5 17.1076
      vertex 8.40262 21.5 14.7906
    endloop
  endfacet
  facet normal 0 -1 0
    outer loop
      vertex 10.234 21.5 14.7932
      vertex 8.43937 21.5 19.4955
      vertex 9.31787 21.5 14.214
    endloop
  endfacet
  facet normal 0 -1 0
    outer loop
      vertex 9.31787 21.5 14.214
      vertex 8.43937 21.5 19.4955
      vertex 8.40262 21.5 14.7906
    endloop
  endfacet
  facet normal 0 -1 0
    outer loop
      vertex 10.605 21.5 17.1076
      vertex 8.43937 21.5 19.4955
      vertex 10.234 21.5 14.7932
    endloop
  endfacet
  facet normal 0 -1 0
    outer loop
      vertex 10.234 21.5 19.4281
      vertex 8.43937 21.5 19.4955
      vertex 10.605 21.5 17.1076
    endloop
  endfacet
  facet normal 0 -1 0
    outer loop
      vertex 9.30912 21.5 20.0021
      vertex 8.43937 21.5 19.4955
      vertex 10.234 21.5 19.4281
    endloop
  endfacet
endsolid OpenSCAD_Model
