solid OpenSCAD_Model
  facet normal -1 0 0
    outer loop
      vertex 15 -12.7657 6.69894
      vertex 15 -20 10
      vertex 15 20 0
    endloop
  endfacet
  facet normal -1 0 0
    outer loop
      vertex 15 14.4366 7.05411
      vertex 15 -20 10
      vertex 15 20 10
    endloop
  endfacet
  facet normal -1 0 0
    outer loop
      vertex 15 -20 0
      vertex 15 -20 10
      vertex 15 -16.0885 5.21951
    endloop
  endfacet
  facet normal -1 0 0
    outer loop
      vertex 15 -20 0
      vertex 15 -16.0885 5.21951
      vertex 15 -15.9972 4.35106
    endloop
  endfacet
  facet normal -1 0 0
    outer loop
      vertex 15 -20 0
      vertex 15 -15.9972 4.35106
      vertex 15 -15.5606 3.59483
    endloop
  endfacet
  facet normal -1 0 0
    outer loop
      vertex 15 -20 0
      vertex 15 -15.5606 3.59483
      vertex 15 -14.8541 3.08155
    endloop
  endfacet
  facet normal -1 0 0
    outer loop
      vertex 15 -20 0
      vertex 15 -14.8541 3.08155
      vertex 15 -14 2.9
    endloop
  endfacet
  facet normal -1 0 0
    outer loop
      vertex 15 -20 0
      vertex 15 -14 2.9
      vertex 15 20 0
    endloop
  endfacet
  facet normal -1 0 0
    outer loop
      vertex 15 -12.4394 3.59483
      vertex 15 20 0
      vertex 15 -13.1459 3.08155
    endloop
  endfacet
  facet normal -1 0 0
    outer loop
      vertex 15 -12.0028 4.35106
      vertex 15 20 0
      vertex 15 -12.4394 3.59483
    endloop
  endfacet
  facet normal -1 0 0
    outer loop
      vertex 15 -11.9115 5.21951
      vertex 15 20 0
      vertex 15 -12.0028 4.35106
    endloop
  endfacet
  facet normal -1 0 0
    outer loop
      vertex 15 14 2.9
      vertex 15 20 0
      vertex 15 13.1459 3.08155
    endloop
  endfacet
  facet normal -1 0 0
    outer loop
      vertex 15 -14.4366 7.05411
      vertex 15 -20 10
      vertex 15 -13.5634 7.05411
    endloop
  endfacet
  facet normal -1 0 0
    outer loop
      vertex 15 -15.2343 6.69894
      vertex 15 -20 10
      vertex 15 -14.4366 7.05411
    endloop
  endfacet
  facet normal -1 0 0
    outer loop
      vertex 15 -11.9115 5.21951
      vertex 15 -12.1813 6.05
      vertex 15 20 0
    endloop
  endfacet
  facet normal -1 0 0
    outer loop
      vertex 15 -13.5634 7.05411
      vertex 15 -20 10
      vertex 15 -12.7657 6.69894
    endloop
  endfacet
  facet normal -1 0 0
    outer loop
      vertex 15 -12.1813 6.05
      vertex 15 -12.7657 6.69894
      vertex 15 20 0
    endloop
  endfacet
  facet normal -1 0 0
    outer loop
      vertex 15 -15.8187 6.05
      vertex 15 -20 10
      vertex 15 -15.2343 6.69894
    endloop
  endfacet
  facet normal -1 0 0
    outer loop
      vertex 15 -16.0885 5.21951
      vertex 15 -20 10
      vertex 15 -15.8187 6.05
    endloop
  endfacet
  facet normal -1 0 0
    outer loop
      vertex 15 12.0028 4.35106
      vertex 15 -20 10
      vertex 15 11.9115 5.21951
    endloop
  endfacet
  facet normal -1 0 0
    outer loop
      vertex 15 12.4394 3.59483
      vertex 15 -20 10
      vertex 15 12.0028 4.35106
    endloop
  endfacet
  facet normal -1 0 0
    outer loop
      vertex 15 13.1459 3.08155
      vertex 15 -20 10
      vertex 15 12.4394 3.59483
    endloop
  endfacet
  facet normal -1 0 0
    outer loop
      vertex 15 20 0
      vertex 15 -20 10
      vertex 15 13.1459 3.08155
    endloop
  endfacet
  facet normal -1 0 0
    outer loop
      vertex 15 14.8541 3.08155
      vertex 15 20 0
      vertex 15 14 2.9
    endloop
  endfacet
  facet normal -1 0 0
    outer loop
      vertex 15 15.5606 3.59483
      vertex 15 20 0
      vertex 15 14.8541 3.08155
    endloop
  endfacet
  facet normal -1 0 0
    outer loop
      vertex 15 14.4366 7.05411
      vertex 15 20 10
      vertex 15 15.2343 6.69894
    endloop
  endfacet
  facet normal -1 0 0
    outer loop
      vertex 15 20 0
      vertex 15 15.5606 3.59483
      vertex 15 20 10
    endloop
  endfacet
  facet normal -1 0 0
    outer loop
      vertex 15 15.5606 3.59483
      vertex 15 15.9972 4.35106
      vertex 15 20 10
    endloop
  endfacet
  facet normal -1 0 0
    outer loop
      vertex 15 15.9972 4.35106
      vertex 15 16.0885 5.21951
      vertex 15 20 10
    endloop
  endfacet
  facet normal -1 0 0
    outer loop
      vertex 15 16.0885 5.21951
      vertex 15 15.8187 6.05
      vertex 15 20 10
    endloop
  endfacet
  facet normal -1 0 0
    outer loop
      vertex 15 15.8187 6.05
      vertex 15 15.2343 6.69894
      vertex 15 20 10
    endloop
  endfacet
  facet normal -1 0 0
    outer loop
      vertex 15 13.5634 7.05411
      vertex 15 -20 10
      vertex 15 14.4366 7.05411
    endloop
  endfacet
  facet normal -1 0 0
    outer loop
      vertex 15 12.7657 6.69894
      vertex 15 -20 10
      vertex 15 13.5634 7.05411
    endloop
  endfacet
  facet normal -1 0 0
    outer loop
      vertex 15 12.1813 6.05
      vertex 15 -20 10
      vertex 15 12.7657 6.69894
    endloop
  endfacet
  facet normal -1 0 0
    outer loop
      vertex 15 11.9115 5.21951
      vertex 15 -20 10
      vertex 15 12.1813 6.05
    endloop
  endfacet
  facet normal -1 0 0
    outer loop
      vertex 15 -13.1459 3.08155
      vertex 15 20 0
      vertex 15 -14 2.9
    endloop
  endfacet
  facet normal 0 -1 0
    outer loop
      vertex 15 -20 10
      vertex 15 -20 0
      vertex 45 -20 0
    endloop
  endfacet
  facet normal 0 -1 0
    outer loop
      vertex 45 -20 10
      vertex 15 -20 10
      vertex 45 -20 0
    endloop
  endfacet
  facet normal 0 0 -1
    outer loop
      vertex 33.95 6.8416 0
      vertex 15 20 0
      vertex 45 20 0
    endloop
  endfacet
  facet normal 0 0 -1
    outer loop
      vertex 15 -20 0
      vertex 15 20 0
      vertex 22.1 0 0
    endloop
  endfacet
  facet normal 0 0 -1
    outer loop
      vertex 15 -20 0
      vertex 22.1 0 0
      vertex 26.05 -6.8416 0
    endloop
  endfacet
  facet normal 0 0 -1
    outer loop
      vertex 15 -20 0
      vertex 26.05 -6.8416 0
      vertex 45 -20 0
    endloop
  endfacet
  facet normal 0 0 -1
    outer loop
      vertex 33.95 -6.8416 0
      vertex 45 -20 0
      vertex 26.05 -6.8416 0
    endloop
  endfacet
  facet normal 0 0 -1
    outer loop
      vertex 37.9 0 0
      vertex 45 -20 0
      vertex 33.95 -6.8416 0
    endloop
  endfacet
  facet normal 0 0 -1
    outer loop
      vertex 45 -20 0
      vertex 37.9 0 0
      vertex 45 20 0
    endloop
  endfacet
  facet normal 0 0 -1
    outer loop
      vertex 37.9 0 0
      vertex 33.95 6.8416 0
      vertex 45 20 0
    endloop
  endfacet
  facet normal 0 0 -1
    outer loop
      vertex 26.05 6.8416 0
      vertex 15 20 0
      vertex 33.95 6.8416 0
    endloop
  endfacet
  facet normal 0 0 -1
    outer loop
      vertex 22.1 0 0
      vertex 15 20 0
      vertex 26.05 6.8416 0
    endloop
  endfacet
  facet normal 0 1 0
    outer loop
      vertex 15 20 0
      vertex 15 20 10
      vertex 45 20 0
    endloop
  endfacet
  facet normal 0 1 0
    outer loop
      vertex 45 20 0
      vertex 15 20 10
      vertex 45 20 10
    endloop
  endfacet
  facet normal 0 0 1
    outer loop
      vertex 22 -17.65 10
      vertex 15 -20 10
      vertex 45 -20 10
    endloop
  endfacet
  facet normal 0 0 1
    outer loop
      vertex 22 10.35 10
      vertex 22 17.65 10
      vertex 15 20 10
    endloop
  endfacet
  facet normal 0 0 1
    outer loop
      vertex 26 -17.65 10
      vertex 22 -17.65 10
      vertex 45 -20 10
    endloop
  endfacet
  facet normal 0 0 1
    outer loop
      vertex 15 20 10
      vertex 15 -20 10
      vertex 22 -17.65 10
    endloop
  endfacet
  facet normal 0 0 1
    outer loop
      vertex 15 20 10
      vertex 22 -17.65 10
      vertex 22 -10.35 10
    endloop
  endfacet
  facet normal 0 0 1
    outer loop
      vertex 26.05 -6.8416 10
      vertex 26 -10.35 10
      vertex 45 -20 10
    endloop
  endfacet
  facet normal 0 0 1
    outer loop
      vertex 22.1 0 10
      vertex 22 -10.35 10
      vertex 26 -10.35 10
    endloop
  endfacet
  facet normal 0 0 1
    outer loop
      vertex 45 20 10
      vertex 15 20 10
      vertex 22 17.65 10
    endloop
  endfacet
  facet normal 0 0 1
    outer loop
      vertex 45 20 10
      vertex 22 17.65 10
      vertex 26 17.65 10
    endloop
  endfacet
  facet normal 0 0 1
    outer loop
      vertex 22.1 0 10
      vertex 22 10.35 10
      vertex 15 20 10
    endloop
  endfacet
  facet normal 0 0 1
    outer loop
      vertex 33.95 -6.8416 10
      vertex 26.05 -6.8416 10
      vertex 45 -20 10
    endloop
  endfacet
  facet normal 0 0 1
    outer loop
      vertex 15 20 10
      vertex 22 -10.35 10
      vertex 22.1 0 10
    endloop
  endfacet
  facet normal 0 0 1
    outer loop
      vertex 37.9 0 10
      vertex 33.95 -6.8416 10
      vertex 45 -20 10
    endloop
  endfacet
  facet normal 0 0 1
    outer loop
      vertex 26.05 -6.8416 10
      vertex 22.1 0 10
      vertex 26 -10.35 10
    endloop
  endfacet
  facet normal 0 0 1
    outer loop
      vertex 45 20 10
      vertex 26 17.65 10
      vertex 33.95 6.8416 10
    endloop
  endfacet
  facet normal 0 0 1
    outer loop
      vertex 45 20 10
      vertex 37.9 0 10
      vertex 45 -20 10
    endloop
  endfacet
  facet normal 0 0 1
    outer loop
      vertex 45 20 10
      vertex 33.95 6.8416 10
      vertex 37.9 0 10
    endloop
  endfacet
  facet normal 0 0 1
    outer loop
      vertex 26.05 6.8416 10
      vertex 26 17.65 10
      vertex 26 10.35 10
    endloop
  endfacet
  facet normal 0 0 1
    outer loop
      vertex 26.05 6.8416 10
      vertex 33.95 6.8416 10
      vertex 26 17.65 10
    endloop
  endfacet
  facet normal 0 0 1
    outer loop
      vertex 26 -10.35 10
      vertex 26 -17.65 10
      vertex 45 -20 10
    endloop
  endfacet
  facet normal 0 0 1
    outer loop
      vertex 26 10.35 10
      vertex 22 10.35 10
      vertex 26.05 6.8416 10
    endloop
  endfacet
  facet normal 0 0 1
    outer loop
      vertex 22.1 0 10
      vertex 26.05 6.8416 10
      vertex 22 10.35 10
    endloop
  endfacet
  facet normal -2.32099e-017 0.994522 0.104528
    outer loop
      vertex 22 -15.9972 4.35106
      vertex 15 -15.9972 4.35106
      vertex 22 -16.0885 5.21951
    endloop
  endfacet
  facet normal -2.32099e-017 0.994522 0.104528
    outer loop
      vertex 22 -16.0885 5.21951
      vertex 15 -15.9972 4.35106
      vertex 15 -16.0885 5.21951
    endloop
  endfacet
  facet normal 6.86157e-017 0.951056 -0.309017
    outer loop
      vertex 22 -15.8187 6.05
      vertex 22 -16.0885 5.21951
      vertex 15 -15.8187 6.05
    endloop
  endfacet
  facet normal 6.86157e-017 0.951056 -0.309017
    outer loop
      vertex 15 -15.8187 6.05
      vertex 22 -16.0885 5.21951
      vertex 15 -16.0885 5.21951
    endloop
  endfacet
  facet normal 1.48577e-016 0.743145 -0.66913
    outer loop
      vertex 22 -15.2343 6.69894
      vertex 22 -15.8187 6.05
      vertex 15 -15.2343 6.69894
    endloop
  endfacet
  facet normal 1.48577e-016 0.743145 -0.66913
    outer loop
      vertex 15 -15.2343 6.69894
      vertex 22 -15.8187 6.05
      vertex 15 -15.8187 6.05
    endloop
  endfacet
  facet normal 2.02848e-016 0.406737 -0.913545
    outer loop
      vertex 22 -14.4366 7.05411
      vertex 22 -15.2343 6.69894
      vertex 15 -14.4366 7.05411
    endloop
  endfacet
  facet normal 2.02848e-016 0.406737 -0.913545
    outer loop
      vertex 15 -14.4366 7.05411
      vertex 22 -15.2343 6.69894
      vertex 15 -15.2343 6.69894
    endloop
  endfacet
  facet normal 2.22045e-016 0 -1
    outer loop
      vertex 22 -13.5634 7.05411
      vertex 22 -14.4366 7.05411
      vertex 15 -13.5634 7.05411
    endloop
  endfacet
  facet normal 2.22045e-016 0 -1
    outer loop
      vertex 15 -13.5634 7.05411
      vertex 22 -14.4366 7.05411
      vertex 15 -14.4366 7.05411
    endloop
  endfacet
  facet normal 2.02848e-016 -0.406737 -0.913545
    outer loop
      vertex 22 -12.7657 6.69894
      vertex 22 -13.5634 7.05411
      vertex 15 -12.7657 6.69894
    endloop
  endfacet
  facet normal 2.02848e-016 -0.406737 -0.913545
    outer loop
      vertex 15 -12.7657 6.69894
      vertex 22 -13.5634 7.05411
      vertex 15 -13.5634 7.05411
    endloop
  endfacet
  facet normal 1.48577e-016 -0.743145 -0.66913
    outer loop
      vertex 15 -12.1813 6.05
      vertex 22 -12.1813 6.05
      vertex 22 -12.7657 6.69894
    endloop
  endfacet
  facet normal 1.48577e-016 -0.743145 -0.66913
    outer loop
      vertex 15 -12.7657 6.69894
      vertex 15 -12.1813 6.05
      vertex 22 -12.7657 6.69894
    endloop
  endfacet
  facet normal 6.86157e-017 -0.951056 -0.309017
    outer loop
      vertex 15 -11.9115 5.21951
      vertex 22 -11.9115 5.21951
      vertex 22 -12.1813 6.05
    endloop
  endfacet
  facet normal 6.86157e-017 -0.951056 -0.309017
    outer loop
      vertex 15 -12.1813 6.05
      vertex 15 -11.9115 5.21951
      vertex 22 -12.1813 6.05
    endloop
  endfacet
  facet normal -2.32099e-017 -0.994522 0.104528
    outer loop
      vertex 22 -12.0028 4.35106
      vertex 22 -11.9115 5.21951
      vertex 15 -11.9115 5.21951
    endloop
  endfacet
  facet normal -2.32099e-017 -0.994522 0.104528
    outer loop
      vertex 15 -12.0028 4.35106
      vertex 22 -12.0028 4.35106
      vertex 15 -11.9115 5.21951
    endloop
  endfacet
  facet normal -1.11022e-016 -0.866025 0.500001
    outer loop
      vertex 22 -12.4394 3.59483
      vertex 22 -12.0028 4.35106
      vertex 15 -12.0028 4.35106
    endloop
  endfacet
  facet normal -1.11022e-016 -0.866025 0.500001
    outer loop
      vertex 15 -12.4394 3.59483
      vertex 22 -12.4394 3.59483
      vertex 15 -12.0028 4.35106
    endloop
  endfacet
  facet normal -1.79638e-016 -0.587785 0.809017
    outer loop
      vertex 22 -13.1459 3.08155
      vertex 22 -12.4394 3.59483
      vertex 15 -12.4394 3.59483
    endloop
  endfacet
  facet normal -1.79638e-016 -0.587785 0.809017
    outer loop
      vertex 15 -13.1459 3.08155
      vertex 22 -13.1459 3.08155
      vertex 15 -12.4394 3.59483
    endloop
  endfacet
  facet normal -2.17192e-016 -0.207912 0.978147
    outer loop
      vertex 22 -14 2.9
      vertex 22 -13.1459 3.08155
      vertex 15 -13.1459 3.08155
    endloop
  endfacet
  facet normal -2.17192e-016 -0.207912 0.978147
    outer loop
      vertex 15 -14 2.9
      vertex 22 -14 2.9
      vertex 15 -13.1459 3.08155
    endloop
  endfacet
  facet normal -2.17192e-016 0.207912 0.978147
    outer loop
      vertex 22 -14.8541 3.08155
      vertex 22 -14 2.9
      vertex 15 -14 2.9
    endloop
  endfacet
  facet normal -2.17192e-016 0.207912 0.978147
    outer loop
      vertex 15 -14.8541 3.08155
      vertex 22 -14.8541 3.08155
      vertex 15 -14 2.9
    endloop
  endfacet
  facet normal -1.79638e-016 0.587785 0.809017
    outer loop
      vertex 22 -15.5606 3.59483
      vertex 22 -14.8541 3.08155
      vertex 15 -14.8541 3.08155
    endloop
  endfacet
  facet normal -1.79638e-016 0.587785 0.809017
    outer loop
      vertex 15 -15.5606 3.59483
      vertex 22 -15.5606 3.59483
      vertex 15 -14.8541 3.08155
    endloop
  endfacet
  facet normal -1.11022e-016 0.866025 0.500001
    outer loop
      vertex 22 -15.5606 3.59483
      vertex 15 -15.5606 3.59483
      vertex 22 -15.9972 4.35106
    endloop
  endfacet
  facet normal -1.11022e-016 0.866025 0.500001
    outer loop
      vertex 22 -15.9972 4.35106
      vertex 15 -15.5606 3.59483
      vertex 15 -15.9972 4.35106
    endloop
  endfacet
  facet normal -2.32099e-017 0.994522 0.104528
    outer loop
      vertex 22 12.0028 4.35106
      vertex 15 12.0028 4.35106
      vertex 22 11.9115 5.21951
    endloop
  endfacet
  facet normal -2.32099e-017 0.994522 0.104528
    outer loop
      vertex 22 11.9115 5.21951
      vertex 15 12.0028 4.35106
      vertex 15 11.9115 5.21951
    endloop
  endfacet
  facet normal 6.86157e-017 0.951056 -0.309017
    outer loop
      vertex 22 12.1813 6.05
      vertex 22 11.9115 5.21951
      vertex 15 12.1813 6.05
    endloop
  endfacet
  facet normal 6.86157e-017 0.951056 -0.309017
    outer loop
      vertex 15 12.1813 6.05
      vertex 22 11.9115 5.21951
      vertex 15 11.9115 5.21951
    endloop
  endfacet
  facet normal 1.48577e-016 0.743145 -0.66913
    outer loop
      vertex 22 12.7657 6.69894
      vertex 22 12.1813 6.05
      vertex 15 12.7657 6.69894
    endloop
  endfacet
  facet normal 1.48577e-016 0.743145 -0.66913
    outer loop
      vertex 15 12.7657 6.69894
      vertex 22 12.1813 6.05
      vertex 15 12.1813 6.05
    endloop
  endfacet
  facet normal 2.02848e-016 0.406737 -0.913545
    outer loop
      vertex 22 13.5634 7.05411
      vertex 22 12.7657 6.69894
      vertex 15 13.5634 7.05411
    endloop
  endfacet
  facet normal 2.02848e-016 0.406737 -0.913545
    outer loop
      vertex 15 13.5634 7.05411
      vertex 22 12.7657 6.69894
      vertex 15 12.7657 6.69894
    endloop
  endfacet
  facet normal 2.22045e-016 0 -1
    outer loop
      vertex 22 14.4366 7.05411
      vertex 22 13.5634 7.05411
      vertex 15 14.4366 7.05411
    endloop
  endfacet
  facet normal 2.22045e-016 0 -1
    outer loop
      vertex 15 14.4366 7.05411
      vertex 22 13.5634 7.05411
      vertex 15 13.5634 7.05411
    endloop
  endfacet
  facet normal 2.02848e-016 -0.406737 -0.913545
    outer loop
      vertex 22 15.2343 6.69894
      vertex 22 14.4366 7.05411
      vertex 15 15.2343 6.69894
    endloop
  endfacet
  facet normal 2.02848e-016 -0.406737 -0.913545
    outer loop
      vertex 15 15.2343 6.69894
      vertex 22 14.4366 7.05411
      vertex 15 14.4366 7.05411
    endloop
  endfacet
  facet normal 1.48577e-016 -0.743145 -0.66913
    outer loop
      vertex 15 15.8187 6.05
      vertex 22 15.8187 6.05
      vertex 22 15.2343 6.69894
    endloop
  endfacet
  facet normal 1.48577e-016 -0.743145 -0.66913
    outer loop
      vertex 15 15.2343 6.69894
      vertex 15 15.8187 6.05
      vertex 22 15.2343 6.69894
    endloop
  endfacet
  facet normal 6.86157e-017 -0.951056 -0.309017
    outer loop
      vertex 15 16.0885 5.21951
      vertex 22 16.0885 5.21951
      vertex 22 15.8187 6.05
    endloop
  endfacet
  facet normal 6.86157e-017 -0.951056 -0.309017
    outer loop
      vertex 15 15.8187 6.05
      vertex 15 16.0885 5.21951
      vertex 22 15.8187 6.05
    endloop
  endfacet
  facet normal -2.32099e-017 -0.994522 0.104528
    outer loop
      vertex 22 15.9972 4.35106
      vertex 22 16.0885 5.21951
      vertex 15 16.0885 5.21951
    endloop
  endfacet
  facet normal -2.32099e-017 -0.994522 0.104528
    outer loop
      vertex 15 15.9972 4.35106
      vertex 22 15.9972 4.35106
      vertex 15 16.0885 5.21951
    endloop
  endfacet
  facet normal -1.11022e-016 -0.866025 0.500001
    outer loop
      vertex 22 15.5606 3.59483
      vertex 22 15.9972 4.35106
      vertex 15 15.9972 4.35106
    endloop
  endfacet
  facet normal -1.11022e-016 -0.866025 0.500001
    outer loop
      vertex 15 15.5606 3.59483
      vertex 22 15.5606 3.59483
      vertex 15 15.9972 4.35106
    endloop
  endfacet
  facet normal -1.79638e-016 -0.587785 0.809017
    outer loop
      vertex 22 14.8541 3.08155
      vertex 22 15.5606 3.59483
      vertex 15 15.5606 3.59483
    endloop
  endfacet
  facet normal -1.79638e-016 -0.587785 0.809017
    outer loop
      vertex 15 14.8541 3.08155
      vertex 22 14.8541 3.08155
      vertex 15 15.5606 3.59483
    endloop
  endfacet
  facet normal -2.17192e-016 -0.207912 0.978147
    outer loop
      vertex 22 14 2.9
      vertex 22 14.8541 3.08155
      vertex 15 14.8541 3.08155
    endloop
  endfacet
  facet normal -2.17192e-016 -0.207912 0.978147
    outer loop
      vertex 15 14 2.9
      vertex 22 14 2.9
      vertex 15 14.8541 3.08155
    endloop
  endfacet
  facet normal -2.17192e-016 0.207912 0.978147
    outer loop
      vertex 22 13.1459 3.08155
      vertex 22 14 2.9
      vertex 15 14 2.9
    endloop
  endfacet
  facet normal -2.17192e-016 0.207912 0.978147
    outer loop
      vertex 15 13.1459 3.08155
      vertex 22 13.1459 3.08155
      vertex 15 14 2.9
    endloop
  endfacet
  facet normal -1.79638e-016 0.587785 0.809017
    outer loop
      vertex 22 12.4394 3.59483
      vertex 22 13.1459 3.08155
      vertex 15 13.1459 3.08155
    endloop
  endfacet
  facet normal -1.79638e-016 0.587785 0.809017
    outer loop
      vertex 15 12.4394 3.59483
      vertex 22 12.4394 3.59483
      vertex 15 13.1459 3.08155
    endloop
  endfacet
  facet normal -1.11022e-016 0.866025 0.500001
    outer loop
      vertex 22 12.4394 3.59483
      vertex 15 12.4394 3.59483
      vertex 22 12.0028 4.35106
    endloop
  endfacet
  facet normal -1.11022e-016 0.866025 0.500001
    outer loop
      vertex 22 12.0028 4.35106
      vertex 15 12.4394 3.59483
      vertex 15 12.0028 4.35106
    endloop
  endfacet
  facet normal 1 0 0
    outer loop
      vertex 45 -13.1459 3.08156
      vertex 45 -20 0
      vertex 45 20 0
    endloop
  endfacet
  facet normal 1 0 0
    outer loop
      vertex 45 14 2.9
      vertex 45 -20 10
      vertex 45 20 0
    endloop
  endfacet
  facet normal 1 0 0
    outer loop
      vertex 45 -13.1459 3.08156
      vertex 45 -14 2.9
      vertex 45 -20 0
    endloop
  endfacet
  facet normal 1 0 0
    outer loop
      vertex 45 -20 10
      vertex 45 -20 0
      vertex 45 -15.9972 4.35106
    endloop
  endfacet
  facet normal 1 0 0
    outer loop
      vertex 45 -12.0028 4.35106
      vertex 45 -12.4394 3.59483
      vertex 45 20 0
    endloop
  endfacet
  facet normal 1 0 0
    outer loop
      vertex 45 -20 10
      vertex 45 -15.9972 4.35106
      vertex 45 -16.0885 5.21951
    endloop
  endfacet
  facet normal 1 0 0
    outer loop
      vertex 45 -11.9115 5.21951
      vertex 45 -12.0028 4.35106
      vertex 45 20 0
    endloop
  endfacet
  facet normal 1 0 0
    outer loop
      vertex 45 -20 10
      vertex 45 -16.0885 5.21951
      vertex 45 -15.8187 6.05
    endloop
  endfacet
  facet normal 1 0 0
    outer loop
      vertex 45 -12.1813 6.05
      vertex 45 -11.9115 5.21951
      vertex 45 20 0
    endloop
  endfacet
  facet normal 1 0 0
    outer loop
      vertex 45 -20 10
      vertex 45 -15.8187 6.05
      vertex 45 -15.2343 6.69894
    endloop
  endfacet
  facet normal 1 0 0
    outer loop
      vertex 45 -12.7657 6.69894
      vertex 45 -12.1813 6.05
      vertex 45 20 0
    endloop
  endfacet
  facet normal 1 0 0
    outer loop
      vertex 45 -20 10
      vertex 45 -15.2343 6.69894
      vertex 45 -14.4366 7.05411
    endloop
  endfacet
  facet normal 1 0 0
    outer loop
      vertex 45 -20 10
      vertex 45 -13.5634 7.05411
      vertex 45 20 0
    endloop
  endfacet
  facet normal 1 0 0
    outer loop
      vertex 45 -20 10
      vertex 45 -14.4366 7.05411
      vertex 45 -13.5634 7.05411
    endloop
  endfacet
  facet normal 1 0 0
    outer loop
      vertex 45 -12.4394 3.59483
      vertex 45 -13.1459 3.08156
      vertex 45 20 0
    endloop
  endfacet
  facet normal 1 0 0
    outer loop
      vertex 45 13.5634 7.05411
      vertex 45 14.4366 7.05411
      vertex 45 20 10
    endloop
  endfacet
  facet normal 1 0 0
    outer loop
      vertex 45 -14.8541 3.08156
      vertex 45 -20 0
      vertex 45 -14 2.9
    endloop
  endfacet
  facet normal 1 0 0
    outer loop
      vertex 45 -15.5606 3.59483
      vertex 45 -20 0
      vertex 45 -14.8541 3.08156
    endloop
  endfacet
  facet normal 1 0 0
    outer loop
      vertex 45 -15.9972 4.35106
      vertex 45 -20 0
      vertex 45 -15.5606 3.59483
    endloop
  endfacet
  facet normal 1 0 0
    outer loop
      vertex 45 11.9115 5.21951
      vertex 45 -20 10
      vertex 45 12.0028 4.35106
    endloop
  endfacet
  facet normal 1 0 0
    outer loop
      vertex 45 12.1813 6.05
      vertex 45 -20 10
      vertex 45 11.9115 5.21951
    endloop
  endfacet
  facet normal 1 0 0
    outer loop
      vertex 45 12.7657 6.69894
      vertex 45 -20 10
      vertex 45 12.1813 6.05
    endloop
  endfacet
  facet normal 1 0 0
    outer loop
      vertex 45 20 10
      vertex 45 -20 10
      vertex 45 12.7657 6.69894
    endloop
  endfacet
  facet normal 1 0 0
    outer loop
      vertex 45 14.4366 7.05411
      vertex 45 15.2343 6.69894
      vertex 45 20 10
    endloop
  endfacet
  facet normal 1 0 0
    outer loop
      vertex 45 20 10
      vertex 45 12.7657 6.69894
      vertex 45 13.5634 7.05411
    endloop
  endfacet
  facet normal 1 0 0
    outer loop
      vertex 45 15.2343 6.69894
      vertex 45 15.8187 6.05
      vertex 45 20 10
    endloop
  endfacet
  facet normal 1 0 0
    outer loop
      vertex 45 14.8541 3.08156
      vertex 45 14 2.9
      vertex 45 20 0
    endloop
  endfacet
  facet normal 1 0 0
    outer loop
      vertex 45 20 10
      vertex 45 15.8187 6.05
      vertex 45 20 0
    endloop
  endfacet
  facet normal 1 0 0
    outer loop
      vertex 45 15.8187 6.05
      vertex 45 16.0885 5.21951
      vertex 45 20 0
    endloop
  endfacet
  facet normal 1 0 0
    outer loop
      vertex 45 16.0885 5.21951
      vertex 45 15.9972 4.35106
      vertex 45 20 0
    endloop
  endfacet
  facet normal 1 0 0
    outer loop
      vertex 45 15.9972 4.35106
      vertex 45 15.5606 3.59483
      vertex 45 20 0
    endloop
  endfacet
  facet normal 1 0 0
    outer loop
      vertex 45 15.5606 3.59483
      vertex 45 14.8541 3.08156
      vertex 45 20 0
    endloop
  endfacet
  facet normal 1 0 0
    outer loop
      vertex 45 13.1459 3.08156
      vertex 45 -20 10
      vertex 45 14 2.9
    endloop
  endfacet
  facet normal 1 0 0
    outer loop
      vertex 45 12.4394 3.59483
      vertex 45 -20 10
      vertex 45 13.1459 3.08156
    endloop
  endfacet
  facet normal 1 0 0
    outer loop
      vertex 45 12.0028 4.35106
      vertex 45 -20 10
      vertex 45 12.4394 3.59483
    endloop
  endfacet
  facet normal 1 0 0
    outer loop
      vertex 45 -13.5634 7.05411
      vertex 45 -12.7657 6.69894
      vertex 45 20 0
    endloop
  endfacet
  facet normal 0.866025 -0.5 0
    outer loop
      vertex 26.05 6.8416 0
      vertex 26.05 6.8416 10
      vertex 22.1 0 10
    endloop
  endfacet
  facet normal 0.866025 -0.5 0
    outer loop
      vertex 22.1 0 0
      vertex 26.05 6.8416 0
      vertex 22.1 0 10
    endloop
  endfacet
  facet normal 0.866025 0.5 0
    outer loop
      vertex 22.1 0 10
      vertex 26.05 -6.8416 10
      vertex 26.05 -6.8416 0
    endloop
  endfacet
  facet normal 0.866025 0.5 0
    outer loop
      vertex 22.1 0 0
      vertex 22.1 0 10
      vertex 26.05 -6.8416 0
    endloop
  endfacet
  facet normal 0 -1 0
    outer loop
      vertex 33.95 6.8416 0
      vertex 33.95 6.8416 10
      vertex 26.05 6.8416 10
    endloop
  endfacet
  facet normal 0 -1 0
    outer loop
      vertex 26.05 6.8416 0
      vertex 33.95 6.8416 0
      vertex 26.05 6.8416 10
    endloop
  endfacet
  facet normal -0.866025 -0.5 0
    outer loop
      vertex 37.9 0 10
      vertex 33.95 6.8416 10
      vertex 37.9 0 0
    endloop
  endfacet
  facet normal -0.866025 -0.5 0
    outer loop
      vertex 37.9 0 0
      vertex 33.95 6.8416 10
      vertex 33.95 6.8416 0
    endloop
  endfacet
  facet normal -0.866025 0.5 0
    outer loop
      vertex 37.9 0 10
      vertex 37.9 0 0
      vertex 33.95 -6.8416 10
    endloop
  endfacet
  facet normal -0.866025 0.5 0
    outer loop
      vertex 33.95 -6.8416 10
      vertex 37.9 0 0
      vertex 33.95 -6.8416 0
    endloop
  endfacet
  facet normal 0 1 0
    outer loop
      vertex 33.95 -6.8416 10
      vertex 33.95 -6.8416 0
      vertex 26.05 -6.8416 10
    endloop
  endfacet
  facet normal 0 1 0
    outer loop
      vertex 26.05 -6.8416 10
      vertex 33.95 -6.8416 0
      vertex 26.05 -6.8416 0
    endloop
  endfacet
  facet normal 1 0 0
    outer loop
      vertex 22 -14.4366 7.05411
      vertex 22 -10.35 10
      vertex 22 -17.65 10
    endloop
  endfacet
  facet normal 1 0 0
    outer loop
      vertex 22 -12.0028 4.35106
      vertex 22 -12.4394 3.59483
      vertex 22 -10.35 0.75
    endloop
  endfacet
  facet normal 1 0 0
    outer loop
      vertex 22 -17.65 0.75
      vertex 22 -16.0885 5.21951
      vertex 22 -17.65 10
    endloop
  endfacet
  facet normal 1 0 0
    outer loop
      vertex 22 -16.0885 5.21951
      vertex 22 -15.8187 6.05
      vertex 22 -17.65 10
    endloop
  endfacet
  facet normal 1 0 0
    outer loop
      vertex 22 -15.8187 6.05
      vertex 22 -15.2343 6.69894
      vertex 22 -17.65 10
    endloop
  endfacet
  facet normal 1 0 0
    outer loop
      vertex 22 -13.1459 3.08155
      vertex 22 -14 2.9
      vertex 22 -10.35 0.75
    endloop
  endfacet
  facet normal 1 0 0
    outer loop
      vertex 22 -13.5634 7.05411
      vertex 22 -10.35 10
      vertex 22 -14.4366 7.05411
    endloop
  endfacet
  facet normal 1 0 0
    outer loop
      vertex 22 -12.7657 6.69894
      vertex 22 -10.35 10
      vertex 22 -13.5634 7.05411
    endloop
  endfacet
  facet normal 1 0 0
    outer loop
      vertex 22 -12.1813 6.05
      vertex 22 -10.35 10
      vertex 22 -12.7657 6.69894
    endloop
  endfacet
  facet normal 1 0 0
    outer loop
      vertex 22 -10.35 0.75
      vertex 22 -10.35 10
      vertex 22 -12.1813 6.05
    endloop
  endfacet
  facet normal 1 0 0
    outer loop
      vertex 22 -10.35 0.75
      vertex 22 -12.1813 6.05
      vertex 22 -11.9115 5.21951
    endloop
  endfacet
  facet normal 1 0 0
    outer loop
      vertex 22 -12.4394 3.59483
      vertex 22 -13.1459 3.08155
      vertex 22 -10.35 0.75
    endloop
  endfacet
  facet normal 1 0 0
    outer loop
      vertex 22 -11.9115 5.21951
      vertex 22 -12.0028 4.35106
      vertex 22 -10.35 0.75
    endloop
  endfacet
  facet normal 1 0 0
    outer loop
      vertex 22 -17.65 0.75
      vertex 22 -10.35 0.75
      vertex 22 -14 2.9
    endloop
  endfacet
  facet normal 1 0 0
    outer loop
      vertex 22 -17.65 0.75
      vertex 22 -14 2.9
      vertex 22 -14.8541 3.08155
    endloop
  endfacet
  facet normal 1 0 0
    outer loop
      vertex 22 -17.65 0.75
      vertex 22 -14.8541 3.08155
      vertex 22 -15.5606 3.59483
    endloop
  endfacet
  facet normal 1 0 0
    outer loop
      vertex 22 -17.65 0.75
      vertex 22 -15.9972 4.35106
      vertex 22 -16.0885 5.21951
    endloop
  endfacet
  facet normal 1 0 0
    outer loop
      vertex 22 -17.65 0.75
      vertex 22 -15.5606 3.59483
      vertex 22 -15.9972 4.35106
    endloop
  endfacet
  facet normal 1 0 0
    outer loop
      vertex 22 -15.2343 6.69894
      vertex 22 -14.4366 7.05411
      vertex 22 -17.65 10
    endloop
  endfacet
  facet normal 0 1 0
    outer loop
      vertex 26 -17.65 10
      vertex 26 -17.65 0.75
      vertex 22 -17.65 10
    endloop
  endfacet
  facet normal 0 1 0
    outer loop
      vertex 22 -17.65 10
      vertex 26 -17.65 0.75
      vertex 22 -17.65 0.75
    endloop
  endfacet
  facet normal -1 0 0
    outer loop
      vertex 26 -11.9115 5.21951
      vertex 26 -10.35 10
      vertex 26 -12.0028 4.35106
    endloop
  endfacet
  facet normal -1 0 0
    outer loop
      vertex 26 -14.8541 3.08155
      vertex 26 -10.35 0.75
      vertex 26 -17.65 0.75
    endloop
  endfacet
  facet normal -1 0 0
    outer loop
      vertex 26 -12.4394 3.59483
      vertex 26 -10.35 0.75
      vertex 26 -13.1459 3.08155
    endloop
  endfacet
  facet normal -1 0 0
    outer loop
      vertex 26 -17.65 10
      vertex 26 -15.9972 4.35106
      vertex 26 -17.65 0.75
    endloop
  endfacet
  facet normal -1 0 0
    outer loop
      vertex 26 -13.1459 3.08155
      vertex 26 -10.35 0.75
      vertex 26 -14 2.9
    endloop
  endfacet
  facet normal -1 0 0
    outer loop
      vertex 26 -15.9972 4.35106
      vertex 26 -15.5606 3.59483
      vertex 26 -17.65 0.75
    endloop
  endfacet
  facet normal -1 0 0
    outer loop
      vertex 26 -15.5606 3.59483
      vertex 26 -14.8541 3.08155
      vertex 26 -17.65 0.75
    endloop
  endfacet
  facet normal -1 0 0
    outer loop
      vertex 26 -15.8187 6.05
      vertex 26 -17.65 10
      vertex 26 -15.2343 6.69894
    endloop
  endfacet
  facet normal -1 0 0
    outer loop
      vertex 26 -12.0028 4.35106
      vertex 26 -10.35 0.75
      vertex 26 -12.4394 3.59483
    endloop
  endfacet
  facet normal -1 0 0
    outer loop
      vertex 26 -10.35 10
      vertex 26 -10.35 0.75
      vertex 26 -12.0028 4.35106
    endloop
  endfacet
  facet normal -1 0 0
    outer loop
      vertex 26 -14.4366 7.05411
      vertex 26 -17.65 10
      vertex 26 -13.5634 7.05411
    endloop
  endfacet
  facet normal -1 0 0
    outer loop
      vertex 26 -10.35 10
      vertex 26 -11.9115 5.21951
      vertex 26 -12.1813 6.05
    endloop
  endfacet
  facet normal -1 0 0
    outer loop
      vertex 26 -10.35 10
      vertex 26 -12.1813 6.05
      vertex 26 -12.7657 6.69894
    endloop
  endfacet
  facet normal -1 0 0
    outer loop
      vertex 26 -10.35 10
      vertex 26 -12.7657 6.69894
      vertex 26 -17.65 10
    endloop
  endfacet
  facet normal -1 0 0
    outer loop
      vertex 26 -12.7657 6.69894
      vertex 26 -13.5634 7.05411
      vertex 26 -17.65 10
    endloop
  endfacet
  facet normal -1 0 0
    outer loop
      vertex 26 -15.2343 6.69894
      vertex 26 -17.65 10
      vertex 26 -14.4366 7.05411
    endloop
  endfacet
  facet normal -1 0 0
    outer loop
      vertex 26 -17.65 10
      vertex 26 -15.8187 6.05
      vertex 26 -16.0885 5.21951
    endloop
  endfacet
  facet normal -1 0 0
    outer loop
      vertex 26 -17.65 10
      vertex 26 -16.0885 5.21951
      vertex 26 -15.9972 4.35106
    endloop
  endfacet
  facet normal -1 0 0
    outer loop
      vertex 26 -14 2.9
      vertex 26 -10.35 0.75
      vertex 26 -14.8541 3.08155
    endloop
  endfacet
  facet normal 0 -1 0
    outer loop
      vertex 26 -10.35 0.75
      vertex 26 -10.35 10
      vertex 22 -10.35 10
    endloop
  endfacet
  facet normal 0 -1 0
    outer loop
      vertex 22 -10.35 0.75
      vertex 26 -10.35 0.75
      vertex 22 -10.35 10
    endloop
  endfacet
  facet normal 1 0 0
    outer loop
      vertex 22 13.5634 7.05411
      vertex 22 17.65 10
      vertex 22 10.35 10
    endloop
  endfacet
  facet normal 1 0 0
    outer loop
      vertex 22 15.9972 4.35106
      vertex 22 15.5606 3.59483
      vertex 22 17.65 0.75
    endloop
  endfacet
  facet normal 1 0 0
    outer loop
      vertex 22 10.35 0.75
      vertex 22 11.9115 5.21951
      vertex 22 10.35 10
    endloop
  endfacet
  facet normal 1 0 0
    outer loop
      vertex 22 11.9115 5.21951
      vertex 22 12.1813 6.05
      vertex 22 10.35 10
    endloop
  endfacet
  facet normal 1 0 0
    outer loop
      vertex 22 12.1813 6.05
      vertex 22 12.7657 6.69894
      vertex 22 10.35 10
    endloop
  endfacet
  facet normal 1 0 0
    outer loop
      vertex 22 14.8541 3.08155
      vertex 22 14 2.9
      vertex 22 17.65 0.75
    endloop
  endfacet
  facet normal 1 0 0
    outer loop
      vertex 22 14.4366 7.05411
      vertex 22 17.65 10
      vertex 22 13.5634 7.05411
    endloop
  endfacet
  facet normal 1 0 0
    outer loop
      vertex 22 15.2343 6.69894
      vertex 22 17.65 10
      vertex 22 14.4366 7.05411
    endloop
  endfacet
  facet normal 1 0 0
    outer loop
      vertex 22 15.8187 6.05
      vertex 22 17.65 10
      vertex 22 15.2343 6.69894
    endloop
  endfacet
  facet normal 1 0 0
    outer loop
      vertex 22 17.65 0.75
      vertex 22 17.65 10
      vertex 22 15.8187 6.05
    endloop
  endfacet
  facet normal 1 0 0
    outer loop
      vertex 22 17.65 0.75
      vertex 22 15.8187 6.05
      vertex 22 16.0885 5.21951
    endloop
  endfacet
  facet normal 1 0 0
    outer loop
      vertex 22 15.5606 3.59483
      vertex 22 14.8541 3.08155
      vertex 22 17.65 0.75
    endloop
  endfacet
  facet normal 1 0 0
    outer loop
      vertex 22 16.0885 5.21951
      vertex 22 15.9972 4.35106
      vertex 22 17.65 0.75
    endloop
  endfacet
  facet normal 1 0 0
    outer loop
      vertex 22 10.35 0.75
      vertex 22 17.65 0.75
      vertex 22 14 2.9
    endloop
  endfacet
  facet normal 1 0 0
    outer loop
      vertex 22 10.35 0.75
      vertex 22 14 2.9
      vertex 22 13.1459 3.08155
    endloop
  endfacet
  facet normal 1 0 0
    outer loop
      vertex 22 10.35 0.75
      vertex 22 13.1459 3.08155
      vertex 22 12.4394 3.59483
    endloop
  endfacet
  facet normal 1 0 0
    outer loop
      vertex 22 10.35 0.75
      vertex 22 12.0028 4.35106
      vertex 22 11.9115 5.21951
    endloop
  endfacet
  facet normal 1 0 0
    outer loop
      vertex 22 10.35 0.75
      vertex 22 12.4394 3.59483
      vertex 22 12.0028 4.35106
    endloop
  endfacet
  facet normal 1 0 0
    outer loop
      vertex 22 12.7657 6.69894
      vertex 22 13.5634 7.05411
      vertex 22 10.35 10
    endloop
  endfacet
  facet normal 0 1 0
    outer loop
      vertex 26 10.35 10
      vertex 26 10.35 0.75
      vertex 22 10.35 10
    endloop
  endfacet
  facet normal 0 1 0
    outer loop
      vertex 22 10.35 10
      vertex 26 10.35 0.75
      vertex 22 10.35 0.75
    endloop
  endfacet
  facet normal -1 0 0
    outer loop
      vertex 26 16.0885 5.21951
      vertex 26 17.65 10
      vertex 26 15.9972 4.35106
    endloop
  endfacet
  facet normal -1 0 0
    outer loop
      vertex 26 13.1459 3.08155
      vertex 26 17.65 0.75
      vertex 26 10.35 0.75
    endloop
  endfacet
  facet normal -1 0 0
    outer loop
      vertex 26 15.5606 3.59483
      vertex 26 17.65 0.75
      vertex 26 14.8541 3.08155
    endloop
  endfacet
  facet normal -1 0 0
    outer loop
      vertex 26 10.35 10
      vertex 26 12.0028 4.35106
      vertex 26 10.35 0.75
    endloop
  endfacet
  facet normal -1 0 0
    outer loop
      vertex 26 14.8541 3.08155
      vertex 26 17.65 0.75
      vertex 26 14 2.9
    endloop
  endfacet
  facet normal -1 0 0
    outer loop
      vertex 26 12.0028 4.35106
      vertex 26 12.4394 3.59483
      vertex 26 10.35 0.75
    endloop
  endfacet
  facet normal -1 0 0
    outer loop
      vertex 26 12.4394 3.59483
      vertex 26 13.1459 3.08155
      vertex 26 10.35 0.75
    endloop
  endfacet
  facet normal -1 0 0
    outer loop
      vertex 26 12.1813 6.05
      vertex 26 10.35 10
      vertex 26 12.7657 6.69894
    endloop
  endfacet
  facet normal -1 0 0
    outer loop
      vertex 26 15.9972 4.35106
      vertex 26 17.65 0.75
      vertex 26 15.5606 3.59483
    endloop
  endfacet
  facet normal -1 0 0
    outer loop
      vertex 26 17.65 10
      vertex 26 17.65 0.75
      vertex 26 15.9972 4.35106
    endloop
  endfacet
  facet normal -1 0 0
    outer loop
      vertex 26 13.5634 7.05411
      vertex 26 10.35 10
      vertex 26 14.4366 7.05411
    endloop
  endfacet
  facet normal -1 0 0
    outer loop
      vertex 26 17.65 10
      vertex 26 16.0885 5.21951
      vertex 26 15.8187 6.05
    endloop
  endfacet
  facet normal -1 0 0
    outer loop
      vertex 26 17.65 10
      vertex 26 15.8187 6.05
      vertex 26 15.2343 6.69894
    endloop
  endfacet
  facet normal -1 0 0
    outer loop
      vertex 26 17.65 10
      vertex 26 15.2343 6.69894
      vertex 26 10.35 10
    endloop
  endfacet
  facet normal -1 0 0
    outer loop
      vertex 26 15.2343 6.69894
      vertex 26 14.4366 7.05411
      vertex 26 10.35 10
    endloop
  endfacet
  facet normal -1 0 0
    outer loop
      vertex 26 12.7657 6.69894
      vertex 26 10.35 10
      vertex 26 13.5634 7.05411
    endloop
  endfacet
  facet normal -1 0 0
    outer loop
      vertex 26 10.35 10
      vertex 26 12.1813 6.05
      vertex 26 11.9115 5.21951
    endloop
  endfacet
  facet normal -1 0 0
    outer loop
      vertex 26 10.35 10
      vertex 26 11.9115 5.21951
      vertex 26 12.0028 4.35106
    endloop
  endfacet
  facet normal -1 0 0
    outer loop
      vertex 26 14 2.9
      vertex 26 17.65 0.75
      vertex 26 13.1459 3.08155
    endloop
  endfacet
  facet normal 0 -1 0
    outer loop
      vertex 26 17.65 0.75
      vertex 26 17.65 10
      vertex 22 17.65 10
    endloop
  endfacet
  facet normal 0 -1 0
    outer loop
      vertex 22 17.65 0.75
      vertex 26 17.65 0.75
      vertex 22 17.65 10
    endloop
  endfacet
  facet normal -1.11022e-016 0.866025 0.500001
    outer loop
      vertex 45 -15.5606 3.59483
      vertex 26 -15.5606 3.59483
      vertex 45 -15.9972 4.35106
    endloop
  endfacet
  facet normal -1.11022e-016 0.866025 0.500001
    outer loop
      vertex 45 -15.9972 4.35106
      vertex 26 -15.5606 3.59483
      vertex 26 -15.9972 4.35106
    endloop
  endfacet
  facet normal -2.32099e-017 0.994522 0.104528
    outer loop
      vertex 45 -15.9972 4.35106
      vertex 26 -15.9972 4.35106
      vertex 45 -16.0885 5.21951
    endloop
  endfacet
  facet normal -2.32099e-017 0.994522 0.104528
    outer loop
      vertex 45 -16.0885 5.21951
      vertex 26 -15.9972 4.35106
      vertex 26 -16.0885 5.21951
    endloop
  endfacet
  facet normal -1.79638e-016 0.587785 0.809017
    outer loop
      vertex 45 -15.5606 3.59483
      vertex 45 -14.8541 3.08156
      vertex 26 -14.8541 3.08155
    endloop
  endfacet
  facet normal -1.79638e-016 0.587785 0.809017
    outer loop
      vertex 26 -15.5606 3.59483
      vertex 45 -15.5606 3.59483
      vertex 26 -14.8541 3.08155
    endloop
  endfacet
  facet normal -2.17192e-016 0.207912 0.978147
    outer loop
      vertex 45 -14.8541 3.08156
      vertex 45 -14 2.9
      vertex 26 -14 2.9
    endloop
  endfacet
  facet normal -2.17192e-016 0.207912 0.978147
    outer loop
      vertex 26 -14.8541 3.08155
      vertex 45 -14.8541 3.08156
      vertex 26 -14 2.9
    endloop
  endfacet
  facet normal -2.17192e-016 -0.207912 0.978147
    outer loop
      vertex 45 -14 2.9
      vertex 45 -13.1459 3.08156
      vertex 26 -13.1459 3.08155
    endloop
  endfacet
  facet normal -2.17192e-016 -0.207912 0.978147
    outer loop
      vertex 26 -14 2.9
      vertex 45 -14 2.9
      vertex 26 -13.1459 3.08155
    endloop
  endfacet
  facet normal -1.79638e-016 -0.587785 0.809017
    outer loop
      vertex 45 -13.1459 3.08156
      vertex 45 -12.4394 3.59483
      vertex 26 -12.4394 3.59483
    endloop
  endfacet
  facet normal -1.79638e-016 -0.587785 0.809017
    outer loop
      vertex 26 -13.1459 3.08155
      vertex 45 -13.1459 3.08156
      vertex 26 -12.4394 3.59483
    endloop
  endfacet
  facet normal -1.11022e-016 -0.866025 0.500001
    outer loop
      vertex 45 -12.4394 3.59483
      vertex 45 -12.0028 4.35106
      vertex 26 -12.0028 4.35106
    endloop
  endfacet
  facet normal -1.11022e-016 -0.866025 0.500001
    outer loop
      vertex 26 -12.4394 3.59483
      vertex 45 -12.4394 3.59483
      vertex 26 -12.0028 4.35106
    endloop
  endfacet
  facet normal -2.32099e-017 -0.994522 0.104528
    outer loop
      vertex 45 -12.0028 4.35106
      vertex 45 -11.9115 5.21951
      vertex 26 -11.9115 5.21951
    endloop
  endfacet
  facet normal -2.32099e-017 -0.994522 0.104528
    outer loop
      vertex 26 -12.0028 4.35106
      vertex 45 -12.0028 4.35106
      vertex 26 -11.9115 5.21951
    endloop
  endfacet
  facet normal 6.86157e-017 -0.951056 -0.309017
    outer loop
      vertex 26 -11.9115 5.21951
      vertex 45 -11.9115 5.21951
      vertex 45 -12.1813 6.05
    endloop
  endfacet
  facet normal 6.86157e-017 -0.951056 -0.309017
    outer loop
      vertex 26 -12.1813 6.05
      vertex 26 -11.9115 5.21951
      vertex 45 -12.1813 6.05
    endloop
  endfacet
  facet normal 1.48577e-016 -0.743145 -0.66913
    outer loop
      vertex 26 -12.1813 6.05
      vertex 45 -12.1813 6.05
      vertex 45 -12.7657 6.69894
    endloop
  endfacet
  facet normal 1.48577e-016 -0.743145 -0.66913
    outer loop
      vertex 26 -12.7657 6.69894
      vertex 26 -12.1813 6.05
      vertex 45 -12.7657 6.69894
    endloop
  endfacet
  facet normal 2.02848e-016 -0.406737 -0.913545
    outer loop
      vertex 45 -12.7657 6.69894
      vertex 45 -13.5634 7.05411
      vertex 26 -12.7657 6.69894
    endloop
  endfacet
  facet normal 2.02848e-016 -0.406737 -0.913545
    outer loop
      vertex 26 -12.7657 6.69894
      vertex 45 -13.5634 7.05411
      vertex 26 -13.5634 7.05411
    endloop
  endfacet
  facet normal 2.22045e-016 0 -1
    outer loop
      vertex 45 -13.5634 7.05411
      vertex 45 -14.4366 7.05411
      vertex 26 -13.5634 7.05411
    endloop
  endfacet
  facet normal 2.22045e-016 0 -1
    outer loop
      vertex 26 -13.5634 7.05411
      vertex 45 -14.4366 7.05411
      vertex 26 -14.4366 7.05411
    endloop
  endfacet
  facet normal 2.02848e-016 0.406737 -0.913545
    outer loop
      vertex 45 -14.4366 7.05411
      vertex 45 -15.2343 6.69894
      vertex 26 -14.4366 7.05411
    endloop
  endfacet
  facet normal 2.02848e-016 0.406737 -0.913545
    outer loop
      vertex 26 -14.4366 7.05411
      vertex 45 -15.2343 6.69894
      vertex 26 -15.2343 6.69894
    endloop
  endfacet
  facet normal 1.48577e-016 0.743145 -0.66913
    outer loop
      vertex 45 -15.2343 6.69894
      vertex 45 -15.8187 6.05
      vertex 26 -15.2343 6.69894
    endloop
  endfacet
  facet normal 1.48577e-016 0.743145 -0.66913
    outer loop
      vertex 26 -15.2343 6.69894
      vertex 45 -15.8187 6.05
      vertex 26 -15.8187 6.05
    endloop
  endfacet
  facet normal 6.86157e-017 0.951056 -0.309017
    outer loop
      vertex 45 -15.8187 6.05
      vertex 45 -16.0885 5.21951
      vertex 26 -15.8187 6.05
    endloop
  endfacet
  facet normal 6.86157e-017 0.951056 -0.309017
    outer loop
      vertex 26 -15.8187 6.05
      vertex 45 -16.0885 5.21951
      vertex 26 -16.0885 5.21951
    endloop
  endfacet
  facet normal -2.32099e-017 0.994522 0.104528
    outer loop
      vertex 45 12.0028 4.35106
      vertex 26 12.0028 4.35106
      vertex 45 11.9115 5.21951
    endloop
  endfacet
  facet normal -2.32099e-017 0.994522 0.104528
    outer loop
      vertex 45 11.9115 5.21951
      vertex 26 12.0028 4.35106
      vertex 26 11.9115 5.21951
    endloop
  endfacet
  facet normal -1.11022e-016 0.866025 0.500001
    outer loop
      vertex 45 12.4394 3.59483
      vertex 26 12.4394 3.59483
      vertex 45 12.0028 4.35106
    endloop
  endfacet
  facet normal -1.11022e-016 0.866025 0.500001
    outer loop
      vertex 45 12.0028 4.35106
      vertex 26 12.4394 3.59483
      vertex 26 12.0028 4.35106
    endloop
  endfacet
  facet normal -1.79638e-016 0.587785 0.809017
    outer loop
      vertex 45 12.4394 3.59483
      vertex 45 13.1459 3.08156
      vertex 26 13.1459 3.08155
    endloop
  endfacet
  facet normal -1.79638e-016 0.587785 0.809017
    outer loop
      vertex 26 12.4394 3.59483
      vertex 45 12.4394 3.59483
      vertex 26 13.1459 3.08155
    endloop
  endfacet
  facet normal -2.17192e-016 0.207912 0.978147
    outer loop
      vertex 45 13.1459 3.08156
      vertex 45 14 2.9
      vertex 26 14 2.9
    endloop
  endfacet
  facet normal -2.17192e-016 0.207912 0.978147
    outer loop
      vertex 26 13.1459 3.08155
      vertex 45 13.1459 3.08156
      vertex 26 14 2.9
    endloop
  endfacet
  facet normal -2.17192e-016 -0.207912 0.978147
    outer loop
      vertex 45 14 2.9
      vertex 45 14.8541 3.08156
      vertex 26 14.8541 3.08155
    endloop
  endfacet
  facet normal -2.17192e-016 -0.207912 0.978147
    outer loop
      vertex 26 14 2.9
      vertex 45 14 2.9
      vertex 26 14.8541 3.08155
    endloop
  endfacet
  facet normal -1.79638e-016 -0.587785 0.809017
    outer loop
      vertex 45 14.8541 3.08156
      vertex 45 15.5606 3.59483
      vertex 26 15.5606 3.59483
    endloop
  endfacet
  facet normal -1.79638e-016 -0.587785 0.809017
    outer loop
      vertex 26 14.8541 3.08155
      vertex 45 14.8541 3.08156
      vertex 26 15.5606 3.59483
    endloop
  endfacet
  facet normal -1.11022e-016 -0.866025 0.500001
    outer loop
      vertex 45 15.5606 3.59483
      vertex 45 15.9972 4.35106
      vertex 26 15.9972 4.35106
    endloop
  endfacet
  facet normal -1.11022e-016 -0.866025 0.500001
    outer loop
      vertex 26 15.5606 3.59483
      vertex 45 15.5606 3.59483
      vertex 26 15.9972 4.35106
    endloop
  endfacet
  facet normal -2.32099e-017 -0.994522 0.104528
    outer loop
      vertex 45 15.9972 4.35106
      vertex 45 16.0885 5.21951
      vertex 26 16.0885 5.21951
    endloop
  endfacet
  facet normal -2.32099e-017 -0.994522 0.104528
    outer loop
      vertex 26 15.9972 4.35106
      vertex 45 15.9972 4.35106
      vertex 26 16.0885 5.21951
    endloop
  endfacet
  facet normal 6.86157e-017 -0.951056 -0.309017
    outer loop
      vertex 26 16.0885 5.21951
      vertex 45 16.0885 5.21951
      vertex 45 15.8187 6.05
    endloop
  endfacet
  facet normal 6.86157e-017 -0.951056 -0.309017
    outer loop
      vertex 26 15.8187 6.05
      vertex 26 16.0885 5.21951
      vertex 45 15.8187 6.05
    endloop
  endfacet
  facet normal 1.48577e-016 -0.743145 -0.66913
    outer loop
      vertex 26 15.8187 6.05
      vertex 45 15.8187 6.05
      vertex 45 15.2343 6.69894
    endloop
  endfacet
  facet normal 1.48577e-016 -0.743145 -0.66913
    outer loop
      vertex 26 15.2343 6.69894
      vertex 26 15.8187 6.05
      vertex 45 15.2343 6.69894
    endloop
  endfacet
  facet normal 2.02848e-016 -0.406737 -0.913545
    outer loop
      vertex 45 15.2343 6.69894
      vertex 45 14.4366 7.05411
      vertex 26 15.2343 6.69894
    endloop
  endfacet
  facet normal 2.02848e-016 -0.406737 -0.913545
    outer loop
      vertex 26 15.2343 6.69894
      vertex 45 14.4366 7.05411
      vertex 26 14.4366 7.05411
    endloop
  endfacet
  facet normal 2.22045e-016 0 -1
    outer loop
      vertex 45 14.4366 7.05411
      vertex 45 13.5634 7.05411
      vertex 26 14.4366 7.05411
    endloop
  endfacet
  facet normal 2.22045e-016 0 -1
    outer loop
      vertex 26 14.4366 7.05411
      vertex 45 13.5634 7.05411
      vertex 26 13.5634 7.05411
    endloop
  endfacet
  facet normal 2.02848e-016 0.406737 -0.913545
    outer loop
      vertex 45 13.5634 7.05411
      vertex 45 12.7657 6.69894
      vertex 26 13.5634 7.05411
    endloop
  endfacet
  facet normal 2.02848e-016 0.406737 -0.913545
    outer loop
      vertex 26 13.5634 7.05411
      vertex 45 12.7657 6.69894
      vertex 26 12.7657 6.69894
    endloop
  endfacet
  facet normal 1.48577e-016 0.743145 -0.66913
    outer loop
      vertex 45 12.7657 6.69894
      vertex 45 12.1813 6.05
      vertex 26 12.7657 6.69894
    endloop
  endfacet
  facet normal 1.48577e-016 0.743145 -0.66913
    outer loop
      vertex 26 12.7657 6.69894
      vertex 45 12.1813 6.05
      vertex 26 12.1813 6.05
    endloop
  endfacet
  facet normal 6.86157e-017 0.951056 -0.309017
    outer loop
      vertex 45 12.1813 6.05
      vertex 45 11.9115 5.21951
      vertex 26 12.1813 6.05
    endloop
  endfacet
  facet normal 6.86157e-017 0.951056 -0.309017
    outer loop
      vertex 26 12.1813 6.05
      vertex 45 11.9115 5.21951
      vertex 26 11.9115 5.21951
    endloop
  endfacet
  facet normal 0 0 1
    outer loop
      vertex 26 -17.65 0.75
      vertex 26 -10.35 0.75
      vertex 22 -10.35 0.75
    endloop
  endfacet
  facet normal 0 0 1
    outer loop
      vertex 22 -17.65 0.75
      vertex 26 -17.65 0.75
      vertex 22 -10.35 0.75
    endloop
  endfacet
  facet normal 0 0 1
    outer loop
      vertex 26 10.35 0.75
      vertex 26 17.65 0.75
      vertex 22 17.65 0.75
    endloop
  endfacet
  facet normal 0 0 1
    outer loop
      vertex 22 10.35 0.75
      vertex 26 10.35 0.75
      vertex 22 17.65 0.75
    endloop
  endfacet
  facet normal -1 0 0
    outer loop
      vertex -13 -20 0
      vertex -13 -20 5
      vertex -13 20 0
    endloop
  endfacet
  facet normal -1 0 0
    outer loop
      vertex -13 20 0
      vertex -13 -20 5
      vertex -13 20 5
    endloop
  endfacet
  facet normal 0 -1 0
    outer loop
      vertex -13 -20 5
      vertex -13 -20 0
      vertex 13 -20 0
    endloop
  endfacet
  facet normal 0 -1 0
    outer loop
      vertex 13 -20 5
      vertex -13 -20 5
      vertex 13 -20 0
    endloop
  endfacet
  facet normal 0 0 -1
    outer loop
      vertex -7.09483 15.5606 0
      vertex -13 20 0
      vertex 13 20 0
    endloop
  endfacet
  facet normal 0 0 -1
    outer loop
      vertex -13 -20 0
      vertex -13 20 0
      vertex -10.5541 -13.5634 0
    endloop
  endfacet
  facet normal 0 0 -1
    outer loop
      vertex -13 -20 0
      vertex -10.5541 -13.5634 0
      vertex -10.5541 -14.4366 0
    endloop
  endfacet
  facet normal 0 0 -1
    outer loop
      vertex -13 -20 0
      vertex -10.5541 -14.4366 0
      vertex -10.1989 -15.2343 0
    endloop
  endfacet
  facet normal 0 0 -1
    outer loop
      vertex -13 -20 0
      vertex -10.1989 -15.2343 0
      vertex -9.55 -15.8187 0
    endloop
  endfacet
  facet normal 0 0 -1
    outer loop
      vertex -13 -20 0
      vertex -9.55 -15.8187 0
      vertex -8.71951 -16.0885 0
    endloop
  endfacet
  facet normal 0 0 -1
    outer loop
      vertex -13 -20 0
      vertex -8.71951 -16.0885 0
      vertex 13 -20 0
    endloop
  endfacet
  facet normal 0 0 -1
    outer loop
      vertex -7.09483 -15.5606 0
      vertex 13 -20 0
      vertex -7.85106 -15.9972 0
    endloop
  endfacet
  facet normal 0 0 -1
    outer loop
      vertex -6.58155 -14.8541 0
      vertex 13 -20 0
      vertex -7.09483 -15.5606 0
    endloop
  endfacet
  facet normal 0 0 -1
    outer loop
      vertex -6.4 -14 0
      vertex 13 -20 0
      vertex -6.58155 -14.8541 0
    endloop
  endfacet
  facet normal 0 0 -1
    outer loop
      vertex -6.58155 -13.1459 0
      vertex -13 20 0
      vertex -6.4 -14 0
    endloop
  endfacet
  facet normal 0 0 -1
    outer loop
      vertex -10.5541 14.4366 0
      vertex -13 20 0
      vertex -10.1989 15.2343 0
    endloop
  endfacet
  facet normal 0 0 -1
    outer loop
      vertex -7.09483 -12.4394 0
      vertex -13 20 0
      vertex -6.58155 -13.1459 0
    endloop
  endfacet
  facet normal 0 0 -1
    outer loop
      vertex -7.85106 -12.0028 0
      vertex -13 20 0
      vertex -7.09483 -12.4394 0
    endloop
  endfacet
  facet normal 0 0 -1
    outer loop
      vertex -8.71951 -11.9115 0
      vertex -13 20 0
      vertex -7.85106 -12.0028 0
    endloop
  endfacet
  facet normal 0 0 -1
    outer loop
      vertex -9.55 -12.1813 0
      vertex -13 20 0
      vertex -8.71951 -11.9115 0
    endloop
  endfacet
  facet normal 0 0 -1
    outer loop
      vertex -10.1989 -12.7657 0
      vertex -13 20 0
      vertex -9.55 -12.1813 0
    endloop
  endfacet
  facet normal 0 0 -1
    outer loop
      vertex -10.5541 -13.5634 0
      vertex -13 20 0
      vertex -10.1989 -12.7657 0
    endloop
  endfacet
  facet normal 0 0 -1
    outer loop
      vertex -10.5541 13.5634 0
      vertex -13 20 0
      vertex -10.5541 14.4366 0
    endloop
  endfacet
  facet normal 0 0 -1
    outer loop
      vertex -6.4 -14 0
      vertex -13 20 0
      vertex -10.5541 13.5634 0
    endloop
  endfacet
  facet normal 0 0 -1
    outer loop
      vertex -10.1989 12.7657 0
      vertex -6.4 -14 0
      vertex -10.5541 13.5634 0
    endloop
  endfacet
  facet normal 0 0 -1
    outer loop
      vertex 7.45 -12.1813 0
      vertex -7.85106 12.0028 0
      vertex -7.09483 12.4394 0
    endloop
  endfacet
  facet normal 0 0 -1
    outer loop
      vertex 8.28049 -16.0885 0
      vertex 13 -20 0
      vertex 7.45 -15.8187 0
    endloop
  endfacet
  facet normal 0 0 -1
    outer loop
      vertex 7.45 -12.1813 0
      vertex -7.09483 12.4394 0
      vertex 8.28049 -11.9115 0
    endloop
  endfacet
  facet normal 0 0 -1
    outer loop
      vertex -8.71951 16.0885 0
      vertex -13 20 0
      vertex -7.85106 15.9972 0
    endloop
  endfacet
  facet normal 0 0 -1
    outer loop
      vertex 8.28049 16.0885 0
      vertex -7.09483 12.4394 0
      vertex 13 20 0
    endloop
  endfacet
  facet normal 0 0 -1
    outer loop
      vertex -10.1989 15.2343 0
      vertex -13 20 0
      vertex -9.55 15.8187 0
    endloop
  endfacet
  facet normal 0 0 -1
    outer loop
      vertex -7.09483 12.4394 0
      vertex -6.58155 13.1459 0
      vertex 13 20 0
    endloop
  endfacet
  facet normal 0 0 -1
    outer loop
      vertex -9.55 15.8187 0
      vertex -13 20 0
      vertex -8.71951 16.0885 0
    endloop
  endfacet
  facet normal 0 0 -1
    outer loop
      vertex -6.58155 13.1459 0
      vertex -6.4 14 0
      vertex 13 20 0
    endloop
  endfacet
  facet normal 0 0 -1
    outer loop
      vertex -6.4 14 0
      vertex -6.58155 14.8541 0
      vertex 13 20 0
    endloop
  endfacet
  facet normal 0 0 -1
    outer loop
      vertex -7.85106 15.9972 0
      vertex -13 20 0
      vertex -7.09483 15.5606 0
    endloop
  endfacet
  facet normal 0 0 -1
    outer loop
      vertex -6.58155 14.8541 0
      vertex -7.09483 15.5606 0
      vertex 13 20 0
    endloop
  endfacet
  facet normal 0 0 -1
    outer loop
      vertex -6.4 -14 0
      vertex -10.1989 12.7657 0
      vertex 6.44589 -13.5634 0
    endloop
  endfacet
  facet normal 0 0 -1
    outer loop
      vertex 7.45 -12.1813 0
      vertex -10.1989 12.7657 0
      vertex -9.55 12.1813 0
    endloop
  endfacet
  facet normal 0 0 -1
    outer loop
      vertex -6.4 -14 0
      vertex 6.44589 -13.5634 0
      vertex 6.44589 -14.4366 0
    endloop
  endfacet
  facet normal 0 0 -1
    outer loop
      vertex 6.80106 -12.7657 0
      vertex -10.1989 12.7657 0
      vertex 7.45 -12.1813 0
    endloop
  endfacet
  facet normal 0 0 -1
    outer loop
      vertex -6.4 -14 0
      vertex 6.44589 -14.4366 0
      vertex 6.80106 -15.2343 0
    endloop
  endfacet
  facet normal 0 0 -1
    outer loop
      vertex -6.4 -14 0
      vertex 6.80106 -15.2343 0
      vertex 7.45 -15.8187 0
    endloop
  endfacet
  facet normal 0 0 -1
    outer loop
      vertex -6.4 -14 0
      vertex 7.45 -15.8187 0
      vertex 13 -20 0
    endloop
  endfacet
  facet normal 0 0 -1
    outer loop
      vertex 9.14894 -15.9972 0
      vertex 13 -20 0
      vertex 8.28049 -16.0885 0
    endloop
  endfacet
  facet normal 0 0 -1
    outer loop
      vertex 6.80106 12.7657 0
      vertex 10.4184 -13.1459 0
      vertex 6.44589 13.5634 0
    endloop
  endfacet
  facet normal 0 0 -1
    outer loop
      vertex 9.90517 -15.5606 0
      vertex 13 -20 0
      vertex 9.14894 -15.9972 0
    endloop
  endfacet
  facet normal 0 0 -1
    outer loop
      vertex 10.4184 -14.8541 0
      vertex 13 -20 0
      vertex 9.90517 -15.5606 0
    endloop
  endfacet
  facet normal 0 0 -1
    outer loop
      vertex 7.45 -12.1813 0
      vertex -9.55 12.1813 0
      vertex -8.71951 11.9115 0
    endloop
  endfacet
  facet normal 0 0 -1
    outer loop
      vertex 13 -20 0
      vertex 10.4184 -14.8541 0
      vertex 10.6 -14 0
    endloop
  endfacet
  facet normal 0 0 -1
    outer loop
      vertex 13 -20 0
      vertex 10.6 -14 0
      vertex 13 20 0
    endloop
  endfacet
  facet normal 0 0 -1
    outer loop
      vertex 9.90517 -12.4394 0
      vertex -7.09483 12.4394 0
      vertex 10.4184 -13.1459 0
    endloop
  endfacet
  facet normal 0 0 -1
    outer loop
      vertex 8.28049 -11.9115 0
      vertex -7.09483 12.4394 0
      vertex 9.14894 -12.0028 0
    endloop
  endfacet
  facet normal 0 0 -1
    outer loop
      vertex 9.14894 -12.0028 0
      vertex -7.09483 12.4394 0
      vertex 9.90517 -12.4394 0
    endloop
  endfacet
  facet normal 0 0 -1
    outer loop
      vertex 7.45 -12.1813 0
      vertex -8.71951 11.9115 0
      vertex -7.85106 12.0028 0
    endloop
  endfacet
  facet normal 0 0 -1
    outer loop
      vertex 10.4184 -13.1459 0
      vertex 13 20 0
      vertex 10.6 -14 0
    endloop
  endfacet
  facet normal 0 0 -1
    outer loop
      vertex 6.44589 -13.5634 0
      vertex -10.1989 12.7657 0
      vertex 6.80106 -12.7657 0
    endloop
  endfacet
  facet normal 0 0 -1
    outer loop
      vertex 6.44589 13.5634 0
      vertex -7.09483 12.4394 0
      vertex 6.44589 14.4366 0
    endloop
  endfacet
  facet normal 0 0 -1
    outer loop
      vertex 10.4184 -13.1459 0
      vertex -7.09483 12.4394 0
      vertex 6.44589 13.5634 0
    endloop
  endfacet
  facet normal 0 0 -1
    outer loop
      vertex 10.4184 14.8541 0
      vertex 13 20 0
      vertex 10.6 14 0
    endloop
  endfacet
  facet normal 0 0 -1
    outer loop
      vertex 10.4184 -13.1459 0
      vertex 6.80106 12.7657 0
      vertex 7.45 12.1813 0
    endloop
  endfacet
  facet normal 0 0 -1
    outer loop
      vertex 10.4184 -13.1459 0
      vertex 7.45 12.1813 0
      vertex 8.28049 11.9115 0
    endloop
  endfacet
  facet normal 0 0 -1
    outer loop
      vertex 10.4184 -13.1459 0
      vertex 8.28049 11.9115 0
      vertex 9.14894 12.0028 0
    endloop
  endfacet
  facet normal 0 0 -1
    outer loop
      vertex 10.4184 -13.1459 0
      vertex 9.14894 12.0028 0
      vertex 9.90517 12.4394 0
    endloop
  endfacet
  facet normal 0 0 -1
    outer loop
      vertex 10.4184 -13.1459 0
      vertex 9.90517 12.4394 0
      vertex 10.4184 13.1459 0
    endloop
  endfacet
  facet normal 0 0 -1
    outer loop
      vertex 10.4184 -13.1459 0
      vertex 10.4184 13.1459 0
      vertex 13 20 0
    endloop
  endfacet
  facet normal 0 0 -1
    outer loop
      vertex 10.4184 13.1459 0
      vertex 10.6 14 0
      vertex 13 20 0
    endloop
  endfacet
  facet normal 0 0 -1
    outer loop
      vertex 9.90517 15.5606 0
      vertex 13 20 0
      vertex 10.4184 14.8541 0
    endloop
  endfacet
  facet normal 0 0 -1
    outer loop
      vertex 9.14894 15.9972 0
      vertex 13 20 0
      vertex 9.90517 15.5606 0
    endloop
  endfacet
  facet normal 0 0 -1
    outer loop
      vertex 8.28049 16.0885 0
      vertex 13 20 0
      vertex 9.14894 15.9972 0
    endloop
  endfacet
  facet normal 0 0 -1
    outer loop
      vertex 7.45 15.8187 0
      vertex -7.09483 12.4394 0
      vertex 8.28049 16.0885 0
    endloop
  endfacet
  facet normal 0 0 -1
    outer loop
      vertex 6.80106 15.2343 0
      vertex -7.09483 12.4394 0
      vertex 7.45 15.8187 0
    endloop
  endfacet
  facet normal 0 0 -1
    outer loop
      vertex 6.44589 14.4366 0
      vertex -7.09483 12.4394 0
      vertex 6.80106 15.2343 0
    endloop
  endfacet
  facet normal 0 0 -1
    outer loop
      vertex -7.85106 -15.9972 0
      vertex 13 -20 0
      vertex -8.71951 -16.0885 0
    endloop
  endfacet
  facet normal 0 1 0
    outer loop
      vertex -13 20 0
      vertex -13 20 5
      vertex 13 20 0
    endloop
  endfacet
  facet normal 0 1 0
    outer loop
      vertex 13 20 0
      vertex -13 20 5
      vertex 13 20 5
    endloop
  endfacet
  facet normal 0 0 1
    outer loop
      vertex -7.09483 -15.5606 5
      vertex -13 -20 5
      vertex 13 -20 5
    endloop
  endfacet
  facet normal 0 0 1
    outer loop
      vertex -13 20 5
      vertex -13 -20 5
      vertex -10.5541 -14.4366 5
    endloop
  endfacet
  facet normal 0 0 1
    outer loop
      vertex -6.58155 -14.8541 5
      vertex -7.09483 -15.5606 5
      vertex 13 -20 5
    endloop
  endfacet
  facet normal 0 0 1
    outer loop
      vertex -13 20 5
      vertex -10.5541 -14.4366 5
      vertex -10.5541 -13.5634 5
    endloop
  endfacet
  facet normal 0 0 1
    outer loop
      vertex -6.4 -14 5
      vertex -6.58155 -14.8541 5
      vertex 13 -20 5
    endloop
  endfacet
  facet normal 0 0 1
    outer loop
      vertex -13 20 5
      vertex -10.5541 -13.5634 5
      vertex -10.1989 -12.7657 5
    endloop
  endfacet
  facet normal 0 0 1
    outer loop
      vertex -10.1989 15.2343 5
      vertex -9.55 15.8187 5
      vertex -13 20 5
    endloop
  endfacet
  facet normal 0 0 1
    outer loop
      vertex -13 20 5
      vertex -10.1989 -12.7657 5
      vertex -9.55 -12.1813 5
    endloop
  endfacet
  facet normal 0 0 1
    outer loop
      vertex -13 20 5
      vertex -9.55 -12.1813 5
      vertex -8.71951 -11.9115 5
    endloop
  endfacet
  facet normal 0 0 1
    outer loop
      vertex 8.28049 -16.0885 5
      vertex -7.85106 -12.0028 5
      vertex 13 -20 5
    endloop
  endfacet
  facet normal 0 0 1
    outer loop
      vertex -13 20 5
      vertex -8.71951 -11.9115 5
      vertex -7.85106 -12.0028 5
    endloop
  endfacet
  facet normal 0 0 1
    outer loop
      vertex -7.85106 -12.0028 5
      vertex -7.09483 -12.4394 5
      vertex 13 -20 5
    endloop
  endfacet
  facet normal 0 0 1
    outer loop
      vertex -7.85106 -15.9972 5
      vertex -13 -20 5
      vertex -7.09483 -15.5606 5
    endloop
  endfacet
  facet normal 0 0 1
    outer loop
      vertex -8.71951 -16.0885 5
      vertex -13 -20 5
      vertex -7.85106 -15.9972 5
    endloop
  endfacet
  facet normal 0 0 1
    outer loop
      vertex -9.55 -15.8187 5
      vertex -13 -20 5
      vertex -8.71951 -16.0885 5
    endloop
  endfacet
  facet normal 0 0 1
    outer loop
      vertex -10.1989 -15.2343 5
      vertex -13 -20 5
      vertex -9.55 -15.8187 5
    endloop
  endfacet
  facet normal 0 0 1
    outer loop
      vertex -10.5541 -14.4366 5
      vertex -13 -20 5
      vertex -10.1989 -15.2343 5
    endloop
  endfacet
  facet normal 0 0 1
    outer loop
      vertex 9.14894 -15.9972 5
      vertex 8.28049 -16.0885 5
      vertex 13 -20 5
    endloop
  endfacet
  facet normal 0 0 1
    outer loop
      vertex -13 20 5
      vertex -7.85106 -12.0028 5
      vertex -10.5541 13.5634 5
    endloop
  endfacet
  facet normal 0 0 1
    outer loop
      vertex -13 20 5
      vertex -10.5541 13.5634 5
      vertex -10.5541 14.4366 5
    endloop
  endfacet
  facet normal 0 0 1
    outer loop
      vertex -13 20 5
      vertex -10.5541 14.4366 5
      vertex -10.1989 15.2343 5
    endloop
  endfacet
  facet normal 0 0 1
    outer loop
      vertex 8.28049 -11.9115 5
      vertex 9.14894 -12.0028 5
      vertex -6.58155 14.8541 5
    endloop
  endfacet
  facet normal 0 0 1
    outer loop
      vertex -8.71951 16.0885 5
      vertex -13 20 5
      vertex -9.55 15.8187 5
    endloop
  endfacet
  facet normal 0 0 1
    outer loop
      vertex 10.6 -14 5
      vertex 10.4184 -14.8541 5
      vertex 13 -20 5
    endloop
  endfacet
  facet normal 0 0 1
    outer loop
      vertex 13 20 5
      vertex -13 20 5
      vertex -8.71951 16.0885 5
    endloop
  endfacet
  facet normal 0 0 1
    outer loop
      vertex 13 20 5
      vertex -7.85106 15.9972 5
      vertex -7.09483 15.5606 5
    endloop
  endfacet
  facet normal 0 0 1
    outer loop
      vertex 13 20 5
      vertex -7.09483 15.5606 5
      vertex -6.58155 14.8541 5
    endloop
  endfacet
  facet normal 0 0 1
    outer loop
      vertex -8.71951 16.0885 5
      vertex -7.85106 15.9972 5
      vertex 13 20 5
    endloop
  endfacet
  facet normal 0 0 1
    outer loop
      vertex -6.4 14 5
      vertex -6.58155 13.1459 5
      vertex 8.28049 -11.9115 5
    endloop
  endfacet
  facet normal 0 0 1
    outer loop
      vertex -10.5541 13.5634 5
      vertex -7.85106 -12.0028 5
      vertex -10.1989 12.7657 5
    endloop
  endfacet
  facet normal 0 0 1
    outer loop
      vertex 7.45 15.8187 5
      vertex 8.28049 16.0885 5
      vertex 13 20 5
    endloop
  endfacet
  facet normal 0 0 1
    outer loop
      vertex -10.1989 12.7657 5
      vertex -7.85106 -12.0028 5
      vertex 6.44589 -14.4366 5
    endloop
  endfacet
  facet normal 0 0 1
    outer loop
      vertex 8.28049 16.0885 5
      vertex 9.14894 15.9972 5
      vertex 13 20 5
    endloop
  endfacet
  facet normal 0 0 1
    outer loop
      vertex -10.1989 12.7657 5
      vertex 6.44589 -14.4366 5
      vertex 6.44589 -13.5634 5
    endloop
  endfacet
  facet normal 0 0 1
    outer loop
      vertex -10.1989 12.7657 5
      vertex 6.44589 -13.5634 5
      vertex 6.80106 -12.7657 5
    endloop
  endfacet
  facet normal 0 0 1
    outer loop
      vertex -10.1989 12.7657 5
      vertex 6.80106 -12.7657 5
      vertex 7.45 -12.1813 5
    endloop
  endfacet
  facet normal 0 0 1
    outer loop
      vertex 8.28049 -11.9115 5
      vertex -6.58155 14.8541 5
      vertex -6.4 14 5
    endloop
  endfacet
  facet normal 0 0 1
    outer loop
      vertex 10.4184 -14.8541 5
      vertex 9.90517 -15.5606 5
      vertex 13 -20 5
    endloop
  endfacet
  facet normal 0 0 1
    outer loop
      vertex 6.44589 13.5634 5
      vertex -6.58155 14.8541 5
      vertex 9.14894 -12.0028 5
    endloop
  endfacet
  facet normal 0 0 1
    outer loop
      vertex 9.90517 -15.5606 5
      vertex 9.14894 -15.9972 5
      vertex 13 -20 5
    endloop
  endfacet
  facet normal 0 0 1
    outer loop
      vertex 13 20 5
      vertex 9.14894 -12.0028 5
      vertex 9.90517 -12.4394 5
    endloop
  endfacet
  facet normal 0 0 1
    outer loop
      vertex 13 20 5
      vertex 10.4184 -13.1459 5
      vertex 13 -20 5
    endloop
  endfacet
  facet normal 0 0 1
    outer loop
      vertex 13 20 5
      vertex 9.90517 -12.4394 5
      vertex 10.4184 -13.1459 5
    endloop
  endfacet
  facet normal 0 0 1
    outer loop
      vertex 10.4184 -13.1459 5
      vertex 10.6 -14 5
      vertex 13 -20 5
    endloop
  endfacet
  facet normal 0 0 1
    outer loop
      vertex 7.45 -15.8187 5
      vertex -7.85106 -12.0028 5
      vertex 8.28049 -16.0885 5
    endloop
  endfacet
  facet normal 0 0 1
    outer loop
      vertex 6.80106 -15.2343 5
      vertex -7.85106 -12.0028 5
      vertex 7.45 -15.8187 5
    endloop
  endfacet
  facet normal 0 0 1
    outer loop
      vertex 6.44589 -14.4366 5
      vertex -7.85106 -12.0028 5
      vertex 6.80106 -15.2343 5
    endloop
  endfacet
  facet normal 0 0 1
    outer loop
      vertex 6.80106 12.7657 5
      vertex 6.44589 13.5634 5
      vertex 9.14894 -12.0028 5
    endloop
  endfacet
  facet normal 0 0 1
    outer loop
      vertex 6.44589 14.4366 5
      vertex -6.58155 14.8541 5
      vertex 6.44589 13.5634 5
    endloop
  endfacet
  facet normal 0 0 1
    outer loop
      vertex 10.4184 13.1459 5
      vertex 9.90517 12.4394 5
      vertex 9.14894 -12.0028 5
    endloop
  endfacet
  facet normal 0 0 1
    outer loop
      vertex 6.80106 15.2343 5
      vertex -6.58155 14.8541 5
      vertex 6.44589 14.4366 5
    endloop
  endfacet
  facet normal 0 0 1
    outer loop
      vertex 7.45 15.8187 5
      vertex -6.58155 14.8541 5
      vertex 6.80106 15.2343 5
    endloop
  endfacet
  facet normal 0 0 1
    outer loop
      vertex 13 20 5
      vertex -6.58155 14.8541 5
      vertex 7.45 15.8187 5
    endloop
  endfacet
  facet normal 0 0 1
    outer loop
      vertex 13 20 5
      vertex 9.14894 15.9972 5
      vertex 9.90517 15.5606 5
    endloop
  endfacet
  facet normal 0 0 1
    outer loop
      vertex 9.90517 12.4394 5
      vertex 9.14894 12.0028 5
      vertex 9.14894 -12.0028 5
    endloop
  endfacet
  facet normal 0 0 1
    outer loop
      vertex 13 20 5
      vertex 9.90517 15.5606 5
      vertex 10.4184 14.8541 5
    endloop
  endfacet
  facet normal 0 0 1
    outer loop
      vertex 13 20 5
      vertex 10.6 14 5
      vertex 9.14894 -12.0028 5
    endloop
  endfacet
  facet normal 0 0 1
    outer loop
      vertex 13 20 5
      vertex 10.4184 14.8541 5
      vertex 10.6 14 5
    endloop
  endfacet
  facet normal 0 0 1
    outer loop
      vertex 10.6 14 5
      vertex 10.4184 13.1459 5
      vertex 9.14894 -12.0028 5
    endloop
  endfacet
  facet normal 0 0 1
    outer loop
      vertex 9.14894 12.0028 5
      vertex 8.28049 11.9115 5
      vertex 9.14894 -12.0028 5
    endloop
  endfacet
  facet normal 0 0 1
    outer loop
      vertex 8.28049 11.9115 5
      vertex 7.45 12.1813 5
      vertex 9.14894 -12.0028 5
    endloop
  endfacet
  facet normal 0 0 1
    outer loop
      vertex 7.45 12.1813 5
      vertex 6.80106 12.7657 5
      vertex 9.14894 -12.0028 5
    endloop
  endfacet
  facet normal 0 0 1
    outer loop
      vertex -7.09483 -12.4394 5
      vertex -6.58155 -13.1459 5
      vertex 13 -20 5
    endloop
  endfacet
  facet normal 0 0 1
    outer loop
      vertex -6.58155 -13.1459 5
      vertex -6.4 -14 5
      vertex 13 -20 5
    endloop
  endfacet
  facet normal 0 0 1
    outer loop
      vertex 7.45 -12.1813 5
      vertex -9.55 12.1813 5
      vertex -10.1989 12.7657 5
    endloop
  endfacet
  facet normal 0 0 1
    outer loop
      vertex 7.45 -12.1813 5
      vertex -8.71951 11.9115 5
      vertex -9.55 12.1813 5
    endloop
  endfacet
  facet normal 0 0 1
    outer loop
      vertex 7.45 -12.1813 5
      vertex -7.85106 12.0028 5
      vertex -8.71951 11.9115 5
    endloop
  endfacet
  facet normal 0 0 1
    outer loop
      vertex 7.45 -12.1813 5
      vertex -7.09483 12.4394 5
      vertex -7.85106 12.0028 5
    endloop
  endfacet
  facet normal 0 0 1
    outer loop
      vertex 7.45 -12.1813 5
      vertex -6.58155 13.1459 5
      vertex -7.09483 12.4394 5
    endloop
  endfacet
  facet normal 0 0 1
    outer loop
      vertex 7.45 -12.1813 5
      vertex 8.28049 -11.9115 5
      vertex -6.58155 13.1459 5
    endloop
  endfacet
  facet normal 1 0 0
    outer loop
      vertex 13 -20 5
      vertex 13 -20 0
      vertex 13 20 0
    endloop
  endfacet
  facet normal 1 0 0
    outer loop
      vertex 13 20 5
      vertex 13 -20 5
      vertex 13 20 0
    endloop
  endfacet
  facet normal 0.913545 -0.406737 0
    outer loop
      vertex -10.1989 -12.7657 0
      vertex -10.1989 -12.7657 5
      vertex -10.5541 -13.5634 5
    endloop
  endfacet
  facet normal 0.913545 -0.406737 0
    outer loop
      vertex -10.5541 -13.5634 0
      vertex -10.1989 -12.7657 0
      vertex -10.5541 -13.5634 5
    endloop
  endfacet
  facet normal 1 0 0
    outer loop
      vertex -10.5541 -13.5634 0
      vertex -10.5541 -13.5634 5
      vertex -10.5541 -14.4366 5
    endloop
  endfacet
  facet normal 1 0 0
    outer loop
      vertex -10.5541 -14.4366 0
      vertex -10.5541 -13.5634 0
      vertex -10.5541 -14.4366 5
    endloop
  endfacet
  facet normal 0.66913 -0.743145 0
    outer loop
      vertex -9.55 -12.1813 0
      vertex -9.55 -12.1813 5
      vertex -10.1989 -12.7657 5
    endloop
  endfacet
  facet normal 0.66913 -0.743145 0
    outer loop
      vertex -10.1989 -12.7657 0
      vertex -9.55 -12.1813 0
      vertex -10.1989 -12.7657 5
    endloop
  endfacet
  facet normal 0.309017 -0.951056 0
    outer loop
      vertex -8.71951 -11.9115 0
      vertex -8.71951 -11.9115 5
      vertex -9.55 -12.1813 5
    endloop
  endfacet
  facet normal 0.309017 -0.951056 0
    outer loop
      vertex -9.55 -12.1813 0
      vertex -8.71951 -11.9115 0
      vertex -9.55 -12.1813 5
    endloop
  endfacet
  facet normal -0.104528 -0.994522 0
    outer loop
      vertex -7.85106 -12.0028 0
      vertex -7.85106 -12.0028 5
      vertex -8.71951 -11.9115 5
    endloop
  endfacet
  facet normal -0.104528 -0.994522 0
    outer loop
      vertex -8.71951 -11.9115 0
      vertex -7.85106 -12.0028 0
      vertex -8.71951 -11.9115 5
    endloop
  endfacet
  facet normal -0.500001 -0.866025 0
    outer loop
      vertex -7.09483 -12.4394 0
      vertex -7.09483 -12.4394 5
      vertex -7.85106 -12.0028 5
    endloop
  endfacet
  facet normal -0.500001 -0.866025 0
    outer loop
      vertex -7.85106 -12.0028 0
      vertex -7.09483 -12.4394 0
      vertex -7.85106 -12.0028 5
    endloop
  endfacet
  facet normal -0.809017 -0.587785 0
    outer loop
      vertex -6.58155 -13.1459 5
      vertex -7.09483 -12.4394 5
      vertex -6.58155 -13.1459 0
    endloop
  endfacet
  facet normal -0.809017 -0.587785 0
    outer loop
      vertex -6.58155 -13.1459 0
      vertex -7.09483 -12.4394 5
      vertex -7.09483 -12.4394 0
    endloop
  endfacet
  facet normal -0.978147 -0.207912 0
    outer loop
      vertex -6.4 -14 5
      vertex -6.58155 -13.1459 5
      vertex -6.4 -14 0
    endloop
  endfacet
  facet normal -0.978147 -0.207912 0
    outer loop
      vertex -6.4 -14 0
      vertex -6.58155 -13.1459 5
      vertex -6.58155 -13.1459 0
    endloop
  endfacet
  facet normal -0.978147 0.207912 0
    outer loop
      vertex -6.4 -14 5
      vertex -6.4 -14 0
      vertex -6.58155 -14.8541 5
    endloop
  endfacet
  facet normal -0.978147 0.207912 0
    outer loop
      vertex -6.58155 -14.8541 5
      vertex -6.4 -14 0
      vertex -6.58155 -14.8541 0
    endloop
  endfacet
  facet normal -0.809017 0.587785 0
    outer loop
      vertex -6.58155 -14.8541 5
      vertex -6.58155 -14.8541 0
      vertex -7.09483 -15.5606 5
    endloop
  endfacet
  facet normal -0.809017 0.587785 0
    outer loop
      vertex -7.09483 -15.5606 5
      vertex -6.58155 -14.8541 0
      vertex -7.09483 -15.5606 0
    endloop
  endfacet
  facet normal -0.500001 0.866025 0
    outer loop
      vertex -7.09483 -15.5606 5
      vertex -7.09483 -15.5606 0
      vertex -7.85106 -15.9972 5
    endloop
  endfacet
  facet normal -0.500001 0.866025 0
    outer loop
      vertex -7.85106 -15.9972 5
      vertex -7.09483 -15.5606 0
      vertex -7.85106 -15.9972 0
    endloop
  endfacet
  facet normal -0.104528 0.994522 0
    outer loop
      vertex -7.85106 -15.9972 5
      vertex -7.85106 -15.9972 0
      vertex -8.71951 -16.0885 5
    endloop
  endfacet
  facet normal -0.104528 0.994522 0
    outer loop
      vertex -8.71951 -16.0885 5
      vertex -7.85106 -15.9972 0
      vertex -8.71951 -16.0885 0
    endloop
  endfacet
  facet normal 0.309017 0.951056 0
    outer loop
      vertex -8.71951 -16.0885 5
      vertex -8.71951 -16.0885 0
      vertex -9.55 -15.8187 5
    endloop
  endfacet
  facet normal 0.309017 0.951056 0
    outer loop
      vertex -9.55 -15.8187 5
      vertex -8.71951 -16.0885 0
      vertex -9.55 -15.8187 0
    endloop
  endfacet
  facet normal 0.66913 0.743145 0
    outer loop
      vertex -9.55 -15.8187 5
      vertex -9.55 -15.8187 0
      vertex -10.1989 -15.2343 5
    endloop
  endfacet
  facet normal 0.66913 0.743145 0
    outer loop
      vertex -10.1989 -15.2343 5
      vertex -9.55 -15.8187 0
      vertex -10.1989 -15.2343 0
    endloop
  endfacet
  facet normal 0.913545 0.406737 0
    outer loop
      vertex -10.5541 -14.4366 5
      vertex -10.1989 -15.2343 5
      vertex -10.1989 -15.2343 0
    endloop
  endfacet
  facet normal 0.913545 0.406737 0
    outer loop
      vertex -10.5541 -14.4366 0
      vertex -10.5541 -14.4366 5
      vertex -10.1989 -15.2343 0
    endloop
  endfacet
  facet normal 0.913545 -0.406737 0
    outer loop
      vertex -10.1989 15.2343 0
      vertex -10.1989 15.2343 5
      vertex -10.5541 14.4366 5
    endloop
  endfacet
  facet normal 0.913545 -0.406737 0
    outer loop
      vertex -10.5541 14.4366 0
      vertex -10.1989 15.2343 0
      vertex -10.5541 14.4366 5
    endloop
  endfacet
  facet normal 1 0 0
    outer loop
      vertex -10.5541 14.4366 0
      vertex -10.5541 14.4366 5
      vertex -10.5541 13.5634 5
    endloop
  endfacet
  facet normal 1 0 0
    outer loop
      vertex -10.5541 13.5634 0
      vertex -10.5541 14.4366 0
      vertex -10.5541 13.5634 5
    endloop
  endfacet
  facet normal 0.66913 -0.743145 0
    outer loop
      vertex -9.55 15.8187 0
      vertex -9.55 15.8187 5
      vertex -10.1989 15.2343 5
    endloop
  endfacet
  facet normal 0.66913 -0.743145 0
    outer loop
      vertex -10.1989 15.2343 0
      vertex -9.55 15.8187 0
      vertex -10.1989 15.2343 5
    endloop
  endfacet
  facet normal 0.309017 -0.951056 0
    outer loop
      vertex -8.71951 16.0885 0
      vertex -8.71951 16.0885 5
      vertex -9.55 15.8187 5
    endloop
  endfacet
  facet normal 0.309017 -0.951056 0
    outer loop
      vertex -9.55 15.8187 0
      vertex -8.71951 16.0885 0
      vertex -9.55 15.8187 5
    endloop
  endfacet
  facet normal -0.104528 -0.994522 0
    outer loop
      vertex -7.85106 15.9972 0
      vertex -7.85106 15.9972 5
      vertex -8.71951 16.0885 5
    endloop
  endfacet
  facet normal -0.104528 -0.994522 0
    outer loop
      vertex -8.71951 16.0885 0
      vertex -7.85106 15.9972 0
      vertex -8.71951 16.0885 5
    endloop
  endfacet
  facet normal -0.500001 -0.866025 0
    outer loop
      vertex -7.09483 15.5606 0
      vertex -7.09483 15.5606 5
      vertex -7.85106 15.9972 5
    endloop
  endfacet
  facet normal -0.500001 -0.866025 0
    outer loop
      vertex -7.85106 15.9972 0
      vertex -7.09483 15.5606 0
      vertex -7.85106 15.9972 5
    endloop
  endfacet
  facet normal -0.809017 -0.587785 0
    outer loop
      vertex -6.58155 14.8541 5
      vertex -7.09483 15.5606 5
      vertex -6.58155 14.8541 0
    endloop
  endfacet
  facet normal -0.809017 -0.587785 0
    outer loop
      vertex -6.58155 14.8541 0
      vertex -7.09483 15.5606 5
      vertex -7.09483 15.5606 0
    endloop
  endfacet
  facet normal -0.978147 -0.207912 0
    outer loop
      vertex -6.4 14 5
      vertex -6.58155 14.8541 5
      vertex -6.4 14 0
    endloop
  endfacet
  facet normal -0.978147 -0.207912 0
    outer loop
      vertex -6.4 14 0
      vertex -6.58155 14.8541 5
      vertex -6.58155 14.8541 0
    endloop
  endfacet
  facet normal -0.978147 0.207912 0
    outer loop
      vertex -6.4 14 5
      vertex -6.4 14 0
      vertex -6.58155 13.1459 5
    endloop
  endfacet
  facet normal -0.978147 0.207912 0
    outer loop
      vertex -6.58155 13.1459 5
      vertex -6.4 14 0
      vertex -6.58155 13.1459 0
    endloop
  endfacet
  facet normal -0.809017 0.587785 0
    outer loop
      vertex -6.58155 13.1459 5
      vertex -6.58155 13.1459 0
      vertex -7.09483 12.4394 5
    endloop
  endfacet
  facet normal -0.809017 0.587785 0
    outer loop
      vertex -7.09483 12.4394 5
      vertex -6.58155 13.1459 0
      vertex -7.09483 12.4394 0
    endloop
  endfacet
  facet normal -0.500001 0.866025 0
    outer loop
      vertex -7.09483 12.4394 5
      vertex -7.09483 12.4394 0
      vertex -7.85106 12.0028 5
    endloop
  endfacet
  facet normal -0.500001 0.866025 0
    outer loop
      vertex -7.85106 12.0028 5
      vertex -7.09483 12.4394 0
      vertex -7.85106 12.0028 0
    endloop
  endfacet
  facet normal -0.104528 0.994522 0
    outer loop
      vertex -7.85106 12.0028 5
      vertex -7.85106 12.0028 0
      vertex -8.71951 11.9115 5
    endloop
  endfacet
  facet normal -0.104528 0.994522 0
    outer loop
      vertex -8.71951 11.9115 5
      vertex -7.85106 12.0028 0
      vertex -8.71951 11.9115 0
    endloop
  endfacet
  facet normal 0.309017 0.951056 0
    outer loop
      vertex -8.71951 11.9115 5
      vertex -8.71951 11.9115 0
      vertex -9.55 12.1813 5
    endloop
  endfacet
  facet normal 0.309017 0.951056 0
    outer loop
      vertex -9.55 12.1813 5
      vertex -8.71951 11.9115 0
      vertex -9.55 12.1813 0
    endloop
  endfacet
  facet normal 0.66913 0.743145 0
    outer loop
      vertex -9.55 12.1813 5
      vertex -9.55 12.1813 0
      vertex -10.1989 12.7657 5
    endloop
  endfacet
  facet normal 0.66913 0.743145 0
    outer loop
      vertex -10.1989 12.7657 5
      vertex -9.55 12.1813 0
      vertex -10.1989 12.7657 0
    endloop
  endfacet
  facet normal 0.913545 0.406737 0
    outer loop
      vertex -10.5541 13.5634 5
      vertex -10.1989 12.7657 5
      vertex -10.1989 12.7657 0
    endloop
  endfacet
  facet normal 0.913545 0.406737 0
    outer loop
      vertex -10.5541 13.5634 0
      vertex -10.5541 13.5634 5
      vertex -10.1989 12.7657 0
    endloop
  endfacet
  facet normal 1 0 0
    outer loop
      vertex 6.44589 -13.5634 0
      vertex 6.44589 -13.5634 5
      vertex 6.44589 -14.4366 5
    endloop
  endfacet
  facet normal 1 0 0
    outer loop
      vertex 6.44589 -14.4366 0
      vertex 6.44589 -13.5634 0
      vertex 6.44589 -14.4366 5
    endloop
  endfacet
  facet normal 0.913545 -0.406737 0
    outer loop
      vertex 6.80106 -12.7657 0
      vertex 6.80106 -12.7657 5
      vertex 6.44589 -13.5634 5
    endloop
  endfacet
  facet normal 0.913545 -0.406737 0
    outer loop
      vertex 6.44589 -13.5634 0
      vertex 6.80106 -12.7657 0
      vertex 6.44589 -13.5634 5
    endloop
  endfacet
  facet normal 0.66913 -0.743145 0
    outer loop
      vertex 7.45 -12.1813 0
      vertex 7.45 -12.1813 5
      vertex 6.80106 -12.7657 5
    endloop
  endfacet
  facet normal 0.66913 -0.743145 0
    outer loop
      vertex 6.80106 -12.7657 0
      vertex 7.45 -12.1813 0
      vertex 6.80106 -12.7657 5
    endloop
  endfacet
  facet normal 0.309017 -0.951056 0
    outer loop
      vertex 8.28049 -11.9115 0
      vertex 8.28049 -11.9115 5
      vertex 7.45 -12.1813 5
    endloop
  endfacet
  facet normal 0.309017 -0.951056 0
    outer loop
      vertex 7.45 -12.1813 0
      vertex 8.28049 -11.9115 0
      vertex 7.45 -12.1813 5
    endloop
  endfacet
  facet normal -0.104528 -0.994522 0
    outer loop
      vertex 9.14894 -12.0028 0
      vertex 9.14894 -12.0028 5
      vertex 8.28049 -11.9115 5
    endloop
  endfacet
  facet normal -0.104528 -0.994522 0
    outer loop
      vertex 8.28049 -11.9115 0
      vertex 9.14894 -12.0028 0
      vertex 8.28049 -11.9115 5
    endloop
  endfacet
  facet normal -0.500001 -0.866025 0
    outer loop
      vertex 9.90517 -12.4394 0
      vertex 9.90517 -12.4394 5
      vertex 9.14894 -12.0028 5
    endloop
  endfacet
  facet normal -0.500001 -0.866025 0
    outer loop
      vertex 9.14894 -12.0028 0
      vertex 9.90517 -12.4394 0
      vertex 9.14894 -12.0028 5
    endloop
  endfacet
  facet normal -0.809017 -0.587785 0
    outer loop
      vertex 10.4184 -13.1459 5
      vertex 9.90517 -12.4394 5
      vertex 10.4184 -13.1459 0
    endloop
  endfacet
  facet normal -0.809017 -0.587785 0
    outer loop
      vertex 10.4184 -13.1459 0
      vertex 9.90517 -12.4394 5
      vertex 9.90517 -12.4394 0
    endloop
  endfacet
  facet normal -0.978147 -0.207912 0
    outer loop
      vertex 10.6 -14 5
      vertex 10.4184 -13.1459 5
      vertex 10.6 -14 0
    endloop
  endfacet
  facet normal -0.978147 -0.207912 0
    outer loop
      vertex 10.6 -14 0
      vertex 10.4184 -13.1459 5
      vertex 10.4184 -13.1459 0
    endloop
  endfacet
  facet normal -0.978147 0.207912 0
    outer loop
      vertex 10.6 -14 5
      vertex 10.6 -14 0
      vertex 10.4184 -14.8541 5
    endloop
  endfacet
  facet normal -0.978147 0.207912 0
    outer loop
      vertex 10.4184 -14.8541 5
      vertex 10.6 -14 0
      vertex 10.4184 -14.8541 0
    endloop
  endfacet
  facet normal -0.809017 0.587785 0
    outer loop
      vertex 10.4184 -14.8541 5
      vertex 10.4184 -14.8541 0
      vertex 9.90517 -15.5606 5
    endloop
  endfacet
  facet normal -0.809017 0.587785 0
    outer loop
      vertex 9.90517 -15.5606 5
      vertex 10.4184 -14.8541 0
      vertex 9.90517 -15.5606 0
    endloop
  endfacet
  facet normal -0.500001 0.866025 0
    outer loop
      vertex 9.90517 -15.5606 5
      vertex 9.90517 -15.5606 0
      vertex 9.14894 -15.9972 5
    endloop
  endfacet
  facet normal -0.500001 0.866025 0
    outer loop
      vertex 9.14894 -15.9972 5
      vertex 9.90517 -15.5606 0
      vertex 9.14894 -15.9972 0
    endloop
  endfacet
  facet normal -0.104528 0.994522 0
    outer loop
      vertex 9.14894 -15.9972 5
      vertex 9.14894 -15.9972 0
      vertex 8.28049 -16.0885 5
    endloop
  endfacet
  facet normal -0.104528 0.994522 0
    outer loop
      vertex 8.28049 -16.0885 5
      vertex 9.14894 -15.9972 0
      vertex 8.28049 -16.0885 0
    endloop
  endfacet
  facet normal 0.309017 0.951056 0
    outer loop
      vertex 8.28049 -16.0885 5
      vertex 8.28049 -16.0885 0
      vertex 7.45 -15.8187 5
    endloop
  endfacet
  facet normal 0.309017 0.951056 0
    outer loop
      vertex 7.45 -15.8187 5
      vertex 8.28049 -16.0885 0
      vertex 7.45 -15.8187 0
    endloop
  endfacet
  facet normal 0.66913 0.743145 0
    outer loop
      vertex 7.45 -15.8187 5
      vertex 7.45 -15.8187 0
      vertex 6.80106 -15.2343 5
    endloop
  endfacet
  facet normal 0.66913 0.743145 0
    outer loop
      vertex 6.80106 -15.2343 5
      vertex 7.45 -15.8187 0
      vertex 6.80106 -15.2343 0
    endloop
  endfacet
  facet normal 0.913545 0.406737 0
    outer loop
      vertex 6.44589 -14.4366 5
      vertex 6.80106 -15.2343 5
      vertex 6.80106 -15.2343 0
    endloop
  endfacet
  facet normal 0.913545 0.406737 0
    outer loop
      vertex 6.44589 -14.4366 0
      vertex 6.44589 -14.4366 5
      vertex 6.80106 -15.2343 0
    endloop
  endfacet
  facet normal 0.913545 -0.406737 0
    outer loop
      vertex 6.80106 15.2343 0
      vertex 6.80106 15.2343 5
      vertex 6.44589 14.4366 5
    endloop
  endfacet
  facet normal 0.913545 -0.406737 0
    outer loop
      vertex 6.44589 14.4366 0
      vertex 6.80106 15.2343 0
      vertex 6.44589 14.4366 5
    endloop
  endfacet
  facet normal 1 0 0
    outer loop
      vertex 6.44589 14.4366 0
      vertex 6.44589 14.4366 5
      vertex 6.44589 13.5634 5
    endloop
  endfacet
  facet normal 1 0 0
    outer loop
      vertex 6.44589 13.5634 0
      vertex 6.44589 14.4366 0
      vertex 6.44589 13.5634 5
    endloop
  endfacet
  facet normal 0.66913 -0.743145 0
    outer loop
      vertex 7.45 15.8187 0
      vertex 7.45 15.8187 5
      vertex 6.80106 15.2343 5
    endloop
  endfacet
  facet normal 0.66913 -0.743145 0
    outer loop
      vertex 6.80106 15.2343 0
      vertex 7.45 15.8187 0
      vertex 6.80106 15.2343 5
    endloop
  endfacet
  facet normal 0.309017 -0.951056 0
    outer loop
      vertex 8.28049 16.0885 0
      vertex 8.28049 16.0885 5
      vertex 7.45 15.8187 5
    endloop
  endfacet
  facet normal 0.309017 -0.951056 0
    outer loop
      vertex 7.45 15.8187 0
      vertex 8.28049 16.0885 0
      vertex 7.45 15.8187 5
    endloop
  endfacet
  facet normal -0.104528 -0.994522 0
    outer loop
      vertex 9.14894 15.9972 0
      vertex 9.14894 15.9972 5
      vertex 8.28049 16.0885 5
    endloop
  endfacet
  facet normal -0.104528 -0.994522 0
    outer loop
      vertex 8.28049 16.0885 0
      vertex 9.14894 15.9972 0
      vertex 8.28049 16.0885 5
    endloop
  endfacet
  facet normal -0.500001 -0.866025 0
    outer loop
      vertex 9.90517 15.5606 0
      vertex 9.90517 15.5606 5
      vertex 9.14894 15.9972 5
    endloop
  endfacet
  facet normal -0.500001 -0.866025 0
    outer loop
      vertex 9.14894 15.9972 0
      vertex 9.90517 15.5606 0
      vertex 9.14894 15.9972 5
    endloop
  endfacet
  facet normal -0.809017 -0.587785 0
    outer loop
      vertex 10.4184 14.8541 5
      vertex 9.90517 15.5606 5
      vertex 10.4184 14.8541 0
    endloop
  endfacet
  facet normal -0.809017 -0.587785 0
    outer loop
      vertex 10.4184 14.8541 0
      vertex 9.90517 15.5606 5
      vertex 9.90517 15.5606 0
    endloop
  endfacet
  facet normal -0.978147 -0.207912 0
    outer loop
      vertex 10.6 14 5
      vertex 10.4184 14.8541 5
      vertex 10.6 14 0
    endloop
  endfacet
  facet normal -0.978147 -0.207912 0
    outer loop
      vertex 10.6 14 0
      vertex 10.4184 14.8541 5
      vertex 10.4184 14.8541 0
    endloop
  endfacet
  facet normal -0.978147 0.207912 0
    outer loop
      vertex 10.6 14 5
      vertex 10.6 14 0
      vertex 10.4184 13.1459 5
    endloop
  endfacet
  facet normal -0.978147 0.207912 0
    outer loop
      vertex 10.4184 13.1459 5
      vertex 10.6 14 0
      vertex 10.4184 13.1459 0
    endloop
  endfacet
  facet normal -0.809017 0.587785 0
    outer loop
      vertex 10.4184 13.1459 5
      vertex 10.4184 13.1459 0
      vertex 9.90517 12.4394 5
    endloop
  endfacet
  facet normal -0.809017 0.587785 0
    outer loop
      vertex 9.90517 12.4394 5
      vertex 10.4184 13.1459 0
      vertex 9.90517 12.4394 0
    endloop
  endfacet
  facet normal -0.500001 0.866025 0
    outer loop
      vertex 9.90517 12.4394 5
      vertex 9.90517 12.4394 0
      vertex 9.14894 12.0028 5
    endloop
  endfacet
  facet normal -0.500001 0.866025 0
    outer loop
      vertex 9.14894 12.0028 5
      vertex 9.90517 12.4394 0
      vertex 9.14894 12.0028 0
    endloop
  endfacet
  facet normal -0.104528 0.994522 0
    outer loop
      vertex 9.14894 12.0028 5
      vertex 9.14894 12.0028 0
      vertex 8.28049 11.9115 5
    endloop
  endfacet
  facet normal -0.104528 0.994522 0
    outer loop
      vertex 8.28049 11.9115 5
      vertex 9.14894 12.0028 0
      vertex 8.28049 11.9115 0
    endloop
  endfacet
  facet normal 0.309017 0.951056 0
    outer loop
      vertex 8.28049 11.9115 5
      vertex 8.28049 11.9115 0
      vertex 7.45 12.1813 5
    endloop
  endfacet
  facet normal 0.309017 0.951056 0
    outer loop
      vertex 7.45 12.1813 5
      vertex 8.28049 11.9115 0
      vertex 7.45 12.1813 0
    endloop
  endfacet
  facet normal 0.66913 0.743145 0
    outer loop
      vertex 7.45 12.1813 5
      vertex 7.45 12.1813 0
      vertex 6.80106 12.7657 5
    endloop
  endfacet
  facet normal 0.66913 0.743145 0
    outer loop
      vertex 6.80106 12.7657 5
      vertex 7.45 12.1813 0
      vertex 6.80106 12.7657 0
    endloop
  endfacet
  facet normal 0.913545 0.406737 0
    outer loop
      vertex 6.44589 13.5634 5
      vertex 6.80106 12.7657 5
      vertex 6.80106 12.7657 0
    endloop
  endfacet
  facet normal 0.913545 0.406737 0
    outer loop
      vertex 6.44589 13.5634 0
      vertex 6.44589 13.5634 5
      vertex 6.80106 12.7657 0
    endloop
  endfacet
endsolid OpenSCAD_Model
